M48
; DRILL file {KiCad (5.1.6)-1} date 06/17/20 17:47:02
; FORMAT={-:-/ absolute / inch / decimal}
; #@! TF.CreationDate,2020-06-17T17:47:02+02:00
; #@! TF.GenerationSoftware,Kicad,Pcbnew,(5.1.6)-1
; #@! TF.FileFunction,NonPlated,1,2,NPTH
FMAT,2
INCH
T1C0.0670
T2C0.1200
T3C0.1260
T4C0.1570
%
G90
G05
T1
X2.6375Y-2.8125
X2.9875Y-2.8125
X3.3875Y-2.8125
X2.6125Y-3.5625
X3.0125Y-3.5625
X2.2375Y-2.065
X2.6375Y-2.065
X2.9875Y-2.065
X3.3875Y-2.065
X2.2375Y-2.8125
T2
X2.3425Y-3.2875
X3.2825Y-3.2875
T3
X2.0Y-1.31
X3.62Y-1.03
X3.6Y-3.74
X2.02Y-3.72
T4
X3.1875Y-2.8125
X2.3425Y-3.8875
X2.8125Y-3.5625
X3.2825Y-3.8875
X2.4375Y-2.065
X3.1875Y-2.065
X2.4375Y-2.8125
T0
M30
