G04 #@! TF.GenerationSoftware,KiCad,Pcbnew,(5.1.6)-1*
G04 #@! TF.CreationDate,2020-06-17T17:46:59+02:00*
G04 #@! TF.ProjectId,Tutorial,5475746f-7269-4616-9c2e-6b696361645f,rev?*
G04 #@! TF.SameCoordinates,Original*
G04 #@! TF.FileFunction,Copper,L2,Bot*
G04 #@! TF.FilePolarity,Positive*
%FSLAX46Y46*%
G04 Gerber Fmt 4.6, Leading zero omitted, Abs format (unit mm)*
G04 Created by KiCad (PCBNEW (5.1.6)-1) date 2020-06-17 17:46:59*
%MOMM*%
%LPD*%
G01*
G04 APERTURE LIST*
G04 #@! TA.AperFunction,SMDPad,CuDef*
%ADD10R,1.400000X1.200000*%
G04 #@! TD*
G04 #@! TA.AperFunction,SMDPad,CuDef*
%ADD11R,1.500000X0.550000*%
G04 #@! TD*
G04 #@! TA.AperFunction,SMDPad,CuDef*
%ADD12R,0.550000X1.500000*%
G04 #@! TD*
G04 #@! TA.AperFunction,SMDPad,CuDef*
%ADD13R,1.800000X1.100000*%
G04 #@! TD*
G04 #@! TA.AperFunction,ComponentPad*
%ADD14O,1.500000X4.000000*%
G04 #@! TD*
G04 #@! TA.AperFunction,SMDPad,CuDef*
%ADD15R,0.500000X1.400000*%
G04 #@! TD*
G04 #@! TA.AperFunction,SMDPad,CuDef*
%ADD16R,2.350000X0.800000*%
G04 #@! TD*
G04 #@! TA.AperFunction,Conductor*
%ADD17R,2.500000X0.500000*%
G04 #@! TD*
G04 #@! TA.AperFunction,ComponentPad*
%ADD18C,1.600000*%
G04 #@! TD*
G04 #@! TA.AperFunction,ComponentPad*
%ADD19R,1.600000X1.600000*%
G04 #@! TD*
G04 #@! TA.AperFunction,SMDPad,CuDef*
%ADD20R,1.200000X1.200000*%
G04 #@! TD*
G04 #@! TA.AperFunction,ViaPad*
%ADD21C,0.800000*%
G04 #@! TD*
G04 #@! TA.AperFunction,Conductor*
%ADD22C,0.250000*%
G04 #@! TD*
G04 #@! TA.AperFunction,Conductor*
%ADD23C,0.254000*%
G04 #@! TD*
G04 APERTURE END LIST*
G04 #@! TO.P,F1,2*
G04 #@! TO.N,VCC*
G04 #@! TA.AperFunction,SMDPad,CuDef*
G36*
G01*
X67929000Y-42301000D02*
X67929000Y-43551000D01*
G75*
G02*
X67679000Y-43801000I-250000J0D01*
G01*
X66929000Y-43801000D01*
G75*
G02*
X66679000Y-43551000I0J250000D01*
G01*
X66679000Y-42301000D01*
G75*
G02*
X66929000Y-42051000I250000J0D01*
G01*
X67679000Y-42051000D01*
G75*
G02*
X67929000Y-42301000I0J-250000D01*
G01*
G37*
G04 #@! TD.AperFunction*
G04 #@! TO.P,F1,1*
G04 #@! TO.N,Net-(F1-Pad1)*
G04 #@! TA.AperFunction,SMDPad,CuDef*
G36*
G01*
X70729000Y-42301000D02*
X70729000Y-43551000D01*
G75*
G02*
X70479000Y-43801000I-250000J0D01*
G01*
X69729000Y-43801000D01*
G75*
G02*
X69479000Y-43551000I0J250000D01*
G01*
X69479000Y-42301000D01*
G75*
G02*
X69729000Y-42051000I250000J0D01*
G01*
X70479000Y-42051000D01*
G75*
G02*
X70729000Y-42301000I0J-250000D01*
G01*
G37*
G04 #@! TD.AperFunction*
G04 #@! TD*
D10*
G04 #@! TO.P,Y2,4*
G04 #@! TO.N,GND*
X77175000Y-24306000D03*
G04 #@! TO.P,Y2,3*
G04 #@! TO.N,Net-(C1-Pad1)*
X79375000Y-24306000D03*
G04 #@! TO.P,Y2,2*
G04 #@! TO.N,GND*
X79375000Y-22606000D03*
G04 #@! TO.P,Y2,1*
G04 #@! TO.N,Net-(C2-Pad1)*
X77175000Y-22606000D03*
G04 #@! TD*
D11*
G04 #@! TO.P,U1,1*
G04 #@! TO.N,Net-(U1-Pad1)*
X72532000Y-39369500D03*
G04 #@! TO.P,U1,2*
G04 #@! TO.N,Net-(F1-Pad1)*
X72532000Y-38569500D03*
G04 #@! TO.P,U1,3*
G04 #@! TO.N,Net-(R3-Pad1)*
X72532000Y-37769500D03*
G04 #@! TO.P,U1,4*
G04 #@! TO.N,Net-(R4-Pad1)*
X72532000Y-36969500D03*
G04 #@! TO.P,U1,5*
G04 #@! TO.N,GND*
X72532000Y-36169500D03*
G04 #@! TO.P,U1,6*
G04 #@! TO.N,Net-(C8-Pad1)*
X72532000Y-35369500D03*
G04 #@! TO.P,U1,7*
G04 #@! TO.N,VCC*
X72532000Y-34569500D03*
G04 #@! TO.P,U1,8*
G04 #@! TO.N,Net-(U1-Pad8)*
X72532000Y-33769500D03*
G04 #@! TO.P,U1,9*
G04 #@! TO.N,Net-(U1-Pad9)*
X72532000Y-32969500D03*
G04 #@! TO.P,U1,10*
G04 #@! TO.N,Net-(U1-Pad10)*
X72532000Y-32169500D03*
G04 #@! TO.P,U1,11*
G04 #@! TO.N,Net-(U1-Pad11)*
X72532000Y-31369500D03*
D12*
G04 #@! TO.P,U1,12*
G04 #@! TO.N,Net-(U1-Pad12)*
X74232000Y-29669500D03*
G04 #@! TO.P,U1,13*
G04 #@! TO.N,Net-(R1-Pad1)*
X75032000Y-29669500D03*
G04 #@! TO.P,U1,14*
G04 #@! TO.N,VCC*
X75832000Y-29669500D03*
G04 #@! TO.P,U1,15*
G04 #@! TO.N,GND*
X76632000Y-29669500D03*
G04 #@! TO.P,U1,16*
G04 #@! TO.N,Net-(C2-Pad1)*
X77432000Y-29669500D03*
G04 #@! TO.P,U1,17*
G04 #@! TO.N,Net-(C1-Pad1)*
X78232000Y-29669500D03*
G04 #@! TO.P,U1,18*
G04 #@! TO.N,Net-(U1-Pad18)*
X79032000Y-29669500D03*
G04 #@! TO.P,U1,19*
G04 #@! TO.N,Net-(U1-Pad19)*
X79832000Y-29669500D03*
G04 #@! TO.P,U1,20*
G04 #@! TO.N,Net-(U1-Pad20)*
X80632000Y-29669500D03*
G04 #@! TO.P,U1,21*
G04 #@! TO.N,Net-(U1-Pad21)*
X81432000Y-29669500D03*
G04 #@! TO.P,U1,22*
G04 #@! TO.N,Net-(U1-Pad22)*
X82232000Y-29669500D03*
D11*
G04 #@! TO.P,U1,23*
G04 #@! TO.N,GND*
X83932000Y-31369500D03*
G04 #@! TO.P,U1,24*
G04 #@! TO.N,VCC*
X83932000Y-32169500D03*
G04 #@! TO.P,U1,25*
G04 #@! TO.N,Net-(U1-Pad25)*
X83932000Y-32969500D03*
G04 #@! TO.P,U1,26*
G04 #@! TO.N,Net-(U1-Pad26)*
X83932000Y-33769500D03*
G04 #@! TO.P,U1,27*
G04 #@! TO.N,Net-(U1-Pad27)*
X83932000Y-34569500D03*
G04 #@! TO.P,U1,28*
G04 #@! TO.N,Net-(U1-Pad28)*
X83932000Y-35369500D03*
G04 #@! TO.P,U1,29*
G04 #@! TO.N,Net-(U1-Pad29)*
X83932000Y-36169500D03*
G04 #@! TO.P,U1,30*
G04 #@! TO.N,Net-(U1-Pad30)*
X83932000Y-36969500D03*
G04 #@! TO.P,U1,31*
G04 #@! TO.N,Net-(U1-Pad31)*
X83932000Y-37769500D03*
G04 #@! TO.P,U1,32*
G04 #@! TO.N,Net-(U1-Pad32)*
X83932000Y-38569500D03*
G04 #@! TO.P,U1,33*
G04 #@! TO.N,Net-(R2-Pad2)*
X83932000Y-39369500D03*
D12*
G04 #@! TO.P,U1,34*
G04 #@! TO.N,VCC*
X82232000Y-41069500D03*
G04 #@! TO.P,U1,35*
G04 #@! TO.N,GND*
X81432000Y-41069500D03*
G04 #@! TO.P,U1,36*
G04 #@! TO.N,Net-(U1-Pad36)*
X80632000Y-41069500D03*
G04 #@! TO.P,U1,37*
G04 #@! TO.N,row1*
X79832000Y-41069500D03*
G04 #@! TO.P,U1,38*
G04 #@! TO.N,row0*
X79032000Y-41069500D03*
G04 #@! TO.P,U1,39*
G04 #@! TO.N,col1*
X78232000Y-41069500D03*
G04 #@! TO.P,U1,40*
G04 #@! TO.N,row2*
X77432000Y-41069500D03*
G04 #@! TO.P,U1,41*
G04 #@! TO.N,col0*
X76632000Y-41069500D03*
G04 #@! TO.P,U1,42*
G04 #@! TO.N,Net-(U1-Pad42)*
X75832000Y-41069500D03*
G04 #@! TO.P,U1,43*
G04 #@! TO.N,GND*
X75032000Y-41069500D03*
G04 #@! TO.P,U1,44*
G04 #@! TO.N,VCC*
X74232000Y-41069500D03*
G04 #@! TD*
D13*
G04 #@! TO.P,SW1,4*
G04 #@! TO.N,N/C*
X55447000Y-36504000D03*
G04 #@! TO.P,SW1,3*
X61647000Y-40204000D03*
G04 #@! TO.P,SW1,2*
G04 #@! TO.N,Net-(R1-Pad1)*
X55447000Y-40204000D03*
G04 #@! TO.P,SW1,1*
G04 #@! TO.N,GND*
X61647000Y-36504000D03*
G04 #@! TD*
G04 #@! TO.P,R4,2*
G04 #@! TO.N,Net-(J1-Pad3)*
G04 #@! TA.AperFunction,SMDPad,CuDef*
G36*
G01*
X60908250Y-29221250D02*
X59995750Y-29221250D01*
G75*
G02*
X59752000Y-28977500I0J243750D01*
G01*
X59752000Y-28490000D01*
G75*
G02*
X59995750Y-28246250I243750J0D01*
G01*
X60908250Y-28246250D01*
G75*
G02*
X61152000Y-28490000I0J-243750D01*
G01*
X61152000Y-28977500D01*
G75*
G02*
X60908250Y-29221250I-243750J0D01*
G01*
G37*
G04 #@! TD.AperFunction*
G04 #@! TO.P,R4,1*
G04 #@! TO.N,Net-(R4-Pad1)*
G04 #@! TA.AperFunction,SMDPad,CuDef*
G36*
G01*
X60908250Y-31096250D02*
X59995750Y-31096250D01*
G75*
G02*
X59752000Y-30852500I0J243750D01*
G01*
X59752000Y-30365000D01*
G75*
G02*
X59995750Y-30121250I243750J0D01*
G01*
X60908250Y-30121250D01*
G75*
G02*
X61152000Y-30365000I0J-243750D01*
G01*
X61152000Y-30852500D01*
G75*
G02*
X60908250Y-31096250I-243750J0D01*
G01*
G37*
G04 #@! TD.AperFunction*
G04 #@! TD*
G04 #@! TO.P,R3,2*
G04 #@! TO.N,Net-(J1-Pad2)*
G04 #@! TA.AperFunction,SMDPad,CuDef*
G36*
G01*
X56082250Y-29253000D02*
X55169750Y-29253000D01*
G75*
G02*
X54926000Y-29009250I0J243750D01*
G01*
X54926000Y-28521750D01*
G75*
G02*
X55169750Y-28278000I243750J0D01*
G01*
X56082250Y-28278000D01*
G75*
G02*
X56326000Y-28521750I0J-243750D01*
G01*
X56326000Y-29009250D01*
G75*
G02*
X56082250Y-29253000I-243750J0D01*
G01*
G37*
G04 #@! TD.AperFunction*
G04 #@! TO.P,R3,1*
G04 #@! TO.N,Net-(R3-Pad1)*
G04 #@! TA.AperFunction,SMDPad,CuDef*
G36*
G01*
X56082250Y-31128000D02*
X55169750Y-31128000D01*
G75*
G02*
X54926000Y-30884250I0J243750D01*
G01*
X54926000Y-30396750D01*
G75*
G02*
X55169750Y-30153000I243750J0D01*
G01*
X56082250Y-30153000D01*
G75*
G02*
X56326000Y-30396750I0J-243750D01*
G01*
X56326000Y-30884250D01*
G75*
G02*
X56082250Y-31128000I-243750J0D01*
G01*
G37*
G04 #@! TD.AperFunction*
G04 #@! TD*
G04 #@! TO.P,R2,2*
G04 #@! TO.N,Net-(R2-Pad2)*
G04 #@! TA.AperFunction,SMDPad,CuDef*
G36*
G01*
X87300750Y-35834500D02*
X88213250Y-35834500D01*
G75*
G02*
X88457000Y-36078250I0J-243750D01*
G01*
X88457000Y-36565750D01*
G75*
G02*
X88213250Y-36809500I-243750J0D01*
G01*
X87300750Y-36809500D01*
G75*
G02*
X87057000Y-36565750I0J243750D01*
G01*
X87057000Y-36078250D01*
G75*
G02*
X87300750Y-35834500I243750J0D01*
G01*
G37*
G04 #@! TD.AperFunction*
G04 #@! TO.P,R2,1*
G04 #@! TO.N,GND*
G04 #@! TA.AperFunction,SMDPad,CuDef*
G36*
G01*
X87300750Y-33959500D02*
X88213250Y-33959500D01*
G75*
G02*
X88457000Y-34203250I0J-243750D01*
G01*
X88457000Y-34690750D01*
G75*
G02*
X88213250Y-34934500I-243750J0D01*
G01*
X87300750Y-34934500D01*
G75*
G02*
X87057000Y-34690750I0J243750D01*
G01*
X87057000Y-34203250D01*
G75*
G02*
X87300750Y-33959500I243750J0D01*
G01*
G37*
G04 #@! TD.AperFunction*
G04 #@! TD*
G04 #@! TO.P,R1,2*
G04 #@! TO.N,VCC*
G04 #@! TA.AperFunction,SMDPad,CuDef*
G36*
G01*
X68250750Y-28849500D02*
X69163250Y-28849500D01*
G75*
G02*
X69407000Y-29093250I0J-243750D01*
G01*
X69407000Y-29580750D01*
G75*
G02*
X69163250Y-29824500I-243750J0D01*
G01*
X68250750Y-29824500D01*
G75*
G02*
X68007000Y-29580750I0J243750D01*
G01*
X68007000Y-29093250D01*
G75*
G02*
X68250750Y-28849500I243750J0D01*
G01*
G37*
G04 #@! TD.AperFunction*
G04 #@! TO.P,R1,1*
G04 #@! TO.N,Net-(R1-Pad1)*
G04 #@! TA.AperFunction,SMDPad,CuDef*
G36*
G01*
X68250750Y-26974500D02*
X69163250Y-26974500D01*
G75*
G02*
X69407000Y-27218250I0J-243750D01*
G01*
X69407000Y-27705750D01*
G75*
G02*
X69163250Y-27949500I-243750J0D01*
G01*
X68250750Y-27949500D01*
G75*
G02*
X68007000Y-27705750I0J243750D01*
G01*
X68007000Y-27218250D01*
G75*
G02*
X68250750Y-26974500I243750J0D01*
G01*
G37*
G04 #@! TD.AperFunction*
G04 #@! TD*
G04 #@! TO.P,K5,2*
G04 #@! TO.N,Net-(D5-Pad2)*
G04 #@! TA.AperFunction,ComponentPad*
G36*
G01*
X72690670Y-85901809D02*
X72730119Y-85323153D01*
G75*
G02*
X74062243Y-84161067I1247105J-85019D01*
G01*
X74062243Y-84161067D01*
G75*
G02*
X75224329Y-85493191I-85019J-1247105D01*
G01*
X75184881Y-86071847D01*
G75*
G02*
X73852757Y-87233933I-1247105J85019D01*
G01*
X73852757Y-87233933D01*
G75*
G02*
X72690671Y-85901809I85019J1247105D01*
G01*
G37*
G04 #@! TD.AperFunction*
G04 #@! TO.P,K5,1*
G04 #@! TO.N,col1*
G04 #@! TA.AperFunction,ComponentPad*
G36*
G01*
X66523799Y-87244691D02*
X67732723Y-85347060D01*
G75*
G02*
X69458587Y-84964446I1054239J-671625D01*
G01*
X69458587Y-84964446D01*
G75*
G02*
X69841201Y-86690310I-671625J-1054239D01*
G01*
X68632277Y-88587940D01*
G75*
G02*
X66906413Y-88970554I-1054239J671625D01*
G01*
X66906413Y-88970554D01*
G75*
G02*
X66523799Y-87244690I671625J1054239D01*
G01*
G37*
G04 #@! TD.AperFunction*
G04 #@! TD*
G04 #@! TO.P,K4,2*
G04 #@! TO.N,Net-(D4-Pad2)*
G04 #@! TA.AperFunction,ComponentPad*
G36*
G01*
X82215670Y-66851809D02*
X82255119Y-66273153D01*
G75*
G02*
X83587243Y-65111067I1247105J-85019D01*
G01*
X83587243Y-65111067D01*
G75*
G02*
X84749329Y-66443191I-85019J-1247105D01*
G01*
X84709881Y-67021847D01*
G75*
G02*
X83377757Y-68183933I-1247105J85019D01*
G01*
X83377757Y-68183933D01*
G75*
G02*
X82215671Y-66851809I85019J1247105D01*
G01*
G37*
G04 #@! TD.AperFunction*
G04 #@! TO.P,K4,1*
G04 #@! TO.N,col1*
G04 #@! TA.AperFunction,ComponentPad*
G36*
G01*
X76048799Y-68194691D02*
X77257723Y-66297060D01*
G75*
G02*
X78983587Y-65914446I1054239J-671625D01*
G01*
X78983587Y-65914446D01*
G75*
G02*
X79366201Y-67640310I-671625J-1054239D01*
G01*
X78157277Y-69537940D01*
G75*
G02*
X76431413Y-69920554I-1054239J671625D01*
G01*
X76431413Y-69920554D01*
G75*
G02*
X76048799Y-68194690I671625J1054239D01*
G01*
G37*
G04 #@! TD.AperFunction*
G04 #@! TD*
G04 #@! TO.P,K3,2*
G04 #@! TO.N,Net-(D3-Pad2)*
G04 #@! TA.AperFunction,ComponentPad*
G36*
G01*
X63165670Y-66851809D02*
X63205119Y-66273153D01*
G75*
G02*
X64537243Y-65111067I1247105J-85019D01*
G01*
X64537243Y-65111067D01*
G75*
G02*
X65699329Y-66443191I-85019J-1247105D01*
G01*
X65659881Y-67021847D01*
G75*
G02*
X64327757Y-68183933I-1247105J85019D01*
G01*
X64327757Y-68183933D01*
G75*
G02*
X63165671Y-66851809I85019J1247105D01*
G01*
G37*
G04 #@! TD.AperFunction*
G04 #@! TO.P,K3,1*
G04 #@! TO.N,col0*
G04 #@! TA.AperFunction,ComponentPad*
G36*
G01*
X56998799Y-68194691D02*
X58207723Y-66297060D01*
G75*
G02*
X59933587Y-65914446I1054239J-671625D01*
G01*
X59933587Y-65914446D01*
G75*
G02*
X60316201Y-67640310I-671625J-1054239D01*
G01*
X59107277Y-69537940D01*
G75*
G02*
X57381413Y-69920554I-1054239J671625D01*
G01*
X57381413Y-69920554D01*
G75*
G02*
X56998799Y-68194690I671625J1054239D01*
G01*
G37*
G04 #@! TD.AperFunction*
G04 #@! TD*
G04 #@! TO.P,K2,2*
G04 #@! TO.N,Net-(D2-Pad2)*
G04 #@! TA.AperFunction,ComponentPad*
G36*
G01*
X82215670Y-47865309D02*
X82255119Y-47286653D01*
G75*
G02*
X83587243Y-46124567I1247105J-85019D01*
G01*
X83587243Y-46124567D01*
G75*
G02*
X84749329Y-47456691I-85019J-1247105D01*
G01*
X84709881Y-48035347D01*
G75*
G02*
X83377757Y-49197433I-1247105J85019D01*
G01*
X83377757Y-49197433D01*
G75*
G02*
X82215671Y-47865309I85019J1247105D01*
G01*
G37*
G04 #@! TD.AperFunction*
G04 #@! TO.P,K2,1*
G04 #@! TO.N,col1*
G04 #@! TA.AperFunction,ComponentPad*
G36*
G01*
X76048799Y-49208191D02*
X77257723Y-47310560D01*
G75*
G02*
X78983587Y-46927946I1054239J-671625D01*
G01*
X78983587Y-46927946D01*
G75*
G02*
X79366201Y-48653810I-671625J-1054239D01*
G01*
X78157277Y-50551440D01*
G75*
G02*
X76431413Y-50934054I-1054239J671625D01*
G01*
X76431413Y-50934054D01*
G75*
G02*
X76048799Y-49208190I671625J1054239D01*
G01*
G37*
G04 #@! TD.AperFunction*
G04 #@! TD*
G04 #@! TO.P,K1,2*
G04 #@! TO.N,Net-(D1-Pad2)*
G04 #@! TA.AperFunction,ComponentPad*
G36*
G01*
X63165670Y-47865309D02*
X63205119Y-47286653D01*
G75*
G02*
X64537243Y-46124567I1247105J-85019D01*
G01*
X64537243Y-46124567D01*
G75*
G02*
X65699329Y-47456691I-85019J-1247105D01*
G01*
X65659881Y-48035347D01*
G75*
G02*
X64327757Y-49197433I-1247105J85019D01*
G01*
X64327757Y-49197433D01*
G75*
G02*
X63165671Y-47865309I85019J1247105D01*
G01*
G37*
G04 #@! TD.AperFunction*
G04 #@! TO.P,K1,1*
G04 #@! TO.N,col0*
G04 #@! TA.AperFunction,ComponentPad*
G36*
G01*
X56998799Y-49208191D02*
X58207723Y-47310560D01*
G75*
G02*
X59933587Y-46927946I1054239J-671625D01*
G01*
X59933587Y-46927946D01*
G75*
G02*
X60316201Y-48653810I-671625J-1054239D01*
G01*
X59107277Y-50551440D01*
G75*
G02*
X57381413Y-50934054I-1054239J671625D01*
G01*
X57381413Y-50934054D01*
G75*
G02*
X56998799Y-49208190I671625J1054239D01*
G01*
G37*
G04 #@! TD.AperFunction*
G04 #@! TD*
D14*
G04 #@! TO.P,J1,6*
G04 #@! TO.N,GND*
X62159000Y-23381000D03*
X54859000Y-23381000D03*
D15*
G04 #@! TO.P,J1,5*
X60109000Y-25781000D03*
G04 #@! TO.P,J1,4*
G04 #@! TO.N,Net-(J1-Pad4)*
X59309000Y-25781000D03*
G04 #@! TO.P,J1,3*
G04 #@! TO.N,Net-(J1-Pad3)*
X58509000Y-25781000D03*
G04 #@! TO.P,J1,2*
G04 #@! TO.N,Net-(J1-Pad2)*
X57709000Y-25781000D03*
G04 #@! TO.P,J1,1*
G04 #@! TO.N,VCC*
X56909000Y-25781000D03*
D16*
G04 #@! TO.P,J1,6*
G04 #@! TO.N,GND*
X55834000Y-20581000D03*
X61184000Y-20581000D03*
G04 #@! TD*
D17*
G04 #@! TO.N,Net-(D5-Pad2)*
G04 #@! TO.C,D5*
X74137500Y-95250000D03*
G04 #@! TO.N,row2*
X68737500Y-95250000D03*
D18*
G04 #@! TD*
G04 #@! TO.P,D5,2*
G04 #@! TO.N,Net-(D5-Pad2)*
X75337500Y-95250000D03*
D19*
G04 #@! TO.P,D5,1*
G04 #@! TO.N,row2*
X67537500Y-95250000D03*
D20*
X69862500Y-95250000D03*
G04 #@! TO.P,D5,2*
G04 #@! TO.N,Net-(D5-Pad2)*
X73012500Y-95250000D03*
G04 #@! TD*
D17*
G04 #@! TO.N,Net-(D4-Pad2)*
G04 #@! TO.C,D4*
X83662500Y-76200000D03*
G04 #@! TO.N,row1*
X78262500Y-76200000D03*
D18*
G04 #@! TD*
G04 #@! TO.P,D4,2*
G04 #@! TO.N,Net-(D4-Pad2)*
X84862500Y-76200000D03*
D19*
G04 #@! TO.P,D4,1*
G04 #@! TO.N,row1*
X77062500Y-76200000D03*
D20*
X79387500Y-76200000D03*
G04 #@! TO.P,D4,2*
G04 #@! TO.N,Net-(D4-Pad2)*
X82537500Y-76200000D03*
G04 #@! TD*
D17*
G04 #@! TO.N,Net-(D3-Pad2)*
G04 #@! TO.C,D3*
X64612500Y-76200000D03*
G04 #@! TO.N,row1*
X59212500Y-76200000D03*
D18*
G04 #@! TD*
G04 #@! TO.P,D3,2*
G04 #@! TO.N,Net-(D3-Pad2)*
X65812500Y-76200000D03*
D19*
G04 #@! TO.P,D3,1*
G04 #@! TO.N,row1*
X58012500Y-76200000D03*
D20*
X60337500Y-76200000D03*
G04 #@! TO.P,D3,2*
G04 #@! TO.N,Net-(D3-Pad2)*
X63487500Y-76200000D03*
G04 #@! TD*
D17*
G04 #@! TO.N,Net-(D2-Pad2)*
G04 #@! TO.C,D2*
X83662500Y-57150000D03*
G04 #@! TO.N,row0*
X78262500Y-57150000D03*
D18*
G04 #@! TD*
G04 #@! TO.P,D2,2*
G04 #@! TO.N,Net-(D2-Pad2)*
X84862500Y-57150000D03*
D19*
G04 #@! TO.P,D2,1*
G04 #@! TO.N,row0*
X77062500Y-57150000D03*
D20*
X79387500Y-57150000D03*
G04 #@! TO.P,D2,2*
G04 #@! TO.N,Net-(D2-Pad2)*
X82537500Y-57150000D03*
G04 #@! TD*
D17*
G04 #@! TO.N,Net-(D1-Pad2)*
G04 #@! TO.C,D1*
X64612500Y-57150000D03*
G04 #@! TO.N,row0*
X59212500Y-57150000D03*
D18*
G04 #@! TD*
G04 #@! TO.P,D1,2*
G04 #@! TO.N,Net-(D1-Pad2)*
X65812500Y-57150000D03*
D19*
G04 #@! TO.P,D1,1*
G04 #@! TO.N,row0*
X58012500Y-57150000D03*
D20*
X60337500Y-57150000D03*
G04 #@! TO.P,D1,2*
G04 #@! TO.N,Net-(D1-Pad2)*
X63487500Y-57150000D03*
G04 #@! TD*
G04 #@! TO.P,C8,2*
G04 #@! TO.N,GND*
G04 #@! TA.AperFunction,SMDPad,CuDef*
G36*
G01*
X69163250Y-35539500D02*
X68250750Y-35539500D01*
G75*
G02*
X68007000Y-35295750I0J243750D01*
G01*
X68007000Y-34808250D01*
G75*
G02*
X68250750Y-34564500I243750J0D01*
G01*
X69163250Y-34564500D01*
G75*
G02*
X69407000Y-34808250I0J-243750D01*
G01*
X69407000Y-35295750D01*
G75*
G02*
X69163250Y-35539500I-243750J0D01*
G01*
G37*
G04 #@! TD.AperFunction*
G04 #@! TO.P,C8,1*
G04 #@! TO.N,Net-(C8-Pad1)*
G04 #@! TA.AperFunction,SMDPad,CuDef*
G36*
G01*
X69163250Y-37414500D02*
X68250750Y-37414500D01*
G75*
G02*
X68007000Y-37170750I0J243750D01*
G01*
X68007000Y-36683250D01*
G75*
G02*
X68250750Y-36439500I243750J0D01*
G01*
X69163250Y-36439500D01*
G75*
G02*
X69407000Y-36683250I0J-243750D01*
G01*
X69407000Y-37170750D01*
G75*
G02*
X69163250Y-37414500I-243750J0D01*
G01*
G37*
G04 #@! TD.AperFunction*
G04 #@! TD*
G04 #@! TO.P,C7,2*
G04 #@! TO.N,GND*
G04 #@! TA.AperFunction,SMDPad,CuDef*
G36*
G01*
X69163250Y-39349500D02*
X68250750Y-39349500D01*
G75*
G02*
X68007000Y-39105750I0J243750D01*
G01*
X68007000Y-38618250D01*
G75*
G02*
X68250750Y-38374500I243750J0D01*
G01*
X69163250Y-38374500D01*
G75*
G02*
X69407000Y-38618250I0J-243750D01*
G01*
X69407000Y-39105750D01*
G75*
G02*
X69163250Y-39349500I-243750J0D01*
G01*
G37*
G04 #@! TD.AperFunction*
G04 #@! TO.P,C7,1*
G04 #@! TO.N,VCC*
G04 #@! TA.AperFunction,SMDPad,CuDef*
G36*
G01*
X69163250Y-41224500D02*
X68250750Y-41224500D01*
G75*
G02*
X68007000Y-40980750I0J243750D01*
G01*
X68007000Y-40493250D01*
G75*
G02*
X68250750Y-40249500I243750J0D01*
G01*
X69163250Y-40249500D01*
G75*
G02*
X69407000Y-40493250I0J-243750D01*
G01*
X69407000Y-40980750D01*
G75*
G02*
X69163250Y-41224500I-243750J0D01*
G01*
G37*
G04 #@! TD.AperFunction*
G04 #@! TD*
G04 #@! TO.P,C6,2*
G04 #@! TO.N,GND*
G04 #@! TA.AperFunction,SMDPad,CuDef*
G36*
G01*
X87300750Y-31057000D02*
X88213250Y-31057000D01*
G75*
G02*
X88457000Y-31300750I0J-243750D01*
G01*
X88457000Y-31788250D01*
G75*
G02*
X88213250Y-32032000I-243750J0D01*
G01*
X87300750Y-32032000D01*
G75*
G02*
X87057000Y-31788250I0J243750D01*
G01*
X87057000Y-31300750D01*
G75*
G02*
X87300750Y-31057000I243750J0D01*
G01*
G37*
G04 #@! TD.AperFunction*
G04 #@! TO.P,C6,1*
G04 #@! TO.N,VCC*
G04 #@! TA.AperFunction,SMDPad,CuDef*
G36*
G01*
X87300750Y-29182000D02*
X88213250Y-29182000D01*
G75*
G02*
X88457000Y-29425750I0J-243750D01*
G01*
X88457000Y-29913250D01*
G75*
G02*
X88213250Y-30157000I-243750J0D01*
G01*
X87300750Y-30157000D01*
G75*
G02*
X87057000Y-29913250I0J243750D01*
G01*
X87057000Y-29425750D01*
G75*
G02*
X87300750Y-29182000I243750J0D01*
G01*
G37*
G04 #@! TD.AperFunction*
G04 #@! TD*
G04 #@! TO.P,C5,2*
G04 #@! TO.N,GND*
G04 #@! TA.AperFunction,SMDPad,CuDef*
G36*
G01*
X69163250Y-31759500D02*
X68250750Y-31759500D01*
G75*
G02*
X68007000Y-31515750I0J243750D01*
G01*
X68007000Y-31028250D01*
G75*
G02*
X68250750Y-30784500I243750J0D01*
G01*
X69163250Y-30784500D01*
G75*
G02*
X69407000Y-31028250I0J-243750D01*
G01*
X69407000Y-31515750D01*
G75*
G02*
X69163250Y-31759500I-243750J0D01*
G01*
G37*
G04 #@! TD.AperFunction*
G04 #@! TO.P,C5,1*
G04 #@! TO.N,VCC*
G04 #@! TA.AperFunction,SMDPad,CuDef*
G36*
G01*
X69163250Y-33634500D02*
X68250750Y-33634500D01*
G75*
G02*
X68007000Y-33390750I0J243750D01*
G01*
X68007000Y-32903250D01*
G75*
G02*
X68250750Y-32659500I243750J0D01*
G01*
X69163250Y-32659500D01*
G75*
G02*
X69407000Y-32903250I0J-243750D01*
G01*
X69407000Y-33390750D01*
G75*
G02*
X69163250Y-33634500I-243750J0D01*
G01*
G37*
G04 #@! TD.AperFunction*
G04 #@! TD*
G04 #@! TO.P,C4,2*
G04 #@! TO.N,GND*
G04 #@! TA.AperFunction,SMDPad,CuDef*
G36*
G01*
X87300750Y-40884500D02*
X88213250Y-40884500D01*
G75*
G02*
X88457000Y-41128250I0J-243750D01*
G01*
X88457000Y-41615750D01*
G75*
G02*
X88213250Y-41859500I-243750J0D01*
G01*
X87300750Y-41859500D01*
G75*
G02*
X87057000Y-41615750I0J243750D01*
G01*
X87057000Y-41128250D01*
G75*
G02*
X87300750Y-40884500I243750J0D01*
G01*
G37*
G04 #@! TD.AperFunction*
G04 #@! TO.P,C4,1*
G04 #@! TO.N,VCC*
G04 #@! TA.AperFunction,SMDPad,CuDef*
G36*
G01*
X87300750Y-39009500D02*
X88213250Y-39009500D01*
G75*
G02*
X88457000Y-39253250I0J-243750D01*
G01*
X88457000Y-39740750D01*
G75*
G02*
X88213250Y-39984500I-243750J0D01*
G01*
X87300750Y-39984500D01*
G75*
G02*
X87057000Y-39740750I0J243750D01*
G01*
X87057000Y-39253250D01*
G75*
G02*
X87300750Y-39009500I243750J0D01*
G01*
G37*
G04 #@! TD.AperFunction*
G04 #@! TD*
G04 #@! TO.P,C3,2*
G04 #@! TO.N,GND*
G04 #@! TA.AperFunction,SMDPad,CuDef*
G36*
G01*
X69163250Y-23950750D02*
X68250750Y-23950750D01*
G75*
G02*
X68007000Y-23707000I0J243750D01*
G01*
X68007000Y-23219500D01*
G75*
G02*
X68250750Y-22975750I243750J0D01*
G01*
X69163250Y-22975750D01*
G75*
G02*
X69407000Y-23219500I0J-243750D01*
G01*
X69407000Y-23707000D01*
G75*
G02*
X69163250Y-23950750I-243750J0D01*
G01*
G37*
G04 #@! TD.AperFunction*
G04 #@! TO.P,C3,1*
G04 #@! TO.N,VCC*
G04 #@! TA.AperFunction,SMDPad,CuDef*
G36*
G01*
X69163250Y-25825750D02*
X68250750Y-25825750D01*
G75*
G02*
X68007000Y-25582000I0J243750D01*
G01*
X68007000Y-25094500D01*
G75*
G02*
X68250750Y-24850750I243750J0D01*
G01*
X69163250Y-24850750D01*
G75*
G02*
X69407000Y-25094500I0J-243750D01*
G01*
X69407000Y-25582000D01*
G75*
G02*
X69163250Y-25825750I-243750J0D01*
G01*
G37*
G04 #@! TD.AperFunction*
G04 #@! TD*
G04 #@! TO.P,C2,2*
G04 #@! TO.N,GND*
G04 #@! TA.AperFunction,SMDPad,CuDef*
G36*
G01*
X73838750Y-23896500D02*
X74751250Y-23896500D01*
G75*
G02*
X74995000Y-24140250I0J-243750D01*
G01*
X74995000Y-24627750D01*
G75*
G02*
X74751250Y-24871500I-243750J0D01*
G01*
X73838750Y-24871500D01*
G75*
G02*
X73595000Y-24627750I0J243750D01*
G01*
X73595000Y-24140250D01*
G75*
G02*
X73838750Y-23896500I243750J0D01*
G01*
G37*
G04 #@! TD.AperFunction*
G04 #@! TO.P,C2,1*
G04 #@! TO.N,Net-(C2-Pad1)*
G04 #@! TA.AperFunction,SMDPad,CuDef*
G36*
G01*
X73838750Y-22021500D02*
X74751250Y-22021500D01*
G75*
G02*
X74995000Y-22265250I0J-243750D01*
G01*
X74995000Y-22752750D01*
G75*
G02*
X74751250Y-22996500I-243750J0D01*
G01*
X73838750Y-22996500D01*
G75*
G02*
X73595000Y-22752750I0J243750D01*
G01*
X73595000Y-22265250D01*
G75*
G02*
X73838750Y-22021500I243750J0D01*
G01*
G37*
G04 #@! TD.AperFunction*
G04 #@! TD*
G04 #@! TO.P,C1,2*
G04 #@! TO.N,GND*
G04 #@! TA.AperFunction,SMDPad,CuDef*
G36*
G01*
X82879250Y-22966500D02*
X81966750Y-22966500D01*
G75*
G02*
X81723000Y-22722750I0J243750D01*
G01*
X81723000Y-22235250D01*
G75*
G02*
X81966750Y-21991500I243750J0D01*
G01*
X82879250Y-21991500D01*
G75*
G02*
X83123000Y-22235250I0J-243750D01*
G01*
X83123000Y-22722750D01*
G75*
G02*
X82879250Y-22966500I-243750J0D01*
G01*
G37*
G04 #@! TD.AperFunction*
G04 #@! TO.P,C1,1*
G04 #@! TO.N,Net-(C1-Pad1)*
G04 #@! TA.AperFunction,SMDPad,CuDef*
G36*
G01*
X82879250Y-24841500D02*
X81966750Y-24841500D01*
G75*
G02*
X81723000Y-24597750I0J243750D01*
G01*
X81723000Y-24110250D01*
G75*
G02*
X81966750Y-23866500I243750J0D01*
G01*
X82879250Y-23866500D01*
G75*
G02*
X83123000Y-24110250I0J-243750D01*
G01*
X83123000Y-24597750D01*
G75*
G02*
X82879250Y-24841500I-243750J0D01*
G01*
G37*
G04 #@! TD.AperFunction*
G04 #@! TD*
D21*
G04 #@! TO.N,GND*
X63627000Y-36449000D03*
X70993000Y-36094500D03*
G04 #@! TO.N,VCC*
X66675000Y-29337000D03*
X54356000Y-27178000D03*
G04 #@! TO.N,row1*
X78105000Y-73533000D03*
X80014653Y-43048347D03*
G04 #@! TO.N,row2*
X68707000Y-93218000D03*
X76962000Y-43053000D03*
G04 #@! TO.N,col0*
X75819000Y-43053000D03*
G04 #@! TO.N,col1*
X78105000Y-43053000D03*
G04 #@! TO.N,Net-(R3-Pad1)*
X57531000Y-32512000D03*
X70231000Y-37957003D03*
G04 #@! TO.N,Net-(R4-Pad1)*
X58531003Y-32512000D03*
X70231000Y-36957000D03*
G04 #@! TD*
D22*
G04 #@! TO.N,GND*
X61647000Y-36504000D02*
X63572000Y-36504000D01*
X63572000Y-36504000D02*
X63627000Y-36449000D01*
X72457000Y-36094500D02*
X72532000Y-36169500D01*
X70993000Y-36094500D02*
X72457000Y-36094500D01*
X68707000Y-23463250D02*
X70580250Y-23463250D01*
X71501000Y-24384000D02*
X74295000Y-24384000D01*
X70580250Y-23463250D02*
X71501000Y-24384000D01*
X78975000Y-22606000D02*
X79375000Y-22606000D01*
X77275000Y-24306000D02*
X78975000Y-22606000D01*
X77175000Y-24306000D02*
X77275000Y-24306000D01*
X76632000Y-30669500D02*
X77332000Y-31369500D01*
X77332000Y-31369500D02*
X83932000Y-31369500D01*
X76632000Y-29669500D02*
X76632000Y-30669500D01*
X75032000Y-40069500D02*
X75477500Y-39624000D01*
X75032000Y-41069500D02*
X75032000Y-40069500D01*
X81432000Y-40259498D02*
X81432000Y-41069500D01*
X80796502Y-39624000D02*
X81432000Y-40259498D01*
X75477500Y-39624000D02*
X80796502Y-39624000D01*
X86984499Y-42144501D02*
X87757000Y-41372000D01*
X81507001Y-42144501D02*
X86984499Y-42144501D01*
X81432000Y-42069500D02*
X81507001Y-42144501D01*
X81432000Y-41069500D02*
X81432000Y-42069500D01*
G04 #@! TO.N,Net-(C1-Pad1)*
X79423000Y-24354000D02*
X79375000Y-24306000D01*
X82423000Y-24354000D02*
X79423000Y-24354000D01*
X78232000Y-25349000D02*
X78232000Y-29669500D01*
X79275000Y-24306000D02*
X78232000Y-25349000D01*
X79375000Y-24306000D02*
X79275000Y-24306000D01*
G04 #@! TO.N,Net-(C2-Pad1)*
X77078000Y-22509000D02*
X77175000Y-22606000D01*
X74295000Y-22509000D02*
X77078000Y-22509000D01*
X75692000Y-27119498D02*
X77432000Y-28859498D01*
X75692000Y-23368000D02*
X75692000Y-27119498D01*
X76454000Y-22606000D02*
X75692000Y-23368000D01*
X77432000Y-28859498D02*
X77432000Y-29669500D01*
X77175000Y-22606000D02*
X76454000Y-22606000D01*
G04 #@! TO.N,VCC*
X68707000Y-25338250D02*
X70165750Y-26797000D01*
X70165750Y-26797000D02*
X74422000Y-26797000D01*
X75832000Y-28207000D02*
X75832000Y-29669500D01*
X74422000Y-26797000D02*
X75832000Y-28207000D01*
X68707000Y-29337000D02*
X70612000Y-31242000D01*
X71721998Y-34569500D02*
X72532000Y-34569500D01*
X70612000Y-33459502D02*
X71721998Y-34569500D01*
X82932000Y-32169500D02*
X83932000Y-32169500D01*
X80289500Y-34569500D02*
X80410750Y-34690750D01*
X80410750Y-34690750D02*
X82932000Y-32169500D01*
X87432000Y-29669500D02*
X87757000Y-29669500D01*
X86184500Y-41069500D02*
X82232000Y-41069500D01*
X87757000Y-39497000D02*
X86184500Y-41069500D01*
X74232000Y-39052000D02*
X74714500Y-38569500D01*
X74232000Y-41069500D02*
X74232000Y-39052000D01*
X74714500Y-38569500D02*
X76532000Y-38569500D01*
X75832000Y-33922000D02*
X76479500Y-34569500D01*
X75832000Y-29669500D02*
X75832000Y-33922000D01*
X72532000Y-34569500D02*
X76479500Y-34569500D01*
X76479500Y-34569500D02*
X80289500Y-34569500D01*
X82232000Y-41069500D02*
X82232000Y-39687000D01*
X76532000Y-38569500D02*
X78823250Y-36278250D01*
X82232000Y-39687000D02*
X78823250Y-36278250D01*
X78823250Y-36278250D02*
X80410750Y-34690750D01*
X68707000Y-33147000D02*
X70612000Y-33147000D01*
X70612000Y-31242000D02*
X70612000Y-33147000D01*
X70612000Y-33147000D02*
X70612000Y-33459502D01*
X68707000Y-29337000D02*
X66675000Y-29337000D01*
X55512000Y-27178000D02*
X56909000Y-25781000D01*
X54356000Y-27178000D02*
X55512000Y-27178000D01*
X83932000Y-32169500D02*
X84932000Y-32169500D01*
X84932000Y-32169500D02*
X87432000Y-29669500D01*
X67304000Y-42140000D02*
X68707000Y-40737000D01*
X67304000Y-42926000D02*
X67304000Y-42140000D01*
X68707000Y-40737000D02*
X68707000Y-44577000D01*
X68707000Y-44577000D02*
X68834000Y-44704000D01*
X68834000Y-44704000D02*
X71628000Y-44704000D01*
X74232000Y-42100000D02*
X74232000Y-41069500D01*
X71628000Y-44704000D02*
X74232000Y-42100000D01*
G04 #@! TO.N,Net-(C8-Pad1)*
X70264500Y-35369500D02*
X72532000Y-35369500D01*
X68707000Y-36927000D02*
X70264500Y-35369500D01*
G04 #@! TO.N,row0*
X59137501Y-58275001D02*
X59164001Y-58275001D01*
X58012500Y-57150000D02*
X59137501Y-58275001D01*
X59164001Y-58275001D02*
X59817000Y-58928000D01*
X75284500Y-58928000D02*
X77062500Y-57150000D01*
X59817000Y-58928000D02*
X75284500Y-58928000D01*
X78262500Y-57150000D02*
X78262500Y-51531500D01*
X78262500Y-51531500D02*
X80010000Y-49784000D01*
X80010000Y-49784000D02*
X80010000Y-44069000D01*
X79032000Y-43091000D02*
X79032000Y-41069500D01*
X80010000Y-44069000D02*
X79032000Y-43091000D01*
G04 #@! TO.N,row1*
X59212500Y-76200000D02*
X59212500Y-76230500D01*
X59212500Y-76230500D02*
X61214000Y-78232000D01*
X75030500Y-78232000D02*
X77062500Y-76200000D01*
X61214000Y-78232000D02*
X75030500Y-78232000D01*
X78262500Y-76200000D02*
X78262500Y-73690500D01*
X78262500Y-73690500D02*
X78105000Y-73533000D01*
X80014653Y-41252153D02*
X79832000Y-41069500D01*
X80014653Y-43048347D02*
X80014653Y-41252153D01*
G04 #@! TO.N,row2*
X68737500Y-95250000D02*
X68737500Y-93248500D01*
X68737500Y-93248500D02*
X68707000Y-93218000D01*
X77432000Y-42583000D02*
X77432000Y-41069500D01*
X76962000Y-43053000D02*
X77432000Y-42583000D01*
G04 #@! TO.N,Net-(J1-Pad3)*
X60642500Y-28829000D02*
X58559500Y-26746000D01*
X58559500Y-25831500D02*
X58509000Y-25781000D01*
X58559500Y-26746000D02*
X58559500Y-25831500D01*
G04 #@! TO.N,Net-(J1-Pad2)*
X57709000Y-26682500D02*
X57709000Y-25781000D01*
X55626000Y-28765500D02*
X57709000Y-26682500D01*
G04 #@! TO.N,col0*
X76632000Y-42240000D02*
X76632000Y-41069500D01*
X75819000Y-43053000D02*
X76632000Y-42240000D01*
G04 #@! TO.N,col1*
X78105000Y-41196500D02*
X78232000Y-41069500D01*
X78105000Y-43053000D02*
X78105000Y-41196500D01*
G04 #@! TO.N,Net-(R1-Pad1)*
X75032000Y-28859498D02*
X75032000Y-29669500D01*
X73634502Y-27462000D02*
X75032000Y-28859498D01*
X68707000Y-27462000D02*
X73634502Y-27462000D01*
X66264000Y-27462000D02*
X68707000Y-27462000D01*
X65405000Y-28321000D02*
X66264000Y-27462000D01*
X55447000Y-41350000D02*
X55880000Y-41783000D01*
X55447000Y-40204000D02*
X55447000Y-41350000D01*
X55880000Y-41783000D02*
X62103002Y-41783000D01*
X62103002Y-41783000D02*
X65405000Y-38481002D01*
X65405000Y-38481002D02*
X65405000Y-28321000D01*
G04 #@! TO.N,Net-(R2-Pad2)*
X84709500Y-39369500D02*
X83932000Y-39369500D01*
X87757000Y-36322000D02*
X84709500Y-39369500D01*
G04 #@! TO.N,Net-(R3-Pad1)*
X55626000Y-30640500D02*
X57497500Y-32512000D01*
X57497500Y-32512000D02*
X57531000Y-32512000D01*
X72344497Y-37957003D02*
X72532000Y-37769500D01*
X70231000Y-37957003D02*
X72344497Y-37957003D01*
G04 #@! TO.N,Net-(R4-Pad1)*
X58420000Y-32512000D02*
X60799500Y-30132500D01*
X58420000Y-32512000D02*
X58531003Y-32512000D01*
X72519500Y-36957000D02*
X72532000Y-36969500D01*
X70231000Y-36957000D02*
X72519500Y-36957000D01*
G04 #@! TO.N,Net-(F1-Pad1)*
X70104000Y-42926000D02*
X70104000Y-39624000D01*
X72081990Y-38755900D02*
X72095589Y-38769499D01*
X70104000Y-39624000D02*
X70972100Y-38755900D01*
X70972100Y-38755900D02*
X72081990Y-38755900D01*
G04 #@! TD*
D23*
G04 #@! TO.N,GND*
G36*
X94475204Y-20371815D02*
G01*
X94707226Y-20441867D01*
X94921222Y-20555650D01*
X95109041Y-20708832D01*
X95263530Y-20895577D01*
X95378801Y-21108769D01*
X95450472Y-21340300D01*
X95478965Y-21611395D01*
X95352053Y-100170185D01*
X95325185Y-100444205D01*
X95255133Y-100676226D01*
X95141350Y-100890222D01*
X94988169Y-101078039D01*
X94801424Y-101232529D01*
X94588231Y-101347802D01*
X94356701Y-101419472D01*
X94085855Y-101447939D01*
X59851710Y-101352844D01*
X60266322Y-101270373D01*
X60744751Y-101072201D01*
X61175326Y-100784500D01*
X61541500Y-100418326D01*
X61829201Y-99987751D01*
X62027373Y-99509322D01*
X62128400Y-99001424D01*
X62128400Y-98483576D01*
X80746600Y-98483576D01*
X80746600Y-99001424D01*
X80847627Y-99509322D01*
X81045799Y-99987751D01*
X81333500Y-100418326D01*
X81699674Y-100784500D01*
X82130249Y-101072201D01*
X82608678Y-101270373D01*
X83116576Y-101371400D01*
X83634424Y-101371400D01*
X84142322Y-101270373D01*
X84620751Y-101072201D01*
X85051326Y-100784500D01*
X85417500Y-100418326D01*
X85705201Y-99987751D01*
X85903373Y-99509322D01*
X86004400Y-99001424D01*
X86004400Y-98483576D01*
X85903373Y-97975678D01*
X85705201Y-97497249D01*
X85417500Y-97066674D01*
X85051326Y-96700500D01*
X84620751Y-96412799D01*
X84142322Y-96214627D01*
X83634424Y-96113600D01*
X83116576Y-96113600D01*
X82608678Y-96214627D01*
X82130249Y-96412799D01*
X81699674Y-96700500D01*
X81333500Y-97066674D01*
X81045799Y-97497249D01*
X80847627Y-97975678D01*
X80746600Y-98483576D01*
X62128400Y-98483576D01*
X62027373Y-97975678D01*
X61829201Y-97497249D01*
X61541500Y-97066674D01*
X61175326Y-96700500D01*
X60744751Y-96412799D01*
X60266322Y-96214627D01*
X59758424Y-96113600D01*
X59240576Y-96113600D01*
X58732678Y-96214627D01*
X58254249Y-96412799D01*
X57823674Y-96700500D01*
X57457500Y-97066674D01*
X57169799Y-97497249D01*
X56971627Y-97975678D01*
X56870600Y-98483576D01*
X56870600Y-99001424D01*
X56971627Y-99509322D01*
X57169799Y-99987751D01*
X57457500Y-100418326D01*
X57823674Y-100784500D01*
X58254249Y-101072201D01*
X58732678Y-101270373D01*
X59137314Y-101350860D01*
X48420197Y-101321090D01*
X48145795Y-101294185D01*
X47913774Y-101224133D01*
X47699778Y-101110350D01*
X47511961Y-100957169D01*
X47357471Y-100770424D01*
X47242198Y-100557231D01*
X47170528Y-100325701D01*
X47142003Y-100054302D01*
X47142938Y-94267872D01*
X49073000Y-94267872D01*
X49073000Y-94708128D01*
X49158890Y-95139925D01*
X49327369Y-95546669D01*
X49571962Y-95912729D01*
X49883271Y-96224038D01*
X50249331Y-96468631D01*
X50656075Y-96637110D01*
X51087872Y-96723000D01*
X51528128Y-96723000D01*
X51959925Y-96637110D01*
X52366669Y-96468631D01*
X52732729Y-96224038D01*
X53044038Y-95912729D01*
X53288631Y-95546669D01*
X53457110Y-95139925D01*
X53543000Y-94708128D01*
X53543000Y-94450000D01*
X66099428Y-94450000D01*
X66099428Y-96050000D01*
X66111688Y-96174482D01*
X66147998Y-96294180D01*
X66206963Y-96404494D01*
X66286315Y-96501185D01*
X66383006Y-96580537D01*
X66493320Y-96639502D01*
X66613018Y-96675812D01*
X66737500Y-96688072D01*
X68337500Y-96688072D01*
X68461982Y-96675812D01*
X68581680Y-96639502D01*
X68691994Y-96580537D01*
X68788685Y-96501185D01*
X68868037Y-96404494D01*
X68889125Y-96365042D01*
X68908006Y-96380537D01*
X69018320Y-96439502D01*
X69138018Y-96475812D01*
X69262500Y-96488072D01*
X70462500Y-96488072D01*
X70586982Y-96475812D01*
X70706680Y-96439502D01*
X70816994Y-96380537D01*
X70913685Y-96301185D01*
X70993037Y-96204494D01*
X71052002Y-96094180D01*
X71088312Y-95974482D01*
X71100572Y-95850000D01*
X71100572Y-94650000D01*
X71774428Y-94650000D01*
X71774428Y-95850000D01*
X71786688Y-95974482D01*
X71822998Y-96094180D01*
X71881963Y-96204494D01*
X71961315Y-96301185D01*
X72058006Y-96380537D01*
X72168320Y-96439502D01*
X72288018Y-96475812D01*
X72412500Y-96488072D01*
X73612500Y-96488072D01*
X73736982Y-96475812D01*
X73856680Y-96439502D01*
X73966994Y-96380537D01*
X74063685Y-96301185D01*
X74143037Y-96204494D01*
X74178541Y-96138072D01*
X74205031Y-96138072D01*
X74222863Y-96164759D01*
X74422741Y-96364637D01*
X74657773Y-96521680D01*
X74918926Y-96629853D01*
X75196165Y-96685000D01*
X75478835Y-96685000D01*
X75756074Y-96629853D01*
X76017227Y-96521680D01*
X76252259Y-96364637D01*
X76452137Y-96164759D01*
X76609180Y-95929727D01*
X76717353Y-95668574D01*
X76772500Y-95391335D01*
X76772500Y-95108665D01*
X76717353Y-94831426D01*
X76694342Y-94775872D01*
X89205000Y-94775872D01*
X89205000Y-95216128D01*
X89290890Y-95647925D01*
X89459369Y-96054669D01*
X89703962Y-96420729D01*
X90015271Y-96732038D01*
X90381331Y-96976631D01*
X90788075Y-97145110D01*
X91219872Y-97231000D01*
X91660128Y-97231000D01*
X92091925Y-97145110D01*
X92498669Y-96976631D01*
X92864729Y-96732038D01*
X93176038Y-96420729D01*
X93420631Y-96054669D01*
X93589110Y-95647925D01*
X93675000Y-95216128D01*
X93675000Y-94775872D01*
X93589110Y-94344075D01*
X93420631Y-93937331D01*
X93176038Y-93571271D01*
X92864729Y-93259962D01*
X92498669Y-93015369D01*
X92091925Y-92846890D01*
X91660128Y-92761000D01*
X91219872Y-92761000D01*
X90788075Y-92846890D01*
X90381331Y-93015369D01*
X90015271Y-93259962D01*
X89703962Y-93571271D01*
X89459369Y-93937331D01*
X89290890Y-94344075D01*
X89205000Y-94775872D01*
X76694342Y-94775872D01*
X76609180Y-94570273D01*
X76452137Y-94335241D01*
X76252259Y-94135363D01*
X76017227Y-93978320D01*
X75756074Y-93870147D01*
X75478835Y-93815000D01*
X75196165Y-93815000D01*
X74918926Y-93870147D01*
X74657773Y-93978320D01*
X74422741Y-94135363D01*
X74222863Y-94335241D01*
X74205031Y-94361928D01*
X74178541Y-94361928D01*
X74143037Y-94295506D01*
X74063685Y-94198815D01*
X73966994Y-94119463D01*
X73856680Y-94060498D01*
X73736982Y-94024188D01*
X73612500Y-94011928D01*
X72412500Y-94011928D01*
X72288018Y-94024188D01*
X72168320Y-94060498D01*
X72058006Y-94119463D01*
X71961315Y-94198815D01*
X71881963Y-94295506D01*
X71822998Y-94405820D01*
X71786688Y-94525518D01*
X71774428Y-94650000D01*
X71100572Y-94650000D01*
X71088312Y-94525518D01*
X71052002Y-94405820D01*
X70993037Y-94295506D01*
X70913685Y-94198815D01*
X70816994Y-94119463D01*
X70706680Y-94060498D01*
X70586982Y-94024188D01*
X70462500Y-94011928D01*
X69497500Y-94011928D01*
X69497500Y-93891211D01*
X69510937Y-93877774D01*
X69624205Y-93708256D01*
X69702226Y-93519898D01*
X69742000Y-93319939D01*
X69742000Y-93116061D01*
X69702226Y-92916102D01*
X69624205Y-92727744D01*
X69510937Y-92558226D01*
X69366774Y-92414063D01*
X69197256Y-92300795D01*
X69008898Y-92222774D01*
X68808939Y-92183000D01*
X68605061Y-92183000D01*
X68405102Y-92222774D01*
X68216744Y-92300795D01*
X68047226Y-92414063D01*
X67903063Y-92558226D01*
X67789795Y-92727744D01*
X67711774Y-92916102D01*
X67672000Y-93116061D01*
X67672000Y-93319939D01*
X67711774Y-93519898D01*
X67789795Y-93708256D01*
X67859066Y-93811928D01*
X66737500Y-93811928D01*
X66613018Y-93824188D01*
X66493320Y-93860498D01*
X66383006Y-93919463D01*
X66286315Y-93998815D01*
X66206963Y-94095506D01*
X66147998Y-94205820D01*
X66111688Y-94325518D01*
X66099428Y-94450000D01*
X53543000Y-94450000D01*
X53543000Y-94267872D01*
X53457110Y-93836075D01*
X53288631Y-93429331D01*
X53044038Y-93063271D01*
X52732729Y-92751962D01*
X52366669Y-92507369D01*
X51959925Y-92338890D01*
X51528128Y-92253000D01*
X51087872Y-92253000D01*
X50656075Y-92338890D01*
X50249331Y-92507369D01*
X49883271Y-92751962D01*
X49571962Y-93063271D01*
X49327369Y-93429331D01*
X49158890Y-93836075D01*
X49073000Y-94267872D01*
X47142938Y-94267872D01*
X47143572Y-90341152D01*
X64871600Y-90341152D01*
X64871600Y-90633848D01*
X64928702Y-90920921D01*
X65040712Y-91191338D01*
X65203326Y-91434706D01*
X65410294Y-91641674D01*
X65653662Y-91804288D01*
X65924079Y-91916298D01*
X66211152Y-91973400D01*
X66503848Y-91973400D01*
X66790921Y-91916298D01*
X67061338Y-91804288D01*
X67304706Y-91641674D01*
X67511674Y-91434706D01*
X67674288Y-91191338D01*
X67786298Y-90920921D01*
X67843400Y-90633848D01*
X67843400Y-90341152D01*
X67821008Y-90228576D01*
X68808600Y-90228576D01*
X68808600Y-90746424D01*
X68909627Y-91254322D01*
X69107799Y-91732751D01*
X69395500Y-92163326D01*
X69761674Y-92529500D01*
X70192249Y-92817201D01*
X70670678Y-93015373D01*
X71178576Y-93116400D01*
X71696424Y-93116400D01*
X72204322Y-93015373D01*
X72682751Y-92817201D01*
X73113326Y-92529500D01*
X73479500Y-92163326D01*
X73767201Y-91732751D01*
X73965373Y-91254322D01*
X74066400Y-90746424D01*
X74066400Y-90341152D01*
X75031600Y-90341152D01*
X75031600Y-90633848D01*
X75088702Y-90920921D01*
X75200712Y-91191338D01*
X75363326Y-91434706D01*
X75570294Y-91641674D01*
X75813662Y-91804288D01*
X76084079Y-91916298D01*
X76371152Y-91973400D01*
X76663848Y-91973400D01*
X76950921Y-91916298D01*
X77221338Y-91804288D01*
X77464706Y-91641674D01*
X77671674Y-91434706D01*
X77834288Y-91191338D01*
X77946298Y-90920921D01*
X78003400Y-90633848D01*
X78003400Y-90341152D01*
X77946298Y-90054079D01*
X77834288Y-89783662D01*
X77671674Y-89540294D01*
X77464706Y-89333326D01*
X77221338Y-89170712D01*
X76950921Y-89058702D01*
X76663848Y-89001600D01*
X76371152Y-89001600D01*
X76084079Y-89058702D01*
X75813662Y-89170712D01*
X75570294Y-89333326D01*
X75363326Y-89540294D01*
X75200712Y-89783662D01*
X75088702Y-90054079D01*
X75031600Y-90341152D01*
X74066400Y-90341152D01*
X74066400Y-90228576D01*
X73965373Y-89720678D01*
X73767201Y-89242249D01*
X73479500Y-88811674D01*
X73113326Y-88445500D01*
X72682751Y-88157799D01*
X72204322Y-87959627D01*
X71696424Y-87858600D01*
X71178576Y-87858600D01*
X70670678Y-87959627D01*
X70192249Y-88157799D01*
X69761674Y-88445500D01*
X69395500Y-88811674D01*
X69107799Y-89242249D01*
X68909627Y-89720678D01*
X68808600Y-90228576D01*
X67821008Y-90228576D01*
X67786298Y-90054079D01*
X67682059Y-89802424D01*
X67988000Y-89765536D01*
X68340887Y-89650025D01*
X68664460Y-89467887D01*
X68946282Y-89226123D01*
X69118078Y-89007220D01*
X70426506Y-86953400D01*
X70552296Y-86705188D01*
X70652305Y-86347597D01*
X70680631Y-85977366D01*
X70677453Y-85951005D01*
X72050844Y-85951005D01*
X72059221Y-86229145D01*
X72142590Y-86590977D01*
X72294948Y-86929592D01*
X72510439Y-87231977D01*
X72780781Y-87486511D01*
X73095587Y-87683415D01*
X73442757Y-87815118D01*
X73808950Y-87876561D01*
X74180093Y-87865383D01*
X74541925Y-87782014D01*
X74880540Y-87629656D01*
X75182925Y-87414165D01*
X75437459Y-87143823D01*
X75634363Y-86829017D01*
X75766066Y-86481847D01*
X75812113Y-86207416D01*
X75864156Y-85443996D01*
X75855779Y-85165855D01*
X75772410Y-84804023D01*
X75620052Y-84465408D01*
X75404561Y-84163023D01*
X75134219Y-83908489D01*
X74819413Y-83711586D01*
X74472243Y-83579882D01*
X74106050Y-83518439D01*
X73734907Y-83529617D01*
X73373075Y-83612986D01*
X73034460Y-83765344D01*
X72732075Y-83980835D01*
X72477541Y-84251177D01*
X72280637Y-84565983D01*
X72148934Y-84913153D01*
X72102887Y-85187584D01*
X72050844Y-85951005D01*
X70677453Y-85951005D01*
X70636183Y-85608723D01*
X70520671Y-85255836D01*
X70338534Y-84932263D01*
X70096770Y-84650442D01*
X69804671Y-84421201D01*
X69473463Y-84253351D01*
X69115873Y-84153342D01*
X68745641Y-84125017D01*
X68376999Y-84169464D01*
X68024111Y-84284976D01*
X67700539Y-84467113D01*
X67418718Y-84708877D01*
X67246922Y-84927780D01*
X65938493Y-86981601D01*
X65812704Y-87229814D01*
X65712694Y-87587404D01*
X65684369Y-87957635D01*
X65728817Y-88326277D01*
X65844328Y-88679164D01*
X66026466Y-89002737D01*
X66052554Y-89033147D01*
X65924079Y-89058702D01*
X65653662Y-89170712D01*
X65410294Y-89333326D01*
X65203326Y-89540294D01*
X65040712Y-89783662D01*
X64928702Y-90054079D01*
X64871600Y-90341152D01*
X47143572Y-90341152D01*
X47144712Y-83289857D01*
X57340500Y-83289857D01*
X57340500Y-83715143D01*
X57423470Y-84132257D01*
X57586219Y-84525170D01*
X57822496Y-84878782D01*
X58123218Y-85179504D01*
X58476830Y-85415781D01*
X58869743Y-85578530D01*
X59286857Y-85661500D01*
X59712143Y-85661500D01*
X60129257Y-85578530D01*
X60522170Y-85415781D01*
X60875782Y-85179504D01*
X61176504Y-84878782D01*
X61412781Y-84525170D01*
X61575530Y-84132257D01*
X61658500Y-83715143D01*
X61658500Y-83289857D01*
X81216500Y-83289857D01*
X81216500Y-83715143D01*
X81299470Y-84132257D01*
X81462219Y-84525170D01*
X81698496Y-84878782D01*
X81999218Y-85179504D01*
X82352830Y-85415781D01*
X82745743Y-85578530D01*
X83162857Y-85661500D01*
X83588143Y-85661500D01*
X84005257Y-85578530D01*
X84398170Y-85415781D01*
X84751782Y-85179504D01*
X85052504Y-84878782D01*
X85288781Y-84525170D01*
X85451530Y-84132257D01*
X85534500Y-83715143D01*
X85534500Y-83289857D01*
X85451530Y-82872743D01*
X85288781Y-82479830D01*
X85052504Y-82126218D01*
X84751782Y-81825496D01*
X84398170Y-81589219D01*
X84005257Y-81426470D01*
X83588143Y-81343500D01*
X83162857Y-81343500D01*
X82745743Y-81426470D01*
X82352830Y-81589219D01*
X81999218Y-81825496D01*
X81698496Y-82126218D01*
X81462219Y-82479830D01*
X81299470Y-82872743D01*
X81216500Y-83289857D01*
X61658500Y-83289857D01*
X61575530Y-82872743D01*
X61412781Y-82479830D01*
X61176504Y-82126218D01*
X60875782Y-81825496D01*
X60522170Y-81589219D01*
X60129257Y-81426470D01*
X59712143Y-81343500D01*
X59286857Y-81343500D01*
X58869743Y-81426470D01*
X58476830Y-81589219D01*
X58123218Y-81825496D01*
X57822496Y-82126218D01*
X57586219Y-82479830D01*
X57423470Y-82872743D01*
X57340500Y-83289857D01*
X47144712Y-83289857D01*
X47145987Y-75400000D01*
X56574428Y-75400000D01*
X56574428Y-77000000D01*
X56586688Y-77124482D01*
X56622998Y-77244180D01*
X56681963Y-77354494D01*
X56761315Y-77451185D01*
X56858006Y-77530537D01*
X56968320Y-77589502D01*
X57088018Y-77625812D01*
X57212500Y-77638072D01*
X58812500Y-77638072D01*
X58936982Y-77625812D01*
X59056680Y-77589502D01*
X59166994Y-77530537D01*
X59263685Y-77451185D01*
X59306371Y-77399172D01*
X60650205Y-78743008D01*
X60673999Y-78772001D01*
X60702992Y-78795795D01*
X60702996Y-78795799D01*
X60773685Y-78853811D01*
X60789724Y-78866974D01*
X60921753Y-78937546D01*
X61065014Y-78981003D01*
X61176667Y-78992000D01*
X61176676Y-78992000D01*
X61213999Y-78995676D01*
X61251322Y-78992000D01*
X74993178Y-78992000D01*
X75030500Y-78995676D01*
X75067822Y-78992000D01*
X75067833Y-78992000D01*
X75179486Y-78981003D01*
X75322747Y-78937546D01*
X75454776Y-78866974D01*
X75570501Y-78772001D01*
X75594304Y-78742997D01*
X76699230Y-77638072D01*
X77862500Y-77638072D01*
X77986982Y-77625812D01*
X78106680Y-77589502D01*
X78216994Y-77530537D01*
X78313685Y-77451185D01*
X78393037Y-77354494D01*
X78414125Y-77315042D01*
X78433006Y-77330537D01*
X78543320Y-77389502D01*
X78663018Y-77425812D01*
X78787500Y-77438072D01*
X79987500Y-77438072D01*
X80111982Y-77425812D01*
X80231680Y-77389502D01*
X80341994Y-77330537D01*
X80438685Y-77251185D01*
X80518037Y-77154494D01*
X80577002Y-77044180D01*
X80613312Y-76924482D01*
X80625572Y-76800000D01*
X80625572Y-75600000D01*
X81299428Y-75600000D01*
X81299428Y-76800000D01*
X81311688Y-76924482D01*
X81347998Y-77044180D01*
X81406963Y-77154494D01*
X81486315Y-77251185D01*
X81583006Y-77330537D01*
X81693320Y-77389502D01*
X81813018Y-77425812D01*
X81937500Y-77438072D01*
X83137500Y-77438072D01*
X83261982Y-77425812D01*
X83381680Y-77389502D01*
X83491994Y-77330537D01*
X83588685Y-77251185D01*
X83668037Y-77154494D01*
X83703541Y-77088072D01*
X83730031Y-77088072D01*
X83747863Y-77114759D01*
X83947741Y-77314637D01*
X84182773Y-77471680D01*
X84443926Y-77579853D01*
X84721165Y-77635000D01*
X85003835Y-77635000D01*
X85281074Y-77579853D01*
X85542227Y-77471680D01*
X85777259Y-77314637D01*
X85977137Y-77114759D01*
X86134180Y-76879727D01*
X86242353Y-76618574D01*
X86297500Y-76341335D01*
X86297500Y-76058665D01*
X86242353Y-75781426D01*
X86134180Y-75520273D01*
X85977137Y-75285241D01*
X85777259Y-75085363D01*
X85542227Y-74928320D01*
X85281074Y-74820147D01*
X85003835Y-74765000D01*
X84721165Y-74765000D01*
X84443926Y-74820147D01*
X84182773Y-74928320D01*
X83947741Y-75085363D01*
X83747863Y-75285241D01*
X83730031Y-75311928D01*
X83703541Y-75311928D01*
X83668037Y-75245506D01*
X83588685Y-75148815D01*
X83491994Y-75069463D01*
X83381680Y-75010498D01*
X83261982Y-74974188D01*
X83137500Y-74961928D01*
X81937500Y-74961928D01*
X81813018Y-74974188D01*
X81693320Y-75010498D01*
X81583006Y-75069463D01*
X81486315Y-75148815D01*
X81406963Y-75245506D01*
X81347998Y-75355820D01*
X81311688Y-75475518D01*
X81299428Y-75600000D01*
X80625572Y-75600000D01*
X80613312Y-75475518D01*
X80577002Y-75355820D01*
X80518037Y-75245506D01*
X80438685Y-75148815D01*
X80341994Y-75069463D01*
X80231680Y-75010498D01*
X80111982Y-74974188D01*
X79987500Y-74961928D01*
X79022500Y-74961928D01*
X79022500Y-74022544D01*
X79100226Y-73834898D01*
X79140000Y-73634939D01*
X79140000Y-73431061D01*
X79115608Y-73308434D01*
X79286674Y-73479500D01*
X79717249Y-73767201D01*
X80195678Y-73965373D01*
X80703576Y-74066400D01*
X81221424Y-74066400D01*
X81729322Y-73965373D01*
X82207751Y-73767201D01*
X82638326Y-73479500D01*
X83004500Y-73113326D01*
X83292201Y-72682751D01*
X83490373Y-72204322D01*
X83591400Y-71696424D01*
X83591400Y-71291152D01*
X84556600Y-71291152D01*
X84556600Y-71583848D01*
X84613702Y-71870921D01*
X84725712Y-72141338D01*
X84888326Y-72384706D01*
X85095294Y-72591674D01*
X85338662Y-72754288D01*
X85609079Y-72866298D01*
X85896152Y-72923400D01*
X86188848Y-72923400D01*
X86475921Y-72866298D01*
X86746338Y-72754288D01*
X86989706Y-72591674D01*
X87196674Y-72384706D01*
X87359288Y-72141338D01*
X87471298Y-71870921D01*
X87528400Y-71583848D01*
X87528400Y-71291152D01*
X87471298Y-71004079D01*
X87359288Y-70733662D01*
X87196674Y-70490294D01*
X86989706Y-70283326D01*
X86746338Y-70120712D01*
X86475921Y-70008702D01*
X86188848Y-69951600D01*
X85896152Y-69951600D01*
X85609079Y-70008702D01*
X85338662Y-70120712D01*
X85095294Y-70283326D01*
X84888326Y-70490294D01*
X84725712Y-70733662D01*
X84613702Y-71004079D01*
X84556600Y-71291152D01*
X83591400Y-71291152D01*
X83591400Y-71178576D01*
X83490373Y-70670678D01*
X83292201Y-70192249D01*
X83004500Y-69761674D01*
X82638326Y-69395500D01*
X82207751Y-69107799D01*
X81729322Y-68909627D01*
X81221424Y-68808600D01*
X80703576Y-68808600D01*
X80195678Y-68909627D01*
X79717249Y-69107799D01*
X79286674Y-69395500D01*
X78920500Y-69761674D01*
X78632799Y-70192249D01*
X78434627Y-70670678D01*
X78333600Y-71178576D01*
X78333600Y-71696424D01*
X78434627Y-72204322D01*
X78608819Y-72624857D01*
X78595256Y-72615795D01*
X78406898Y-72537774D01*
X78206939Y-72498000D01*
X78003061Y-72498000D01*
X77803102Y-72537774D01*
X77614744Y-72615795D01*
X77445226Y-72729063D01*
X77301063Y-72873226D01*
X77187795Y-73042744D01*
X77109774Y-73231102D01*
X77070000Y-73431061D01*
X77070000Y-73634939D01*
X77109774Y-73834898D01*
X77187795Y-74023256D01*
X77301063Y-74192774D01*
X77445226Y-74336937D01*
X77502501Y-74375207D01*
X77502501Y-74761928D01*
X76262500Y-74761928D01*
X76138018Y-74774188D01*
X76018320Y-74810498D01*
X75908006Y-74869463D01*
X75811315Y-74948815D01*
X75731963Y-75045506D01*
X75672998Y-75155820D01*
X75636688Y-75275518D01*
X75624428Y-75400000D01*
X75624428Y-76563270D01*
X74715699Y-77472000D01*
X66491454Y-77472000D01*
X66492227Y-77471680D01*
X66727259Y-77314637D01*
X66927137Y-77114759D01*
X67084180Y-76879727D01*
X67192353Y-76618574D01*
X67247500Y-76341335D01*
X67247500Y-76058665D01*
X67192353Y-75781426D01*
X67084180Y-75520273D01*
X66927137Y-75285241D01*
X66727259Y-75085363D01*
X66492227Y-74928320D01*
X66231074Y-74820147D01*
X65953835Y-74765000D01*
X65671165Y-74765000D01*
X65393926Y-74820147D01*
X65132773Y-74928320D01*
X64897741Y-75085363D01*
X64697863Y-75285241D01*
X64680031Y-75311928D01*
X64653541Y-75311928D01*
X64618037Y-75245506D01*
X64538685Y-75148815D01*
X64441994Y-75069463D01*
X64331680Y-75010498D01*
X64211982Y-74974188D01*
X64087500Y-74961928D01*
X62887500Y-74961928D01*
X62763018Y-74974188D01*
X62643320Y-75010498D01*
X62533006Y-75069463D01*
X62436315Y-75148815D01*
X62356963Y-75245506D01*
X62297998Y-75355820D01*
X62261688Y-75475518D01*
X62249428Y-75600000D01*
X62249428Y-76800000D01*
X62261688Y-76924482D01*
X62297998Y-77044180D01*
X62356963Y-77154494D01*
X62436315Y-77251185D01*
X62533006Y-77330537D01*
X62643320Y-77389502D01*
X62763018Y-77425812D01*
X62887500Y-77438072D01*
X64087500Y-77438072D01*
X64211982Y-77425812D01*
X64331680Y-77389502D01*
X64441994Y-77330537D01*
X64538685Y-77251185D01*
X64618037Y-77154494D01*
X64653541Y-77088072D01*
X64680031Y-77088072D01*
X64697863Y-77114759D01*
X64897741Y-77314637D01*
X65132773Y-77471680D01*
X65133546Y-77472000D01*
X61528803Y-77472000D01*
X61344362Y-77287560D01*
X61388685Y-77251185D01*
X61468037Y-77154494D01*
X61527002Y-77044180D01*
X61563312Y-76924482D01*
X61575572Y-76800000D01*
X61575572Y-75600000D01*
X61563312Y-75475518D01*
X61527002Y-75355820D01*
X61468037Y-75245506D01*
X61388685Y-75148815D01*
X61291994Y-75069463D01*
X61181680Y-75010498D01*
X61061982Y-74974188D01*
X60937500Y-74961928D01*
X59737500Y-74961928D01*
X59613018Y-74974188D01*
X59493320Y-75010498D01*
X59383006Y-75069463D01*
X59364125Y-75084958D01*
X59343037Y-75045506D01*
X59263685Y-74948815D01*
X59166994Y-74869463D01*
X59056680Y-74810498D01*
X58936982Y-74774188D01*
X58812500Y-74761928D01*
X57212500Y-74761928D01*
X57088018Y-74774188D01*
X56968320Y-74810498D01*
X56858006Y-74869463D01*
X56761315Y-74948815D01*
X56681963Y-75045506D01*
X56622998Y-75155820D01*
X56586688Y-75275518D01*
X56574428Y-75400000D01*
X47145987Y-75400000D01*
X47146652Y-71291152D01*
X55346600Y-71291152D01*
X55346600Y-71583848D01*
X55403702Y-71870921D01*
X55515712Y-72141338D01*
X55678326Y-72384706D01*
X55885294Y-72591674D01*
X56128662Y-72754288D01*
X56399079Y-72866298D01*
X56686152Y-72923400D01*
X56978848Y-72923400D01*
X57265921Y-72866298D01*
X57536338Y-72754288D01*
X57779706Y-72591674D01*
X57986674Y-72384706D01*
X58149288Y-72141338D01*
X58261298Y-71870921D01*
X58318400Y-71583848D01*
X58318400Y-71291152D01*
X58296008Y-71178576D01*
X59283600Y-71178576D01*
X59283600Y-71696424D01*
X59384627Y-72204322D01*
X59582799Y-72682751D01*
X59870500Y-73113326D01*
X60236674Y-73479500D01*
X60667249Y-73767201D01*
X61145678Y-73965373D01*
X61653576Y-74066400D01*
X62171424Y-74066400D01*
X62679322Y-73965373D01*
X63157751Y-73767201D01*
X63588326Y-73479500D01*
X63954500Y-73113326D01*
X64242201Y-72682751D01*
X64440373Y-72204322D01*
X64541400Y-71696424D01*
X64541400Y-71291152D01*
X65506600Y-71291152D01*
X65506600Y-71583848D01*
X65563702Y-71870921D01*
X65675712Y-72141338D01*
X65838326Y-72384706D01*
X66045294Y-72591674D01*
X66288662Y-72754288D01*
X66559079Y-72866298D01*
X66846152Y-72923400D01*
X67138848Y-72923400D01*
X67425921Y-72866298D01*
X67696338Y-72754288D01*
X67939706Y-72591674D01*
X68146674Y-72384706D01*
X68309288Y-72141338D01*
X68421298Y-71870921D01*
X68478400Y-71583848D01*
X68478400Y-71291152D01*
X74396600Y-71291152D01*
X74396600Y-71583848D01*
X74453702Y-71870921D01*
X74565712Y-72141338D01*
X74728326Y-72384706D01*
X74935294Y-72591674D01*
X75178662Y-72754288D01*
X75449079Y-72866298D01*
X75736152Y-72923400D01*
X76028848Y-72923400D01*
X76315921Y-72866298D01*
X76586338Y-72754288D01*
X76829706Y-72591674D01*
X77036674Y-72384706D01*
X77199288Y-72141338D01*
X77311298Y-71870921D01*
X77368400Y-71583848D01*
X77368400Y-71291152D01*
X77311298Y-71004079D01*
X77207059Y-70752424D01*
X77513000Y-70715536D01*
X77865887Y-70600025D01*
X78189460Y-70417887D01*
X78471282Y-70176123D01*
X78643078Y-69957220D01*
X79951506Y-67903400D01*
X80077296Y-67655188D01*
X80177305Y-67297597D01*
X80205631Y-66927366D01*
X80202453Y-66901005D01*
X81575844Y-66901005D01*
X81584221Y-67179145D01*
X81667590Y-67540977D01*
X81819948Y-67879592D01*
X82035439Y-68181977D01*
X82305781Y-68436511D01*
X82620587Y-68633415D01*
X82967757Y-68765118D01*
X83333950Y-68826561D01*
X83705093Y-68815383D01*
X84066925Y-68732014D01*
X84405540Y-68579656D01*
X84707925Y-68364165D01*
X84962459Y-68093823D01*
X85159363Y-67779017D01*
X85291066Y-67431847D01*
X85337113Y-67157416D01*
X85389156Y-66393996D01*
X85380779Y-66115855D01*
X85297410Y-65754023D01*
X85145052Y-65415408D01*
X84929561Y-65113023D01*
X84659219Y-64858489D01*
X84344413Y-64661586D01*
X83997243Y-64529882D01*
X83631050Y-64468439D01*
X83259907Y-64479617D01*
X82898075Y-64562986D01*
X82559460Y-64715344D01*
X82257075Y-64930835D01*
X82002541Y-65201177D01*
X81805637Y-65515983D01*
X81673934Y-65863153D01*
X81627887Y-66137584D01*
X81575844Y-66901005D01*
X80202453Y-66901005D01*
X80161183Y-66558723D01*
X80045671Y-66205836D01*
X79863534Y-65882263D01*
X79621770Y-65600442D01*
X79329671Y-65371201D01*
X78998463Y-65203351D01*
X78640873Y-65103342D01*
X78270641Y-65075017D01*
X77901999Y-65119464D01*
X77549111Y-65234976D01*
X77225539Y-65417113D01*
X76943718Y-65658877D01*
X76771922Y-65877780D01*
X75463493Y-67931601D01*
X75337704Y-68179814D01*
X75237694Y-68537404D01*
X75209369Y-68907635D01*
X75253817Y-69276277D01*
X75369328Y-69629164D01*
X75551466Y-69952737D01*
X75577554Y-69983147D01*
X75449079Y-70008702D01*
X75178662Y-70120712D01*
X74935294Y-70283326D01*
X74728326Y-70490294D01*
X74565712Y-70733662D01*
X74453702Y-71004079D01*
X74396600Y-71291152D01*
X68478400Y-71291152D01*
X68421298Y-71004079D01*
X68309288Y-70733662D01*
X68146674Y-70490294D01*
X67939706Y-70283326D01*
X67696338Y-70120712D01*
X67425921Y-70008702D01*
X67138848Y-69951600D01*
X66846152Y-69951600D01*
X66559079Y-70008702D01*
X66288662Y-70120712D01*
X66045294Y-70283326D01*
X65838326Y-70490294D01*
X65675712Y-70733662D01*
X65563702Y-71004079D01*
X65506600Y-71291152D01*
X64541400Y-71291152D01*
X64541400Y-71178576D01*
X64440373Y-70670678D01*
X64242201Y-70192249D01*
X63954500Y-69761674D01*
X63588326Y-69395500D01*
X63157751Y-69107799D01*
X62679322Y-68909627D01*
X62171424Y-68808600D01*
X61653576Y-68808600D01*
X61145678Y-68909627D01*
X60667249Y-69107799D01*
X60236674Y-69395500D01*
X59870500Y-69761674D01*
X59582799Y-70192249D01*
X59384627Y-70670678D01*
X59283600Y-71178576D01*
X58296008Y-71178576D01*
X58261298Y-71004079D01*
X58157059Y-70752424D01*
X58463000Y-70715536D01*
X58815887Y-70600025D01*
X59139460Y-70417887D01*
X59421282Y-70176123D01*
X59593078Y-69957220D01*
X60901506Y-67903400D01*
X61027296Y-67655188D01*
X61127305Y-67297597D01*
X61155631Y-66927366D01*
X61152453Y-66901005D01*
X62525844Y-66901005D01*
X62534221Y-67179145D01*
X62617590Y-67540977D01*
X62769948Y-67879592D01*
X62985439Y-68181977D01*
X63255781Y-68436511D01*
X63570587Y-68633415D01*
X63917757Y-68765118D01*
X64283950Y-68826561D01*
X64655093Y-68815383D01*
X65016925Y-68732014D01*
X65355540Y-68579656D01*
X65657925Y-68364165D01*
X65912459Y-68093823D01*
X66109363Y-67779017D01*
X66241066Y-67431847D01*
X66287113Y-67157416D01*
X66339156Y-66393996D01*
X66330779Y-66115855D01*
X66247410Y-65754023D01*
X66095052Y-65415408D01*
X65879561Y-65113023D01*
X65609219Y-64858489D01*
X65294413Y-64661586D01*
X64947243Y-64529882D01*
X64581050Y-64468439D01*
X64209907Y-64479617D01*
X63848075Y-64562986D01*
X63509460Y-64715344D01*
X63207075Y-64930835D01*
X62952541Y-65201177D01*
X62755637Y-65515983D01*
X62623934Y-65863153D01*
X62577887Y-66137584D01*
X62525844Y-66901005D01*
X61152453Y-66901005D01*
X61111183Y-66558723D01*
X60995671Y-66205836D01*
X60813534Y-65882263D01*
X60571770Y-65600442D01*
X60279671Y-65371201D01*
X59948463Y-65203351D01*
X59590873Y-65103342D01*
X59220641Y-65075017D01*
X58851999Y-65119464D01*
X58499111Y-65234976D01*
X58175539Y-65417113D01*
X57893718Y-65658877D01*
X57721922Y-65877780D01*
X56413493Y-67931601D01*
X56287704Y-68179814D01*
X56187694Y-68537404D01*
X56159369Y-68907635D01*
X56203817Y-69276277D01*
X56319328Y-69629164D01*
X56501466Y-69952737D01*
X56527554Y-69983147D01*
X56399079Y-70008702D01*
X56128662Y-70120712D01*
X55885294Y-70283326D01*
X55678326Y-70490294D01*
X55515712Y-70733662D01*
X55403702Y-71004079D01*
X55346600Y-71291152D01*
X47146652Y-71291152D01*
X47149721Y-52304652D01*
X55346600Y-52304652D01*
X55346600Y-52597348D01*
X55403702Y-52884421D01*
X55515712Y-53154838D01*
X55678326Y-53398206D01*
X55885294Y-53605174D01*
X56128662Y-53767788D01*
X56399079Y-53879798D01*
X56686152Y-53936900D01*
X56978848Y-53936900D01*
X57265921Y-53879798D01*
X57536338Y-53767788D01*
X57779706Y-53605174D01*
X57986674Y-53398206D01*
X58149288Y-53154838D01*
X58261298Y-52884421D01*
X58318400Y-52597348D01*
X58318400Y-52304652D01*
X58296008Y-52192076D01*
X59283600Y-52192076D01*
X59283600Y-52709924D01*
X59384627Y-53217822D01*
X59582799Y-53696251D01*
X59870500Y-54126826D01*
X60236674Y-54493000D01*
X60667249Y-54780701D01*
X61145678Y-54978873D01*
X61653576Y-55079900D01*
X62171424Y-55079900D01*
X62679322Y-54978873D01*
X63157751Y-54780701D01*
X63588326Y-54493000D01*
X63954500Y-54126826D01*
X64242201Y-53696251D01*
X64440373Y-53217822D01*
X64541400Y-52709924D01*
X64541400Y-52304652D01*
X65506600Y-52304652D01*
X65506600Y-52597348D01*
X65563702Y-52884421D01*
X65675712Y-53154838D01*
X65838326Y-53398206D01*
X66045294Y-53605174D01*
X66288662Y-53767788D01*
X66559079Y-53879798D01*
X66846152Y-53936900D01*
X67138848Y-53936900D01*
X67425921Y-53879798D01*
X67696338Y-53767788D01*
X67939706Y-53605174D01*
X68146674Y-53398206D01*
X68309288Y-53154838D01*
X68421298Y-52884421D01*
X68478400Y-52597348D01*
X68478400Y-52304652D01*
X68421298Y-52017579D01*
X68309288Y-51747162D01*
X68146674Y-51503794D01*
X67939706Y-51296826D01*
X67696338Y-51134212D01*
X67425921Y-51022202D01*
X67138848Y-50965100D01*
X66846152Y-50965100D01*
X66559079Y-51022202D01*
X66288662Y-51134212D01*
X66045294Y-51296826D01*
X65838326Y-51503794D01*
X65675712Y-51747162D01*
X65563702Y-52017579D01*
X65506600Y-52304652D01*
X64541400Y-52304652D01*
X64541400Y-52192076D01*
X64440373Y-51684178D01*
X64242201Y-51205749D01*
X63954500Y-50775174D01*
X63588326Y-50409000D01*
X63157751Y-50121299D01*
X62679322Y-49923127D01*
X62171424Y-49822100D01*
X61653576Y-49822100D01*
X61145678Y-49923127D01*
X60667249Y-50121299D01*
X60236674Y-50409000D01*
X59870500Y-50775174D01*
X59582799Y-51205749D01*
X59384627Y-51684178D01*
X59283600Y-52192076D01*
X58296008Y-52192076D01*
X58261298Y-52017579D01*
X58157059Y-51765924D01*
X58463000Y-51729036D01*
X58815887Y-51613525D01*
X59139460Y-51431387D01*
X59421282Y-51189623D01*
X59593078Y-50970720D01*
X60901506Y-48916900D01*
X61027296Y-48668688D01*
X61127305Y-48311097D01*
X61155631Y-47940866D01*
X61152453Y-47914505D01*
X62525844Y-47914505D01*
X62534221Y-48192645D01*
X62617590Y-48554477D01*
X62769948Y-48893092D01*
X62985439Y-49195477D01*
X63255781Y-49450011D01*
X63570587Y-49646915D01*
X63917757Y-49778618D01*
X64283950Y-49840061D01*
X64655093Y-49828883D01*
X65016925Y-49745514D01*
X65355540Y-49593156D01*
X65657925Y-49377665D01*
X65912459Y-49107323D01*
X66109363Y-48792517D01*
X66241066Y-48445347D01*
X66287113Y-48170916D01*
X66339156Y-47407496D01*
X66330779Y-47129355D01*
X66247410Y-46767523D01*
X66095052Y-46428908D01*
X65879561Y-46126523D01*
X65609219Y-45871989D01*
X65294413Y-45675086D01*
X64947243Y-45543382D01*
X64581050Y-45481939D01*
X64209907Y-45493117D01*
X63848075Y-45576486D01*
X63509460Y-45728844D01*
X63207075Y-45944335D01*
X62952541Y-46214677D01*
X62755637Y-46529483D01*
X62623934Y-46876653D01*
X62577887Y-47151084D01*
X62525844Y-47914505D01*
X61152453Y-47914505D01*
X61111183Y-47572223D01*
X60995671Y-47219336D01*
X60813534Y-46895763D01*
X60571770Y-46613942D01*
X60279671Y-46384701D01*
X59948463Y-46216851D01*
X59590873Y-46116842D01*
X59220641Y-46088517D01*
X58851999Y-46132964D01*
X58499111Y-46248476D01*
X58175539Y-46430613D01*
X57893718Y-46672377D01*
X57721922Y-46891280D01*
X56413493Y-48945101D01*
X56287704Y-49193314D01*
X56187694Y-49550904D01*
X56159369Y-49921135D01*
X56203817Y-50289777D01*
X56319328Y-50642664D01*
X56501466Y-50966237D01*
X56527554Y-50996647D01*
X56399079Y-51022202D01*
X56128662Y-51134212D01*
X55885294Y-51296826D01*
X55678326Y-51503794D01*
X55515712Y-51747162D01*
X55403702Y-52017579D01*
X55346600Y-52304652D01*
X47149721Y-52304652D01*
X47151767Y-39654000D01*
X53908928Y-39654000D01*
X53908928Y-40754000D01*
X53921188Y-40878482D01*
X53957498Y-40998180D01*
X54016463Y-41108494D01*
X54095815Y-41205185D01*
X54192506Y-41284537D01*
X54302820Y-41343502D01*
X54422518Y-41379812D01*
X54547000Y-41392072D01*
X54687468Y-41392072D01*
X54697998Y-41498986D01*
X54699830Y-41505026D01*
X54741454Y-41642246D01*
X54812026Y-41774276D01*
X54870584Y-41845628D01*
X54907000Y-41890001D01*
X54935998Y-41913799D01*
X55316200Y-42294002D01*
X55339999Y-42323001D01*
X55455724Y-42417974D01*
X55587753Y-42488546D01*
X55731014Y-42532003D01*
X55842667Y-42543000D01*
X55842676Y-42543000D01*
X55879999Y-42546676D01*
X55917322Y-42543000D01*
X62065680Y-42543000D01*
X62103002Y-42546676D01*
X62140324Y-42543000D01*
X62140335Y-42543000D01*
X62251988Y-42532003D01*
X62395249Y-42488546D01*
X62527278Y-42417974D01*
X62643003Y-42323001D01*
X62666806Y-42293997D01*
X65916004Y-39044800D01*
X65945001Y-39021003D01*
X66039974Y-38905278D01*
X66110546Y-38773249D01*
X66154003Y-38629988D01*
X66165000Y-38518335D01*
X66165000Y-38518326D01*
X66168676Y-38481003D01*
X66165000Y-38443680D01*
X66165000Y-30241013D01*
X66184744Y-30254205D01*
X66373102Y-30332226D01*
X66573061Y-30372000D01*
X66776939Y-30372000D01*
X66976898Y-30332226D01*
X67165256Y-30254205D01*
X67334774Y-30140937D01*
X67378711Y-30097000D01*
X67539155Y-30097000D01*
X67627208Y-30204292D01*
X67673838Y-30242561D01*
X67652506Y-30253963D01*
X67555815Y-30333315D01*
X67476463Y-30430006D01*
X67417498Y-30540320D01*
X67381188Y-30660018D01*
X67368928Y-30784500D01*
X67372000Y-30986250D01*
X67530750Y-31145000D01*
X68580000Y-31145000D01*
X68580000Y-31125000D01*
X68834000Y-31125000D01*
X68834000Y-31145000D01*
X68854000Y-31145000D01*
X68854000Y-31399000D01*
X68834000Y-31399000D01*
X68834000Y-31419000D01*
X68580000Y-31419000D01*
X68580000Y-31399000D01*
X67530750Y-31399000D01*
X67372000Y-31557750D01*
X67368928Y-31759500D01*
X67381188Y-31883982D01*
X67417498Y-32003680D01*
X67476463Y-32113994D01*
X67555815Y-32210685D01*
X67633564Y-32274492D01*
X67627208Y-32279708D01*
X67517542Y-32413336D01*
X67436053Y-32565791D01*
X67385872Y-32731215D01*
X67368928Y-32903250D01*
X67368928Y-33390750D01*
X67385872Y-33562785D01*
X67436053Y-33728209D01*
X67517542Y-33880664D01*
X67627208Y-34014292D01*
X67651842Y-34034508D01*
X67555815Y-34113315D01*
X67476463Y-34210006D01*
X67417498Y-34320320D01*
X67381188Y-34440018D01*
X67368928Y-34564500D01*
X67372000Y-34766250D01*
X67530750Y-34925000D01*
X68580000Y-34925000D01*
X68580000Y-34905000D01*
X68834000Y-34905000D01*
X68834000Y-34925000D01*
X68854000Y-34925000D01*
X68854000Y-35179000D01*
X68834000Y-35179000D01*
X68834000Y-35199000D01*
X68580000Y-35199000D01*
X68580000Y-35179000D01*
X67530750Y-35179000D01*
X67372000Y-35337750D01*
X67368928Y-35539500D01*
X67381188Y-35663982D01*
X67417498Y-35783680D01*
X67476463Y-35893994D01*
X67555815Y-35990685D01*
X67633564Y-36054492D01*
X67627208Y-36059708D01*
X67517542Y-36193336D01*
X67436053Y-36345791D01*
X67385872Y-36511215D01*
X67368928Y-36683250D01*
X67368928Y-37170750D01*
X67385872Y-37342785D01*
X67436053Y-37508209D01*
X67517542Y-37660664D01*
X67627208Y-37794292D01*
X67673838Y-37832561D01*
X67652506Y-37843963D01*
X67555815Y-37923315D01*
X67476463Y-38020006D01*
X67417498Y-38130320D01*
X67381188Y-38250018D01*
X67368928Y-38374500D01*
X67372000Y-38576250D01*
X67530750Y-38735000D01*
X68580000Y-38735000D01*
X68580000Y-38715000D01*
X68834000Y-38715000D01*
X68834000Y-38735000D01*
X68854000Y-38735000D01*
X68854000Y-38989000D01*
X68834000Y-38989000D01*
X68834000Y-39009000D01*
X68580000Y-39009000D01*
X68580000Y-38989000D01*
X67530750Y-38989000D01*
X67372000Y-39147750D01*
X67368928Y-39349500D01*
X67381188Y-39473982D01*
X67417498Y-39593680D01*
X67476463Y-39703994D01*
X67555815Y-39800685D01*
X67633564Y-39864492D01*
X67627208Y-39869708D01*
X67517542Y-40003336D01*
X67436053Y-40155791D01*
X67385872Y-40321215D01*
X67368928Y-40493250D01*
X67368928Y-40980750D01*
X67370678Y-40998520D01*
X66956271Y-41412928D01*
X66929000Y-41412928D01*
X66755746Y-41429992D01*
X66589150Y-41480528D01*
X66435614Y-41562595D01*
X66301038Y-41673038D01*
X66190595Y-41807614D01*
X66108528Y-41961150D01*
X66057992Y-42127746D01*
X66040928Y-42301000D01*
X66040928Y-43551000D01*
X66057992Y-43724254D01*
X66108528Y-43890850D01*
X66190595Y-44044386D01*
X66301038Y-44178962D01*
X66435614Y-44289405D01*
X66589150Y-44371472D01*
X66755746Y-44422008D01*
X66929000Y-44439072D01*
X67679000Y-44439072D01*
X67852254Y-44422008D01*
X67947001Y-44393267D01*
X67947001Y-44539668D01*
X67943324Y-44577000D01*
X67947001Y-44614333D01*
X67955833Y-44703999D01*
X67957998Y-44725985D01*
X68001454Y-44869246D01*
X68072026Y-45001276D01*
X68143201Y-45088002D01*
X68167000Y-45117001D01*
X68195998Y-45140799D01*
X68270196Y-45214997D01*
X68293999Y-45244001D01*
X68409724Y-45338974D01*
X68541753Y-45409546D01*
X68685014Y-45453003D01*
X68796667Y-45464000D01*
X68796677Y-45464000D01*
X68833999Y-45467676D01*
X68871322Y-45464000D01*
X71590678Y-45464000D01*
X71628000Y-45467676D01*
X71665322Y-45464000D01*
X71665333Y-45464000D01*
X71776986Y-45453003D01*
X71920247Y-45409546D01*
X72052276Y-45338974D01*
X72168001Y-45244001D01*
X72191804Y-45214997D01*
X74743004Y-42663798D01*
X74772001Y-42640001D01*
X74834147Y-42564276D01*
X74866974Y-42524277D01*
X74904998Y-42453140D01*
X74904998Y-42454500D01*
X74974121Y-42454500D01*
X74901795Y-42562744D01*
X74823774Y-42751102D01*
X74784000Y-42951061D01*
X74784000Y-43154939D01*
X74823774Y-43354898D01*
X74901795Y-43543256D01*
X75015063Y-43712774D01*
X75159226Y-43856937D01*
X75328744Y-43970205D01*
X75517102Y-44048226D01*
X75717061Y-44088000D01*
X75920939Y-44088000D01*
X76120898Y-44048226D01*
X76309256Y-43970205D01*
X76390500Y-43915920D01*
X76471744Y-43970205D01*
X76660102Y-44048226D01*
X76860061Y-44088000D01*
X77063939Y-44088000D01*
X77263898Y-44048226D01*
X77452256Y-43970205D01*
X77533500Y-43915920D01*
X77614744Y-43970205D01*
X77803102Y-44048226D01*
X78003061Y-44088000D01*
X78206939Y-44088000D01*
X78406898Y-44048226D01*
X78595256Y-43970205D01*
X78739814Y-43873615D01*
X79250001Y-44383803D01*
X79250001Y-46344326D01*
X78998463Y-46216851D01*
X78640873Y-46116842D01*
X78270641Y-46088517D01*
X77901999Y-46132964D01*
X77549111Y-46248476D01*
X77225539Y-46430613D01*
X76943718Y-46672377D01*
X76771922Y-46891280D01*
X75463493Y-48945101D01*
X75337704Y-49193314D01*
X75237694Y-49550904D01*
X75209369Y-49921135D01*
X75253817Y-50289777D01*
X75369328Y-50642664D01*
X75551466Y-50966237D01*
X75577554Y-50996647D01*
X75449079Y-51022202D01*
X75178662Y-51134212D01*
X74935294Y-51296826D01*
X74728326Y-51503794D01*
X74565712Y-51747162D01*
X74453702Y-52017579D01*
X74396600Y-52304652D01*
X74396600Y-52597348D01*
X74453702Y-52884421D01*
X74565712Y-53154838D01*
X74728326Y-53398206D01*
X74935294Y-53605174D01*
X75178662Y-53767788D01*
X75449079Y-53879798D01*
X75736152Y-53936900D01*
X76028848Y-53936900D01*
X76315921Y-53879798D01*
X76586338Y-53767788D01*
X76829706Y-53605174D01*
X77036674Y-53398206D01*
X77199288Y-53154838D01*
X77311298Y-52884421D01*
X77368400Y-52597348D01*
X77368400Y-52304652D01*
X77311298Y-52017579D01*
X77207059Y-51765924D01*
X77502501Y-51730302D01*
X77502500Y-55711928D01*
X76262500Y-55711928D01*
X76138018Y-55724188D01*
X76018320Y-55760498D01*
X75908006Y-55819463D01*
X75811315Y-55898815D01*
X75731963Y-55995506D01*
X75672998Y-56105820D01*
X75636688Y-56225518D01*
X75624428Y-56350000D01*
X75624428Y-57513271D01*
X74969699Y-58168000D01*
X66823896Y-58168000D01*
X66927137Y-58064759D01*
X67084180Y-57829727D01*
X67192353Y-57568574D01*
X67247500Y-57291335D01*
X67247500Y-57008665D01*
X67192353Y-56731426D01*
X67084180Y-56470273D01*
X66927137Y-56235241D01*
X66727259Y-56035363D01*
X66492227Y-55878320D01*
X66231074Y-55770147D01*
X65953835Y-55715000D01*
X65671165Y-55715000D01*
X65393926Y-55770147D01*
X65132773Y-55878320D01*
X64897741Y-56035363D01*
X64697863Y-56235241D01*
X64680031Y-56261928D01*
X64653541Y-56261928D01*
X64618037Y-56195506D01*
X64538685Y-56098815D01*
X64441994Y-56019463D01*
X64331680Y-55960498D01*
X64211982Y-55924188D01*
X64087500Y-55911928D01*
X62887500Y-55911928D01*
X62763018Y-55924188D01*
X62643320Y-55960498D01*
X62533006Y-56019463D01*
X62436315Y-56098815D01*
X62356963Y-56195506D01*
X62297998Y-56305820D01*
X62261688Y-56425518D01*
X62249428Y-56550000D01*
X62249428Y-57750000D01*
X62261688Y-57874482D01*
X62297998Y-57994180D01*
X62356963Y-58104494D01*
X62409081Y-58168000D01*
X61415919Y-58168000D01*
X61468037Y-58104494D01*
X61527002Y-57994180D01*
X61563312Y-57874482D01*
X61575572Y-57750000D01*
X61575572Y-56550000D01*
X61563312Y-56425518D01*
X61527002Y-56305820D01*
X61468037Y-56195506D01*
X61388685Y-56098815D01*
X61291994Y-56019463D01*
X61181680Y-55960498D01*
X61061982Y-55924188D01*
X60937500Y-55911928D01*
X59737500Y-55911928D01*
X59613018Y-55924188D01*
X59493320Y-55960498D01*
X59383006Y-56019463D01*
X59364125Y-56034958D01*
X59343037Y-55995506D01*
X59263685Y-55898815D01*
X59166994Y-55819463D01*
X59056680Y-55760498D01*
X58936982Y-55724188D01*
X58812500Y-55711928D01*
X57212500Y-55711928D01*
X57088018Y-55724188D01*
X56968320Y-55760498D01*
X56858006Y-55819463D01*
X56761315Y-55898815D01*
X56681963Y-55995506D01*
X56622998Y-56105820D01*
X56586688Y-56225518D01*
X56574428Y-56350000D01*
X56574428Y-57950000D01*
X56586688Y-58074482D01*
X56622998Y-58194180D01*
X56681963Y-58304494D01*
X56761315Y-58401185D01*
X56858006Y-58480537D01*
X56968320Y-58539502D01*
X57088018Y-58575812D01*
X57212500Y-58588072D01*
X58375770Y-58588072D01*
X58573701Y-58786003D01*
X58597500Y-58815002D01*
X58713225Y-58909975D01*
X58736746Y-58922548D01*
X59253200Y-59439002D01*
X59276999Y-59468001D01*
X59305997Y-59491799D01*
X59392723Y-59562974D01*
X59524753Y-59633546D01*
X59668014Y-59677003D01*
X59779667Y-59688000D01*
X59779676Y-59688000D01*
X59816999Y-59691676D01*
X59854322Y-59688000D01*
X75247178Y-59688000D01*
X75284500Y-59691676D01*
X75321822Y-59688000D01*
X75321833Y-59688000D01*
X75433486Y-59677003D01*
X75576747Y-59633546D01*
X75708776Y-59562974D01*
X75824501Y-59468001D01*
X75848304Y-59438997D01*
X76699229Y-58588072D01*
X77862500Y-58588072D01*
X77986982Y-58575812D01*
X78106680Y-58539502D01*
X78216994Y-58480537D01*
X78313685Y-58401185D01*
X78393037Y-58304494D01*
X78414125Y-58265042D01*
X78433006Y-58280537D01*
X78543320Y-58339502D01*
X78663018Y-58375812D01*
X78787500Y-58388072D01*
X79987500Y-58388072D01*
X80111982Y-58375812D01*
X80231680Y-58339502D01*
X80341994Y-58280537D01*
X80438685Y-58201185D01*
X80518037Y-58104494D01*
X80577002Y-57994180D01*
X80613312Y-57874482D01*
X80625572Y-57750000D01*
X80625572Y-56550000D01*
X81299428Y-56550000D01*
X81299428Y-57750000D01*
X81311688Y-57874482D01*
X81347998Y-57994180D01*
X81406963Y-58104494D01*
X81486315Y-58201185D01*
X81583006Y-58280537D01*
X81693320Y-58339502D01*
X81813018Y-58375812D01*
X81937500Y-58388072D01*
X83137500Y-58388072D01*
X83261982Y-58375812D01*
X83381680Y-58339502D01*
X83491994Y-58280537D01*
X83588685Y-58201185D01*
X83668037Y-58104494D01*
X83703541Y-58038072D01*
X83730031Y-58038072D01*
X83747863Y-58064759D01*
X83947741Y-58264637D01*
X84182773Y-58421680D01*
X84443926Y-58529853D01*
X84721165Y-58585000D01*
X85003835Y-58585000D01*
X85281074Y-58529853D01*
X85542227Y-58421680D01*
X85777259Y-58264637D01*
X85977137Y-58064759D01*
X86134180Y-57829727D01*
X86242353Y-57568574D01*
X86297500Y-57291335D01*
X86297500Y-57008665D01*
X86242353Y-56731426D01*
X86134180Y-56470273D01*
X85977137Y-56235241D01*
X85777259Y-56035363D01*
X85542227Y-55878320D01*
X85281074Y-55770147D01*
X85003835Y-55715000D01*
X84721165Y-55715000D01*
X84443926Y-55770147D01*
X84182773Y-55878320D01*
X83947741Y-56035363D01*
X83747863Y-56235241D01*
X83730031Y-56261928D01*
X83703541Y-56261928D01*
X83668037Y-56195506D01*
X83588685Y-56098815D01*
X83491994Y-56019463D01*
X83381680Y-55960498D01*
X83261982Y-55924188D01*
X83137500Y-55911928D01*
X81937500Y-55911928D01*
X81813018Y-55924188D01*
X81693320Y-55960498D01*
X81583006Y-56019463D01*
X81486315Y-56098815D01*
X81406963Y-56195506D01*
X81347998Y-56305820D01*
X81311688Y-56425518D01*
X81299428Y-56550000D01*
X80625572Y-56550000D01*
X80613312Y-56425518D01*
X80577002Y-56305820D01*
X80518037Y-56195506D01*
X80438685Y-56098815D01*
X80341994Y-56019463D01*
X80231680Y-55960498D01*
X80111982Y-55924188D01*
X79987500Y-55911928D01*
X79022500Y-55911928D01*
X79022500Y-54228826D01*
X79286674Y-54493000D01*
X79717249Y-54780701D01*
X80195678Y-54978873D01*
X80703576Y-55079900D01*
X81221424Y-55079900D01*
X81729322Y-54978873D01*
X82207751Y-54780701D01*
X82638326Y-54493000D01*
X83004500Y-54126826D01*
X83292201Y-53696251D01*
X83490373Y-53217822D01*
X83591400Y-52709924D01*
X83591400Y-52304652D01*
X84556600Y-52304652D01*
X84556600Y-52597348D01*
X84613702Y-52884421D01*
X84725712Y-53154838D01*
X84888326Y-53398206D01*
X85095294Y-53605174D01*
X85338662Y-53767788D01*
X85609079Y-53879798D01*
X85896152Y-53936900D01*
X86188848Y-53936900D01*
X86475921Y-53879798D01*
X86746338Y-53767788D01*
X86989706Y-53605174D01*
X87196674Y-53398206D01*
X87359288Y-53154838D01*
X87471298Y-52884421D01*
X87528400Y-52597348D01*
X87528400Y-52304652D01*
X87471298Y-52017579D01*
X87359288Y-51747162D01*
X87196674Y-51503794D01*
X86989706Y-51296826D01*
X86746338Y-51134212D01*
X86475921Y-51022202D01*
X86188848Y-50965100D01*
X85896152Y-50965100D01*
X85609079Y-51022202D01*
X85338662Y-51134212D01*
X85095294Y-51296826D01*
X84888326Y-51503794D01*
X84725712Y-51747162D01*
X84613702Y-52017579D01*
X84556600Y-52304652D01*
X83591400Y-52304652D01*
X83591400Y-52192076D01*
X83490373Y-51684178D01*
X83292201Y-51205749D01*
X83004500Y-50775174D01*
X82638326Y-50409000D01*
X82207751Y-50121299D01*
X81729322Y-49923127D01*
X81221424Y-49822100D01*
X80769924Y-49822100D01*
X80770000Y-49821333D01*
X80770000Y-49821324D01*
X80773676Y-49784001D01*
X80770000Y-49746678D01*
X80770000Y-47914505D01*
X81575844Y-47914505D01*
X81584221Y-48192645D01*
X81667590Y-48554477D01*
X81819948Y-48893092D01*
X82035439Y-49195477D01*
X82305781Y-49450011D01*
X82620587Y-49646915D01*
X82967757Y-49778618D01*
X83333950Y-49840061D01*
X83705093Y-49828883D01*
X84066925Y-49745514D01*
X84405540Y-49593156D01*
X84707925Y-49377665D01*
X84962459Y-49107323D01*
X85159363Y-48792517D01*
X85291066Y-48445347D01*
X85337113Y-48170916D01*
X85389156Y-47407496D01*
X85380779Y-47129355D01*
X85297410Y-46767523D01*
X85145052Y-46428908D01*
X84929561Y-46126523D01*
X84659219Y-45871989D01*
X84344413Y-45675086D01*
X83997243Y-45543382D01*
X83631050Y-45481939D01*
X83259907Y-45493117D01*
X82898075Y-45576486D01*
X82559460Y-45728844D01*
X82257075Y-45944335D01*
X82002541Y-46214677D01*
X81805637Y-46529483D01*
X81673934Y-46876653D01*
X81627887Y-47151084D01*
X81575844Y-47914505D01*
X80770000Y-47914505D01*
X80770000Y-44106323D01*
X80773676Y-44069000D01*
X80770000Y-44031677D01*
X80770000Y-44031667D01*
X80759003Y-43920014D01*
X80723555Y-43803156D01*
X80818590Y-43708121D01*
X80931858Y-43538603D01*
X81009879Y-43350245D01*
X81049653Y-43150286D01*
X81049653Y-42946408D01*
X81009879Y-42746449D01*
X80931858Y-42558091D01*
X80864694Y-42457572D01*
X80907000Y-42457572D01*
X81031482Y-42445312D01*
X81032663Y-42444954D01*
X81146250Y-42454500D01*
X81238333Y-42362417D01*
X81261494Y-42350037D01*
X81358185Y-42270685D01*
X81432000Y-42180741D01*
X81505815Y-42270685D01*
X81602506Y-42350037D01*
X81625667Y-42362417D01*
X81717750Y-42454500D01*
X81831337Y-42444954D01*
X81832518Y-42445312D01*
X81957000Y-42457572D01*
X82507000Y-42457572D01*
X82631482Y-42445312D01*
X82751180Y-42409002D01*
X82861494Y-42350037D01*
X82958185Y-42270685D01*
X83037537Y-42173994D01*
X83096502Y-42063680D01*
X83132812Y-41943982D01*
X83144087Y-41829500D01*
X86147178Y-41829500D01*
X86184500Y-41833176D01*
X86221822Y-41829500D01*
X86221833Y-41829500D01*
X86333486Y-41818503D01*
X86419952Y-41792274D01*
X86418928Y-41859500D01*
X86431188Y-41983982D01*
X86467498Y-42103680D01*
X86526463Y-42213994D01*
X86605815Y-42310685D01*
X86702506Y-42390037D01*
X86812820Y-42449002D01*
X86932518Y-42485312D01*
X87057000Y-42497572D01*
X87471250Y-42494500D01*
X87630000Y-42335750D01*
X87630000Y-41499000D01*
X87884000Y-41499000D01*
X87884000Y-42335750D01*
X88042750Y-42494500D01*
X88457000Y-42497572D01*
X88581482Y-42485312D01*
X88701180Y-42449002D01*
X88811494Y-42390037D01*
X88908185Y-42310685D01*
X88987537Y-42213994D01*
X89046502Y-42103680D01*
X89082812Y-41983982D01*
X89095072Y-41859500D01*
X89092000Y-41657750D01*
X88933250Y-41499000D01*
X87884000Y-41499000D01*
X87630000Y-41499000D01*
X87610000Y-41499000D01*
X87610000Y-41245000D01*
X87630000Y-41245000D01*
X87630000Y-41225000D01*
X87884000Y-41225000D01*
X87884000Y-41245000D01*
X88933250Y-41245000D01*
X89092000Y-41086250D01*
X89095072Y-40884500D01*
X89082812Y-40760018D01*
X89046502Y-40640320D01*
X88987537Y-40530006D01*
X88908185Y-40433315D01*
X88830436Y-40369508D01*
X88836792Y-40364292D01*
X88946458Y-40230664D01*
X89027947Y-40078209D01*
X89078128Y-39912785D01*
X89095072Y-39740750D01*
X89095072Y-39253250D01*
X89078128Y-39081215D01*
X89027947Y-38915791D01*
X88946458Y-38763336D01*
X88836792Y-38629708D01*
X88703164Y-38520042D01*
X88550709Y-38438553D01*
X88385285Y-38388372D01*
X88213250Y-38371428D01*
X87300750Y-38371428D01*
X87128715Y-38388372D01*
X86963291Y-38438553D01*
X86810836Y-38520042D01*
X86677208Y-38629708D01*
X86567542Y-38763336D01*
X86486053Y-38915791D01*
X86435872Y-39081215D01*
X86418928Y-39253250D01*
X86418928Y-39740750D01*
X86420678Y-39758520D01*
X85869699Y-40309500D01*
X83144087Y-40309500D01*
X83141038Y-40278538D01*
X83182000Y-40282572D01*
X84682000Y-40282572D01*
X84806482Y-40270312D01*
X84926180Y-40234002D01*
X85036494Y-40175037D01*
X85133185Y-40095685D01*
X85212537Y-39998994D01*
X85271502Y-39888680D01*
X85274280Y-39879521D01*
X87706230Y-37447572D01*
X88213250Y-37447572D01*
X88385285Y-37430628D01*
X88550709Y-37380447D01*
X88703164Y-37298958D01*
X88836792Y-37189292D01*
X88946458Y-37055664D01*
X89027947Y-36903209D01*
X89078128Y-36737785D01*
X89095072Y-36565750D01*
X89095072Y-36078250D01*
X89078128Y-35906215D01*
X89027947Y-35740791D01*
X88946458Y-35588336D01*
X88836792Y-35454708D01*
X88830436Y-35449492D01*
X88908185Y-35385685D01*
X88987537Y-35288994D01*
X89046502Y-35178680D01*
X89082812Y-35058982D01*
X89095072Y-34934500D01*
X89092000Y-34732750D01*
X88933250Y-34574000D01*
X87884000Y-34574000D01*
X87884000Y-34594000D01*
X87630000Y-34594000D01*
X87630000Y-34574000D01*
X86580750Y-34574000D01*
X86422000Y-34732750D01*
X86418928Y-34934500D01*
X86431188Y-35058982D01*
X86467498Y-35178680D01*
X86526463Y-35288994D01*
X86605815Y-35385685D01*
X86683564Y-35449492D01*
X86677208Y-35454708D01*
X86567542Y-35588336D01*
X86486053Y-35740791D01*
X86435872Y-35906215D01*
X86418928Y-36078250D01*
X86418928Y-36565750D01*
X86420678Y-36583520D01*
X85320072Y-37684127D01*
X85320072Y-37494500D01*
X85307812Y-37370018D01*
X85307655Y-37369500D01*
X85307812Y-37368982D01*
X85320072Y-37244500D01*
X85320072Y-36694500D01*
X85307812Y-36570018D01*
X85307655Y-36569500D01*
X85307812Y-36568982D01*
X85320072Y-36444500D01*
X85320072Y-35894500D01*
X85307812Y-35770018D01*
X85307655Y-35769500D01*
X85307812Y-35768982D01*
X85320072Y-35644500D01*
X85320072Y-35094500D01*
X85307812Y-34970018D01*
X85307655Y-34969500D01*
X85307812Y-34968982D01*
X85320072Y-34844500D01*
X85320072Y-34294500D01*
X85307812Y-34170018D01*
X85307655Y-34169500D01*
X85307812Y-34168982D01*
X85320072Y-34044500D01*
X85320072Y-33959500D01*
X86418928Y-33959500D01*
X86422000Y-34161250D01*
X86580750Y-34320000D01*
X87630000Y-34320000D01*
X87630000Y-33483250D01*
X87884000Y-33483250D01*
X87884000Y-34320000D01*
X88933250Y-34320000D01*
X89092000Y-34161250D01*
X89095072Y-33959500D01*
X89082812Y-33835018D01*
X89046502Y-33715320D01*
X88987537Y-33605006D01*
X88908185Y-33508315D01*
X88811494Y-33428963D01*
X88701180Y-33369998D01*
X88581482Y-33333688D01*
X88457000Y-33321428D01*
X88042750Y-33324500D01*
X87884000Y-33483250D01*
X87630000Y-33483250D01*
X87471250Y-33324500D01*
X87057000Y-33321428D01*
X86932518Y-33333688D01*
X86812820Y-33369998D01*
X86702506Y-33428963D01*
X86605815Y-33508315D01*
X86526463Y-33605006D01*
X86467498Y-33715320D01*
X86431188Y-33835018D01*
X86418928Y-33959500D01*
X85320072Y-33959500D01*
X85320072Y-33494500D01*
X85307812Y-33370018D01*
X85307655Y-33369500D01*
X85307812Y-33368982D01*
X85320072Y-33244500D01*
X85320072Y-32823826D01*
X85356276Y-32804474D01*
X85472001Y-32709501D01*
X85495804Y-32680497D01*
X86504800Y-31671502D01*
X86580748Y-31671502D01*
X86422000Y-31830250D01*
X86418928Y-32032000D01*
X86431188Y-32156482D01*
X86467498Y-32276180D01*
X86526463Y-32386494D01*
X86605815Y-32483185D01*
X86702506Y-32562537D01*
X86812820Y-32621502D01*
X86932518Y-32657812D01*
X87057000Y-32670072D01*
X87471250Y-32667000D01*
X87630000Y-32508250D01*
X87630000Y-31671500D01*
X87884000Y-31671500D01*
X87884000Y-32508250D01*
X88042750Y-32667000D01*
X88457000Y-32670072D01*
X88581482Y-32657812D01*
X88701180Y-32621502D01*
X88811494Y-32562537D01*
X88908185Y-32483185D01*
X88987537Y-32386494D01*
X89046502Y-32276180D01*
X89082812Y-32156482D01*
X89095072Y-32032000D01*
X89092000Y-31830250D01*
X88933250Y-31671500D01*
X87884000Y-31671500D01*
X87630000Y-31671500D01*
X87610000Y-31671500D01*
X87610000Y-31417500D01*
X87630000Y-31417500D01*
X87630000Y-31397500D01*
X87884000Y-31397500D01*
X87884000Y-31417500D01*
X88933250Y-31417500D01*
X89092000Y-31258750D01*
X89095072Y-31057000D01*
X89082812Y-30932518D01*
X89046502Y-30812820D01*
X88987537Y-30702506D01*
X88908185Y-30605815D01*
X88830436Y-30542008D01*
X88836792Y-30536792D01*
X88946458Y-30403164D01*
X89027947Y-30250709D01*
X89078128Y-30085285D01*
X89095072Y-29913250D01*
X89095072Y-29425750D01*
X89078128Y-29253715D01*
X89027947Y-29088291D01*
X88946458Y-28935836D01*
X88836792Y-28802208D01*
X88703164Y-28692542D01*
X88550709Y-28611053D01*
X88385285Y-28560872D01*
X88213250Y-28543928D01*
X87300750Y-28543928D01*
X87128715Y-28560872D01*
X86963291Y-28611053D01*
X86810836Y-28692542D01*
X86677208Y-28802208D01*
X86567542Y-28935836D01*
X86486053Y-29088291D01*
X86435872Y-29253715D01*
X86418928Y-29425750D01*
X86418928Y-29607770D01*
X85238345Y-30788354D01*
X85210746Y-30737339D01*
X85130908Y-30641049D01*
X85033818Y-30562184D01*
X84923208Y-30503776D01*
X84803329Y-30468070D01*
X84678787Y-30456436D01*
X84217750Y-30459500D01*
X84059000Y-30618250D01*
X84059000Y-31242500D01*
X84079000Y-31242500D01*
X84079000Y-31256428D01*
X83182000Y-31256428D01*
X83057518Y-31268688D01*
X82937820Y-31304998D01*
X82827506Y-31363963D01*
X82744315Y-31432236D01*
X82639753Y-31463954D01*
X82507723Y-31534526D01*
X82434286Y-31594795D01*
X82391999Y-31629499D01*
X82368201Y-31658497D01*
X80217199Y-33809500D01*
X76794302Y-33809500D01*
X76592000Y-33607199D01*
X76592000Y-30829481D01*
X76632000Y-30780741D01*
X76705815Y-30870685D01*
X76802506Y-30950037D01*
X76825667Y-30962417D01*
X76917750Y-31054500D01*
X77031337Y-31044954D01*
X77032518Y-31045312D01*
X77157000Y-31057572D01*
X77707000Y-31057572D01*
X77831482Y-31045312D01*
X77832000Y-31045155D01*
X77832518Y-31045312D01*
X77957000Y-31057572D01*
X78507000Y-31057572D01*
X78631482Y-31045312D01*
X78632000Y-31045155D01*
X78632518Y-31045312D01*
X78757000Y-31057572D01*
X79307000Y-31057572D01*
X79431482Y-31045312D01*
X79432000Y-31045155D01*
X79432518Y-31045312D01*
X79557000Y-31057572D01*
X80107000Y-31057572D01*
X80231482Y-31045312D01*
X80232000Y-31045155D01*
X80232518Y-31045312D01*
X80357000Y-31057572D01*
X80907000Y-31057572D01*
X81031482Y-31045312D01*
X81032000Y-31045155D01*
X81032518Y-31045312D01*
X81157000Y-31057572D01*
X81707000Y-31057572D01*
X81831482Y-31045312D01*
X81832000Y-31045155D01*
X81832518Y-31045312D01*
X81957000Y-31057572D01*
X82507000Y-31057572D01*
X82549552Y-31053381D01*
X82547000Y-31083750D01*
X82705750Y-31242500D01*
X83805000Y-31242500D01*
X83805000Y-30618250D01*
X83646250Y-30459500D01*
X83185213Y-30456436D01*
X83141028Y-30460564D01*
X83145072Y-30419500D01*
X83145072Y-28919500D01*
X83132812Y-28795018D01*
X83096502Y-28675320D01*
X83037537Y-28565006D01*
X82958185Y-28468315D01*
X82861494Y-28388963D01*
X82751180Y-28329998D01*
X82631482Y-28293688D01*
X82507000Y-28281428D01*
X81957000Y-28281428D01*
X81832518Y-28293688D01*
X81832000Y-28293845D01*
X81831482Y-28293688D01*
X81707000Y-28281428D01*
X81157000Y-28281428D01*
X81032518Y-28293688D01*
X81032000Y-28293845D01*
X81031482Y-28293688D01*
X80907000Y-28281428D01*
X80357000Y-28281428D01*
X80232518Y-28293688D01*
X80232000Y-28293845D01*
X80231482Y-28293688D01*
X80107000Y-28281428D01*
X79557000Y-28281428D01*
X79432518Y-28293688D01*
X79432000Y-28293845D01*
X79431482Y-28293688D01*
X79307000Y-28281428D01*
X78992000Y-28281428D01*
X78992000Y-25941872D01*
X89713000Y-25941872D01*
X89713000Y-26382128D01*
X89798890Y-26813925D01*
X89967369Y-27220669D01*
X90211962Y-27586729D01*
X90523271Y-27898038D01*
X90889331Y-28142631D01*
X91296075Y-28311110D01*
X91727872Y-28397000D01*
X92168128Y-28397000D01*
X92599925Y-28311110D01*
X93006669Y-28142631D01*
X93372729Y-27898038D01*
X93684038Y-27586729D01*
X93928631Y-27220669D01*
X94097110Y-26813925D01*
X94183000Y-26382128D01*
X94183000Y-25941872D01*
X94097110Y-25510075D01*
X93928631Y-25103331D01*
X93684038Y-24737271D01*
X93372729Y-24425962D01*
X93006669Y-24181369D01*
X92599925Y-24012890D01*
X92168128Y-23927000D01*
X91727872Y-23927000D01*
X91296075Y-24012890D01*
X90889331Y-24181369D01*
X90523271Y-24425962D01*
X90211962Y-24737271D01*
X89967369Y-25103331D01*
X89798890Y-25510075D01*
X89713000Y-25941872D01*
X78992000Y-25941872D01*
X78992000Y-25663801D01*
X79111729Y-25544072D01*
X80075000Y-25544072D01*
X80199482Y-25531812D01*
X80319180Y-25495502D01*
X80429494Y-25436537D01*
X80526185Y-25357185D01*
X80605537Y-25260494D01*
X80664502Y-25150180D01*
X80675477Y-25114000D01*
X81255155Y-25114000D01*
X81343208Y-25221292D01*
X81476836Y-25330958D01*
X81629291Y-25412447D01*
X81794715Y-25462628D01*
X81966750Y-25479572D01*
X82879250Y-25479572D01*
X83051285Y-25462628D01*
X83216709Y-25412447D01*
X83369164Y-25330958D01*
X83502792Y-25221292D01*
X83612458Y-25087664D01*
X83693947Y-24935209D01*
X83744128Y-24769785D01*
X83761072Y-24597750D01*
X83761072Y-24110250D01*
X83744128Y-23938215D01*
X83693947Y-23772791D01*
X83612458Y-23620336D01*
X83502792Y-23486708D01*
X83496436Y-23481492D01*
X83574185Y-23417685D01*
X83653537Y-23320994D01*
X83712502Y-23210680D01*
X83748812Y-23090982D01*
X83761072Y-22966500D01*
X83758000Y-22764750D01*
X83599250Y-22606000D01*
X82550000Y-22606000D01*
X82550000Y-22626000D01*
X82296000Y-22626000D01*
X82296000Y-22606000D01*
X81246750Y-22606000D01*
X81088000Y-22764750D01*
X81084928Y-22966500D01*
X81097188Y-23090982D01*
X81133498Y-23210680D01*
X81192463Y-23320994D01*
X81271815Y-23417685D01*
X81349564Y-23481492D01*
X81343208Y-23486708D01*
X81255155Y-23594000D01*
X80702041Y-23594000D01*
X80700812Y-23581518D01*
X80664502Y-23461820D01*
X80661391Y-23456000D01*
X80664502Y-23450180D01*
X80700812Y-23330482D01*
X80713072Y-23206000D01*
X80710000Y-22891750D01*
X80551250Y-22733000D01*
X79502000Y-22733000D01*
X79502000Y-22753000D01*
X79248000Y-22753000D01*
X79248000Y-22733000D01*
X79228000Y-22733000D01*
X79228000Y-22479000D01*
X79248000Y-22479000D01*
X79248000Y-21529750D01*
X79502000Y-21529750D01*
X79502000Y-22479000D01*
X80551250Y-22479000D01*
X80710000Y-22320250D01*
X80713072Y-22006000D01*
X80711644Y-21991500D01*
X81084928Y-21991500D01*
X81088000Y-22193250D01*
X81246750Y-22352000D01*
X82296000Y-22352000D01*
X82296000Y-21515250D01*
X82550000Y-21515250D01*
X82550000Y-22352000D01*
X83599250Y-22352000D01*
X83758000Y-22193250D01*
X83761072Y-21991500D01*
X83748812Y-21867018D01*
X83712502Y-21747320D01*
X83653537Y-21637006D01*
X83574185Y-21540315D01*
X83477494Y-21460963D01*
X83367180Y-21401998D01*
X83247482Y-21365688D01*
X83123000Y-21353428D01*
X82708750Y-21356500D01*
X82550000Y-21515250D01*
X82296000Y-21515250D01*
X82137250Y-21356500D01*
X81723000Y-21353428D01*
X81598518Y-21365688D01*
X81478820Y-21401998D01*
X81368506Y-21460963D01*
X81271815Y-21540315D01*
X81192463Y-21637006D01*
X81133498Y-21747320D01*
X81097188Y-21867018D01*
X81084928Y-21991500D01*
X80711644Y-21991500D01*
X80700812Y-21881518D01*
X80664502Y-21761820D01*
X80605537Y-21651506D01*
X80526185Y-21554815D01*
X80429494Y-21475463D01*
X80319180Y-21416498D01*
X80199482Y-21380188D01*
X80075000Y-21367928D01*
X79660750Y-21371000D01*
X79502000Y-21529750D01*
X79248000Y-21529750D01*
X79089250Y-21371000D01*
X78675000Y-21367928D01*
X78550518Y-21380188D01*
X78430820Y-21416498D01*
X78320506Y-21475463D01*
X78275000Y-21512809D01*
X78229494Y-21475463D01*
X78119180Y-21416498D01*
X77999482Y-21380188D01*
X77875000Y-21367928D01*
X76475000Y-21367928D01*
X76350518Y-21380188D01*
X76230820Y-21416498D01*
X76120506Y-21475463D01*
X76023815Y-21554815D01*
X75944463Y-21651506D01*
X75892351Y-21749000D01*
X75462845Y-21749000D01*
X75374792Y-21641708D01*
X75241164Y-21532042D01*
X75088709Y-21450553D01*
X74923285Y-21400372D01*
X74751250Y-21383428D01*
X73838750Y-21383428D01*
X73666715Y-21400372D01*
X73501291Y-21450553D01*
X73348836Y-21532042D01*
X73215208Y-21641708D01*
X73105542Y-21775336D01*
X73024053Y-21927791D01*
X72973872Y-22093215D01*
X72956928Y-22265250D01*
X72956928Y-22752750D01*
X72973872Y-22924785D01*
X73024053Y-23090209D01*
X73105542Y-23242664D01*
X73215208Y-23376292D01*
X73221564Y-23381508D01*
X73143815Y-23445315D01*
X73064463Y-23542006D01*
X73005498Y-23652320D01*
X72969188Y-23772018D01*
X72956928Y-23896500D01*
X72960000Y-24098250D01*
X73118750Y-24257000D01*
X74168000Y-24257000D01*
X74168000Y-24237000D01*
X74422000Y-24237000D01*
X74422000Y-24257000D01*
X74442000Y-24257000D01*
X74442000Y-24511000D01*
X74422000Y-24511000D01*
X74422000Y-25347750D01*
X74580750Y-25506500D01*
X74932001Y-25509105D01*
X74932001Y-26232378D01*
X74846276Y-26162026D01*
X74714247Y-26091454D01*
X74570986Y-26047997D01*
X74459333Y-26037000D01*
X74459322Y-26037000D01*
X74422000Y-26033324D01*
X74384678Y-26037000D01*
X70480552Y-26037000D01*
X70043322Y-25599770D01*
X70045072Y-25582000D01*
X70045072Y-25094500D01*
X70028128Y-24922465D01*
X70012668Y-24871500D01*
X72956928Y-24871500D01*
X72969188Y-24995982D01*
X73005498Y-25115680D01*
X73064463Y-25225994D01*
X73143815Y-25322685D01*
X73240506Y-25402037D01*
X73350820Y-25461002D01*
X73470518Y-25497312D01*
X73595000Y-25509572D01*
X74009250Y-25506500D01*
X74168000Y-25347750D01*
X74168000Y-24511000D01*
X73118750Y-24511000D01*
X72960000Y-24669750D01*
X72956928Y-24871500D01*
X70012668Y-24871500D01*
X69977947Y-24757041D01*
X69896458Y-24604586D01*
X69786792Y-24470958D01*
X69780436Y-24465742D01*
X69858185Y-24401935D01*
X69937537Y-24305244D01*
X69996502Y-24194930D01*
X70032812Y-24075232D01*
X70045072Y-23950750D01*
X70042000Y-23749000D01*
X69883250Y-23590250D01*
X68834000Y-23590250D01*
X68834000Y-23610250D01*
X68580000Y-23610250D01*
X68580000Y-23590250D01*
X67530750Y-23590250D01*
X67372000Y-23749000D01*
X67368928Y-23950750D01*
X67381188Y-24075232D01*
X67417498Y-24194930D01*
X67476463Y-24305244D01*
X67555815Y-24401935D01*
X67633564Y-24465742D01*
X67627208Y-24470958D01*
X67517542Y-24604586D01*
X67436053Y-24757041D01*
X67385872Y-24922465D01*
X67368928Y-25094500D01*
X67368928Y-25582000D01*
X67385872Y-25754035D01*
X67436053Y-25919459D01*
X67517542Y-26071914D01*
X67627208Y-26205542D01*
X67760836Y-26315208D01*
X67913291Y-26396697D01*
X67924592Y-26400125D01*
X67913291Y-26403553D01*
X67760836Y-26485042D01*
X67627208Y-26594708D01*
X67539155Y-26702000D01*
X66301322Y-26702000D01*
X66263999Y-26698324D01*
X66226676Y-26702000D01*
X66226667Y-26702000D01*
X66115014Y-26712997D01*
X65971753Y-26756454D01*
X65839724Y-26827026D01*
X65829406Y-26835494D01*
X65752996Y-26898201D01*
X65752992Y-26898205D01*
X65723999Y-26921999D01*
X65700205Y-26950992D01*
X64893998Y-27757201D01*
X64865000Y-27780999D01*
X64841202Y-27809997D01*
X64841201Y-27809998D01*
X64770026Y-27896724D01*
X64699454Y-28028754D01*
X64679297Y-28095205D01*
X64657354Y-28167546D01*
X64655998Y-28172015D01*
X64641324Y-28321000D01*
X64645001Y-28358332D01*
X64645000Y-38166200D01*
X63182573Y-39628627D01*
X63172812Y-39529518D01*
X63136502Y-39409820D01*
X63077537Y-39299506D01*
X62998185Y-39202815D01*
X62901494Y-39123463D01*
X62791180Y-39064498D01*
X62671482Y-39028188D01*
X62547000Y-39015928D01*
X60747000Y-39015928D01*
X60622518Y-39028188D01*
X60502820Y-39064498D01*
X60392506Y-39123463D01*
X60295815Y-39202815D01*
X60216463Y-39299506D01*
X60157498Y-39409820D01*
X60121188Y-39529518D01*
X60108928Y-39654000D01*
X60108928Y-40754000D01*
X60121188Y-40878482D01*
X60157498Y-40998180D01*
X60170765Y-41023000D01*
X56923235Y-41023000D01*
X56936502Y-40998180D01*
X56972812Y-40878482D01*
X56985072Y-40754000D01*
X56985072Y-39654000D01*
X56972812Y-39529518D01*
X56936502Y-39409820D01*
X56877537Y-39299506D01*
X56798185Y-39202815D01*
X56701494Y-39123463D01*
X56591180Y-39064498D01*
X56471482Y-39028188D01*
X56347000Y-39015928D01*
X54547000Y-39015928D01*
X54422518Y-39028188D01*
X54302820Y-39064498D01*
X54192506Y-39123463D01*
X54095815Y-39202815D01*
X54016463Y-39299506D01*
X53957498Y-39409820D01*
X53921188Y-39529518D01*
X53908928Y-39654000D01*
X47151767Y-39654000D01*
X47152365Y-35954000D01*
X53908928Y-35954000D01*
X53908928Y-37054000D01*
X53921188Y-37178482D01*
X53957498Y-37298180D01*
X54016463Y-37408494D01*
X54095815Y-37505185D01*
X54192506Y-37584537D01*
X54302820Y-37643502D01*
X54422518Y-37679812D01*
X54547000Y-37692072D01*
X56347000Y-37692072D01*
X56471482Y-37679812D01*
X56591180Y-37643502D01*
X56701494Y-37584537D01*
X56798185Y-37505185D01*
X56877537Y-37408494D01*
X56936502Y-37298180D01*
X56972812Y-37178482D01*
X56985072Y-37054000D01*
X60108928Y-37054000D01*
X60121188Y-37178482D01*
X60157498Y-37298180D01*
X60216463Y-37408494D01*
X60295815Y-37505185D01*
X60392506Y-37584537D01*
X60502820Y-37643502D01*
X60622518Y-37679812D01*
X60747000Y-37692072D01*
X61361250Y-37689000D01*
X61520000Y-37530250D01*
X61520000Y-36631000D01*
X61774000Y-36631000D01*
X61774000Y-37530250D01*
X61932750Y-37689000D01*
X62547000Y-37692072D01*
X62671482Y-37679812D01*
X62791180Y-37643502D01*
X62901494Y-37584537D01*
X62998185Y-37505185D01*
X63077537Y-37408494D01*
X63136502Y-37298180D01*
X63172812Y-37178482D01*
X63185072Y-37054000D01*
X63182000Y-36789750D01*
X63023250Y-36631000D01*
X61774000Y-36631000D01*
X61520000Y-36631000D01*
X60270750Y-36631000D01*
X60112000Y-36789750D01*
X60108928Y-37054000D01*
X56985072Y-37054000D01*
X56985072Y-35954000D01*
X60108928Y-35954000D01*
X60112000Y-36218250D01*
X60270750Y-36377000D01*
X61520000Y-36377000D01*
X61520000Y-35477750D01*
X61774000Y-35477750D01*
X61774000Y-36377000D01*
X63023250Y-36377000D01*
X63182000Y-36218250D01*
X63185072Y-35954000D01*
X63172812Y-35829518D01*
X63136502Y-35709820D01*
X63077537Y-35599506D01*
X62998185Y-35502815D01*
X62901494Y-35423463D01*
X62791180Y-35364498D01*
X62671482Y-35328188D01*
X62547000Y-35315928D01*
X61932750Y-35319000D01*
X61774000Y-35477750D01*
X61520000Y-35477750D01*
X61361250Y-35319000D01*
X60747000Y-35315928D01*
X60622518Y-35328188D01*
X60502820Y-35364498D01*
X60392506Y-35423463D01*
X60295815Y-35502815D01*
X60216463Y-35599506D01*
X60157498Y-35709820D01*
X60121188Y-35829518D01*
X60108928Y-35954000D01*
X56985072Y-35954000D01*
X56972812Y-35829518D01*
X56936502Y-35709820D01*
X56877537Y-35599506D01*
X56798185Y-35502815D01*
X56701494Y-35423463D01*
X56591180Y-35364498D01*
X56471482Y-35328188D01*
X56347000Y-35315928D01*
X54547000Y-35315928D01*
X54422518Y-35328188D01*
X54302820Y-35364498D01*
X54192506Y-35423463D01*
X54095815Y-35502815D01*
X54016463Y-35599506D01*
X53957498Y-35709820D01*
X53921188Y-35829518D01*
X53908928Y-35954000D01*
X47152365Y-35954000D01*
X47152834Y-33053872D01*
X48565000Y-33053872D01*
X48565000Y-33494128D01*
X48650890Y-33925925D01*
X48819369Y-34332669D01*
X49063962Y-34698729D01*
X49375271Y-35010038D01*
X49741331Y-35254631D01*
X50148075Y-35423110D01*
X50579872Y-35509000D01*
X51020128Y-35509000D01*
X51451925Y-35423110D01*
X51858669Y-35254631D01*
X52224729Y-35010038D01*
X52536038Y-34698729D01*
X52780631Y-34332669D01*
X52949110Y-33925925D01*
X53035000Y-33494128D01*
X53035000Y-33053872D01*
X52949110Y-32622075D01*
X52780631Y-32215331D01*
X52536038Y-31849271D01*
X52224729Y-31537962D01*
X51858669Y-31293369D01*
X51451925Y-31124890D01*
X51020128Y-31039000D01*
X50579872Y-31039000D01*
X50148075Y-31124890D01*
X49741331Y-31293369D01*
X49375271Y-31537962D01*
X49063962Y-31849271D01*
X48819369Y-32215331D01*
X48650890Y-32622075D01*
X48565000Y-33053872D01*
X47152834Y-33053872D01*
X47153800Y-27076061D01*
X53321000Y-27076061D01*
X53321000Y-27279939D01*
X53360774Y-27479898D01*
X53438795Y-27668256D01*
X53552063Y-27837774D01*
X53696226Y-27981937D01*
X53865744Y-28095205D01*
X54054102Y-28173226D01*
X54254061Y-28213000D01*
X54346344Y-28213000D01*
X54304872Y-28349715D01*
X54287928Y-28521750D01*
X54287928Y-29009250D01*
X54304872Y-29181285D01*
X54355053Y-29346709D01*
X54436542Y-29499164D01*
X54546208Y-29632792D01*
X54631756Y-29703000D01*
X54546208Y-29773208D01*
X54436542Y-29906836D01*
X54355053Y-30059291D01*
X54304872Y-30224715D01*
X54287928Y-30396750D01*
X54287928Y-30884250D01*
X54304872Y-31056285D01*
X54355053Y-31221709D01*
X54436542Y-31374164D01*
X54546208Y-31507792D01*
X54679836Y-31617458D01*
X54832291Y-31698947D01*
X54997715Y-31749128D01*
X55169750Y-31766072D01*
X55676771Y-31766072D01*
X56496000Y-32585302D01*
X56496000Y-32613939D01*
X56535774Y-32813898D01*
X56613795Y-33002256D01*
X56727063Y-33171774D01*
X56871226Y-33315937D01*
X57040744Y-33429205D01*
X57229102Y-33507226D01*
X57429061Y-33547000D01*
X57632939Y-33547000D01*
X57832898Y-33507226D01*
X58021256Y-33429205D01*
X58031002Y-33422693D01*
X58040747Y-33429205D01*
X58229105Y-33507226D01*
X58429064Y-33547000D01*
X58632942Y-33547000D01*
X58832901Y-33507226D01*
X59021259Y-33429205D01*
X59190777Y-33315937D01*
X59334940Y-33171774D01*
X59448208Y-33002256D01*
X59526229Y-32813898D01*
X59566003Y-32613939D01*
X59566003Y-32440798D01*
X60272480Y-31734322D01*
X60908250Y-31734322D01*
X61080285Y-31717378D01*
X61245709Y-31667197D01*
X61398164Y-31585708D01*
X61531792Y-31476042D01*
X61641458Y-31342414D01*
X61722947Y-31189959D01*
X61773128Y-31024535D01*
X61790072Y-30852500D01*
X61790072Y-30365000D01*
X61773128Y-30192965D01*
X61722947Y-30027541D01*
X61641458Y-29875086D01*
X61531792Y-29741458D01*
X61446244Y-29671250D01*
X61531792Y-29601042D01*
X61641458Y-29467414D01*
X61722947Y-29314959D01*
X61773128Y-29149535D01*
X61790072Y-28977500D01*
X61790072Y-28490000D01*
X61773128Y-28317965D01*
X61722947Y-28152541D01*
X61641458Y-28000086D01*
X61531792Y-27866458D01*
X61398164Y-27756792D01*
X61245709Y-27675303D01*
X61080285Y-27625122D01*
X60908250Y-27608178D01*
X60496480Y-27608178D01*
X59915776Y-27027474D01*
X59986000Y-26957250D01*
X59986000Y-26952033D01*
X60010185Y-26932185D01*
X60089537Y-26835494D01*
X60148502Y-26725180D01*
X60184812Y-26605482D01*
X60197072Y-26481000D01*
X60197072Y-25908000D01*
X60232000Y-25908000D01*
X60232000Y-26957250D01*
X60390750Y-27116000D01*
X60493229Y-27104794D01*
X60612346Y-27066621D01*
X60721727Y-27005943D01*
X60817169Y-26925092D01*
X60895003Y-26827174D01*
X60952239Y-26715954D01*
X60986677Y-26595704D01*
X60996994Y-26471046D01*
X60994000Y-26066750D01*
X60835250Y-25908000D01*
X60232000Y-25908000D01*
X60197072Y-25908000D01*
X60197072Y-25081000D01*
X60184812Y-24956518D01*
X60148502Y-24836820D01*
X60089537Y-24726506D01*
X60010185Y-24629815D01*
X59986000Y-24609967D01*
X59986000Y-24604750D01*
X60232000Y-24604750D01*
X60232000Y-25654000D01*
X60835250Y-25654000D01*
X60994000Y-25495250D01*
X60994855Y-25379835D01*
X61077972Y-25506061D01*
X61269460Y-25700145D01*
X61495132Y-25853142D01*
X61746316Y-25959173D01*
X61817815Y-25973318D01*
X62032000Y-25850656D01*
X62032000Y-23508000D01*
X62286000Y-23508000D01*
X62286000Y-25850656D01*
X62500185Y-25973318D01*
X62571684Y-25959173D01*
X62822868Y-25853142D01*
X63048540Y-25700145D01*
X63240028Y-25506061D01*
X63389972Y-25278349D01*
X63492611Y-25025760D01*
X63544000Y-24758000D01*
X63544000Y-23508000D01*
X62286000Y-23508000D01*
X62032000Y-23508000D01*
X60774000Y-23508000D01*
X60774000Y-24600339D01*
X60721727Y-24556057D01*
X60612346Y-24495379D01*
X60493229Y-24457206D01*
X60390750Y-24446000D01*
X60232000Y-24604750D01*
X59986000Y-24604750D01*
X59827250Y-24446000D01*
X59724771Y-24457206D01*
X59707928Y-24462604D01*
X59683482Y-24455188D01*
X59559000Y-24442928D01*
X59059000Y-24442928D01*
X58934518Y-24455188D01*
X58909000Y-24462929D01*
X58883482Y-24455188D01*
X58759000Y-24442928D01*
X58259000Y-24442928D01*
X58134518Y-24455188D01*
X58109000Y-24462929D01*
X58083482Y-24455188D01*
X57959000Y-24442928D01*
X57459000Y-24442928D01*
X57334518Y-24455188D01*
X57309000Y-24462929D01*
X57283482Y-24455188D01*
X57159000Y-24442928D01*
X56659000Y-24442928D01*
X56534518Y-24455188D01*
X56414820Y-24491498D01*
X56304506Y-24550463D01*
X56244000Y-24600119D01*
X56244000Y-23508000D01*
X54986000Y-23508000D01*
X54986000Y-25850656D01*
X55200185Y-25973318D01*
X55271684Y-25959173D01*
X55522868Y-25853142D01*
X55748540Y-25700145D01*
X55940028Y-25506061D01*
X56020928Y-25383202D01*
X56020928Y-25594270D01*
X55197199Y-26418000D01*
X55059711Y-26418000D01*
X55015774Y-26374063D01*
X54846256Y-26260795D01*
X54657898Y-26182774D01*
X54457939Y-26143000D01*
X54254061Y-26143000D01*
X54054102Y-26182774D01*
X53865744Y-26260795D01*
X53696226Y-26374063D01*
X53552063Y-26518226D01*
X53438795Y-26687744D01*
X53360774Y-26876102D01*
X53321000Y-27076061D01*
X47153800Y-27076061D01*
X47154377Y-23508000D01*
X53474000Y-23508000D01*
X53474000Y-24758000D01*
X53525389Y-25025760D01*
X53628028Y-25278349D01*
X53777972Y-25506061D01*
X53969460Y-25700145D01*
X54195132Y-25853142D01*
X54446316Y-25959173D01*
X54517815Y-25973318D01*
X54732000Y-25850656D01*
X54732000Y-23508000D01*
X53474000Y-23508000D01*
X47154377Y-23508000D01*
X47154595Y-22164672D01*
X47186731Y-22004000D01*
X53474000Y-22004000D01*
X53474000Y-23254000D01*
X54732000Y-23254000D01*
X54732000Y-23234000D01*
X54986000Y-23234000D01*
X54986000Y-23254000D01*
X56244000Y-23254000D01*
X56244000Y-22004000D01*
X56192611Y-21736240D01*
X56143785Y-21616083D01*
X57009000Y-21619072D01*
X57133482Y-21606812D01*
X57253180Y-21570502D01*
X57363494Y-21511537D01*
X57460185Y-21432185D01*
X57539537Y-21335494D01*
X57598502Y-21225180D01*
X57634812Y-21105482D01*
X57647072Y-20981000D01*
X59370928Y-20981000D01*
X59383188Y-21105482D01*
X59419498Y-21225180D01*
X59478463Y-21335494D01*
X59557815Y-21432185D01*
X59654506Y-21511537D01*
X59764820Y-21570502D01*
X59884518Y-21606812D01*
X60009000Y-21619072D01*
X60874215Y-21616083D01*
X60825389Y-21736240D01*
X60774000Y-22004000D01*
X60774000Y-23254000D01*
X62032000Y-23254000D01*
X62032000Y-23234000D01*
X62286000Y-23234000D01*
X62286000Y-23254000D01*
X63544000Y-23254000D01*
X63544000Y-22975750D01*
X67368928Y-22975750D01*
X67372000Y-23177500D01*
X67530750Y-23336250D01*
X68580000Y-23336250D01*
X68580000Y-22499500D01*
X68834000Y-22499500D01*
X68834000Y-23336250D01*
X69883250Y-23336250D01*
X70042000Y-23177500D01*
X70045072Y-22975750D01*
X70032812Y-22851268D01*
X69996502Y-22731570D01*
X69937537Y-22621256D01*
X69858185Y-22524565D01*
X69761494Y-22445213D01*
X69651180Y-22386248D01*
X69531482Y-22349938D01*
X69407000Y-22337678D01*
X68992750Y-22340750D01*
X68834000Y-22499500D01*
X68580000Y-22499500D01*
X68421250Y-22340750D01*
X68007000Y-22337678D01*
X67882518Y-22349938D01*
X67762820Y-22386248D01*
X67652506Y-22445213D01*
X67555815Y-22524565D01*
X67476463Y-22621256D01*
X67417498Y-22731570D01*
X67381188Y-22851268D01*
X67368928Y-22975750D01*
X63544000Y-22975750D01*
X63544000Y-22004000D01*
X63492611Y-21736240D01*
X63389972Y-21483651D01*
X63240028Y-21255939D01*
X63048540Y-21061855D01*
X62992829Y-21024085D01*
X62997072Y-20981000D01*
X62994000Y-20866750D01*
X62835250Y-20708000D01*
X61311000Y-20708000D01*
X61311000Y-20728000D01*
X61057000Y-20728000D01*
X61057000Y-20708000D01*
X59532750Y-20708000D01*
X59374000Y-20866750D01*
X59370928Y-20981000D01*
X57647072Y-20981000D01*
X57644000Y-20866750D01*
X57485250Y-20708000D01*
X55961000Y-20708000D01*
X55961000Y-20728000D01*
X55707000Y-20728000D01*
X55707000Y-20708000D01*
X54182750Y-20708000D01*
X54024000Y-20866750D01*
X54020928Y-20981000D01*
X54025171Y-21024085D01*
X53969460Y-21061855D01*
X53777972Y-21255939D01*
X53628028Y-21483651D01*
X53525389Y-21736240D01*
X53474000Y-22004000D01*
X47186731Y-22004000D01*
X47226320Y-21806069D01*
X47366557Y-21467683D01*
X47569847Y-21162983D01*
X47828454Y-20903569D01*
X48132521Y-20699325D01*
X48470465Y-20558033D01*
X48844525Y-20482002D01*
X49039891Y-20471952D01*
X55430770Y-20454000D01*
X55707000Y-20454000D01*
X55707000Y-20453224D01*
X55961000Y-20452511D01*
X55961000Y-20454000D01*
X57485250Y-20454000D01*
X57491037Y-20448213D01*
X59521260Y-20442510D01*
X59532750Y-20454000D01*
X61057000Y-20454000D01*
X61057000Y-20438196D01*
X61311000Y-20437483D01*
X61311000Y-20454000D01*
X62835250Y-20454000D01*
X62856108Y-20433142D01*
X94202644Y-20345090D01*
X94475204Y-20371815D01*
G37*
X94475204Y-20371815D02*
X94707226Y-20441867D01*
X94921222Y-20555650D01*
X95109041Y-20708832D01*
X95263530Y-20895577D01*
X95378801Y-21108769D01*
X95450472Y-21340300D01*
X95478965Y-21611395D01*
X95352053Y-100170185D01*
X95325185Y-100444205D01*
X95255133Y-100676226D01*
X95141350Y-100890222D01*
X94988169Y-101078039D01*
X94801424Y-101232529D01*
X94588231Y-101347802D01*
X94356701Y-101419472D01*
X94085855Y-101447939D01*
X59851710Y-101352844D01*
X60266322Y-101270373D01*
X60744751Y-101072201D01*
X61175326Y-100784500D01*
X61541500Y-100418326D01*
X61829201Y-99987751D01*
X62027373Y-99509322D01*
X62128400Y-99001424D01*
X62128400Y-98483576D01*
X80746600Y-98483576D01*
X80746600Y-99001424D01*
X80847627Y-99509322D01*
X81045799Y-99987751D01*
X81333500Y-100418326D01*
X81699674Y-100784500D01*
X82130249Y-101072201D01*
X82608678Y-101270373D01*
X83116576Y-101371400D01*
X83634424Y-101371400D01*
X84142322Y-101270373D01*
X84620751Y-101072201D01*
X85051326Y-100784500D01*
X85417500Y-100418326D01*
X85705201Y-99987751D01*
X85903373Y-99509322D01*
X86004400Y-99001424D01*
X86004400Y-98483576D01*
X85903373Y-97975678D01*
X85705201Y-97497249D01*
X85417500Y-97066674D01*
X85051326Y-96700500D01*
X84620751Y-96412799D01*
X84142322Y-96214627D01*
X83634424Y-96113600D01*
X83116576Y-96113600D01*
X82608678Y-96214627D01*
X82130249Y-96412799D01*
X81699674Y-96700500D01*
X81333500Y-97066674D01*
X81045799Y-97497249D01*
X80847627Y-97975678D01*
X80746600Y-98483576D01*
X62128400Y-98483576D01*
X62027373Y-97975678D01*
X61829201Y-97497249D01*
X61541500Y-97066674D01*
X61175326Y-96700500D01*
X60744751Y-96412799D01*
X60266322Y-96214627D01*
X59758424Y-96113600D01*
X59240576Y-96113600D01*
X58732678Y-96214627D01*
X58254249Y-96412799D01*
X57823674Y-96700500D01*
X57457500Y-97066674D01*
X57169799Y-97497249D01*
X56971627Y-97975678D01*
X56870600Y-98483576D01*
X56870600Y-99001424D01*
X56971627Y-99509322D01*
X57169799Y-99987751D01*
X57457500Y-100418326D01*
X57823674Y-100784500D01*
X58254249Y-101072201D01*
X58732678Y-101270373D01*
X59137314Y-101350860D01*
X48420197Y-101321090D01*
X48145795Y-101294185D01*
X47913774Y-101224133D01*
X47699778Y-101110350D01*
X47511961Y-100957169D01*
X47357471Y-100770424D01*
X47242198Y-100557231D01*
X47170528Y-100325701D01*
X47142003Y-100054302D01*
X47142938Y-94267872D01*
X49073000Y-94267872D01*
X49073000Y-94708128D01*
X49158890Y-95139925D01*
X49327369Y-95546669D01*
X49571962Y-95912729D01*
X49883271Y-96224038D01*
X50249331Y-96468631D01*
X50656075Y-96637110D01*
X51087872Y-96723000D01*
X51528128Y-96723000D01*
X51959925Y-96637110D01*
X52366669Y-96468631D01*
X52732729Y-96224038D01*
X53044038Y-95912729D01*
X53288631Y-95546669D01*
X53457110Y-95139925D01*
X53543000Y-94708128D01*
X53543000Y-94450000D01*
X66099428Y-94450000D01*
X66099428Y-96050000D01*
X66111688Y-96174482D01*
X66147998Y-96294180D01*
X66206963Y-96404494D01*
X66286315Y-96501185D01*
X66383006Y-96580537D01*
X66493320Y-96639502D01*
X66613018Y-96675812D01*
X66737500Y-96688072D01*
X68337500Y-96688072D01*
X68461982Y-96675812D01*
X68581680Y-96639502D01*
X68691994Y-96580537D01*
X68788685Y-96501185D01*
X68868037Y-96404494D01*
X68889125Y-96365042D01*
X68908006Y-96380537D01*
X69018320Y-96439502D01*
X69138018Y-96475812D01*
X69262500Y-96488072D01*
X70462500Y-96488072D01*
X70586982Y-96475812D01*
X70706680Y-96439502D01*
X70816994Y-96380537D01*
X70913685Y-96301185D01*
X70993037Y-96204494D01*
X71052002Y-96094180D01*
X71088312Y-95974482D01*
X71100572Y-95850000D01*
X71100572Y-94650000D01*
X71774428Y-94650000D01*
X71774428Y-95850000D01*
X71786688Y-95974482D01*
X71822998Y-96094180D01*
X71881963Y-96204494D01*
X71961315Y-96301185D01*
X72058006Y-96380537D01*
X72168320Y-96439502D01*
X72288018Y-96475812D01*
X72412500Y-96488072D01*
X73612500Y-96488072D01*
X73736982Y-96475812D01*
X73856680Y-96439502D01*
X73966994Y-96380537D01*
X74063685Y-96301185D01*
X74143037Y-96204494D01*
X74178541Y-96138072D01*
X74205031Y-96138072D01*
X74222863Y-96164759D01*
X74422741Y-96364637D01*
X74657773Y-96521680D01*
X74918926Y-96629853D01*
X75196165Y-96685000D01*
X75478835Y-96685000D01*
X75756074Y-96629853D01*
X76017227Y-96521680D01*
X76252259Y-96364637D01*
X76452137Y-96164759D01*
X76609180Y-95929727D01*
X76717353Y-95668574D01*
X76772500Y-95391335D01*
X76772500Y-95108665D01*
X76717353Y-94831426D01*
X76694342Y-94775872D01*
X89205000Y-94775872D01*
X89205000Y-95216128D01*
X89290890Y-95647925D01*
X89459369Y-96054669D01*
X89703962Y-96420729D01*
X90015271Y-96732038D01*
X90381331Y-96976631D01*
X90788075Y-97145110D01*
X91219872Y-97231000D01*
X91660128Y-97231000D01*
X92091925Y-97145110D01*
X92498669Y-96976631D01*
X92864729Y-96732038D01*
X93176038Y-96420729D01*
X93420631Y-96054669D01*
X93589110Y-95647925D01*
X93675000Y-95216128D01*
X93675000Y-94775872D01*
X93589110Y-94344075D01*
X93420631Y-93937331D01*
X93176038Y-93571271D01*
X92864729Y-93259962D01*
X92498669Y-93015369D01*
X92091925Y-92846890D01*
X91660128Y-92761000D01*
X91219872Y-92761000D01*
X90788075Y-92846890D01*
X90381331Y-93015369D01*
X90015271Y-93259962D01*
X89703962Y-93571271D01*
X89459369Y-93937331D01*
X89290890Y-94344075D01*
X89205000Y-94775872D01*
X76694342Y-94775872D01*
X76609180Y-94570273D01*
X76452137Y-94335241D01*
X76252259Y-94135363D01*
X76017227Y-93978320D01*
X75756074Y-93870147D01*
X75478835Y-93815000D01*
X75196165Y-93815000D01*
X74918926Y-93870147D01*
X74657773Y-93978320D01*
X74422741Y-94135363D01*
X74222863Y-94335241D01*
X74205031Y-94361928D01*
X74178541Y-94361928D01*
X74143037Y-94295506D01*
X74063685Y-94198815D01*
X73966994Y-94119463D01*
X73856680Y-94060498D01*
X73736982Y-94024188D01*
X73612500Y-94011928D01*
X72412500Y-94011928D01*
X72288018Y-94024188D01*
X72168320Y-94060498D01*
X72058006Y-94119463D01*
X71961315Y-94198815D01*
X71881963Y-94295506D01*
X71822998Y-94405820D01*
X71786688Y-94525518D01*
X71774428Y-94650000D01*
X71100572Y-94650000D01*
X71088312Y-94525518D01*
X71052002Y-94405820D01*
X70993037Y-94295506D01*
X70913685Y-94198815D01*
X70816994Y-94119463D01*
X70706680Y-94060498D01*
X70586982Y-94024188D01*
X70462500Y-94011928D01*
X69497500Y-94011928D01*
X69497500Y-93891211D01*
X69510937Y-93877774D01*
X69624205Y-93708256D01*
X69702226Y-93519898D01*
X69742000Y-93319939D01*
X69742000Y-93116061D01*
X69702226Y-92916102D01*
X69624205Y-92727744D01*
X69510937Y-92558226D01*
X69366774Y-92414063D01*
X69197256Y-92300795D01*
X69008898Y-92222774D01*
X68808939Y-92183000D01*
X68605061Y-92183000D01*
X68405102Y-92222774D01*
X68216744Y-92300795D01*
X68047226Y-92414063D01*
X67903063Y-92558226D01*
X67789795Y-92727744D01*
X67711774Y-92916102D01*
X67672000Y-93116061D01*
X67672000Y-93319939D01*
X67711774Y-93519898D01*
X67789795Y-93708256D01*
X67859066Y-93811928D01*
X66737500Y-93811928D01*
X66613018Y-93824188D01*
X66493320Y-93860498D01*
X66383006Y-93919463D01*
X66286315Y-93998815D01*
X66206963Y-94095506D01*
X66147998Y-94205820D01*
X66111688Y-94325518D01*
X66099428Y-94450000D01*
X53543000Y-94450000D01*
X53543000Y-94267872D01*
X53457110Y-93836075D01*
X53288631Y-93429331D01*
X53044038Y-93063271D01*
X52732729Y-92751962D01*
X52366669Y-92507369D01*
X51959925Y-92338890D01*
X51528128Y-92253000D01*
X51087872Y-92253000D01*
X50656075Y-92338890D01*
X50249331Y-92507369D01*
X49883271Y-92751962D01*
X49571962Y-93063271D01*
X49327369Y-93429331D01*
X49158890Y-93836075D01*
X49073000Y-94267872D01*
X47142938Y-94267872D01*
X47143572Y-90341152D01*
X64871600Y-90341152D01*
X64871600Y-90633848D01*
X64928702Y-90920921D01*
X65040712Y-91191338D01*
X65203326Y-91434706D01*
X65410294Y-91641674D01*
X65653662Y-91804288D01*
X65924079Y-91916298D01*
X66211152Y-91973400D01*
X66503848Y-91973400D01*
X66790921Y-91916298D01*
X67061338Y-91804288D01*
X67304706Y-91641674D01*
X67511674Y-91434706D01*
X67674288Y-91191338D01*
X67786298Y-90920921D01*
X67843400Y-90633848D01*
X67843400Y-90341152D01*
X67821008Y-90228576D01*
X68808600Y-90228576D01*
X68808600Y-90746424D01*
X68909627Y-91254322D01*
X69107799Y-91732751D01*
X69395500Y-92163326D01*
X69761674Y-92529500D01*
X70192249Y-92817201D01*
X70670678Y-93015373D01*
X71178576Y-93116400D01*
X71696424Y-93116400D01*
X72204322Y-93015373D01*
X72682751Y-92817201D01*
X73113326Y-92529500D01*
X73479500Y-92163326D01*
X73767201Y-91732751D01*
X73965373Y-91254322D01*
X74066400Y-90746424D01*
X74066400Y-90341152D01*
X75031600Y-90341152D01*
X75031600Y-90633848D01*
X75088702Y-90920921D01*
X75200712Y-91191338D01*
X75363326Y-91434706D01*
X75570294Y-91641674D01*
X75813662Y-91804288D01*
X76084079Y-91916298D01*
X76371152Y-91973400D01*
X76663848Y-91973400D01*
X76950921Y-91916298D01*
X77221338Y-91804288D01*
X77464706Y-91641674D01*
X77671674Y-91434706D01*
X77834288Y-91191338D01*
X77946298Y-90920921D01*
X78003400Y-90633848D01*
X78003400Y-90341152D01*
X77946298Y-90054079D01*
X77834288Y-89783662D01*
X77671674Y-89540294D01*
X77464706Y-89333326D01*
X77221338Y-89170712D01*
X76950921Y-89058702D01*
X76663848Y-89001600D01*
X76371152Y-89001600D01*
X76084079Y-89058702D01*
X75813662Y-89170712D01*
X75570294Y-89333326D01*
X75363326Y-89540294D01*
X75200712Y-89783662D01*
X75088702Y-90054079D01*
X75031600Y-90341152D01*
X74066400Y-90341152D01*
X74066400Y-90228576D01*
X73965373Y-89720678D01*
X73767201Y-89242249D01*
X73479500Y-88811674D01*
X73113326Y-88445500D01*
X72682751Y-88157799D01*
X72204322Y-87959627D01*
X71696424Y-87858600D01*
X71178576Y-87858600D01*
X70670678Y-87959627D01*
X70192249Y-88157799D01*
X69761674Y-88445500D01*
X69395500Y-88811674D01*
X69107799Y-89242249D01*
X68909627Y-89720678D01*
X68808600Y-90228576D01*
X67821008Y-90228576D01*
X67786298Y-90054079D01*
X67682059Y-89802424D01*
X67988000Y-89765536D01*
X68340887Y-89650025D01*
X68664460Y-89467887D01*
X68946282Y-89226123D01*
X69118078Y-89007220D01*
X70426506Y-86953400D01*
X70552296Y-86705188D01*
X70652305Y-86347597D01*
X70680631Y-85977366D01*
X70677453Y-85951005D01*
X72050844Y-85951005D01*
X72059221Y-86229145D01*
X72142590Y-86590977D01*
X72294948Y-86929592D01*
X72510439Y-87231977D01*
X72780781Y-87486511D01*
X73095587Y-87683415D01*
X73442757Y-87815118D01*
X73808950Y-87876561D01*
X74180093Y-87865383D01*
X74541925Y-87782014D01*
X74880540Y-87629656D01*
X75182925Y-87414165D01*
X75437459Y-87143823D01*
X75634363Y-86829017D01*
X75766066Y-86481847D01*
X75812113Y-86207416D01*
X75864156Y-85443996D01*
X75855779Y-85165855D01*
X75772410Y-84804023D01*
X75620052Y-84465408D01*
X75404561Y-84163023D01*
X75134219Y-83908489D01*
X74819413Y-83711586D01*
X74472243Y-83579882D01*
X74106050Y-83518439D01*
X73734907Y-83529617D01*
X73373075Y-83612986D01*
X73034460Y-83765344D01*
X72732075Y-83980835D01*
X72477541Y-84251177D01*
X72280637Y-84565983D01*
X72148934Y-84913153D01*
X72102887Y-85187584D01*
X72050844Y-85951005D01*
X70677453Y-85951005D01*
X70636183Y-85608723D01*
X70520671Y-85255836D01*
X70338534Y-84932263D01*
X70096770Y-84650442D01*
X69804671Y-84421201D01*
X69473463Y-84253351D01*
X69115873Y-84153342D01*
X68745641Y-84125017D01*
X68376999Y-84169464D01*
X68024111Y-84284976D01*
X67700539Y-84467113D01*
X67418718Y-84708877D01*
X67246922Y-84927780D01*
X65938493Y-86981601D01*
X65812704Y-87229814D01*
X65712694Y-87587404D01*
X65684369Y-87957635D01*
X65728817Y-88326277D01*
X65844328Y-88679164D01*
X66026466Y-89002737D01*
X66052554Y-89033147D01*
X65924079Y-89058702D01*
X65653662Y-89170712D01*
X65410294Y-89333326D01*
X65203326Y-89540294D01*
X65040712Y-89783662D01*
X64928702Y-90054079D01*
X64871600Y-90341152D01*
X47143572Y-90341152D01*
X47144712Y-83289857D01*
X57340500Y-83289857D01*
X57340500Y-83715143D01*
X57423470Y-84132257D01*
X57586219Y-84525170D01*
X57822496Y-84878782D01*
X58123218Y-85179504D01*
X58476830Y-85415781D01*
X58869743Y-85578530D01*
X59286857Y-85661500D01*
X59712143Y-85661500D01*
X60129257Y-85578530D01*
X60522170Y-85415781D01*
X60875782Y-85179504D01*
X61176504Y-84878782D01*
X61412781Y-84525170D01*
X61575530Y-84132257D01*
X61658500Y-83715143D01*
X61658500Y-83289857D01*
X81216500Y-83289857D01*
X81216500Y-83715143D01*
X81299470Y-84132257D01*
X81462219Y-84525170D01*
X81698496Y-84878782D01*
X81999218Y-85179504D01*
X82352830Y-85415781D01*
X82745743Y-85578530D01*
X83162857Y-85661500D01*
X83588143Y-85661500D01*
X84005257Y-85578530D01*
X84398170Y-85415781D01*
X84751782Y-85179504D01*
X85052504Y-84878782D01*
X85288781Y-84525170D01*
X85451530Y-84132257D01*
X85534500Y-83715143D01*
X85534500Y-83289857D01*
X85451530Y-82872743D01*
X85288781Y-82479830D01*
X85052504Y-82126218D01*
X84751782Y-81825496D01*
X84398170Y-81589219D01*
X84005257Y-81426470D01*
X83588143Y-81343500D01*
X83162857Y-81343500D01*
X82745743Y-81426470D01*
X82352830Y-81589219D01*
X81999218Y-81825496D01*
X81698496Y-82126218D01*
X81462219Y-82479830D01*
X81299470Y-82872743D01*
X81216500Y-83289857D01*
X61658500Y-83289857D01*
X61575530Y-82872743D01*
X61412781Y-82479830D01*
X61176504Y-82126218D01*
X60875782Y-81825496D01*
X60522170Y-81589219D01*
X60129257Y-81426470D01*
X59712143Y-81343500D01*
X59286857Y-81343500D01*
X58869743Y-81426470D01*
X58476830Y-81589219D01*
X58123218Y-81825496D01*
X57822496Y-82126218D01*
X57586219Y-82479830D01*
X57423470Y-82872743D01*
X57340500Y-83289857D01*
X47144712Y-83289857D01*
X47145987Y-75400000D01*
X56574428Y-75400000D01*
X56574428Y-77000000D01*
X56586688Y-77124482D01*
X56622998Y-77244180D01*
X56681963Y-77354494D01*
X56761315Y-77451185D01*
X56858006Y-77530537D01*
X56968320Y-77589502D01*
X57088018Y-77625812D01*
X57212500Y-77638072D01*
X58812500Y-77638072D01*
X58936982Y-77625812D01*
X59056680Y-77589502D01*
X59166994Y-77530537D01*
X59263685Y-77451185D01*
X59306371Y-77399172D01*
X60650205Y-78743008D01*
X60673999Y-78772001D01*
X60702992Y-78795795D01*
X60702996Y-78795799D01*
X60773685Y-78853811D01*
X60789724Y-78866974D01*
X60921753Y-78937546D01*
X61065014Y-78981003D01*
X61176667Y-78992000D01*
X61176676Y-78992000D01*
X61213999Y-78995676D01*
X61251322Y-78992000D01*
X74993178Y-78992000D01*
X75030500Y-78995676D01*
X75067822Y-78992000D01*
X75067833Y-78992000D01*
X75179486Y-78981003D01*
X75322747Y-78937546D01*
X75454776Y-78866974D01*
X75570501Y-78772001D01*
X75594304Y-78742997D01*
X76699230Y-77638072D01*
X77862500Y-77638072D01*
X77986982Y-77625812D01*
X78106680Y-77589502D01*
X78216994Y-77530537D01*
X78313685Y-77451185D01*
X78393037Y-77354494D01*
X78414125Y-77315042D01*
X78433006Y-77330537D01*
X78543320Y-77389502D01*
X78663018Y-77425812D01*
X78787500Y-77438072D01*
X79987500Y-77438072D01*
X80111982Y-77425812D01*
X80231680Y-77389502D01*
X80341994Y-77330537D01*
X80438685Y-77251185D01*
X80518037Y-77154494D01*
X80577002Y-77044180D01*
X80613312Y-76924482D01*
X80625572Y-76800000D01*
X80625572Y-75600000D01*
X81299428Y-75600000D01*
X81299428Y-76800000D01*
X81311688Y-76924482D01*
X81347998Y-77044180D01*
X81406963Y-77154494D01*
X81486315Y-77251185D01*
X81583006Y-77330537D01*
X81693320Y-77389502D01*
X81813018Y-77425812D01*
X81937500Y-77438072D01*
X83137500Y-77438072D01*
X83261982Y-77425812D01*
X83381680Y-77389502D01*
X83491994Y-77330537D01*
X83588685Y-77251185D01*
X83668037Y-77154494D01*
X83703541Y-77088072D01*
X83730031Y-77088072D01*
X83747863Y-77114759D01*
X83947741Y-77314637D01*
X84182773Y-77471680D01*
X84443926Y-77579853D01*
X84721165Y-77635000D01*
X85003835Y-77635000D01*
X85281074Y-77579853D01*
X85542227Y-77471680D01*
X85777259Y-77314637D01*
X85977137Y-77114759D01*
X86134180Y-76879727D01*
X86242353Y-76618574D01*
X86297500Y-76341335D01*
X86297500Y-76058665D01*
X86242353Y-75781426D01*
X86134180Y-75520273D01*
X85977137Y-75285241D01*
X85777259Y-75085363D01*
X85542227Y-74928320D01*
X85281074Y-74820147D01*
X85003835Y-74765000D01*
X84721165Y-74765000D01*
X84443926Y-74820147D01*
X84182773Y-74928320D01*
X83947741Y-75085363D01*
X83747863Y-75285241D01*
X83730031Y-75311928D01*
X83703541Y-75311928D01*
X83668037Y-75245506D01*
X83588685Y-75148815D01*
X83491994Y-75069463D01*
X83381680Y-75010498D01*
X83261982Y-74974188D01*
X83137500Y-74961928D01*
X81937500Y-74961928D01*
X81813018Y-74974188D01*
X81693320Y-75010498D01*
X81583006Y-75069463D01*
X81486315Y-75148815D01*
X81406963Y-75245506D01*
X81347998Y-75355820D01*
X81311688Y-75475518D01*
X81299428Y-75600000D01*
X80625572Y-75600000D01*
X80613312Y-75475518D01*
X80577002Y-75355820D01*
X80518037Y-75245506D01*
X80438685Y-75148815D01*
X80341994Y-75069463D01*
X80231680Y-75010498D01*
X80111982Y-74974188D01*
X79987500Y-74961928D01*
X79022500Y-74961928D01*
X79022500Y-74022544D01*
X79100226Y-73834898D01*
X79140000Y-73634939D01*
X79140000Y-73431061D01*
X79115608Y-73308434D01*
X79286674Y-73479500D01*
X79717249Y-73767201D01*
X80195678Y-73965373D01*
X80703576Y-74066400D01*
X81221424Y-74066400D01*
X81729322Y-73965373D01*
X82207751Y-73767201D01*
X82638326Y-73479500D01*
X83004500Y-73113326D01*
X83292201Y-72682751D01*
X83490373Y-72204322D01*
X83591400Y-71696424D01*
X83591400Y-71291152D01*
X84556600Y-71291152D01*
X84556600Y-71583848D01*
X84613702Y-71870921D01*
X84725712Y-72141338D01*
X84888326Y-72384706D01*
X85095294Y-72591674D01*
X85338662Y-72754288D01*
X85609079Y-72866298D01*
X85896152Y-72923400D01*
X86188848Y-72923400D01*
X86475921Y-72866298D01*
X86746338Y-72754288D01*
X86989706Y-72591674D01*
X87196674Y-72384706D01*
X87359288Y-72141338D01*
X87471298Y-71870921D01*
X87528400Y-71583848D01*
X87528400Y-71291152D01*
X87471298Y-71004079D01*
X87359288Y-70733662D01*
X87196674Y-70490294D01*
X86989706Y-70283326D01*
X86746338Y-70120712D01*
X86475921Y-70008702D01*
X86188848Y-69951600D01*
X85896152Y-69951600D01*
X85609079Y-70008702D01*
X85338662Y-70120712D01*
X85095294Y-70283326D01*
X84888326Y-70490294D01*
X84725712Y-70733662D01*
X84613702Y-71004079D01*
X84556600Y-71291152D01*
X83591400Y-71291152D01*
X83591400Y-71178576D01*
X83490373Y-70670678D01*
X83292201Y-70192249D01*
X83004500Y-69761674D01*
X82638326Y-69395500D01*
X82207751Y-69107799D01*
X81729322Y-68909627D01*
X81221424Y-68808600D01*
X80703576Y-68808600D01*
X80195678Y-68909627D01*
X79717249Y-69107799D01*
X79286674Y-69395500D01*
X78920500Y-69761674D01*
X78632799Y-70192249D01*
X78434627Y-70670678D01*
X78333600Y-71178576D01*
X78333600Y-71696424D01*
X78434627Y-72204322D01*
X78608819Y-72624857D01*
X78595256Y-72615795D01*
X78406898Y-72537774D01*
X78206939Y-72498000D01*
X78003061Y-72498000D01*
X77803102Y-72537774D01*
X77614744Y-72615795D01*
X77445226Y-72729063D01*
X77301063Y-72873226D01*
X77187795Y-73042744D01*
X77109774Y-73231102D01*
X77070000Y-73431061D01*
X77070000Y-73634939D01*
X77109774Y-73834898D01*
X77187795Y-74023256D01*
X77301063Y-74192774D01*
X77445226Y-74336937D01*
X77502501Y-74375207D01*
X77502501Y-74761928D01*
X76262500Y-74761928D01*
X76138018Y-74774188D01*
X76018320Y-74810498D01*
X75908006Y-74869463D01*
X75811315Y-74948815D01*
X75731963Y-75045506D01*
X75672998Y-75155820D01*
X75636688Y-75275518D01*
X75624428Y-75400000D01*
X75624428Y-76563270D01*
X74715699Y-77472000D01*
X66491454Y-77472000D01*
X66492227Y-77471680D01*
X66727259Y-77314637D01*
X66927137Y-77114759D01*
X67084180Y-76879727D01*
X67192353Y-76618574D01*
X67247500Y-76341335D01*
X67247500Y-76058665D01*
X67192353Y-75781426D01*
X67084180Y-75520273D01*
X66927137Y-75285241D01*
X66727259Y-75085363D01*
X66492227Y-74928320D01*
X66231074Y-74820147D01*
X65953835Y-74765000D01*
X65671165Y-74765000D01*
X65393926Y-74820147D01*
X65132773Y-74928320D01*
X64897741Y-75085363D01*
X64697863Y-75285241D01*
X64680031Y-75311928D01*
X64653541Y-75311928D01*
X64618037Y-75245506D01*
X64538685Y-75148815D01*
X64441994Y-75069463D01*
X64331680Y-75010498D01*
X64211982Y-74974188D01*
X64087500Y-74961928D01*
X62887500Y-74961928D01*
X62763018Y-74974188D01*
X62643320Y-75010498D01*
X62533006Y-75069463D01*
X62436315Y-75148815D01*
X62356963Y-75245506D01*
X62297998Y-75355820D01*
X62261688Y-75475518D01*
X62249428Y-75600000D01*
X62249428Y-76800000D01*
X62261688Y-76924482D01*
X62297998Y-77044180D01*
X62356963Y-77154494D01*
X62436315Y-77251185D01*
X62533006Y-77330537D01*
X62643320Y-77389502D01*
X62763018Y-77425812D01*
X62887500Y-77438072D01*
X64087500Y-77438072D01*
X64211982Y-77425812D01*
X64331680Y-77389502D01*
X64441994Y-77330537D01*
X64538685Y-77251185D01*
X64618037Y-77154494D01*
X64653541Y-77088072D01*
X64680031Y-77088072D01*
X64697863Y-77114759D01*
X64897741Y-77314637D01*
X65132773Y-77471680D01*
X65133546Y-77472000D01*
X61528803Y-77472000D01*
X61344362Y-77287560D01*
X61388685Y-77251185D01*
X61468037Y-77154494D01*
X61527002Y-77044180D01*
X61563312Y-76924482D01*
X61575572Y-76800000D01*
X61575572Y-75600000D01*
X61563312Y-75475518D01*
X61527002Y-75355820D01*
X61468037Y-75245506D01*
X61388685Y-75148815D01*
X61291994Y-75069463D01*
X61181680Y-75010498D01*
X61061982Y-74974188D01*
X60937500Y-74961928D01*
X59737500Y-74961928D01*
X59613018Y-74974188D01*
X59493320Y-75010498D01*
X59383006Y-75069463D01*
X59364125Y-75084958D01*
X59343037Y-75045506D01*
X59263685Y-74948815D01*
X59166994Y-74869463D01*
X59056680Y-74810498D01*
X58936982Y-74774188D01*
X58812500Y-74761928D01*
X57212500Y-74761928D01*
X57088018Y-74774188D01*
X56968320Y-74810498D01*
X56858006Y-74869463D01*
X56761315Y-74948815D01*
X56681963Y-75045506D01*
X56622998Y-75155820D01*
X56586688Y-75275518D01*
X56574428Y-75400000D01*
X47145987Y-75400000D01*
X47146652Y-71291152D01*
X55346600Y-71291152D01*
X55346600Y-71583848D01*
X55403702Y-71870921D01*
X55515712Y-72141338D01*
X55678326Y-72384706D01*
X55885294Y-72591674D01*
X56128662Y-72754288D01*
X56399079Y-72866298D01*
X56686152Y-72923400D01*
X56978848Y-72923400D01*
X57265921Y-72866298D01*
X57536338Y-72754288D01*
X57779706Y-72591674D01*
X57986674Y-72384706D01*
X58149288Y-72141338D01*
X58261298Y-71870921D01*
X58318400Y-71583848D01*
X58318400Y-71291152D01*
X58296008Y-71178576D01*
X59283600Y-71178576D01*
X59283600Y-71696424D01*
X59384627Y-72204322D01*
X59582799Y-72682751D01*
X59870500Y-73113326D01*
X60236674Y-73479500D01*
X60667249Y-73767201D01*
X61145678Y-73965373D01*
X61653576Y-74066400D01*
X62171424Y-74066400D01*
X62679322Y-73965373D01*
X63157751Y-73767201D01*
X63588326Y-73479500D01*
X63954500Y-73113326D01*
X64242201Y-72682751D01*
X64440373Y-72204322D01*
X64541400Y-71696424D01*
X64541400Y-71291152D01*
X65506600Y-71291152D01*
X65506600Y-71583848D01*
X65563702Y-71870921D01*
X65675712Y-72141338D01*
X65838326Y-72384706D01*
X66045294Y-72591674D01*
X66288662Y-72754288D01*
X66559079Y-72866298D01*
X66846152Y-72923400D01*
X67138848Y-72923400D01*
X67425921Y-72866298D01*
X67696338Y-72754288D01*
X67939706Y-72591674D01*
X68146674Y-72384706D01*
X68309288Y-72141338D01*
X68421298Y-71870921D01*
X68478400Y-71583848D01*
X68478400Y-71291152D01*
X74396600Y-71291152D01*
X74396600Y-71583848D01*
X74453702Y-71870921D01*
X74565712Y-72141338D01*
X74728326Y-72384706D01*
X74935294Y-72591674D01*
X75178662Y-72754288D01*
X75449079Y-72866298D01*
X75736152Y-72923400D01*
X76028848Y-72923400D01*
X76315921Y-72866298D01*
X76586338Y-72754288D01*
X76829706Y-72591674D01*
X77036674Y-72384706D01*
X77199288Y-72141338D01*
X77311298Y-71870921D01*
X77368400Y-71583848D01*
X77368400Y-71291152D01*
X77311298Y-71004079D01*
X77207059Y-70752424D01*
X77513000Y-70715536D01*
X77865887Y-70600025D01*
X78189460Y-70417887D01*
X78471282Y-70176123D01*
X78643078Y-69957220D01*
X79951506Y-67903400D01*
X80077296Y-67655188D01*
X80177305Y-67297597D01*
X80205631Y-66927366D01*
X80202453Y-66901005D01*
X81575844Y-66901005D01*
X81584221Y-67179145D01*
X81667590Y-67540977D01*
X81819948Y-67879592D01*
X82035439Y-68181977D01*
X82305781Y-68436511D01*
X82620587Y-68633415D01*
X82967757Y-68765118D01*
X83333950Y-68826561D01*
X83705093Y-68815383D01*
X84066925Y-68732014D01*
X84405540Y-68579656D01*
X84707925Y-68364165D01*
X84962459Y-68093823D01*
X85159363Y-67779017D01*
X85291066Y-67431847D01*
X85337113Y-67157416D01*
X85389156Y-66393996D01*
X85380779Y-66115855D01*
X85297410Y-65754023D01*
X85145052Y-65415408D01*
X84929561Y-65113023D01*
X84659219Y-64858489D01*
X84344413Y-64661586D01*
X83997243Y-64529882D01*
X83631050Y-64468439D01*
X83259907Y-64479617D01*
X82898075Y-64562986D01*
X82559460Y-64715344D01*
X82257075Y-64930835D01*
X82002541Y-65201177D01*
X81805637Y-65515983D01*
X81673934Y-65863153D01*
X81627887Y-66137584D01*
X81575844Y-66901005D01*
X80202453Y-66901005D01*
X80161183Y-66558723D01*
X80045671Y-66205836D01*
X79863534Y-65882263D01*
X79621770Y-65600442D01*
X79329671Y-65371201D01*
X78998463Y-65203351D01*
X78640873Y-65103342D01*
X78270641Y-65075017D01*
X77901999Y-65119464D01*
X77549111Y-65234976D01*
X77225539Y-65417113D01*
X76943718Y-65658877D01*
X76771922Y-65877780D01*
X75463493Y-67931601D01*
X75337704Y-68179814D01*
X75237694Y-68537404D01*
X75209369Y-68907635D01*
X75253817Y-69276277D01*
X75369328Y-69629164D01*
X75551466Y-69952737D01*
X75577554Y-69983147D01*
X75449079Y-70008702D01*
X75178662Y-70120712D01*
X74935294Y-70283326D01*
X74728326Y-70490294D01*
X74565712Y-70733662D01*
X74453702Y-71004079D01*
X74396600Y-71291152D01*
X68478400Y-71291152D01*
X68421298Y-71004079D01*
X68309288Y-70733662D01*
X68146674Y-70490294D01*
X67939706Y-70283326D01*
X67696338Y-70120712D01*
X67425921Y-70008702D01*
X67138848Y-69951600D01*
X66846152Y-69951600D01*
X66559079Y-70008702D01*
X66288662Y-70120712D01*
X66045294Y-70283326D01*
X65838326Y-70490294D01*
X65675712Y-70733662D01*
X65563702Y-71004079D01*
X65506600Y-71291152D01*
X64541400Y-71291152D01*
X64541400Y-71178576D01*
X64440373Y-70670678D01*
X64242201Y-70192249D01*
X63954500Y-69761674D01*
X63588326Y-69395500D01*
X63157751Y-69107799D01*
X62679322Y-68909627D01*
X62171424Y-68808600D01*
X61653576Y-68808600D01*
X61145678Y-68909627D01*
X60667249Y-69107799D01*
X60236674Y-69395500D01*
X59870500Y-69761674D01*
X59582799Y-70192249D01*
X59384627Y-70670678D01*
X59283600Y-71178576D01*
X58296008Y-71178576D01*
X58261298Y-71004079D01*
X58157059Y-70752424D01*
X58463000Y-70715536D01*
X58815887Y-70600025D01*
X59139460Y-70417887D01*
X59421282Y-70176123D01*
X59593078Y-69957220D01*
X60901506Y-67903400D01*
X61027296Y-67655188D01*
X61127305Y-67297597D01*
X61155631Y-66927366D01*
X61152453Y-66901005D01*
X62525844Y-66901005D01*
X62534221Y-67179145D01*
X62617590Y-67540977D01*
X62769948Y-67879592D01*
X62985439Y-68181977D01*
X63255781Y-68436511D01*
X63570587Y-68633415D01*
X63917757Y-68765118D01*
X64283950Y-68826561D01*
X64655093Y-68815383D01*
X65016925Y-68732014D01*
X65355540Y-68579656D01*
X65657925Y-68364165D01*
X65912459Y-68093823D01*
X66109363Y-67779017D01*
X66241066Y-67431847D01*
X66287113Y-67157416D01*
X66339156Y-66393996D01*
X66330779Y-66115855D01*
X66247410Y-65754023D01*
X66095052Y-65415408D01*
X65879561Y-65113023D01*
X65609219Y-64858489D01*
X65294413Y-64661586D01*
X64947243Y-64529882D01*
X64581050Y-64468439D01*
X64209907Y-64479617D01*
X63848075Y-64562986D01*
X63509460Y-64715344D01*
X63207075Y-64930835D01*
X62952541Y-65201177D01*
X62755637Y-65515983D01*
X62623934Y-65863153D01*
X62577887Y-66137584D01*
X62525844Y-66901005D01*
X61152453Y-66901005D01*
X61111183Y-66558723D01*
X60995671Y-66205836D01*
X60813534Y-65882263D01*
X60571770Y-65600442D01*
X60279671Y-65371201D01*
X59948463Y-65203351D01*
X59590873Y-65103342D01*
X59220641Y-65075017D01*
X58851999Y-65119464D01*
X58499111Y-65234976D01*
X58175539Y-65417113D01*
X57893718Y-65658877D01*
X57721922Y-65877780D01*
X56413493Y-67931601D01*
X56287704Y-68179814D01*
X56187694Y-68537404D01*
X56159369Y-68907635D01*
X56203817Y-69276277D01*
X56319328Y-69629164D01*
X56501466Y-69952737D01*
X56527554Y-69983147D01*
X56399079Y-70008702D01*
X56128662Y-70120712D01*
X55885294Y-70283326D01*
X55678326Y-70490294D01*
X55515712Y-70733662D01*
X55403702Y-71004079D01*
X55346600Y-71291152D01*
X47146652Y-71291152D01*
X47149721Y-52304652D01*
X55346600Y-52304652D01*
X55346600Y-52597348D01*
X55403702Y-52884421D01*
X55515712Y-53154838D01*
X55678326Y-53398206D01*
X55885294Y-53605174D01*
X56128662Y-53767788D01*
X56399079Y-53879798D01*
X56686152Y-53936900D01*
X56978848Y-53936900D01*
X57265921Y-53879798D01*
X57536338Y-53767788D01*
X57779706Y-53605174D01*
X57986674Y-53398206D01*
X58149288Y-53154838D01*
X58261298Y-52884421D01*
X58318400Y-52597348D01*
X58318400Y-52304652D01*
X58296008Y-52192076D01*
X59283600Y-52192076D01*
X59283600Y-52709924D01*
X59384627Y-53217822D01*
X59582799Y-53696251D01*
X59870500Y-54126826D01*
X60236674Y-54493000D01*
X60667249Y-54780701D01*
X61145678Y-54978873D01*
X61653576Y-55079900D01*
X62171424Y-55079900D01*
X62679322Y-54978873D01*
X63157751Y-54780701D01*
X63588326Y-54493000D01*
X63954500Y-54126826D01*
X64242201Y-53696251D01*
X64440373Y-53217822D01*
X64541400Y-52709924D01*
X64541400Y-52304652D01*
X65506600Y-52304652D01*
X65506600Y-52597348D01*
X65563702Y-52884421D01*
X65675712Y-53154838D01*
X65838326Y-53398206D01*
X66045294Y-53605174D01*
X66288662Y-53767788D01*
X66559079Y-53879798D01*
X66846152Y-53936900D01*
X67138848Y-53936900D01*
X67425921Y-53879798D01*
X67696338Y-53767788D01*
X67939706Y-53605174D01*
X68146674Y-53398206D01*
X68309288Y-53154838D01*
X68421298Y-52884421D01*
X68478400Y-52597348D01*
X68478400Y-52304652D01*
X68421298Y-52017579D01*
X68309288Y-51747162D01*
X68146674Y-51503794D01*
X67939706Y-51296826D01*
X67696338Y-51134212D01*
X67425921Y-51022202D01*
X67138848Y-50965100D01*
X66846152Y-50965100D01*
X66559079Y-51022202D01*
X66288662Y-51134212D01*
X66045294Y-51296826D01*
X65838326Y-51503794D01*
X65675712Y-51747162D01*
X65563702Y-52017579D01*
X65506600Y-52304652D01*
X64541400Y-52304652D01*
X64541400Y-52192076D01*
X64440373Y-51684178D01*
X64242201Y-51205749D01*
X63954500Y-50775174D01*
X63588326Y-50409000D01*
X63157751Y-50121299D01*
X62679322Y-49923127D01*
X62171424Y-49822100D01*
X61653576Y-49822100D01*
X61145678Y-49923127D01*
X60667249Y-50121299D01*
X60236674Y-50409000D01*
X59870500Y-50775174D01*
X59582799Y-51205749D01*
X59384627Y-51684178D01*
X59283600Y-52192076D01*
X58296008Y-52192076D01*
X58261298Y-52017579D01*
X58157059Y-51765924D01*
X58463000Y-51729036D01*
X58815887Y-51613525D01*
X59139460Y-51431387D01*
X59421282Y-51189623D01*
X59593078Y-50970720D01*
X60901506Y-48916900D01*
X61027296Y-48668688D01*
X61127305Y-48311097D01*
X61155631Y-47940866D01*
X61152453Y-47914505D01*
X62525844Y-47914505D01*
X62534221Y-48192645D01*
X62617590Y-48554477D01*
X62769948Y-48893092D01*
X62985439Y-49195477D01*
X63255781Y-49450011D01*
X63570587Y-49646915D01*
X63917757Y-49778618D01*
X64283950Y-49840061D01*
X64655093Y-49828883D01*
X65016925Y-49745514D01*
X65355540Y-49593156D01*
X65657925Y-49377665D01*
X65912459Y-49107323D01*
X66109363Y-48792517D01*
X66241066Y-48445347D01*
X66287113Y-48170916D01*
X66339156Y-47407496D01*
X66330779Y-47129355D01*
X66247410Y-46767523D01*
X66095052Y-46428908D01*
X65879561Y-46126523D01*
X65609219Y-45871989D01*
X65294413Y-45675086D01*
X64947243Y-45543382D01*
X64581050Y-45481939D01*
X64209907Y-45493117D01*
X63848075Y-45576486D01*
X63509460Y-45728844D01*
X63207075Y-45944335D01*
X62952541Y-46214677D01*
X62755637Y-46529483D01*
X62623934Y-46876653D01*
X62577887Y-47151084D01*
X62525844Y-47914505D01*
X61152453Y-47914505D01*
X61111183Y-47572223D01*
X60995671Y-47219336D01*
X60813534Y-46895763D01*
X60571770Y-46613942D01*
X60279671Y-46384701D01*
X59948463Y-46216851D01*
X59590873Y-46116842D01*
X59220641Y-46088517D01*
X58851999Y-46132964D01*
X58499111Y-46248476D01*
X58175539Y-46430613D01*
X57893718Y-46672377D01*
X57721922Y-46891280D01*
X56413493Y-48945101D01*
X56287704Y-49193314D01*
X56187694Y-49550904D01*
X56159369Y-49921135D01*
X56203817Y-50289777D01*
X56319328Y-50642664D01*
X56501466Y-50966237D01*
X56527554Y-50996647D01*
X56399079Y-51022202D01*
X56128662Y-51134212D01*
X55885294Y-51296826D01*
X55678326Y-51503794D01*
X55515712Y-51747162D01*
X55403702Y-52017579D01*
X55346600Y-52304652D01*
X47149721Y-52304652D01*
X47151767Y-39654000D01*
X53908928Y-39654000D01*
X53908928Y-40754000D01*
X53921188Y-40878482D01*
X53957498Y-40998180D01*
X54016463Y-41108494D01*
X54095815Y-41205185D01*
X54192506Y-41284537D01*
X54302820Y-41343502D01*
X54422518Y-41379812D01*
X54547000Y-41392072D01*
X54687468Y-41392072D01*
X54697998Y-41498986D01*
X54699830Y-41505026D01*
X54741454Y-41642246D01*
X54812026Y-41774276D01*
X54870584Y-41845628D01*
X54907000Y-41890001D01*
X54935998Y-41913799D01*
X55316200Y-42294002D01*
X55339999Y-42323001D01*
X55455724Y-42417974D01*
X55587753Y-42488546D01*
X55731014Y-42532003D01*
X55842667Y-42543000D01*
X55842676Y-42543000D01*
X55879999Y-42546676D01*
X55917322Y-42543000D01*
X62065680Y-42543000D01*
X62103002Y-42546676D01*
X62140324Y-42543000D01*
X62140335Y-42543000D01*
X62251988Y-42532003D01*
X62395249Y-42488546D01*
X62527278Y-42417974D01*
X62643003Y-42323001D01*
X62666806Y-42293997D01*
X65916004Y-39044800D01*
X65945001Y-39021003D01*
X66039974Y-38905278D01*
X66110546Y-38773249D01*
X66154003Y-38629988D01*
X66165000Y-38518335D01*
X66165000Y-38518326D01*
X66168676Y-38481003D01*
X66165000Y-38443680D01*
X66165000Y-30241013D01*
X66184744Y-30254205D01*
X66373102Y-30332226D01*
X66573061Y-30372000D01*
X66776939Y-30372000D01*
X66976898Y-30332226D01*
X67165256Y-30254205D01*
X67334774Y-30140937D01*
X67378711Y-30097000D01*
X67539155Y-30097000D01*
X67627208Y-30204292D01*
X67673838Y-30242561D01*
X67652506Y-30253963D01*
X67555815Y-30333315D01*
X67476463Y-30430006D01*
X67417498Y-30540320D01*
X67381188Y-30660018D01*
X67368928Y-30784500D01*
X67372000Y-30986250D01*
X67530750Y-31145000D01*
X68580000Y-31145000D01*
X68580000Y-31125000D01*
X68834000Y-31125000D01*
X68834000Y-31145000D01*
X68854000Y-31145000D01*
X68854000Y-31399000D01*
X68834000Y-31399000D01*
X68834000Y-31419000D01*
X68580000Y-31419000D01*
X68580000Y-31399000D01*
X67530750Y-31399000D01*
X67372000Y-31557750D01*
X67368928Y-31759500D01*
X67381188Y-31883982D01*
X67417498Y-32003680D01*
X67476463Y-32113994D01*
X67555815Y-32210685D01*
X67633564Y-32274492D01*
X67627208Y-32279708D01*
X67517542Y-32413336D01*
X67436053Y-32565791D01*
X67385872Y-32731215D01*
X67368928Y-32903250D01*
X67368928Y-33390750D01*
X67385872Y-33562785D01*
X67436053Y-33728209D01*
X67517542Y-33880664D01*
X67627208Y-34014292D01*
X67651842Y-34034508D01*
X67555815Y-34113315D01*
X67476463Y-34210006D01*
X67417498Y-34320320D01*
X67381188Y-34440018D01*
X67368928Y-34564500D01*
X67372000Y-34766250D01*
X67530750Y-34925000D01*
X68580000Y-34925000D01*
X68580000Y-34905000D01*
X68834000Y-34905000D01*
X68834000Y-34925000D01*
X68854000Y-34925000D01*
X68854000Y-35179000D01*
X68834000Y-35179000D01*
X68834000Y-35199000D01*
X68580000Y-35199000D01*
X68580000Y-35179000D01*
X67530750Y-35179000D01*
X67372000Y-35337750D01*
X67368928Y-35539500D01*
X67381188Y-35663982D01*
X67417498Y-35783680D01*
X67476463Y-35893994D01*
X67555815Y-35990685D01*
X67633564Y-36054492D01*
X67627208Y-36059708D01*
X67517542Y-36193336D01*
X67436053Y-36345791D01*
X67385872Y-36511215D01*
X67368928Y-36683250D01*
X67368928Y-37170750D01*
X67385872Y-37342785D01*
X67436053Y-37508209D01*
X67517542Y-37660664D01*
X67627208Y-37794292D01*
X67673838Y-37832561D01*
X67652506Y-37843963D01*
X67555815Y-37923315D01*
X67476463Y-38020006D01*
X67417498Y-38130320D01*
X67381188Y-38250018D01*
X67368928Y-38374500D01*
X67372000Y-38576250D01*
X67530750Y-38735000D01*
X68580000Y-38735000D01*
X68580000Y-38715000D01*
X68834000Y-38715000D01*
X68834000Y-38735000D01*
X68854000Y-38735000D01*
X68854000Y-38989000D01*
X68834000Y-38989000D01*
X68834000Y-39009000D01*
X68580000Y-39009000D01*
X68580000Y-38989000D01*
X67530750Y-38989000D01*
X67372000Y-39147750D01*
X67368928Y-39349500D01*
X67381188Y-39473982D01*
X67417498Y-39593680D01*
X67476463Y-39703994D01*
X67555815Y-39800685D01*
X67633564Y-39864492D01*
X67627208Y-39869708D01*
X67517542Y-40003336D01*
X67436053Y-40155791D01*
X67385872Y-40321215D01*
X67368928Y-40493250D01*
X67368928Y-40980750D01*
X67370678Y-40998520D01*
X66956271Y-41412928D01*
X66929000Y-41412928D01*
X66755746Y-41429992D01*
X66589150Y-41480528D01*
X66435614Y-41562595D01*
X66301038Y-41673038D01*
X66190595Y-41807614D01*
X66108528Y-41961150D01*
X66057992Y-42127746D01*
X66040928Y-42301000D01*
X66040928Y-43551000D01*
X66057992Y-43724254D01*
X66108528Y-43890850D01*
X66190595Y-44044386D01*
X66301038Y-44178962D01*
X66435614Y-44289405D01*
X66589150Y-44371472D01*
X66755746Y-44422008D01*
X66929000Y-44439072D01*
X67679000Y-44439072D01*
X67852254Y-44422008D01*
X67947001Y-44393267D01*
X67947001Y-44539668D01*
X67943324Y-44577000D01*
X67947001Y-44614333D01*
X67955833Y-44703999D01*
X67957998Y-44725985D01*
X68001454Y-44869246D01*
X68072026Y-45001276D01*
X68143201Y-45088002D01*
X68167000Y-45117001D01*
X68195998Y-45140799D01*
X68270196Y-45214997D01*
X68293999Y-45244001D01*
X68409724Y-45338974D01*
X68541753Y-45409546D01*
X68685014Y-45453003D01*
X68796667Y-45464000D01*
X68796677Y-45464000D01*
X68833999Y-45467676D01*
X68871322Y-45464000D01*
X71590678Y-45464000D01*
X71628000Y-45467676D01*
X71665322Y-45464000D01*
X71665333Y-45464000D01*
X71776986Y-45453003D01*
X71920247Y-45409546D01*
X72052276Y-45338974D01*
X72168001Y-45244001D01*
X72191804Y-45214997D01*
X74743004Y-42663798D01*
X74772001Y-42640001D01*
X74834147Y-42564276D01*
X74866974Y-42524277D01*
X74904998Y-42453140D01*
X74904998Y-42454500D01*
X74974121Y-42454500D01*
X74901795Y-42562744D01*
X74823774Y-42751102D01*
X74784000Y-42951061D01*
X74784000Y-43154939D01*
X74823774Y-43354898D01*
X74901795Y-43543256D01*
X75015063Y-43712774D01*
X75159226Y-43856937D01*
X75328744Y-43970205D01*
X75517102Y-44048226D01*
X75717061Y-44088000D01*
X75920939Y-44088000D01*
X76120898Y-44048226D01*
X76309256Y-43970205D01*
X76390500Y-43915920D01*
X76471744Y-43970205D01*
X76660102Y-44048226D01*
X76860061Y-44088000D01*
X77063939Y-44088000D01*
X77263898Y-44048226D01*
X77452256Y-43970205D01*
X77533500Y-43915920D01*
X77614744Y-43970205D01*
X77803102Y-44048226D01*
X78003061Y-44088000D01*
X78206939Y-44088000D01*
X78406898Y-44048226D01*
X78595256Y-43970205D01*
X78739814Y-43873615D01*
X79250001Y-44383803D01*
X79250001Y-46344326D01*
X78998463Y-46216851D01*
X78640873Y-46116842D01*
X78270641Y-46088517D01*
X77901999Y-46132964D01*
X77549111Y-46248476D01*
X77225539Y-46430613D01*
X76943718Y-46672377D01*
X76771922Y-46891280D01*
X75463493Y-48945101D01*
X75337704Y-49193314D01*
X75237694Y-49550904D01*
X75209369Y-49921135D01*
X75253817Y-50289777D01*
X75369328Y-50642664D01*
X75551466Y-50966237D01*
X75577554Y-50996647D01*
X75449079Y-51022202D01*
X75178662Y-51134212D01*
X74935294Y-51296826D01*
X74728326Y-51503794D01*
X74565712Y-51747162D01*
X74453702Y-52017579D01*
X74396600Y-52304652D01*
X74396600Y-52597348D01*
X74453702Y-52884421D01*
X74565712Y-53154838D01*
X74728326Y-53398206D01*
X74935294Y-53605174D01*
X75178662Y-53767788D01*
X75449079Y-53879798D01*
X75736152Y-53936900D01*
X76028848Y-53936900D01*
X76315921Y-53879798D01*
X76586338Y-53767788D01*
X76829706Y-53605174D01*
X77036674Y-53398206D01*
X77199288Y-53154838D01*
X77311298Y-52884421D01*
X77368400Y-52597348D01*
X77368400Y-52304652D01*
X77311298Y-52017579D01*
X77207059Y-51765924D01*
X77502501Y-51730302D01*
X77502500Y-55711928D01*
X76262500Y-55711928D01*
X76138018Y-55724188D01*
X76018320Y-55760498D01*
X75908006Y-55819463D01*
X75811315Y-55898815D01*
X75731963Y-55995506D01*
X75672998Y-56105820D01*
X75636688Y-56225518D01*
X75624428Y-56350000D01*
X75624428Y-57513271D01*
X74969699Y-58168000D01*
X66823896Y-58168000D01*
X66927137Y-58064759D01*
X67084180Y-57829727D01*
X67192353Y-57568574D01*
X67247500Y-57291335D01*
X67247500Y-57008665D01*
X67192353Y-56731426D01*
X67084180Y-56470273D01*
X66927137Y-56235241D01*
X66727259Y-56035363D01*
X66492227Y-55878320D01*
X66231074Y-55770147D01*
X65953835Y-55715000D01*
X65671165Y-55715000D01*
X65393926Y-55770147D01*
X65132773Y-55878320D01*
X64897741Y-56035363D01*
X64697863Y-56235241D01*
X64680031Y-56261928D01*
X64653541Y-56261928D01*
X64618037Y-56195506D01*
X64538685Y-56098815D01*
X64441994Y-56019463D01*
X64331680Y-55960498D01*
X64211982Y-55924188D01*
X64087500Y-55911928D01*
X62887500Y-55911928D01*
X62763018Y-55924188D01*
X62643320Y-55960498D01*
X62533006Y-56019463D01*
X62436315Y-56098815D01*
X62356963Y-56195506D01*
X62297998Y-56305820D01*
X62261688Y-56425518D01*
X62249428Y-56550000D01*
X62249428Y-57750000D01*
X62261688Y-57874482D01*
X62297998Y-57994180D01*
X62356963Y-58104494D01*
X62409081Y-58168000D01*
X61415919Y-58168000D01*
X61468037Y-58104494D01*
X61527002Y-57994180D01*
X61563312Y-57874482D01*
X61575572Y-57750000D01*
X61575572Y-56550000D01*
X61563312Y-56425518D01*
X61527002Y-56305820D01*
X61468037Y-56195506D01*
X61388685Y-56098815D01*
X61291994Y-56019463D01*
X61181680Y-55960498D01*
X61061982Y-55924188D01*
X60937500Y-55911928D01*
X59737500Y-55911928D01*
X59613018Y-55924188D01*
X59493320Y-55960498D01*
X59383006Y-56019463D01*
X59364125Y-56034958D01*
X59343037Y-55995506D01*
X59263685Y-55898815D01*
X59166994Y-55819463D01*
X59056680Y-55760498D01*
X58936982Y-55724188D01*
X58812500Y-55711928D01*
X57212500Y-55711928D01*
X57088018Y-55724188D01*
X56968320Y-55760498D01*
X56858006Y-55819463D01*
X56761315Y-55898815D01*
X56681963Y-55995506D01*
X56622998Y-56105820D01*
X56586688Y-56225518D01*
X56574428Y-56350000D01*
X56574428Y-57950000D01*
X56586688Y-58074482D01*
X56622998Y-58194180D01*
X56681963Y-58304494D01*
X56761315Y-58401185D01*
X56858006Y-58480537D01*
X56968320Y-58539502D01*
X57088018Y-58575812D01*
X57212500Y-58588072D01*
X58375770Y-58588072D01*
X58573701Y-58786003D01*
X58597500Y-58815002D01*
X58713225Y-58909975D01*
X58736746Y-58922548D01*
X59253200Y-59439002D01*
X59276999Y-59468001D01*
X59305997Y-59491799D01*
X59392723Y-59562974D01*
X59524753Y-59633546D01*
X59668014Y-59677003D01*
X59779667Y-59688000D01*
X59779676Y-59688000D01*
X59816999Y-59691676D01*
X59854322Y-59688000D01*
X75247178Y-59688000D01*
X75284500Y-59691676D01*
X75321822Y-59688000D01*
X75321833Y-59688000D01*
X75433486Y-59677003D01*
X75576747Y-59633546D01*
X75708776Y-59562974D01*
X75824501Y-59468001D01*
X75848304Y-59438997D01*
X76699229Y-58588072D01*
X77862500Y-58588072D01*
X77986982Y-58575812D01*
X78106680Y-58539502D01*
X78216994Y-58480537D01*
X78313685Y-58401185D01*
X78393037Y-58304494D01*
X78414125Y-58265042D01*
X78433006Y-58280537D01*
X78543320Y-58339502D01*
X78663018Y-58375812D01*
X78787500Y-58388072D01*
X79987500Y-58388072D01*
X80111982Y-58375812D01*
X80231680Y-58339502D01*
X80341994Y-58280537D01*
X80438685Y-58201185D01*
X80518037Y-58104494D01*
X80577002Y-57994180D01*
X80613312Y-57874482D01*
X80625572Y-57750000D01*
X80625572Y-56550000D01*
X81299428Y-56550000D01*
X81299428Y-57750000D01*
X81311688Y-57874482D01*
X81347998Y-57994180D01*
X81406963Y-58104494D01*
X81486315Y-58201185D01*
X81583006Y-58280537D01*
X81693320Y-58339502D01*
X81813018Y-58375812D01*
X81937500Y-58388072D01*
X83137500Y-58388072D01*
X83261982Y-58375812D01*
X83381680Y-58339502D01*
X83491994Y-58280537D01*
X83588685Y-58201185D01*
X83668037Y-58104494D01*
X83703541Y-58038072D01*
X83730031Y-58038072D01*
X83747863Y-58064759D01*
X83947741Y-58264637D01*
X84182773Y-58421680D01*
X84443926Y-58529853D01*
X84721165Y-58585000D01*
X85003835Y-58585000D01*
X85281074Y-58529853D01*
X85542227Y-58421680D01*
X85777259Y-58264637D01*
X85977137Y-58064759D01*
X86134180Y-57829727D01*
X86242353Y-57568574D01*
X86297500Y-57291335D01*
X86297500Y-57008665D01*
X86242353Y-56731426D01*
X86134180Y-56470273D01*
X85977137Y-56235241D01*
X85777259Y-56035363D01*
X85542227Y-55878320D01*
X85281074Y-55770147D01*
X85003835Y-55715000D01*
X84721165Y-55715000D01*
X84443926Y-55770147D01*
X84182773Y-55878320D01*
X83947741Y-56035363D01*
X83747863Y-56235241D01*
X83730031Y-56261928D01*
X83703541Y-56261928D01*
X83668037Y-56195506D01*
X83588685Y-56098815D01*
X83491994Y-56019463D01*
X83381680Y-55960498D01*
X83261982Y-55924188D01*
X83137500Y-55911928D01*
X81937500Y-55911928D01*
X81813018Y-55924188D01*
X81693320Y-55960498D01*
X81583006Y-56019463D01*
X81486315Y-56098815D01*
X81406963Y-56195506D01*
X81347998Y-56305820D01*
X81311688Y-56425518D01*
X81299428Y-56550000D01*
X80625572Y-56550000D01*
X80613312Y-56425518D01*
X80577002Y-56305820D01*
X80518037Y-56195506D01*
X80438685Y-56098815D01*
X80341994Y-56019463D01*
X80231680Y-55960498D01*
X80111982Y-55924188D01*
X79987500Y-55911928D01*
X79022500Y-55911928D01*
X79022500Y-54228826D01*
X79286674Y-54493000D01*
X79717249Y-54780701D01*
X80195678Y-54978873D01*
X80703576Y-55079900D01*
X81221424Y-55079900D01*
X81729322Y-54978873D01*
X82207751Y-54780701D01*
X82638326Y-54493000D01*
X83004500Y-54126826D01*
X83292201Y-53696251D01*
X83490373Y-53217822D01*
X83591400Y-52709924D01*
X83591400Y-52304652D01*
X84556600Y-52304652D01*
X84556600Y-52597348D01*
X84613702Y-52884421D01*
X84725712Y-53154838D01*
X84888326Y-53398206D01*
X85095294Y-53605174D01*
X85338662Y-53767788D01*
X85609079Y-53879798D01*
X85896152Y-53936900D01*
X86188848Y-53936900D01*
X86475921Y-53879798D01*
X86746338Y-53767788D01*
X86989706Y-53605174D01*
X87196674Y-53398206D01*
X87359288Y-53154838D01*
X87471298Y-52884421D01*
X87528400Y-52597348D01*
X87528400Y-52304652D01*
X87471298Y-52017579D01*
X87359288Y-51747162D01*
X87196674Y-51503794D01*
X86989706Y-51296826D01*
X86746338Y-51134212D01*
X86475921Y-51022202D01*
X86188848Y-50965100D01*
X85896152Y-50965100D01*
X85609079Y-51022202D01*
X85338662Y-51134212D01*
X85095294Y-51296826D01*
X84888326Y-51503794D01*
X84725712Y-51747162D01*
X84613702Y-52017579D01*
X84556600Y-52304652D01*
X83591400Y-52304652D01*
X83591400Y-52192076D01*
X83490373Y-51684178D01*
X83292201Y-51205749D01*
X83004500Y-50775174D01*
X82638326Y-50409000D01*
X82207751Y-50121299D01*
X81729322Y-49923127D01*
X81221424Y-49822100D01*
X80769924Y-49822100D01*
X80770000Y-49821333D01*
X80770000Y-49821324D01*
X80773676Y-49784001D01*
X80770000Y-49746678D01*
X80770000Y-47914505D01*
X81575844Y-47914505D01*
X81584221Y-48192645D01*
X81667590Y-48554477D01*
X81819948Y-48893092D01*
X82035439Y-49195477D01*
X82305781Y-49450011D01*
X82620587Y-49646915D01*
X82967757Y-49778618D01*
X83333950Y-49840061D01*
X83705093Y-49828883D01*
X84066925Y-49745514D01*
X84405540Y-49593156D01*
X84707925Y-49377665D01*
X84962459Y-49107323D01*
X85159363Y-48792517D01*
X85291066Y-48445347D01*
X85337113Y-48170916D01*
X85389156Y-47407496D01*
X85380779Y-47129355D01*
X85297410Y-46767523D01*
X85145052Y-46428908D01*
X84929561Y-46126523D01*
X84659219Y-45871989D01*
X84344413Y-45675086D01*
X83997243Y-45543382D01*
X83631050Y-45481939D01*
X83259907Y-45493117D01*
X82898075Y-45576486D01*
X82559460Y-45728844D01*
X82257075Y-45944335D01*
X82002541Y-46214677D01*
X81805637Y-46529483D01*
X81673934Y-46876653D01*
X81627887Y-47151084D01*
X81575844Y-47914505D01*
X80770000Y-47914505D01*
X80770000Y-44106323D01*
X80773676Y-44069000D01*
X80770000Y-44031677D01*
X80770000Y-44031667D01*
X80759003Y-43920014D01*
X80723555Y-43803156D01*
X80818590Y-43708121D01*
X80931858Y-43538603D01*
X81009879Y-43350245D01*
X81049653Y-43150286D01*
X81049653Y-42946408D01*
X81009879Y-42746449D01*
X80931858Y-42558091D01*
X80864694Y-42457572D01*
X80907000Y-42457572D01*
X81031482Y-42445312D01*
X81032663Y-42444954D01*
X81146250Y-42454500D01*
X81238333Y-42362417D01*
X81261494Y-42350037D01*
X81358185Y-42270685D01*
X81432000Y-42180741D01*
X81505815Y-42270685D01*
X81602506Y-42350037D01*
X81625667Y-42362417D01*
X81717750Y-42454500D01*
X81831337Y-42444954D01*
X81832518Y-42445312D01*
X81957000Y-42457572D01*
X82507000Y-42457572D01*
X82631482Y-42445312D01*
X82751180Y-42409002D01*
X82861494Y-42350037D01*
X82958185Y-42270685D01*
X83037537Y-42173994D01*
X83096502Y-42063680D01*
X83132812Y-41943982D01*
X83144087Y-41829500D01*
X86147178Y-41829500D01*
X86184500Y-41833176D01*
X86221822Y-41829500D01*
X86221833Y-41829500D01*
X86333486Y-41818503D01*
X86419952Y-41792274D01*
X86418928Y-41859500D01*
X86431188Y-41983982D01*
X86467498Y-42103680D01*
X86526463Y-42213994D01*
X86605815Y-42310685D01*
X86702506Y-42390037D01*
X86812820Y-42449002D01*
X86932518Y-42485312D01*
X87057000Y-42497572D01*
X87471250Y-42494500D01*
X87630000Y-42335750D01*
X87630000Y-41499000D01*
X87884000Y-41499000D01*
X87884000Y-42335750D01*
X88042750Y-42494500D01*
X88457000Y-42497572D01*
X88581482Y-42485312D01*
X88701180Y-42449002D01*
X88811494Y-42390037D01*
X88908185Y-42310685D01*
X88987537Y-42213994D01*
X89046502Y-42103680D01*
X89082812Y-41983982D01*
X89095072Y-41859500D01*
X89092000Y-41657750D01*
X88933250Y-41499000D01*
X87884000Y-41499000D01*
X87630000Y-41499000D01*
X87610000Y-41499000D01*
X87610000Y-41245000D01*
X87630000Y-41245000D01*
X87630000Y-41225000D01*
X87884000Y-41225000D01*
X87884000Y-41245000D01*
X88933250Y-41245000D01*
X89092000Y-41086250D01*
X89095072Y-40884500D01*
X89082812Y-40760018D01*
X89046502Y-40640320D01*
X88987537Y-40530006D01*
X88908185Y-40433315D01*
X88830436Y-40369508D01*
X88836792Y-40364292D01*
X88946458Y-40230664D01*
X89027947Y-40078209D01*
X89078128Y-39912785D01*
X89095072Y-39740750D01*
X89095072Y-39253250D01*
X89078128Y-39081215D01*
X89027947Y-38915791D01*
X88946458Y-38763336D01*
X88836792Y-38629708D01*
X88703164Y-38520042D01*
X88550709Y-38438553D01*
X88385285Y-38388372D01*
X88213250Y-38371428D01*
X87300750Y-38371428D01*
X87128715Y-38388372D01*
X86963291Y-38438553D01*
X86810836Y-38520042D01*
X86677208Y-38629708D01*
X86567542Y-38763336D01*
X86486053Y-38915791D01*
X86435872Y-39081215D01*
X86418928Y-39253250D01*
X86418928Y-39740750D01*
X86420678Y-39758520D01*
X85869699Y-40309500D01*
X83144087Y-40309500D01*
X83141038Y-40278538D01*
X83182000Y-40282572D01*
X84682000Y-40282572D01*
X84806482Y-40270312D01*
X84926180Y-40234002D01*
X85036494Y-40175037D01*
X85133185Y-40095685D01*
X85212537Y-39998994D01*
X85271502Y-39888680D01*
X85274280Y-39879521D01*
X87706230Y-37447572D01*
X88213250Y-37447572D01*
X88385285Y-37430628D01*
X88550709Y-37380447D01*
X88703164Y-37298958D01*
X88836792Y-37189292D01*
X88946458Y-37055664D01*
X89027947Y-36903209D01*
X89078128Y-36737785D01*
X89095072Y-36565750D01*
X89095072Y-36078250D01*
X89078128Y-35906215D01*
X89027947Y-35740791D01*
X88946458Y-35588336D01*
X88836792Y-35454708D01*
X88830436Y-35449492D01*
X88908185Y-35385685D01*
X88987537Y-35288994D01*
X89046502Y-35178680D01*
X89082812Y-35058982D01*
X89095072Y-34934500D01*
X89092000Y-34732750D01*
X88933250Y-34574000D01*
X87884000Y-34574000D01*
X87884000Y-34594000D01*
X87630000Y-34594000D01*
X87630000Y-34574000D01*
X86580750Y-34574000D01*
X86422000Y-34732750D01*
X86418928Y-34934500D01*
X86431188Y-35058982D01*
X86467498Y-35178680D01*
X86526463Y-35288994D01*
X86605815Y-35385685D01*
X86683564Y-35449492D01*
X86677208Y-35454708D01*
X86567542Y-35588336D01*
X86486053Y-35740791D01*
X86435872Y-35906215D01*
X86418928Y-36078250D01*
X86418928Y-36565750D01*
X86420678Y-36583520D01*
X85320072Y-37684127D01*
X85320072Y-37494500D01*
X85307812Y-37370018D01*
X85307655Y-37369500D01*
X85307812Y-37368982D01*
X85320072Y-37244500D01*
X85320072Y-36694500D01*
X85307812Y-36570018D01*
X85307655Y-36569500D01*
X85307812Y-36568982D01*
X85320072Y-36444500D01*
X85320072Y-35894500D01*
X85307812Y-35770018D01*
X85307655Y-35769500D01*
X85307812Y-35768982D01*
X85320072Y-35644500D01*
X85320072Y-35094500D01*
X85307812Y-34970018D01*
X85307655Y-34969500D01*
X85307812Y-34968982D01*
X85320072Y-34844500D01*
X85320072Y-34294500D01*
X85307812Y-34170018D01*
X85307655Y-34169500D01*
X85307812Y-34168982D01*
X85320072Y-34044500D01*
X85320072Y-33959500D01*
X86418928Y-33959500D01*
X86422000Y-34161250D01*
X86580750Y-34320000D01*
X87630000Y-34320000D01*
X87630000Y-33483250D01*
X87884000Y-33483250D01*
X87884000Y-34320000D01*
X88933250Y-34320000D01*
X89092000Y-34161250D01*
X89095072Y-33959500D01*
X89082812Y-33835018D01*
X89046502Y-33715320D01*
X88987537Y-33605006D01*
X88908185Y-33508315D01*
X88811494Y-33428963D01*
X88701180Y-33369998D01*
X88581482Y-33333688D01*
X88457000Y-33321428D01*
X88042750Y-33324500D01*
X87884000Y-33483250D01*
X87630000Y-33483250D01*
X87471250Y-33324500D01*
X87057000Y-33321428D01*
X86932518Y-33333688D01*
X86812820Y-33369998D01*
X86702506Y-33428963D01*
X86605815Y-33508315D01*
X86526463Y-33605006D01*
X86467498Y-33715320D01*
X86431188Y-33835018D01*
X86418928Y-33959500D01*
X85320072Y-33959500D01*
X85320072Y-33494500D01*
X85307812Y-33370018D01*
X85307655Y-33369500D01*
X85307812Y-33368982D01*
X85320072Y-33244500D01*
X85320072Y-32823826D01*
X85356276Y-32804474D01*
X85472001Y-32709501D01*
X85495804Y-32680497D01*
X86504800Y-31671502D01*
X86580748Y-31671502D01*
X86422000Y-31830250D01*
X86418928Y-32032000D01*
X86431188Y-32156482D01*
X86467498Y-32276180D01*
X86526463Y-32386494D01*
X86605815Y-32483185D01*
X86702506Y-32562537D01*
X86812820Y-32621502D01*
X86932518Y-32657812D01*
X87057000Y-32670072D01*
X87471250Y-32667000D01*
X87630000Y-32508250D01*
X87630000Y-31671500D01*
X87884000Y-31671500D01*
X87884000Y-32508250D01*
X88042750Y-32667000D01*
X88457000Y-32670072D01*
X88581482Y-32657812D01*
X88701180Y-32621502D01*
X88811494Y-32562537D01*
X88908185Y-32483185D01*
X88987537Y-32386494D01*
X89046502Y-32276180D01*
X89082812Y-32156482D01*
X89095072Y-32032000D01*
X89092000Y-31830250D01*
X88933250Y-31671500D01*
X87884000Y-31671500D01*
X87630000Y-31671500D01*
X87610000Y-31671500D01*
X87610000Y-31417500D01*
X87630000Y-31417500D01*
X87630000Y-31397500D01*
X87884000Y-31397500D01*
X87884000Y-31417500D01*
X88933250Y-31417500D01*
X89092000Y-31258750D01*
X89095072Y-31057000D01*
X89082812Y-30932518D01*
X89046502Y-30812820D01*
X88987537Y-30702506D01*
X88908185Y-30605815D01*
X88830436Y-30542008D01*
X88836792Y-30536792D01*
X88946458Y-30403164D01*
X89027947Y-30250709D01*
X89078128Y-30085285D01*
X89095072Y-29913250D01*
X89095072Y-29425750D01*
X89078128Y-29253715D01*
X89027947Y-29088291D01*
X88946458Y-28935836D01*
X88836792Y-28802208D01*
X88703164Y-28692542D01*
X88550709Y-28611053D01*
X88385285Y-28560872D01*
X88213250Y-28543928D01*
X87300750Y-28543928D01*
X87128715Y-28560872D01*
X86963291Y-28611053D01*
X86810836Y-28692542D01*
X86677208Y-28802208D01*
X86567542Y-28935836D01*
X86486053Y-29088291D01*
X86435872Y-29253715D01*
X86418928Y-29425750D01*
X86418928Y-29607770D01*
X85238345Y-30788354D01*
X85210746Y-30737339D01*
X85130908Y-30641049D01*
X85033818Y-30562184D01*
X84923208Y-30503776D01*
X84803329Y-30468070D01*
X84678787Y-30456436D01*
X84217750Y-30459500D01*
X84059000Y-30618250D01*
X84059000Y-31242500D01*
X84079000Y-31242500D01*
X84079000Y-31256428D01*
X83182000Y-31256428D01*
X83057518Y-31268688D01*
X82937820Y-31304998D01*
X82827506Y-31363963D01*
X82744315Y-31432236D01*
X82639753Y-31463954D01*
X82507723Y-31534526D01*
X82434286Y-31594795D01*
X82391999Y-31629499D01*
X82368201Y-31658497D01*
X80217199Y-33809500D01*
X76794302Y-33809500D01*
X76592000Y-33607199D01*
X76592000Y-30829481D01*
X76632000Y-30780741D01*
X76705815Y-30870685D01*
X76802506Y-30950037D01*
X76825667Y-30962417D01*
X76917750Y-31054500D01*
X77031337Y-31044954D01*
X77032518Y-31045312D01*
X77157000Y-31057572D01*
X77707000Y-31057572D01*
X77831482Y-31045312D01*
X77832000Y-31045155D01*
X77832518Y-31045312D01*
X77957000Y-31057572D01*
X78507000Y-31057572D01*
X78631482Y-31045312D01*
X78632000Y-31045155D01*
X78632518Y-31045312D01*
X78757000Y-31057572D01*
X79307000Y-31057572D01*
X79431482Y-31045312D01*
X79432000Y-31045155D01*
X79432518Y-31045312D01*
X79557000Y-31057572D01*
X80107000Y-31057572D01*
X80231482Y-31045312D01*
X80232000Y-31045155D01*
X80232518Y-31045312D01*
X80357000Y-31057572D01*
X80907000Y-31057572D01*
X81031482Y-31045312D01*
X81032000Y-31045155D01*
X81032518Y-31045312D01*
X81157000Y-31057572D01*
X81707000Y-31057572D01*
X81831482Y-31045312D01*
X81832000Y-31045155D01*
X81832518Y-31045312D01*
X81957000Y-31057572D01*
X82507000Y-31057572D01*
X82549552Y-31053381D01*
X82547000Y-31083750D01*
X82705750Y-31242500D01*
X83805000Y-31242500D01*
X83805000Y-30618250D01*
X83646250Y-30459500D01*
X83185213Y-30456436D01*
X83141028Y-30460564D01*
X83145072Y-30419500D01*
X83145072Y-28919500D01*
X83132812Y-28795018D01*
X83096502Y-28675320D01*
X83037537Y-28565006D01*
X82958185Y-28468315D01*
X82861494Y-28388963D01*
X82751180Y-28329998D01*
X82631482Y-28293688D01*
X82507000Y-28281428D01*
X81957000Y-28281428D01*
X81832518Y-28293688D01*
X81832000Y-28293845D01*
X81831482Y-28293688D01*
X81707000Y-28281428D01*
X81157000Y-28281428D01*
X81032518Y-28293688D01*
X81032000Y-28293845D01*
X81031482Y-28293688D01*
X80907000Y-28281428D01*
X80357000Y-28281428D01*
X80232518Y-28293688D01*
X80232000Y-28293845D01*
X80231482Y-28293688D01*
X80107000Y-28281428D01*
X79557000Y-28281428D01*
X79432518Y-28293688D01*
X79432000Y-28293845D01*
X79431482Y-28293688D01*
X79307000Y-28281428D01*
X78992000Y-28281428D01*
X78992000Y-25941872D01*
X89713000Y-25941872D01*
X89713000Y-26382128D01*
X89798890Y-26813925D01*
X89967369Y-27220669D01*
X90211962Y-27586729D01*
X90523271Y-27898038D01*
X90889331Y-28142631D01*
X91296075Y-28311110D01*
X91727872Y-28397000D01*
X92168128Y-28397000D01*
X92599925Y-28311110D01*
X93006669Y-28142631D01*
X93372729Y-27898038D01*
X93684038Y-27586729D01*
X93928631Y-27220669D01*
X94097110Y-26813925D01*
X94183000Y-26382128D01*
X94183000Y-25941872D01*
X94097110Y-25510075D01*
X93928631Y-25103331D01*
X93684038Y-24737271D01*
X93372729Y-24425962D01*
X93006669Y-24181369D01*
X92599925Y-24012890D01*
X92168128Y-23927000D01*
X91727872Y-23927000D01*
X91296075Y-24012890D01*
X90889331Y-24181369D01*
X90523271Y-24425962D01*
X90211962Y-24737271D01*
X89967369Y-25103331D01*
X89798890Y-25510075D01*
X89713000Y-25941872D01*
X78992000Y-25941872D01*
X78992000Y-25663801D01*
X79111729Y-25544072D01*
X80075000Y-25544072D01*
X80199482Y-25531812D01*
X80319180Y-25495502D01*
X80429494Y-25436537D01*
X80526185Y-25357185D01*
X80605537Y-25260494D01*
X80664502Y-25150180D01*
X80675477Y-25114000D01*
X81255155Y-25114000D01*
X81343208Y-25221292D01*
X81476836Y-25330958D01*
X81629291Y-25412447D01*
X81794715Y-25462628D01*
X81966750Y-25479572D01*
X82879250Y-25479572D01*
X83051285Y-25462628D01*
X83216709Y-25412447D01*
X83369164Y-25330958D01*
X83502792Y-25221292D01*
X83612458Y-25087664D01*
X83693947Y-24935209D01*
X83744128Y-24769785D01*
X83761072Y-24597750D01*
X83761072Y-24110250D01*
X83744128Y-23938215D01*
X83693947Y-23772791D01*
X83612458Y-23620336D01*
X83502792Y-23486708D01*
X83496436Y-23481492D01*
X83574185Y-23417685D01*
X83653537Y-23320994D01*
X83712502Y-23210680D01*
X83748812Y-23090982D01*
X83761072Y-22966500D01*
X83758000Y-22764750D01*
X83599250Y-22606000D01*
X82550000Y-22606000D01*
X82550000Y-22626000D01*
X82296000Y-22626000D01*
X82296000Y-22606000D01*
X81246750Y-22606000D01*
X81088000Y-22764750D01*
X81084928Y-22966500D01*
X81097188Y-23090982D01*
X81133498Y-23210680D01*
X81192463Y-23320994D01*
X81271815Y-23417685D01*
X81349564Y-23481492D01*
X81343208Y-23486708D01*
X81255155Y-23594000D01*
X80702041Y-23594000D01*
X80700812Y-23581518D01*
X80664502Y-23461820D01*
X80661391Y-23456000D01*
X80664502Y-23450180D01*
X80700812Y-23330482D01*
X80713072Y-23206000D01*
X80710000Y-22891750D01*
X80551250Y-22733000D01*
X79502000Y-22733000D01*
X79502000Y-22753000D01*
X79248000Y-22753000D01*
X79248000Y-22733000D01*
X79228000Y-22733000D01*
X79228000Y-22479000D01*
X79248000Y-22479000D01*
X79248000Y-21529750D01*
X79502000Y-21529750D01*
X79502000Y-22479000D01*
X80551250Y-22479000D01*
X80710000Y-22320250D01*
X80713072Y-22006000D01*
X80711644Y-21991500D01*
X81084928Y-21991500D01*
X81088000Y-22193250D01*
X81246750Y-22352000D01*
X82296000Y-22352000D01*
X82296000Y-21515250D01*
X82550000Y-21515250D01*
X82550000Y-22352000D01*
X83599250Y-22352000D01*
X83758000Y-22193250D01*
X83761072Y-21991500D01*
X83748812Y-21867018D01*
X83712502Y-21747320D01*
X83653537Y-21637006D01*
X83574185Y-21540315D01*
X83477494Y-21460963D01*
X83367180Y-21401998D01*
X83247482Y-21365688D01*
X83123000Y-21353428D01*
X82708750Y-21356500D01*
X82550000Y-21515250D01*
X82296000Y-21515250D01*
X82137250Y-21356500D01*
X81723000Y-21353428D01*
X81598518Y-21365688D01*
X81478820Y-21401998D01*
X81368506Y-21460963D01*
X81271815Y-21540315D01*
X81192463Y-21637006D01*
X81133498Y-21747320D01*
X81097188Y-21867018D01*
X81084928Y-21991500D01*
X80711644Y-21991500D01*
X80700812Y-21881518D01*
X80664502Y-21761820D01*
X80605537Y-21651506D01*
X80526185Y-21554815D01*
X80429494Y-21475463D01*
X80319180Y-21416498D01*
X80199482Y-21380188D01*
X80075000Y-21367928D01*
X79660750Y-21371000D01*
X79502000Y-21529750D01*
X79248000Y-21529750D01*
X79089250Y-21371000D01*
X78675000Y-21367928D01*
X78550518Y-21380188D01*
X78430820Y-21416498D01*
X78320506Y-21475463D01*
X78275000Y-21512809D01*
X78229494Y-21475463D01*
X78119180Y-21416498D01*
X77999482Y-21380188D01*
X77875000Y-21367928D01*
X76475000Y-21367928D01*
X76350518Y-21380188D01*
X76230820Y-21416498D01*
X76120506Y-21475463D01*
X76023815Y-21554815D01*
X75944463Y-21651506D01*
X75892351Y-21749000D01*
X75462845Y-21749000D01*
X75374792Y-21641708D01*
X75241164Y-21532042D01*
X75088709Y-21450553D01*
X74923285Y-21400372D01*
X74751250Y-21383428D01*
X73838750Y-21383428D01*
X73666715Y-21400372D01*
X73501291Y-21450553D01*
X73348836Y-21532042D01*
X73215208Y-21641708D01*
X73105542Y-21775336D01*
X73024053Y-21927791D01*
X72973872Y-22093215D01*
X72956928Y-22265250D01*
X72956928Y-22752750D01*
X72973872Y-22924785D01*
X73024053Y-23090209D01*
X73105542Y-23242664D01*
X73215208Y-23376292D01*
X73221564Y-23381508D01*
X73143815Y-23445315D01*
X73064463Y-23542006D01*
X73005498Y-23652320D01*
X72969188Y-23772018D01*
X72956928Y-23896500D01*
X72960000Y-24098250D01*
X73118750Y-24257000D01*
X74168000Y-24257000D01*
X74168000Y-24237000D01*
X74422000Y-24237000D01*
X74422000Y-24257000D01*
X74442000Y-24257000D01*
X74442000Y-24511000D01*
X74422000Y-24511000D01*
X74422000Y-25347750D01*
X74580750Y-25506500D01*
X74932001Y-25509105D01*
X74932001Y-26232378D01*
X74846276Y-26162026D01*
X74714247Y-26091454D01*
X74570986Y-26047997D01*
X74459333Y-26037000D01*
X74459322Y-26037000D01*
X74422000Y-26033324D01*
X74384678Y-26037000D01*
X70480552Y-26037000D01*
X70043322Y-25599770D01*
X70045072Y-25582000D01*
X70045072Y-25094500D01*
X70028128Y-24922465D01*
X70012668Y-24871500D01*
X72956928Y-24871500D01*
X72969188Y-24995982D01*
X73005498Y-25115680D01*
X73064463Y-25225994D01*
X73143815Y-25322685D01*
X73240506Y-25402037D01*
X73350820Y-25461002D01*
X73470518Y-25497312D01*
X73595000Y-25509572D01*
X74009250Y-25506500D01*
X74168000Y-25347750D01*
X74168000Y-24511000D01*
X73118750Y-24511000D01*
X72960000Y-24669750D01*
X72956928Y-24871500D01*
X70012668Y-24871500D01*
X69977947Y-24757041D01*
X69896458Y-24604586D01*
X69786792Y-24470958D01*
X69780436Y-24465742D01*
X69858185Y-24401935D01*
X69937537Y-24305244D01*
X69996502Y-24194930D01*
X70032812Y-24075232D01*
X70045072Y-23950750D01*
X70042000Y-23749000D01*
X69883250Y-23590250D01*
X68834000Y-23590250D01*
X68834000Y-23610250D01*
X68580000Y-23610250D01*
X68580000Y-23590250D01*
X67530750Y-23590250D01*
X67372000Y-23749000D01*
X67368928Y-23950750D01*
X67381188Y-24075232D01*
X67417498Y-24194930D01*
X67476463Y-24305244D01*
X67555815Y-24401935D01*
X67633564Y-24465742D01*
X67627208Y-24470958D01*
X67517542Y-24604586D01*
X67436053Y-24757041D01*
X67385872Y-24922465D01*
X67368928Y-25094500D01*
X67368928Y-25582000D01*
X67385872Y-25754035D01*
X67436053Y-25919459D01*
X67517542Y-26071914D01*
X67627208Y-26205542D01*
X67760836Y-26315208D01*
X67913291Y-26396697D01*
X67924592Y-26400125D01*
X67913291Y-26403553D01*
X67760836Y-26485042D01*
X67627208Y-26594708D01*
X67539155Y-26702000D01*
X66301322Y-26702000D01*
X66263999Y-26698324D01*
X66226676Y-26702000D01*
X66226667Y-26702000D01*
X66115014Y-26712997D01*
X65971753Y-26756454D01*
X65839724Y-26827026D01*
X65829406Y-26835494D01*
X65752996Y-26898201D01*
X65752992Y-26898205D01*
X65723999Y-26921999D01*
X65700205Y-26950992D01*
X64893998Y-27757201D01*
X64865000Y-27780999D01*
X64841202Y-27809997D01*
X64841201Y-27809998D01*
X64770026Y-27896724D01*
X64699454Y-28028754D01*
X64679297Y-28095205D01*
X64657354Y-28167546D01*
X64655998Y-28172015D01*
X64641324Y-28321000D01*
X64645001Y-28358332D01*
X64645000Y-38166200D01*
X63182573Y-39628627D01*
X63172812Y-39529518D01*
X63136502Y-39409820D01*
X63077537Y-39299506D01*
X62998185Y-39202815D01*
X62901494Y-39123463D01*
X62791180Y-39064498D01*
X62671482Y-39028188D01*
X62547000Y-39015928D01*
X60747000Y-39015928D01*
X60622518Y-39028188D01*
X60502820Y-39064498D01*
X60392506Y-39123463D01*
X60295815Y-39202815D01*
X60216463Y-39299506D01*
X60157498Y-39409820D01*
X60121188Y-39529518D01*
X60108928Y-39654000D01*
X60108928Y-40754000D01*
X60121188Y-40878482D01*
X60157498Y-40998180D01*
X60170765Y-41023000D01*
X56923235Y-41023000D01*
X56936502Y-40998180D01*
X56972812Y-40878482D01*
X56985072Y-40754000D01*
X56985072Y-39654000D01*
X56972812Y-39529518D01*
X56936502Y-39409820D01*
X56877537Y-39299506D01*
X56798185Y-39202815D01*
X56701494Y-39123463D01*
X56591180Y-39064498D01*
X56471482Y-39028188D01*
X56347000Y-39015928D01*
X54547000Y-39015928D01*
X54422518Y-39028188D01*
X54302820Y-39064498D01*
X54192506Y-39123463D01*
X54095815Y-39202815D01*
X54016463Y-39299506D01*
X53957498Y-39409820D01*
X53921188Y-39529518D01*
X53908928Y-39654000D01*
X47151767Y-39654000D01*
X47152365Y-35954000D01*
X53908928Y-35954000D01*
X53908928Y-37054000D01*
X53921188Y-37178482D01*
X53957498Y-37298180D01*
X54016463Y-37408494D01*
X54095815Y-37505185D01*
X54192506Y-37584537D01*
X54302820Y-37643502D01*
X54422518Y-37679812D01*
X54547000Y-37692072D01*
X56347000Y-37692072D01*
X56471482Y-37679812D01*
X56591180Y-37643502D01*
X56701494Y-37584537D01*
X56798185Y-37505185D01*
X56877537Y-37408494D01*
X56936502Y-37298180D01*
X56972812Y-37178482D01*
X56985072Y-37054000D01*
X60108928Y-37054000D01*
X60121188Y-37178482D01*
X60157498Y-37298180D01*
X60216463Y-37408494D01*
X60295815Y-37505185D01*
X60392506Y-37584537D01*
X60502820Y-37643502D01*
X60622518Y-37679812D01*
X60747000Y-37692072D01*
X61361250Y-37689000D01*
X61520000Y-37530250D01*
X61520000Y-36631000D01*
X61774000Y-36631000D01*
X61774000Y-37530250D01*
X61932750Y-37689000D01*
X62547000Y-37692072D01*
X62671482Y-37679812D01*
X62791180Y-37643502D01*
X62901494Y-37584537D01*
X62998185Y-37505185D01*
X63077537Y-37408494D01*
X63136502Y-37298180D01*
X63172812Y-37178482D01*
X63185072Y-37054000D01*
X63182000Y-36789750D01*
X63023250Y-36631000D01*
X61774000Y-36631000D01*
X61520000Y-36631000D01*
X60270750Y-36631000D01*
X60112000Y-36789750D01*
X60108928Y-37054000D01*
X56985072Y-37054000D01*
X56985072Y-35954000D01*
X60108928Y-35954000D01*
X60112000Y-36218250D01*
X60270750Y-36377000D01*
X61520000Y-36377000D01*
X61520000Y-35477750D01*
X61774000Y-35477750D01*
X61774000Y-36377000D01*
X63023250Y-36377000D01*
X63182000Y-36218250D01*
X63185072Y-35954000D01*
X63172812Y-35829518D01*
X63136502Y-35709820D01*
X63077537Y-35599506D01*
X62998185Y-35502815D01*
X62901494Y-35423463D01*
X62791180Y-35364498D01*
X62671482Y-35328188D01*
X62547000Y-35315928D01*
X61932750Y-35319000D01*
X61774000Y-35477750D01*
X61520000Y-35477750D01*
X61361250Y-35319000D01*
X60747000Y-35315928D01*
X60622518Y-35328188D01*
X60502820Y-35364498D01*
X60392506Y-35423463D01*
X60295815Y-35502815D01*
X60216463Y-35599506D01*
X60157498Y-35709820D01*
X60121188Y-35829518D01*
X60108928Y-35954000D01*
X56985072Y-35954000D01*
X56972812Y-35829518D01*
X56936502Y-35709820D01*
X56877537Y-35599506D01*
X56798185Y-35502815D01*
X56701494Y-35423463D01*
X56591180Y-35364498D01*
X56471482Y-35328188D01*
X56347000Y-35315928D01*
X54547000Y-35315928D01*
X54422518Y-35328188D01*
X54302820Y-35364498D01*
X54192506Y-35423463D01*
X54095815Y-35502815D01*
X54016463Y-35599506D01*
X53957498Y-35709820D01*
X53921188Y-35829518D01*
X53908928Y-35954000D01*
X47152365Y-35954000D01*
X47152834Y-33053872D01*
X48565000Y-33053872D01*
X48565000Y-33494128D01*
X48650890Y-33925925D01*
X48819369Y-34332669D01*
X49063962Y-34698729D01*
X49375271Y-35010038D01*
X49741331Y-35254631D01*
X50148075Y-35423110D01*
X50579872Y-35509000D01*
X51020128Y-35509000D01*
X51451925Y-35423110D01*
X51858669Y-35254631D01*
X52224729Y-35010038D01*
X52536038Y-34698729D01*
X52780631Y-34332669D01*
X52949110Y-33925925D01*
X53035000Y-33494128D01*
X53035000Y-33053872D01*
X52949110Y-32622075D01*
X52780631Y-32215331D01*
X52536038Y-31849271D01*
X52224729Y-31537962D01*
X51858669Y-31293369D01*
X51451925Y-31124890D01*
X51020128Y-31039000D01*
X50579872Y-31039000D01*
X50148075Y-31124890D01*
X49741331Y-31293369D01*
X49375271Y-31537962D01*
X49063962Y-31849271D01*
X48819369Y-32215331D01*
X48650890Y-32622075D01*
X48565000Y-33053872D01*
X47152834Y-33053872D01*
X47153800Y-27076061D01*
X53321000Y-27076061D01*
X53321000Y-27279939D01*
X53360774Y-27479898D01*
X53438795Y-27668256D01*
X53552063Y-27837774D01*
X53696226Y-27981937D01*
X53865744Y-28095205D01*
X54054102Y-28173226D01*
X54254061Y-28213000D01*
X54346344Y-28213000D01*
X54304872Y-28349715D01*
X54287928Y-28521750D01*
X54287928Y-29009250D01*
X54304872Y-29181285D01*
X54355053Y-29346709D01*
X54436542Y-29499164D01*
X54546208Y-29632792D01*
X54631756Y-29703000D01*
X54546208Y-29773208D01*
X54436542Y-29906836D01*
X54355053Y-30059291D01*
X54304872Y-30224715D01*
X54287928Y-30396750D01*
X54287928Y-30884250D01*
X54304872Y-31056285D01*
X54355053Y-31221709D01*
X54436542Y-31374164D01*
X54546208Y-31507792D01*
X54679836Y-31617458D01*
X54832291Y-31698947D01*
X54997715Y-31749128D01*
X55169750Y-31766072D01*
X55676771Y-31766072D01*
X56496000Y-32585302D01*
X56496000Y-32613939D01*
X56535774Y-32813898D01*
X56613795Y-33002256D01*
X56727063Y-33171774D01*
X56871226Y-33315937D01*
X57040744Y-33429205D01*
X57229102Y-33507226D01*
X57429061Y-33547000D01*
X57632939Y-33547000D01*
X57832898Y-33507226D01*
X58021256Y-33429205D01*
X58031002Y-33422693D01*
X58040747Y-33429205D01*
X58229105Y-33507226D01*
X58429064Y-33547000D01*
X58632942Y-33547000D01*
X58832901Y-33507226D01*
X59021259Y-33429205D01*
X59190777Y-33315937D01*
X59334940Y-33171774D01*
X59448208Y-33002256D01*
X59526229Y-32813898D01*
X59566003Y-32613939D01*
X59566003Y-32440798D01*
X60272480Y-31734322D01*
X60908250Y-31734322D01*
X61080285Y-31717378D01*
X61245709Y-31667197D01*
X61398164Y-31585708D01*
X61531792Y-31476042D01*
X61641458Y-31342414D01*
X61722947Y-31189959D01*
X61773128Y-31024535D01*
X61790072Y-30852500D01*
X61790072Y-30365000D01*
X61773128Y-30192965D01*
X61722947Y-30027541D01*
X61641458Y-29875086D01*
X61531792Y-29741458D01*
X61446244Y-29671250D01*
X61531792Y-29601042D01*
X61641458Y-29467414D01*
X61722947Y-29314959D01*
X61773128Y-29149535D01*
X61790072Y-28977500D01*
X61790072Y-28490000D01*
X61773128Y-28317965D01*
X61722947Y-28152541D01*
X61641458Y-28000086D01*
X61531792Y-27866458D01*
X61398164Y-27756792D01*
X61245709Y-27675303D01*
X61080285Y-27625122D01*
X60908250Y-27608178D01*
X60496480Y-27608178D01*
X59915776Y-27027474D01*
X59986000Y-26957250D01*
X59986000Y-26952033D01*
X60010185Y-26932185D01*
X60089537Y-26835494D01*
X60148502Y-26725180D01*
X60184812Y-26605482D01*
X60197072Y-26481000D01*
X60197072Y-25908000D01*
X60232000Y-25908000D01*
X60232000Y-26957250D01*
X60390750Y-27116000D01*
X60493229Y-27104794D01*
X60612346Y-27066621D01*
X60721727Y-27005943D01*
X60817169Y-26925092D01*
X60895003Y-26827174D01*
X60952239Y-26715954D01*
X60986677Y-26595704D01*
X60996994Y-26471046D01*
X60994000Y-26066750D01*
X60835250Y-25908000D01*
X60232000Y-25908000D01*
X60197072Y-25908000D01*
X60197072Y-25081000D01*
X60184812Y-24956518D01*
X60148502Y-24836820D01*
X60089537Y-24726506D01*
X60010185Y-24629815D01*
X59986000Y-24609967D01*
X59986000Y-24604750D01*
X60232000Y-24604750D01*
X60232000Y-25654000D01*
X60835250Y-25654000D01*
X60994000Y-25495250D01*
X60994855Y-25379835D01*
X61077972Y-25506061D01*
X61269460Y-25700145D01*
X61495132Y-25853142D01*
X61746316Y-25959173D01*
X61817815Y-25973318D01*
X62032000Y-25850656D01*
X62032000Y-23508000D01*
X62286000Y-23508000D01*
X62286000Y-25850656D01*
X62500185Y-25973318D01*
X62571684Y-25959173D01*
X62822868Y-25853142D01*
X63048540Y-25700145D01*
X63240028Y-25506061D01*
X63389972Y-25278349D01*
X63492611Y-25025760D01*
X63544000Y-24758000D01*
X63544000Y-23508000D01*
X62286000Y-23508000D01*
X62032000Y-23508000D01*
X60774000Y-23508000D01*
X60774000Y-24600339D01*
X60721727Y-24556057D01*
X60612346Y-24495379D01*
X60493229Y-24457206D01*
X60390750Y-24446000D01*
X60232000Y-24604750D01*
X59986000Y-24604750D01*
X59827250Y-24446000D01*
X59724771Y-24457206D01*
X59707928Y-24462604D01*
X59683482Y-24455188D01*
X59559000Y-24442928D01*
X59059000Y-24442928D01*
X58934518Y-24455188D01*
X58909000Y-24462929D01*
X58883482Y-24455188D01*
X58759000Y-24442928D01*
X58259000Y-24442928D01*
X58134518Y-24455188D01*
X58109000Y-24462929D01*
X58083482Y-24455188D01*
X57959000Y-24442928D01*
X57459000Y-24442928D01*
X57334518Y-24455188D01*
X57309000Y-24462929D01*
X57283482Y-24455188D01*
X57159000Y-24442928D01*
X56659000Y-24442928D01*
X56534518Y-24455188D01*
X56414820Y-24491498D01*
X56304506Y-24550463D01*
X56244000Y-24600119D01*
X56244000Y-23508000D01*
X54986000Y-23508000D01*
X54986000Y-25850656D01*
X55200185Y-25973318D01*
X55271684Y-25959173D01*
X55522868Y-25853142D01*
X55748540Y-25700145D01*
X55940028Y-25506061D01*
X56020928Y-25383202D01*
X56020928Y-25594270D01*
X55197199Y-26418000D01*
X55059711Y-26418000D01*
X55015774Y-26374063D01*
X54846256Y-26260795D01*
X54657898Y-26182774D01*
X54457939Y-26143000D01*
X54254061Y-26143000D01*
X54054102Y-26182774D01*
X53865744Y-26260795D01*
X53696226Y-26374063D01*
X53552063Y-26518226D01*
X53438795Y-26687744D01*
X53360774Y-26876102D01*
X53321000Y-27076061D01*
X47153800Y-27076061D01*
X47154377Y-23508000D01*
X53474000Y-23508000D01*
X53474000Y-24758000D01*
X53525389Y-25025760D01*
X53628028Y-25278349D01*
X53777972Y-25506061D01*
X53969460Y-25700145D01*
X54195132Y-25853142D01*
X54446316Y-25959173D01*
X54517815Y-25973318D01*
X54732000Y-25850656D01*
X54732000Y-23508000D01*
X53474000Y-23508000D01*
X47154377Y-23508000D01*
X47154595Y-22164672D01*
X47186731Y-22004000D01*
X53474000Y-22004000D01*
X53474000Y-23254000D01*
X54732000Y-23254000D01*
X54732000Y-23234000D01*
X54986000Y-23234000D01*
X54986000Y-23254000D01*
X56244000Y-23254000D01*
X56244000Y-22004000D01*
X56192611Y-21736240D01*
X56143785Y-21616083D01*
X57009000Y-21619072D01*
X57133482Y-21606812D01*
X57253180Y-21570502D01*
X57363494Y-21511537D01*
X57460185Y-21432185D01*
X57539537Y-21335494D01*
X57598502Y-21225180D01*
X57634812Y-21105482D01*
X57647072Y-20981000D01*
X59370928Y-20981000D01*
X59383188Y-21105482D01*
X59419498Y-21225180D01*
X59478463Y-21335494D01*
X59557815Y-21432185D01*
X59654506Y-21511537D01*
X59764820Y-21570502D01*
X59884518Y-21606812D01*
X60009000Y-21619072D01*
X60874215Y-21616083D01*
X60825389Y-21736240D01*
X60774000Y-22004000D01*
X60774000Y-23254000D01*
X62032000Y-23254000D01*
X62032000Y-23234000D01*
X62286000Y-23234000D01*
X62286000Y-23254000D01*
X63544000Y-23254000D01*
X63544000Y-22975750D01*
X67368928Y-22975750D01*
X67372000Y-23177500D01*
X67530750Y-23336250D01*
X68580000Y-23336250D01*
X68580000Y-22499500D01*
X68834000Y-22499500D01*
X68834000Y-23336250D01*
X69883250Y-23336250D01*
X70042000Y-23177500D01*
X70045072Y-22975750D01*
X70032812Y-22851268D01*
X69996502Y-22731570D01*
X69937537Y-22621256D01*
X69858185Y-22524565D01*
X69761494Y-22445213D01*
X69651180Y-22386248D01*
X69531482Y-22349938D01*
X69407000Y-22337678D01*
X68992750Y-22340750D01*
X68834000Y-22499500D01*
X68580000Y-22499500D01*
X68421250Y-22340750D01*
X68007000Y-22337678D01*
X67882518Y-22349938D01*
X67762820Y-22386248D01*
X67652506Y-22445213D01*
X67555815Y-22524565D01*
X67476463Y-22621256D01*
X67417498Y-22731570D01*
X67381188Y-22851268D01*
X67368928Y-22975750D01*
X63544000Y-22975750D01*
X63544000Y-22004000D01*
X63492611Y-21736240D01*
X63389972Y-21483651D01*
X63240028Y-21255939D01*
X63048540Y-21061855D01*
X62992829Y-21024085D01*
X62997072Y-20981000D01*
X62994000Y-20866750D01*
X62835250Y-20708000D01*
X61311000Y-20708000D01*
X61311000Y-20728000D01*
X61057000Y-20728000D01*
X61057000Y-20708000D01*
X59532750Y-20708000D01*
X59374000Y-20866750D01*
X59370928Y-20981000D01*
X57647072Y-20981000D01*
X57644000Y-20866750D01*
X57485250Y-20708000D01*
X55961000Y-20708000D01*
X55961000Y-20728000D01*
X55707000Y-20728000D01*
X55707000Y-20708000D01*
X54182750Y-20708000D01*
X54024000Y-20866750D01*
X54020928Y-20981000D01*
X54025171Y-21024085D01*
X53969460Y-21061855D01*
X53777972Y-21255939D01*
X53628028Y-21483651D01*
X53525389Y-21736240D01*
X53474000Y-22004000D01*
X47186731Y-22004000D01*
X47226320Y-21806069D01*
X47366557Y-21467683D01*
X47569847Y-21162983D01*
X47828454Y-20903569D01*
X48132521Y-20699325D01*
X48470465Y-20558033D01*
X48844525Y-20482002D01*
X49039891Y-20471952D01*
X55430770Y-20454000D01*
X55707000Y-20454000D01*
X55707000Y-20453224D01*
X55961000Y-20452511D01*
X55961000Y-20454000D01*
X57485250Y-20454000D01*
X57491037Y-20448213D01*
X59521260Y-20442510D01*
X59532750Y-20454000D01*
X61057000Y-20454000D01*
X61057000Y-20438196D01*
X61311000Y-20437483D01*
X61311000Y-20454000D01*
X62835250Y-20454000D01*
X62856108Y-20433142D01*
X94202644Y-20345090D01*
X94475204Y-20371815D01*
G36*
X81256480Y-39786283D02*
G01*
X81238333Y-39776583D01*
X81146250Y-39684500D01*
X81032663Y-39694046D01*
X81031482Y-39693688D01*
X80907000Y-39681428D01*
X80357000Y-39681428D01*
X80232518Y-39693688D01*
X80232000Y-39693845D01*
X80231482Y-39693688D01*
X80107000Y-39681428D01*
X79557000Y-39681428D01*
X79432518Y-39693688D01*
X79432000Y-39693845D01*
X79431482Y-39693688D01*
X79307000Y-39681428D01*
X78757000Y-39681428D01*
X78632518Y-39693688D01*
X78632000Y-39693845D01*
X78631482Y-39693688D01*
X78507000Y-39681428D01*
X77957000Y-39681428D01*
X77832518Y-39693688D01*
X77832000Y-39693845D01*
X77831482Y-39693688D01*
X77707000Y-39681428D01*
X77157000Y-39681428D01*
X77032518Y-39693688D01*
X77032000Y-39693845D01*
X77031482Y-39693688D01*
X76907000Y-39681428D01*
X76357000Y-39681428D01*
X76232518Y-39693688D01*
X76232000Y-39693845D01*
X76231482Y-39693688D01*
X76107000Y-39681428D01*
X75557000Y-39681428D01*
X75432518Y-39693688D01*
X75431337Y-39694046D01*
X75317750Y-39684500D01*
X75225667Y-39776583D01*
X75202506Y-39788963D01*
X75105815Y-39868315D01*
X75032000Y-39958259D01*
X74992000Y-39909519D01*
X74992000Y-39366801D01*
X75029301Y-39329500D01*
X76494678Y-39329500D01*
X76532000Y-39333176D01*
X76569322Y-39329500D01*
X76569333Y-39329500D01*
X76680986Y-39318503D01*
X76824247Y-39275046D01*
X76956276Y-39204474D01*
X77072001Y-39109501D01*
X77095804Y-39080497D01*
X78823250Y-37353052D01*
X81256480Y-39786283D01*
G37*
X81256480Y-39786283D02*
X81238333Y-39776583D01*
X81146250Y-39684500D01*
X81032663Y-39694046D01*
X81031482Y-39693688D01*
X80907000Y-39681428D01*
X80357000Y-39681428D01*
X80232518Y-39693688D01*
X80232000Y-39693845D01*
X80231482Y-39693688D01*
X80107000Y-39681428D01*
X79557000Y-39681428D01*
X79432518Y-39693688D01*
X79432000Y-39693845D01*
X79431482Y-39693688D01*
X79307000Y-39681428D01*
X78757000Y-39681428D01*
X78632518Y-39693688D01*
X78632000Y-39693845D01*
X78631482Y-39693688D01*
X78507000Y-39681428D01*
X77957000Y-39681428D01*
X77832518Y-39693688D01*
X77832000Y-39693845D01*
X77831482Y-39693688D01*
X77707000Y-39681428D01*
X77157000Y-39681428D01*
X77032518Y-39693688D01*
X77032000Y-39693845D01*
X77031482Y-39693688D01*
X76907000Y-39681428D01*
X76357000Y-39681428D01*
X76232518Y-39693688D01*
X76232000Y-39693845D01*
X76231482Y-39693688D01*
X76107000Y-39681428D01*
X75557000Y-39681428D01*
X75432518Y-39693688D01*
X75431337Y-39694046D01*
X75317750Y-39684500D01*
X75225667Y-39776583D01*
X75202506Y-39788963D01*
X75105815Y-39868315D01*
X75032000Y-39958259D01*
X74992000Y-39909519D01*
X74992000Y-39366801D01*
X75029301Y-39329500D01*
X76494678Y-39329500D01*
X76532000Y-39333176D01*
X76569322Y-39329500D01*
X76569333Y-39329500D01*
X76680986Y-39318503D01*
X76824247Y-39275046D01*
X76956276Y-39204474D01*
X77072001Y-39109501D01*
X77095804Y-39080497D01*
X78823250Y-37353052D01*
X81256480Y-39786283D01*
G36*
X71420759Y-36169500D02*
G01*
X71387250Y-36197000D01*
X70934711Y-36197000D01*
X70890774Y-36153063D01*
X70855509Y-36129500D01*
X71372019Y-36129500D01*
X71420759Y-36169500D01*
G37*
X71420759Y-36169500D02*
X71387250Y-36197000D01*
X70934711Y-36197000D01*
X70890774Y-36153063D01*
X70855509Y-36129500D01*
X71372019Y-36129500D01*
X71420759Y-36169500D01*
G36*
X77302000Y-24179000D02*
G01*
X77322000Y-24179000D01*
X77322000Y-24433000D01*
X77302000Y-24433000D01*
X77302000Y-25382250D01*
X77460750Y-25541000D01*
X77472000Y-25541083D01*
X77472001Y-27824697D01*
X76452000Y-26804697D01*
X76452000Y-25541807D01*
X76475000Y-25544072D01*
X76889250Y-25541000D01*
X77048000Y-25382250D01*
X77048000Y-24433000D01*
X77028000Y-24433000D01*
X77028000Y-24179000D01*
X77048000Y-24179000D01*
X77048000Y-24159000D01*
X77302000Y-24159000D01*
X77302000Y-24179000D01*
G37*
X77302000Y-24179000D02*
X77322000Y-24179000D01*
X77322000Y-24433000D01*
X77302000Y-24433000D01*
X77302000Y-25382250D01*
X77460750Y-25541000D01*
X77472000Y-25541083D01*
X77472001Y-27824697D01*
X76452000Y-26804697D01*
X76452000Y-25541807D01*
X76475000Y-25544072D01*
X76889250Y-25541000D01*
X77048000Y-25382250D01*
X77048000Y-24433000D01*
X77028000Y-24433000D01*
X77028000Y-24179000D01*
X77048000Y-24179000D01*
X77048000Y-24159000D01*
X77302000Y-24159000D01*
X77302000Y-24179000D01*
G04 #@! TD*
M02*
