G04 #@! TF.GenerationSoftware,KiCad,Pcbnew,(5.1.6)-1*
G04 #@! TF.CreationDate,2020-06-16T18:15:49+02:00*
G04 #@! TF.ProjectId,Tutorial,5475746f-7269-4616-9c2e-6b696361645f,rev?*
G04 #@! TF.SameCoordinates,Original*
G04 #@! TF.FileFunction,Legend,Top*
G04 #@! TF.FilePolarity,Positive*
%FSLAX46Y46*%
G04 Gerber Fmt 4.6, Leading zero omitted, Abs format (unit mm)*
G04 Created by KiCad (PCBNEW (5.1.6)-1) date 2020-06-16 18:15:49*
%MOMM*%
%LPD*%
G01*
G04 APERTURE LIST*
%ADD10C,0.150000*%
%ADD11C,0.381000*%
%ADD12C,3.300000*%
%ADD13O,1.600000X4.100000*%
%ADD14C,1.700000*%
%ADD15R,1.700000X1.700000*%
G04 APERTURE END LIST*
D10*
X70326380Y-99512380D02*
X70231142Y-99464761D01*
X70183523Y-99417142D01*
X70135904Y-99321904D01*
X70135904Y-99036190D01*
X70183523Y-98940952D01*
X70231142Y-98893333D01*
X70326380Y-98845714D01*
X70469238Y-98845714D01*
X70564476Y-98893333D01*
X70612095Y-98940952D01*
X70659714Y-99036190D01*
X70659714Y-99321904D01*
X70612095Y-99417142D01*
X70564476Y-99464761D01*
X70469238Y-99512380D01*
X70326380Y-99512380D01*
X70993047Y-98845714D02*
X71183523Y-99512380D01*
X71374000Y-99036190D01*
X71564476Y-99512380D01*
X71754952Y-98845714D01*
X72278761Y-99512380D02*
X72183523Y-99464761D01*
X72135904Y-99417142D01*
X72088285Y-99321904D01*
X72088285Y-99036190D01*
X72135904Y-98940952D01*
X72183523Y-98893333D01*
X72278761Y-98845714D01*
X72421619Y-98845714D01*
X72516857Y-98893333D01*
X72564476Y-98940952D01*
X72612095Y-99036190D01*
X72612095Y-99321904D01*
X72564476Y-99417142D01*
X72516857Y-99464761D01*
X72421619Y-99512380D01*
X72278761Y-99512380D01*
X79296285Y-22741380D02*
X79296285Y-21741380D01*
X79677238Y-21741380D01*
X79772476Y-21789000D01*
X79820095Y-21836619D01*
X79867714Y-21931857D01*
X79867714Y-22074714D01*
X79820095Y-22169952D01*
X79772476Y-22217571D01*
X79677238Y-22265190D01*
X79296285Y-22265190D01*
X80867714Y-22741380D02*
X80534380Y-22265190D01*
X80296285Y-22741380D02*
X80296285Y-21741380D01*
X80677238Y-21741380D01*
X80772476Y-21789000D01*
X80820095Y-21836619D01*
X80867714Y-21931857D01*
X80867714Y-22074714D01*
X80820095Y-22169952D01*
X80772476Y-22217571D01*
X80677238Y-22265190D01*
X80296285Y-22265190D01*
X81486761Y-21741380D02*
X81677238Y-21741380D01*
X81772476Y-21789000D01*
X81867714Y-21884238D01*
X81915333Y-22074714D01*
X81915333Y-22408047D01*
X81867714Y-22598523D01*
X81772476Y-22693761D01*
X81677238Y-22741380D01*
X81486761Y-22741380D01*
X81391523Y-22693761D01*
X81296285Y-22598523D01*
X81248666Y-22408047D01*
X81248666Y-22074714D01*
X81296285Y-21884238D01*
X81391523Y-21789000D01*
X81486761Y-21741380D01*
X82201047Y-21741380D02*
X82772476Y-21741380D01*
X82486761Y-22741380D02*
X82486761Y-21741380D01*
X83296285Y-21741380D02*
X83486761Y-21741380D01*
X83582000Y-21789000D01*
X83677238Y-21884238D01*
X83724857Y-22074714D01*
X83724857Y-22408047D01*
X83677238Y-22598523D01*
X83582000Y-22693761D01*
X83486761Y-22741380D01*
X83296285Y-22741380D01*
X83201047Y-22693761D01*
X83105809Y-22598523D01*
X83058190Y-22408047D01*
X83058190Y-22074714D01*
X83105809Y-21884238D01*
X83201047Y-21789000D01*
X83296285Y-21741380D01*
X84010571Y-21741380D02*
X84582000Y-21741380D01*
X84296285Y-22741380D02*
X84296285Y-21741380D01*
X85105809Y-22265190D02*
X85105809Y-22741380D01*
X84772476Y-21741380D02*
X85105809Y-22265190D01*
X85439142Y-21741380D01*
X85772476Y-22741380D02*
X85772476Y-21741380D01*
X86153428Y-21741380D01*
X86248666Y-21789000D01*
X86296285Y-21836619D01*
X86343904Y-21931857D01*
X86343904Y-22074714D01*
X86296285Y-22169952D01*
X86248666Y-22217571D01*
X86153428Y-22265190D01*
X85772476Y-22265190D01*
X86772476Y-22217571D02*
X87105809Y-22217571D01*
X87248666Y-22741380D02*
X86772476Y-22741380D01*
X86772476Y-21741380D01*
X87248666Y-21741380D01*
X88629619Y-21741380D02*
X88724857Y-21741380D01*
X88820095Y-21789000D01*
X88867714Y-21836619D01*
X88915333Y-21931857D01*
X88962952Y-22122333D01*
X88962952Y-22360428D01*
X88915333Y-22550904D01*
X88867714Y-22646142D01*
X88820095Y-22693761D01*
X88724857Y-22741380D01*
X88629619Y-22741380D01*
X88534380Y-22693761D01*
X88486761Y-22646142D01*
X88439142Y-22550904D01*
X88391523Y-22360428D01*
X88391523Y-22122333D01*
X88439142Y-21931857D01*
X88486761Y-21836619D01*
X88534380Y-21789000D01*
X88629619Y-21741380D01*
X89915333Y-22741380D02*
X89343904Y-22741380D01*
X89629619Y-22741380D02*
X89629619Y-21741380D01*
X89534380Y-21884238D01*
X89439142Y-21979476D01*
X89343904Y-22027095D01*
X80867714Y-24391380D02*
X80867714Y-23391380D01*
X81201047Y-24105666D01*
X81534380Y-23391380D01*
X81534380Y-24391380D01*
X81962952Y-24105666D02*
X82439142Y-24105666D01*
X81867714Y-24391380D02*
X82201047Y-23391380D01*
X82534380Y-24391380D01*
X83439142Y-24296142D02*
X83391523Y-24343761D01*
X83248666Y-24391380D01*
X83153428Y-24391380D01*
X83010571Y-24343761D01*
X82915333Y-24248523D01*
X82867714Y-24153285D01*
X82820095Y-23962809D01*
X82820095Y-23819952D01*
X82867714Y-23629476D01*
X82915333Y-23534238D01*
X83010571Y-23439000D01*
X83153428Y-23391380D01*
X83248666Y-23391380D01*
X83391523Y-23439000D01*
X83439142Y-23486619D01*
X84439142Y-24391380D02*
X84105809Y-23915190D01*
X83867714Y-24391380D02*
X83867714Y-23391380D01*
X84248666Y-23391380D01*
X84343904Y-23439000D01*
X84391523Y-23486619D01*
X84439142Y-23581857D01*
X84439142Y-23724714D01*
X84391523Y-23819952D01*
X84343904Y-23867571D01*
X84248666Y-23915190D01*
X83867714Y-23915190D01*
X85058190Y-23391380D02*
X85248666Y-23391380D01*
X85343904Y-23439000D01*
X85439142Y-23534238D01*
X85486761Y-23724714D01*
X85486761Y-24058047D01*
X85439142Y-24248523D01*
X85343904Y-24343761D01*
X85248666Y-24391380D01*
X85058190Y-24391380D01*
X84962952Y-24343761D01*
X84867714Y-24248523D01*
X84820095Y-24058047D01*
X84820095Y-23724714D01*
X84867714Y-23534238D01*
X84962952Y-23439000D01*
X85058190Y-23391380D01*
X85915333Y-24391380D02*
X85915333Y-23391380D01*
X86296285Y-23391380D01*
X86391523Y-23439000D01*
X86439142Y-23486619D01*
X86486761Y-23581857D01*
X86486761Y-23724714D01*
X86439142Y-23819952D01*
X86391523Y-23867571D01*
X86296285Y-23915190D01*
X85915333Y-23915190D01*
X86867714Y-24105666D02*
X87343904Y-24105666D01*
X86772476Y-24391380D02*
X87105809Y-23391380D01*
X87439142Y-24391380D01*
X87772476Y-24391380D02*
X87772476Y-23391380D01*
X88010571Y-23391380D01*
X88153428Y-23439000D01*
X88248666Y-23534238D01*
X88296285Y-23629476D01*
X88343904Y-23819952D01*
X88343904Y-23962809D01*
X88296285Y-24153285D01*
X88248666Y-24248523D01*
X88153428Y-24343761D01*
X88010571Y-24391380D01*
X87772476Y-24391380D01*
D11*
G04 #@! TO.C,K5*
X65087500Y-84137500D02*
X66865500Y-84137500D01*
X76009500Y-84137500D02*
X77787500Y-84137500D01*
X77787500Y-84137500D02*
X77787500Y-85915500D01*
X77787500Y-95059500D02*
X77787500Y-96837500D01*
X77787500Y-96837500D02*
X76009500Y-96837500D01*
X66865500Y-96837500D02*
X65087500Y-96837500D01*
X65087500Y-96837500D02*
X65087500Y-95059500D01*
X65087500Y-85915500D02*
X65087500Y-84137500D01*
G04 #@! TO.C,K4*
X74612500Y-65087500D02*
X76390500Y-65087500D01*
X85534500Y-65087500D02*
X87312500Y-65087500D01*
X87312500Y-65087500D02*
X87312500Y-66865500D01*
X87312500Y-76009500D02*
X87312500Y-77787500D01*
X87312500Y-77787500D02*
X85534500Y-77787500D01*
X76390500Y-77787500D02*
X74612500Y-77787500D01*
X74612500Y-77787500D02*
X74612500Y-76009500D01*
X74612500Y-66865500D02*
X74612500Y-65087500D01*
G04 #@! TO.C,K3*
X55562500Y-65087500D02*
X57340500Y-65087500D01*
X66484500Y-65087500D02*
X68262500Y-65087500D01*
X68262500Y-65087500D02*
X68262500Y-66865500D01*
X68262500Y-76009500D02*
X68262500Y-77787500D01*
X68262500Y-77787500D02*
X66484500Y-77787500D01*
X57340500Y-77787500D02*
X55562500Y-77787500D01*
X55562500Y-77787500D02*
X55562500Y-76009500D01*
X55562500Y-66865500D02*
X55562500Y-65087500D01*
G04 #@! TO.C,K2*
X74612500Y-46101000D02*
X76390500Y-46101000D01*
X85534500Y-46101000D02*
X87312500Y-46101000D01*
X87312500Y-46101000D02*
X87312500Y-47879000D01*
X87312500Y-57023000D02*
X87312500Y-58801000D01*
X87312500Y-58801000D02*
X85534500Y-58801000D01*
X76390500Y-58801000D02*
X74612500Y-58801000D01*
X74612500Y-58801000D02*
X74612500Y-57023000D01*
X74612500Y-47879000D02*
X74612500Y-46101000D01*
G04 #@! TO.C,K1*
X55562500Y-46101000D02*
X57340500Y-46101000D01*
X66484500Y-46101000D02*
X68262500Y-46101000D01*
X68262500Y-46101000D02*
X68262500Y-47879000D01*
X68262500Y-57023000D02*
X68262500Y-58801000D01*
X68262500Y-58801000D02*
X66484500Y-58801000D01*
X57340500Y-58801000D02*
X55562500Y-58801000D01*
X55562500Y-58801000D02*
X55562500Y-57023000D01*
X55562500Y-47879000D02*
X55562500Y-46101000D01*
G04 #@! TD*
%LPC*%
D12*
G04 #@! TO.C,REF\u002A\u002A*
X50800000Y-33274000D03*
G04 #@! TD*
G04 #@! TO.C,REF\u002A\u002A*
X91948000Y-26162000D03*
G04 #@! TD*
G04 #@! TO.C,REF\u002A\u002A*
X91440000Y-94996000D03*
G04 #@! TD*
G04 #@! TO.C,REF\u002A\u002A*
X51308000Y-94488000D03*
G04 #@! TD*
G04 #@! TO.C,K5*
G36*
G01*
X72640786Y-85898409D02*
X72680234Y-85319752D01*
G75*
G02*
X74065644Y-84111182I1296990J-88420D01*
G01*
X74065644Y-84111182D01*
G75*
G02*
X75274214Y-85496592I-88420J-1296990D01*
G01*
X75234766Y-86075248D01*
G75*
G02*
X73849356Y-87283818I-1296990J88420D01*
G01*
X73849356Y-87283818D01*
G75*
G02*
X72640786Y-85898408I88420J1296990D01*
G01*
G37*
G36*
G01*
X66481629Y-87217826D02*
X67690553Y-85320196D01*
G75*
G02*
X69485451Y-84922276I1096409J-698489D01*
G01*
X69485451Y-84922276D01*
G75*
G02*
X69883371Y-86717174I-698489J-1096409D01*
G01*
X68674447Y-88614804D01*
G75*
G02*
X66879549Y-89012724I-1096409J698489D01*
G01*
X66879549Y-89012724D01*
G75*
G02*
X66481629Y-87217826I698489J1096409D01*
G01*
G37*
G04 #@! TD*
G04 #@! TO.C,K4*
G36*
G01*
X82165786Y-66848409D02*
X82205234Y-66269752D01*
G75*
G02*
X83590644Y-65061182I1296990J-88420D01*
G01*
X83590644Y-65061182D01*
G75*
G02*
X84799214Y-66446592I-88420J-1296990D01*
G01*
X84759766Y-67025248D01*
G75*
G02*
X83374356Y-68233818I-1296990J88420D01*
G01*
X83374356Y-68233818D01*
G75*
G02*
X82165786Y-66848408I88420J1296990D01*
G01*
G37*
G36*
G01*
X76006629Y-68167826D02*
X77215553Y-66270196D01*
G75*
G02*
X79010451Y-65872276I1096409J-698489D01*
G01*
X79010451Y-65872276D01*
G75*
G02*
X79408371Y-67667174I-698489J-1096409D01*
G01*
X78199447Y-69564804D01*
G75*
G02*
X76404549Y-69962724I-1096409J698489D01*
G01*
X76404549Y-69962724D01*
G75*
G02*
X76006629Y-68167826I698489J1096409D01*
G01*
G37*
G04 #@! TD*
G04 #@! TO.C,K3*
G36*
G01*
X63115786Y-66848409D02*
X63155234Y-66269752D01*
G75*
G02*
X64540644Y-65061182I1296990J-88420D01*
G01*
X64540644Y-65061182D01*
G75*
G02*
X65749214Y-66446592I-88420J-1296990D01*
G01*
X65709766Y-67025248D01*
G75*
G02*
X64324356Y-68233818I-1296990J88420D01*
G01*
X64324356Y-68233818D01*
G75*
G02*
X63115786Y-66848408I88420J1296990D01*
G01*
G37*
G36*
G01*
X56956629Y-68167826D02*
X58165553Y-66270196D01*
G75*
G02*
X59960451Y-65872276I1096409J-698489D01*
G01*
X59960451Y-65872276D01*
G75*
G02*
X60358371Y-67667174I-698489J-1096409D01*
G01*
X59149447Y-69564804D01*
G75*
G02*
X57354549Y-69962724I-1096409J698489D01*
G01*
X57354549Y-69962724D01*
G75*
G02*
X56956629Y-68167826I698489J1096409D01*
G01*
G37*
G04 #@! TD*
G04 #@! TO.C,K2*
G36*
G01*
X82165786Y-47861909D02*
X82205234Y-47283252D01*
G75*
G02*
X83590644Y-46074682I1296990J-88420D01*
G01*
X83590644Y-46074682D01*
G75*
G02*
X84799214Y-47460092I-88420J-1296990D01*
G01*
X84759766Y-48038748D01*
G75*
G02*
X83374356Y-49247318I-1296990J88420D01*
G01*
X83374356Y-49247318D01*
G75*
G02*
X82165786Y-47861908I88420J1296990D01*
G01*
G37*
G36*
G01*
X76006629Y-49181326D02*
X77215553Y-47283696D01*
G75*
G02*
X79010451Y-46885776I1096409J-698489D01*
G01*
X79010451Y-46885776D01*
G75*
G02*
X79408371Y-48680674I-698489J-1096409D01*
G01*
X78199447Y-50578304D01*
G75*
G02*
X76404549Y-50976224I-1096409J698489D01*
G01*
X76404549Y-50976224D01*
G75*
G02*
X76006629Y-49181326I698489J1096409D01*
G01*
G37*
G04 #@! TD*
G04 #@! TO.C,K1*
G36*
G01*
X63115786Y-47861909D02*
X63155234Y-47283252D01*
G75*
G02*
X64540644Y-46074682I1296990J-88420D01*
G01*
X64540644Y-46074682D01*
G75*
G02*
X65749214Y-47460092I-88420J-1296990D01*
G01*
X65709766Y-48038748D01*
G75*
G02*
X64324356Y-49247318I-1296990J88420D01*
G01*
X64324356Y-49247318D01*
G75*
G02*
X63115786Y-47861908I88420J1296990D01*
G01*
G37*
G36*
G01*
X56956629Y-49181326D02*
X58165553Y-47283696D01*
G75*
G02*
X59960451Y-46885776I1096409J-698489D01*
G01*
X59960451Y-46885776D01*
G75*
G02*
X60358371Y-48680674I-698489J-1096409D01*
G01*
X59149447Y-50578304D01*
G75*
G02*
X57354549Y-50976224I-1096409J698489D01*
G01*
X57354549Y-50976224D01*
G75*
G02*
X56956629Y-49181326I698489J1096409D01*
G01*
G37*
G04 #@! TD*
D13*
G04 #@! TO.C,J1*
X62159000Y-23381000D03*
X54859000Y-23381000D03*
G04 #@! TD*
D14*
G04 #@! TO.C,D5*
X75337500Y-95250000D03*
D15*
X67537500Y-95250000D03*
G04 #@! TD*
D14*
G04 #@! TO.C,D4*
X84862500Y-76200000D03*
D15*
X77062500Y-76200000D03*
G04 #@! TD*
D14*
G04 #@! TO.C,D3*
X65812500Y-76200000D03*
D15*
X58012500Y-76200000D03*
G04 #@! TD*
D14*
G04 #@! TO.C,D2*
X84862500Y-57150000D03*
D15*
X77062500Y-57150000D03*
G04 #@! TD*
D14*
G04 #@! TO.C,D1*
X65812500Y-57150000D03*
D15*
X58012500Y-57150000D03*
G04 #@! TD*
M02*
