G04 #@! TF.GenerationSoftware,KiCad,Pcbnew,(5.1.6)-1*
G04 #@! TF.CreationDate,2020-06-16T18:15:49+02:00*
G04 #@! TF.ProjectId,Tutorial,5475746f-7269-4616-9c2e-6b696361645f,rev?*
G04 #@! TF.SameCoordinates,Original*
G04 #@! TF.FileFunction,Copper,L1,Top*
G04 #@! TF.FilePolarity,Positive*
%FSLAX46Y46*%
G04 Gerber Fmt 4.6, Leading zero omitted, Abs format (unit mm)*
G04 Created by KiCad (PCBNEW (5.1.6)-1) date 2020-06-16 18:15:49*
%MOMM*%
%LPD*%
G01*
G04 APERTURE LIST*
G04 #@! TA.AperFunction,ComponentPad*
%ADD10O,1.500000X4.000000*%
G04 #@! TD*
G04 #@! TA.AperFunction,ComponentPad*
%ADD11C,1.600000*%
G04 #@! TD*
G04 #@! TA.AperFunction,ComponentPad*
%ADD12R,1.600000X1.600000*%
G04 #@! TD*
G04 #@! TA.AperFunction,ViaPad*
%ADD13C,0.800000*%
G04 #@! TD*
G04 #@! TA.AperFunction,Conductor*
%ADD14C,0.250000*%
G04 #@! TD*
G04 #@! TA.AperFunction,Conductor*
%ADD15C,0.254000*%
G04 #@! TD*
G04 APERTURE END LIST*
G04 #@! TO.P,K5,2*
G04 #@! TO.N,Net-(D5-Pad2)*
G04 #@! TA.AperFunction,ComponentPad*
G36*
G01*
X72690670Y-85901809D02*
X72730119Y-85323153D01*
G75*
G02*
X74062243Y-84161067I1247105J-85019D01*
G01*
X74062243Y-84161067D01*
G75*
G02*
X75224329Y-85493191I-85019J-1247105D01*
G01*
X75184881Y-86071847D01*
G75*
G02*
X73852757Y-87233933I-1247105J85019D01*
G01*
X73852757Y-87233933D01*
G75*
G02*
X72690671Y-85901809I85019J1247105D01*
G01*
G37*
G04 #@! TD.AperFunction*
G04 #@! TO.P,K5,1*
G04 #@! TO.N,col1*
G04 #@! TA.AperFunction,ComponentPad*
G36*
G01*
X66523799Y-87244691D02*
X67732723Y-85347060D01*
G75*
G02*
X69458587Y-84964446I1054239J-671625D01*
G01*
X69458587Y-84964446D01*
G75*
G02*
X69841201Y-86690310I-671625J-1054239D01*
G01*
X68632277Y-88587940D01*
G75*
G02*
X66906413Y-88970554I-1054239J671625D01*
G01*
X66906413Y-88970554D01*
G75*
G02*
X66523799Y-87244690I671625J1054239D01*
G01*
G37*
G04 #@! TD.AperFunction*
G04 #@! TD*
G04 #@! TO.P,K4,2*
G04 #@! TO.N,Net-(D4-Pad2)*
G04 #@! TA.AperFunction,ComponentPad*
G36*
G01*
X82215670Y-66851809D02*
X82255119Y-66273153D01*
G75*
G02*
X83587243Y-65111067I1247105J-85019D01*
G01*
X83587243Y-65111067D01*
G75*
G02*
X84749329Y-66443191I-85019J-1247105D01*
G01*
X84709881Y-67021847D01*
G75*
G02*
X83377757Y-68183933I-1247105J85019D01*
G01*
X83377757Y-68183933D01*
G75*
G02*
X82215671Y-66851809I85019J1247105D01*
G01*
G37*
G04 #@! TD.AperFunction*
G04 #@! TO.P,K4,1*
G04 #@! TO.N,col1*
G04 #@! TA.AperFunction,ComponentPad*
G36*
G01*
X76048799Y-68194691D02*
X77257723Y-66297060D01*
G75*
G02*
X78983587Y-65914446I1054239J-671625D01*
G01*
X78983587Y-65914446D01*
G75*
G02*
X79366201Y-67640310I-671625J-1054239D01*
G01*
X78157277Y-69537940D01*
G75*
G02*
X76431413Y-69920554I-1054239J671625D01*
G01*
X76431413Y-69920554D01*
G75*
G02*
X76048799Y-68194690I671625J1054239D01*
G01*
G37*
G04 #@! TD.AperFunction*
G04 #@! TD*
G04 #@! TO.P,K3,2*
G04 #@! TO.N,Net-(D3-Pad2)*
G04 #@! TA.AperFunction,ComponentPad*
G36*
G01*
X63165670Y-66851809D02*
X63205119Y-66273153D01*
G75*
G02*
X64537243Y-65111067I1247105J-85019D01*
G01*
X64537243Y-65111067D01*
G75*
G02*
X65699329Y-66443191I-85019J-1247105D01*
G01*
X65659881Y-67021847D01*
G75*
G02*
X64327757Y-68183933I-1247105J85019D01*
G01*
X64327757Y-68183933D01*
G75*
G02*
X63165671Y-66851809I85019J1247105D01*
G01*
G37*
G04 #@! TD.AperFunction*
G04 #@! TO.P,K3,1*
G04 #@! TO.N,col0*
G04 #@! TA.AperFunction,ComponentPad*
G36*
G01*
X56998799Y-68194691D02*
X58207723Y-66297060D01*
G75*
G02*
X59933587Y-65914446I1054239J-671625D01*
G01*
X59933587Y-65914446D01*
G75*
G02*
X60316201Y-67640310I-671625J-1054239D01*
G01*
X59107277Y-69537940D01*
G75*
G02*
X57381413Y-69920554I-1054239J671625D01*
G01*
X57381413Y-69920554D01*
G75*
G02*
X56998799Y-68194690I671625J1054239D01*
G01*
G37*
G04 #@! TD.AperFunction*
G04 #@! TD*
G04 #@! TO.P,K2,2*
G04 #@! TO.N,Net-(D2-Pad2)*
G04 #@! TA.AperFunction,ComponentPad*
G36*
G01*
X82215670Y-47865309D02*
X82255119Y-47286653D01*
G75*
G02*
X83587243Y-46124567I1247105J-85019D01*
G01*
X83587243Y-46124567D01*
G75*
G02*
X84749329Y-47456691I-85019J-1247105D01*
G01*
X84709881Y-48035347D01*
G75*
G02*
X83377757Y-49197433I-1247105J85019D01*
G01*
X83377757Y-49197433D01*
G75*
G02*
X82215671Y-47865309I85019J1247105D01*
G01*
G37*
G04 #@! TD.AperFunction*
G04 #@! TO.P,K2,1*
G04 #@! TO.N,col1*
G04 #@! TA.AperFunction,ComponentPad*
G36*
G01*
X76048799Y-49208191D02*
X77257723Y-47310560D01*
G75*
G02*
X78983587Y-46927946I1054239J-671625D01*
G01*
X78983587Y-46927946D01*
G75*
G02*
X79366201Y-48653810I-671625J-1054239D01*
G01*
X78157277Y-50551440D01*
G75*
G02*
X76431413Y-50934054I-1054239J671625D01*
G01*
X76431413Y-50934054D01*
G75*
G02*
X76048799Y-49208190I671625J1054239D01*
G01*
G37*
G04 #@! TD.AperFunction*
G04 #@! TD*
G04 #@! TO.P,K1,2*
G04 #@! TO.N,Net-(D1-Pad2)*
G04 #@! TA.AperFunction,ComponentPad*
G36*
G01*
X63165670Y-47865309D02*
X63205119Y-47286653D01*
G75*
G02*
X64537243Y-46124567I1247105J-85019D01*
G01*
X64537243Y-46124567D01*
G75*
G02*
X65699329Y-47456691I-85019J-1247105D01*
G01*
X65659881Y-48035347D01*
G75*
G02*
X64327757Y-49197433I-1247105J85019D01*
G01*
X64327757Y-49197433D01*
G75*
G02*
X63165671Y-47865309I85019J1247105D01*
G01*
G37*
G04 #@! TD.AperFunction*
G04 #@! TO.P,K1,1*
G04 #@! TO.N,col0*
G04 #@! TA.AperFunction,ComponentPad*
G36*
G01*
X56998799Y-49208191D02*
X58207723Y-47310560D01*
G75*
G02*
X59933587Y-46927946I1054239J-671625D01*
G01*
X59933587Y-46927946D01*
G75*
G02*
X60316201Y-48653810I-671625J-1054239D01*
G01*
X59107277Y-50551440D01*
G75*
G02*
X57381413Y-50934054I-1054239J671625D01*
G01*
X57381413Y-50934054D01*
G75*
G02*
X56998799Y-49208190I671625J1054239D01*
G01*
G37*
G04 #@! TD.AperFunction*
G04 #@! TD*
D10*
G04 #@! TO.P,J1,6*
G04 #@! TO.N,GND*
X62159000Y-23381000D03*
X54859000Y-23381000D03*
G04 #@! TD*
D11*
G04 #@! TO.P,D5,2*
G04 #@! TO.N,Net-(D5-Pad2)*
X75337500Y-95250000D03*
D12*
G04 #@! TO.P,D5,1*
G04 #@! TO.N,row2*
X67537500Y-95250000D03*
G04 #@! TD*
D11*
G04 #@! TO.P,D4,2*
G04 #@! TO.N,Net-(D4-Pad2)*
X84862500Y-76200000D03*
D12*
G04 #@! TO.P,D4,1*
G04 #@! TO.N,row1*
X77062500Y-76200000D03*
G04 #@! TD*
D11*
G04 #@! TO.P,D3,2*
G04 #@! TO.N,Net-(D3-Pad2)*
X65812500Y-76200000D03*
D12*
G04 #@! TO.P,D3,1*
G04 #@! TO.N,row1*
X58012500Y-76200000D03*
G04 #@! TD*
D11*
G04 #@! TO.P,D2,2*
G04 #@! TO.N,Net-(D2-Pad2)*
X84862500Y-57150000D03*
D12*
G04 #@! TO.P,D2,1*
G04 #@! TO.N,row0*
X77062500Y-57150000D03*
G04 #@! TD*
D11*
G04 #@! TO.P,D1,2*
G04 #@! TO.N,Net-(D1-Pad2)*
X65812500Y-57150000D03*
D12*
G04 #@! TO.P,D1,1*
G04 #@! TO.N,row0*
X58012500Y-57150000D03*
G04 #@! TD*
D13*
G04 #@! TO.N,GND*
X63627000Y-36449000D03*
X70993000Y-36094500D03*
G04 #@! TO.N,VCC*
X66675000Y-29337000D03*
X54356000Y-27178000D03*
G04 #@! TO.N,row1*
X78105000Y-73533000D03*
X80014653Y-43048347D03*
G04 #@! TO.N,row2*
X68707000Y-93218000D03*
X76962000Y-43053000D03*
G04 #@! TO.N,col0*
X75819000Y-43053000D03*
G04 #@! TO.N,col1*
X78105000Y-43053000D03*
G04 #@! TO.N,Net-(R3-Pad1)*
X57531000Y-32512000D03*
X70231000Y-37957003D03*
G04 #@! TO.N,Net-(R4-Pad1)*
X58531003Y-32512000D03*
X70231000Y-36957000D03*
G04 #@! TD*
D14*
G04 #@! TO.N,GND*
X63627000Y-36449000D02*
X65860004Y-38682004D01*
X65860004Y-38682004D02*
X66548000Y-39370000D01*
X70993000Y-38268005D02*
X70993000Y-36094500D01*
X66548000Y-39370000D02*
X69891005Y-39370000D01*
X69891005Y-39370000D02*
X70993000Y-38268005D01*
G04 #@! TO.N,VCC*
X66675000Y-29337000D02*
X66675000Y-28448000D01*
X66675000Y-28448000D02*
X65405000Y-27178000D01*
X65405000Y-27178000D02*
X54356000Y-27178000D01*
G04 #@! TO.N,Net-(D1-Pad2)*
X64432500Y-55770000D02*
X65812500Y-57150000D01*
X64432500Y-47661000D02*
X64432500Y-55770000D01*
G04 #@! TO.N,Net-(D2-Pad2)*
X83482500Y-55770000D02*
X84862500Y-57150000D01*
X83482500Y-47661000D02*
X83482500Y-55770000D01*
G04 #@! TO.N,Net-(D3-Pad2)*
X64432500Y-74820000D02*
X65812500Y-76200000D01*
X64432500Y-66647500D02*
X64432500Y-74820000D01*
G04 #@! TO.N,row1*
X78105000Y-73533000D02*
X78105000Y-70612000D01*
X78105000Y-70612000D02*
X80772000Y-67945000D01*
X80772000Y-67945000D02*
X80772000Y-56515000D01*
X80772000Y-56515000D02*
X78359000Y-54102000D01*
X78359000Y-54102000D02*
X78359000Y-51054000D01*
X78359000Y-51054000D02*
X80014653Y-49398347D01*
X80014653Y-49398347D02*
X80014653Y-43048347D01*
G04 #@! TO.N,Net-(D4-Pad2)*
X83482500Y-74820000D02*
X84862500Y-76200000D01*
X83482500Y-66647500D02*
X83482500Y-74820000D01*
G04 #@! TO.N,Net-(D5-Pad2)*
X73957500Y-93870000D02*
X75337500Y-95250000D01*
X73957500Y-85697500D02*
X73957500Y-93870000D01*
G04 #@! TO.N,row2*
X76962000Y-43815000D02*
X76962000Y-43053000D01*
X76835000Y-43942000D02*
X76962000Y-43815000D01*
X72644000Y-43942000D02*
X76835000Y-43942000D01*
X70161990Y-46424010D02*
X72644000Y-43942000D01*
X65786000Y-93218000D02*
X64643000Y-92075000D01*
X64643000Y-92075000D02*
X64643000Y-84328000D01*
X68707000Y-93218000D02*
X65786000Y-93218000D01*
X64643000Y-84328000D02*
X70161990Y-78809010D01*
X70161990Y-78809010D02*
X70161990Y-46424010D01*
G04 #@! TO.N,col0*
X58657500Y-48931000D02*
X58657500Y-53102500D01*
X58657500Y-53102500D02*
X56388000Y-55372000D01*
X56388000Y-65648000D02*
X58657500Y-67917500D01*
X56388000Y-55372000D02*
X56388000Y-65648000D01*
X58657500Y-48931000D02*
X58657500Y-44847500D01*
X58657500Y-44847500D02*
X60452000Y-43053000D01*
X60452000Y-43053000D02*
X74930000Y-43053000D01*
X74930000Y-43053000D02*
X75819000Y-43053000D01*
G04 #@! TO.N,col1*
X77707500Y-48931000D02*
X77707500Y-53323500D01*
X77707500Y-53323500D02*
X75151000Y-55880000D01*
X75151000Y-55880000D02*
X75151000Y-65626000D01*
X77442500Y-67917500D02*
X77707500Y-67917500D01*
X75151000Y-65626000D02*
X77442500Y-67917500D01*
X77707500Y-67917500D02*
X75084500Y-67917500D01*
X75084500Y-67917500D02*
X70612000Y-72390000D01*
X70612000Y-84538000D02*
X68182500Y-86967500D01*
X70612000Y-72390000D02*
X70612000Y-84538000D01*
X77707500Y-43450500D02*
X78105000Y-43053000D01*
X77707500Y-48931000D02*
X77707500Y-43450500D01*
G04 #@! TO.N,Net-(R3-Pad1)*
X70231000Y-37846000D02*
X70231000Y-37957003D01*
X57531000Y-32512000D02*
X57531000Y-33655000D01*
X57531000Y-33655000D02*
X58674000Y-34798000D01*
X69850000Y-37846000D02*
X70231000Y-37846000D01*
X58674000Y-34798000D02*
X66802000Y-34798000D01*
X66802000Y-34798000D02*
X69850000Y-37846000D01*
G04 #@! TO.N,Net-(R4-Pad1)*
X58531003Y-32512000D02*
X58531003Y-33004003D01*
X58531003Y-33004003D02*
X58531003Y-33512003D01*
X58531003Y-33512003D02*
X59055000Y-34036000D01*
X59055000Y-34036000D02*
X67310000Y-34036000D01*
X67310000Y-34036000D02*
X70231000Y-36957000D01*
G04 #@! TD*
D15*
G04 #@! TO.N,GND*
G36*
X94475204Y-20371815D02*
G01*
X94707226Y-20441867D01*
X94921222Y-20555650D01*
X95109041Y-20708832D01*
X95263530Y-20895577D01*
X95378801Y-21108769D01*
X95450472Y-21340300D01*
X95478965Y-21611395D01*
X95352053Y-100170185D01*
X95325185Y-100444205D01*
X95255133Y-100676226D01*
X95141350Y-100890222D01*
X94988169Y-101078039D01*
X94801424Y-101232529D01*
X94588231Y-101347802D01*
X94356701Y-101419472D01*
X94085855Y-101447939D01*
X59851710Y-101352844D01*
X60266322Y-101270373D01*
X60744751Y-101072201D01*
X61175326Y-100784500D01*
X61541500Y-100418326D01*
X61829201Y-99987751D01*
X62027373Y-99509322D01*
X62128400Y-99001424D01*
X62128400Y-98483576D01*
X80746600Y-98483576D01*
X80746600Y-99001424D01*
X80847627Y-99509322D01*
X81045799Y-99987751D01*
X81333500Y-100418326D01*
X81699674Y-100784500D01*
X82130249Y-101072201D01*
X82608678Y-101270373D01*
X83116576Y-101371400D01*
X83634424Y-101371400D01*
X84142322Y-101270373D01*
X84620751Y-101072201D01*
X85051326Y-100784500D01*
X85417500Y-100418326D01*
X85705201Y-99987751D01*
X85903373Y-99509322D01*
X86004400Y-99001424D01*
X86004400Y-98483576D01*
X85903373Y-97975678D01*
X85705201Y-97497249D01*
X85417500Y-97066674D01*
X85051326Y-96700500D01*
X84620751Y-96412799D01*
X84142322Y-96214627D01*
X83634424Y-96113600D01*
X83116576Y-96113600D01*
X82608678Y-96214627D01*
X82130249Y-96412799D01*
X81699674Y-96700500D01*
X81333500Y-97066674D01*
X81045799Y-97497249D01*
X80847627Y-97975678D01*
X80746600Y-98483576D01*
X62128400Y-98483576D01*
X62027373Y-97975678D01*
X61829201Y-97497249D01*
X61541500Y-97066674D01*
X61175326Y-96700500D01*
X60744751Y-96412799D01*
X60266322Y-96214627D01*
X59758424Y-96113600D01*
X59240576Y-96113600D01*
X58732678Y-96214627D01*
X58254249Y-96412799D01*
X57823674Y-96700500D01*
X57457500Y-97066674D01*
X57169799Y-97497249D01*
X56971627Y-97975678D01*
X56870600Y-98483576D01*
X56870600Y-99001424D01*
X56971627Y-99509322D01*
X57169799Y-99987751D01*
X57457500Y-100418326D01*
X57823674Y-100784500D01*
X58254249Y-101072201D01*
X58732678Y-101270373D01*
X59137314Y-101350860D01*
X48420197Y-101321090D01*
X48145795Y-101294185D01*
X47913774Y-101224133D01*
X47699778Y-101110350D01*
X47511961Y-100957169D01*
X47357471Y-100770424D01*
X47242198Y-100557231D01*
X47170528Y-100325701D01*
X47142003Y-100054302D01*
X47142938Y-94267872D01*
X49073000Y-94267872D01*
X49073000Y-94708128D01*
X49158890Y-95139925D01*
X49327369Y-95546669D01*
X49571962Y-95912729D01*
X49883271Y-96224038D01*
X50249331Y-96468631D01*
X50656075Y-96637110D01*
X51087872Y-96723000D01*
X51528128Y-96723000D01*
X51959925Y-96637110D01*
X52366669Y-96468631D01*
X52732729Y-96224038D01*
X53044038Y-95912729D01*
X53288631Y-95546669D01*
X53457110Y-95139925D01*
X53543000Y-94708128D01*
X53543000Y-94267872D01*
X53457110Y-93836075D01*
X53288631Y-93429331D01*
X53044038Y-93063271D01*
X52732729Y-92751962D01*
X52366669Y-92507369D01*
X51959925Y-92338890D01*
X51528128Y-92253000D01*
X51087872Y-92253000D01*
X50656075Y-92338890D01*
X50249331Y-92507369D01*
X49883271Y-92751962D01*
X49571962Y-93063271D01*
X49327369Y-93429331D01*
X49158890Y-93836075D01*
X49073000Y-94267872D01*
X47142938Y-94267872D01*
X47144712Y-83289857D01*
X57340500Y-83289857D01*
X57340500Y-83715143D01*
X57423470Y-84132257D01*
X57586219Y-84525170D01*
X57822496Y-84878782D01*
X58123218Y-85179504D01*
X58476830Y-85415781D01*
X58869743Y-85578530D01*
X59286857Y-85661500D01*
X59712143Y-85661500D01*
X60129257Y-85578530D01*
X60522170Y-85415781D01*
X60875782Y-85179504D01*
X61176504Y-84878782D01*
X61412781Y-84525170D01*
X61575530Y-84132257D01*
X61658500Y-83715143D01*
X61658500Y-83289857D01*
X61575530Y-82872743D01*
X61412781Y-82479830D01*
X61176504Y-82126218D01*
X60875782Y-81825496D01*
X60522170Y-81589219D01*
X60129257Y-81426470D01*
X59712143Y-81343500D01*
X59286857Y-81343500D01*
X58869743Y-81426470D01*
X58476830Y-81589219D01*
X58123218Y-81825496D01*
X57822496Y-82126218D01*
X57586219Y-82479830D01*
X57423470Y-82872743D01*
X57340500Y-83289857D01*
X47144712Y-83289857D01*
X47145987Y-75400000D01*
X56574428Y-75400000D01*
X56574428Y-77000000D01*
X56586688Y-77124482D01*
X56622998Y-77244180D01*
X56681963Y-77354494D01*
X56761315Y-77451185D01*
X56858006Y-77530537D01*
X56968320Y-77589502D01*
X57088018Y-77625812D01*
X57212500Y-77638072D01*
X58812500Y-77638072D01*
X58936982Y-77625812D01*
X59056680Y-77589502D01*
X59166994Y-77530537D01*
X59263685Y-77451185D01*
X59343037Y-77354494D01*
X59402002Y-77244180D01*
X59438312Y-77124482D01*
X59450572Y-77000000D01*
X59450572Y-75400000D01*
X59438312Y-75275518D01*
X59402002Y-75155820D01*
X59343037Y-75045506D01*
X59263685Y-74948815D01*
X59166994Y-74869463D01*
X59056680Y-74810498D01*
X58936982Y-74774188D01*
X58812500Y-74761928D01*
X57212500Y-74761928D01*
X57088018Y-74774188D01*
X56968320Y-74810498D01*
X56858006Y-74869463D01*
X56761315Y-74948815D01*
X56681963Y-75045506D01*
X56622998Y-75155820D01*
X56586688Y-75275518D01*
X56574428Y-75400000D01*
X47145987Y-75400000D01*
X47149721Y-52304652D01*
X55346600Y-52304652D01*
X55346600Y-52597348D01*
X55403702Y-52884421D01*
X55515712Y-53154838D01*
X55678326Y-53398206D01*
X55885294Y-53605174D01*
X56128662Y-53767788D01*
X56399079Y-53879798D01*
X56686152Y-53936900D01*
X56748299Y-53936900D01*
X55877003Y-54808196D01*
X55847999Y-54831999D01*
X55792871Y-54899174D01*
X55753026Y-54947724D01*
X55713860Y-55020998D01*
X55682454Y-55079754D01*
X55638997Y-55223015D01*
X55628000Y-55334668D01*
X55628000Y-55334678D01*
X55624324Y-55372000D01*
X55628000Y-55409322D01*
X55628001Y-65610668D01*
X55624324Y-65648000D01*
X55628001Y-65685333D01*
X55634767Y-65754023D01*
X55638998Y-65796985D01*
X55682454Y-65940246D01*
X55753026Y-66072276D01*
X55788791Y-66115855D01*
X55848000Y-66188001D01*
X55876998Y-66211799D01*
X56873980Y-67208782D01*
X56413493Y-67931601D01*
X56287704Y-68179814D01*
X56187694Y-68537404D01*
X56159369Y-68907635D01*
X56203817Y-69276277D01*
X56319328Y-69629164D01*
X56501466Y-69952737D01*
X56527554Y-69983147D01*
X56399079Y-70008702D01*
X56128662Y-70120712D01*
X55885294Y-70283326D01*
X55678326Y-70490294D01*
X55515712Y-70733662D01*
X55403702Y-71004079D01*
X55346600Y-71291152D01*
X55346600Y-71583848D01*
X55403702Y-71870921D01*
X55515712Y-72141338D01*
X55678326Y-72384706D01*
X55885294Y-72591674D01*
X56128662Y-72754288D01*
X56399079Y-72866298D01*
X56686152Y-72923400D01*
X56978848Y-72923400D01*
X57265921Y-72866298D01*
X57536338Y-72754288D01*
X57779706Y-72591674D01*
X57986674Y-72384706D01*
X58149288Y-72141338D01*
X58261298Y-71870921D01*
X58318400Y-71583848D01*
X58318400Y-71291152D01*
X58296008Y-71178576D01*
X59283600Y-71178576D01*
X59283600Y-71696424D01*
X59384627Y-72204322D01*
X59582799Y-72682751D01*
X59870500Y-73113326D01*
X60236674Y-73479500D01*
X60667249Y-73767201D01*
X61145678Y-73965373D01*
X61653576Y-74066400D01*
X62171424Y-74066400D01*
X62679322Y-73965373D01*
X63157751Y-73767201D01*
X63588326Y-73479500D01*
X63672501Y-73395325D01*
X63672501Y-74782668D01*
X63668824Y-74820000D01*
X63683498Y-74968985D01*
X63726954Y-75112246D01*
X63797526Y-75244276D01*
X63868701Y-75331002D01*
X63892500Y-75360001D01*
X63921498Y-75383799D01*
X64413812Y-75876114D01*
X64377500Y-76058665D01*
X64377500Y-76341335D01*
X64432647Y-76618574D01*
X64540820Y-76879727D01*
X64697863Y-77114759D01*
X64897741Y-77314637D01*
X65132773Y-77471680D01*
X65393926Y-77579853D01*
X65671165Y-77635000D01*
X65953835Y-77635000D01*
X66231074Y-77579853D01*
X66492227Y-77471680D01*
X66727259Y-77314637D01*
X66927137Y-77114759D01*
X67084180Y-76879727D01*
X67192353Y-76618574D01*
X67247500Y-76341335D01*
X67247500Y-76058665D01*
X67192353Y-75781426D01*
X67084180Y-75520273D01*
X66927137Y-75285241D01*
X66727259Y-75085363D01*
X66492227Y-74928320D01*
X66231074Y-74820147D01*
X65953835Y-74765000D01*
X65671165Y-74765000D01*
X65488614Y-74801312D01*
X65192500Y-74505199D01*
X65192500Y-71291152D01*
X65506600Y-71291152D01*
X65506600Y-71583848D01*
X65563702Y-71870921D01*
X65675712Y-72141338D01*
X65838326Y-72384706D01*
X66045294Y-72591674D01*
X66288662Y-72754288D01*
X66559079Y-72866298D01*
X66846152Y-72923400D01*
X67138848Y-72923400D01*
X67425921Y-72866298D01*
X67696338Y-72754288D01*
X67939706Y-72591674D01*
X68146674Y-72384706D01*
X68309288Y-72141338D01*
X68421298Y-71870921D01*
X68478400Y-71583848D01*
X68478400Y-71291152D01*
X68421298Y-71004079D01*
X68309288Y-70733662D01*
X68146674Y-70490294D01*
X67939706Y-70283326D01*
X67696338Y-70120712D01*
X67425921Y-70008702D01*
X67138848Y-69951600D01*
X66846152Y-69951600D01*
X66559079Y-70008702D01*
X66288662Y-70120712D01*
X66045294Y-70283326D01*
X65838326Y-70490294D01*
X65675712Y-70733662D01*
X65563702Y-71004079D01*
X65506600Y-71291152D01*
X65192500Y-71291152D01*
X65192500Y-68653015D01*
X65355540Y-68579656D01*
X65657925Y-68364165D01*
X65912459Y-68093823D01*
X66109363Y-67779017D01*
X66241066Y-67431847D01*
X66287113Y-67157416D01*
X66339156Y-66393996D01*
X66330779Y-66115855D01*
X66247410Y-65754023D01*
X66095052Y-65415408D01*
X65879561Y-65113023D01*
X65609219Y-64858489D01*
X65294413Y-64661586D01*
X64947243Y-64529882D01*
X64581050Y-64468439D01*
X64209907Y-64479617D01*
X63848075Y-64562986D01*
X63509460Y-64715344D01*
X63207075Y-64930835D01*
X62952541Y-65201177D01*
X62755637Y-65515983D01*
X62623934Y-65863153D01*
X62577887Y-66137584D01*
X62525844Y-66901005D01*
X62534221Y-67179145D01*
X62617590Y-67540977D01*
X62769948Y-67879592D01*
X62985439Y-68181977D01*
X63255781Y-68436511D01*
X63570587Y-68633415D01*
X63672500Y-68672077D01*
X63672500Y-69479674D01*
X63588326Y-69395500D01*
X63157751Y-69107799D01*
X62679322Y-68909627D01*
X62171424Y-68808600D01*
X61653576Y-68808600D01*
X61145678Y-68909627D01*
X60667249Y-69107799D01*
X60236674Y-69395500D01*
X59870500Y-69761674D01*
X59582799Y-70192249D01*
X59384627Y-70670678D01*
X59283600Y-71178576D01*
X58296008Y-71178576D01*
X58261298Y-71004079D01*
X58157059Y-70752424D01*
X58463000Y-70715536D01*
X58815887Y-70600025D01*
X59139460Y-70417887D01*
X59421282Y-70176123D01*
X59593078Y-69957220D01*
X60901506Y-67903400D01*
X61027296Y-67655188D01*
X61127305Y-67297597D01*
X61155631Y-66927366D01*
X61111183Y-66558723D01*
X60995671Y-66205836D01*
X60813534Y-65882263D01*
X60571770Y-65600442D01*
X60279671Y-65371201D01*
X59948463Y-65203351D01*
X59590873Y-65103342D01*
X59220641Y-65075017D01*
X58851999Y-65119464D01*
X58499111Y-65234976D01*
X58175539Y-65417113D01*
X57893718Y-65658877D01*
X57721922Y-65877780D01*
X57710504Y-65895703D01*
X57148000Y-65333199D01*
X57148000Y-58581720D01*
X57212500Y-58588072D01*
X58812500Y-58588072D01*
X58936982Y-58575812D01*
X59056680Y-58539502D01*
X59166994Y-58480537D01*
X59263685Y-58401185D01*
X59343037Y-58304494D01*
X59402002Y-58194180D01*
X59438312Y-58074482D01*
X59450572Y-57950000D01*
X59450572Y-56350000D01*
X59438312Y-56225518D01*
X59402002Y-56105820D01*
X59343037Y-55995506D01*
X59263685Y-55898815D01*
X59166994Y-55819463D01*
X59056680Y-55760498D01*
X58936982Y-55724188D01*
X58812500Y-55711928D01*
X57212500Y-55711928D01*
X57148000Y-55718280D01*
X57148000Y-55686801D01*
X59168503Y-53666299D01*
X59197501Y-53642501D01*
X59292474Y-53526776D01*
X59363046Y-53394747D01*
X59403150Y-53262540D01*
X59582799Y-53696251D01*
X59870500Y-54126826D01*
X60236674Y-54493000D01*
X60667249Y-54780701D01*
X61145678Y-54978873D01*
X61653576Y-55079900D01*
X62171424Y-55079900D01*
X62679322Y-54978873D01*
X63157751Y-54780701D01*
X63588326Y-54493000D01*
X63672501Y-54408825D01*
X63672501Y-55732668D01*
X63668824Y-55770000D01*
X63683498Y-55918985D01*
X63726954Y-56062246D01*
X63797526Y-56194276D01*
X63868701Y-56281002D01*
X63892500Y-56310001D01*
X63921498Y-56333799D01*
X64413812Y-56826114D01*
X64377500Y-57008665D01*
X64377500Y-57291335D01*
X64432647Y-57568574D01*
X64540820Y-57829727D01*
X64697863Y-58064759D01*
X64897741Y-58264637D01*
X65132773Y-58421680D01*
X65393926Y-58529853D01*
X65671165Y-58585000D01*
X65953835Y-58585000D01*
X66231074Y-58529853D01*
X66492227Y-58421680D01*
X66727259Y-58264637D01*
X66927137Y-58064759D01*
X67084180Y-57829727D01*
X67192353Y-57568574D01*
X67247500Y-57291335D01*
X67247500Y-57008665D01*
X67192353Y-56731426D01*
X67084180Y-56470273D01*
X66927137Y-56235241D01*
X66727259Y-56035363D01*
X66492227Y-55878320D01*
X66231074Y-55770147D01*
X65953835Y-55715000D01*
X65671165Y-55715000D01*
X65488614Y-55751312D01*
X65192500Y-55455199D01*
X65192500Y-52304652D01*
X65506600Y-52304652D01*
X65506600Y-52597348D01*
X65563702Y-52884421D01*
X65675712Y-53154838D01*
X65838326Y-53398206D01*
X66045294Y-53605174D01*
X66288662Y-53767788D01*
X66559079Y-53879798D01*
X66846152Y-53936900D01*
X67138848Y-53936900D01*
X67425921Y-53879798D01*
X67696338Y-53767788D01*
X67939706Y-53605174D01*
X68146674Y-53398206D01*
X68309288Y-53154838D01*
X68421298Y-52884421D01*
X68478400Y-52597348D01*
X68478400Y-52304652D01*
X68421298Y-52017579D01*
X68309288Y-51747162D01*
X68146674Y-51503794D01*
X67939706Y-51296826D01*
X67696338Y-51134212D01*
X67425921Y-51022202D01*
X67138848Y-50965100D01*
X66846152Y-50965100D01*
X66559079Y-51022202D01*
X66288662Y-51134212D01*
X66045294Y-51296826D01*
X65838326Y-51503794D01*
X65675712Y-51747162D01*
X65563702Y-52017579D01*
X65506600Y-52304652D01*
X65192500Y-52304652D01*
X65192500Y-49666515D01*
X65355540Y-49593156D01*
X65657925Y-49377665D01*
X65912459Y-49107323D01*
X66109363Y-48792517D01*
X66241066Y-48445347D01*
X66287113Y-48170916D01*
X66339156Y-47407496D01*
X66330779Y-47129355D01*
X66247410Y-46767523D01*
X66095052Y-46428908D01*
X65879561Y-46126523D01*
X65609219Y-45871989D01*
X65294413Y-45675086D01*
X64947243Y-45543382D01*
X64581050Y-45481939D01*
X64209907Y-45493117D01*
X63848075Y-45576486D01*
X63509460Y-45728844D01*
X63207075Y-45944335D01*
X62952541Y-46214677D01*
X62755637Y-46529483D01*
X62623934Y-46876653D01*
X62577887Y-47151084D01*
X62525844Y-47914505D01*
X62534221Y-48192645D01*
X62617590Y-48554477D01*
X62769948Y-48893092D01*
X62985439Y-49195477D01*
X63255781Y-49450011D01*
X63570587Y-49646915D01*
X63672500Y-49685577D01*
X63672500Y-50493174D01*
X63588326Y-50409000D01*
X63157751Y-50121299D01*
X62679322Y-49923127D01*
X62171424Y-49822100D01*
X61653576Y-49822100D01*
X61145678Y-49923127D01*
X60667249Y-50121299D01*
X60236674Y-50409000D01*
X59870500Y-50775174D01*
X59582799Y-51205749D01*
X59417500Y-51604816D01*
X59417500Y-51192867D01*
X59421282Y-51189623D01*
X59593078Y-50970720D01*
X60901506Y-48916900D01*
X61027296Y-48668688D01*
X61127305Y-48311097D01*
X61155631Y-47940866D01*
X61111183Y-47572223D01*
X60995671Y-47219336D01*
X60813534Y-46895763D01*
X60571770Y-46613942D01*
X60279671Y-46384701D01*
X59948463Y-46216851D01*
X59590873Y-46116842D01*
X59417500Y-46103578D01*
X59417500Y-45162301D01*
X60766802Y-43813000D01*
X71698198Y-43813000D01*
X69650988Y-45860211D01*
X69621990Y-45884009D01*
X69598192Y-45913007D01*
X69598191Y-45913008D01*
X69527016Y-45999734D01*
X69456444Y-46131764D01*
X69412988Y-46275025D01*
X69398314Y-46424010D01*
X69401991Y-46461343D01*
X69401990Y-78494208D01*
X64131998Y-83764201D01*
X64103000Y-83787999D01*
X64079202Y-83816997D01*
X64079201Y-83816998D01*
X64008026Y-83903724D01*
X63937454Y-84035754D01*
X63908181Y-84132257D01*
X63893998Y-84179014D01*
X63886676Y-84253351D01*
X63879324Y-84328000D01*
X63883001Y-84365332D01*
X63883000Y-92037678D01*
X63879324Y-92075000D01*
X63883000Y-92112322D01*
X63883000Y-92112332D01*
X63893997Y-92223985D01*
X63937454Y-92367246D01*
X64008026Y-92499276D01*
X64047871Y-92547826D01*
X64102999Y-92615001D01*
X64132002Y-92638804D01*
X65222201Y-93729003D01*
X65245999Y-93758001D01*
X65274997Y-93781799D01*
X65361723Y-93852974D01*
X65463421Y-93907333D01*
X65493753Y-93923546D01*
X65637014Y-93967003D01*
X65748667Y-93978000D01*
X65748676Y-93978000D01*
X65785999Y-93981676D01*
X65823322Y-93978000D01*
X66311678Y-93978000D01*
X66286315Y-93998815D01*
X66206963Y-94095506D01*
X66147998Y-94205820D01*
X66111688Y-94325518D01*
X66099428Y-94450000D01*
X66099428Y-96050000D01*
X66111688Y-96174482D01*
X66147998Y-96294180D01*
X66206963Y-96404494D01*
X66286315Y-96501185D01*
X66383006Y-96580537D01*
X66493320Y-96639502D01*
X66613018Y-96675812D01*
X66737500Y-96688072D01*
X68337500Y-96688072D01*
X68461982Y-96675812D01*
X68581680Y-96639502D01*
X68691994Y-96580537D01*
X68788685Y-96501185D01*
X68868037Y-96404494D01*
X68927002Y-96294180D01*
X68963312Y-96174482D01*
X68975572Y-96050000D01*
X68975572Y-94450000D01*
X68963312Y-94325518D01*
X68933781Y-94228168D01*
X69008898Y-94213226D01*
X69197256Y-94135205D01*
X69366774Y-94021937D01*
X69510937Y-93877774D01*
X69624205Y-93708256D01*
X69702226Y-93519898D01*
X69742000Y-93319939D01*
X69742000Y-93116061D01*
X69702226Y-92916102D01*
X69624205Y-92727744D01*
X69510937Y-92558226D01*
X69366774Y-92414063D01*
X69197256Y-92300795D01*
X69008898Y-92222774D01*
X68808939Y-92183000D01*
X68605061Y-92183000D01*
X68405102Y-92222774D01*
X68216744Y-92300795D01*
X68047226Y-92414063D01*
X68003289Y-92458000D01*
X66100802Y-92458000D01*
X65403000Y-91760199D01*
X65403000Y-91634380D01*
X65410294Y-91641674D01*
X65653662Y-91804288D01*
X65924079Y-91916298D01*
X66211152Y-91973400D01*
X66503848Y-91973400D01*
X66790921Y-91916298D01*
X67061338Y-91804288D01*
X67304706Y-91641674D01*
X67511674Y-91434706D01*
X67674288Y-91191338D01*
X67786298Y-90920921D01*
X67843400Y-90633848D01*
X67843400Y-90341152D01*
X67821008Y-90228576D01*
X68808600Y-90228576D01*
X68808600Y-90746424D01*
X68909627Y-91254322D01*
X69107799Y-91732751D01*
X69395500Y-92163326D01*
X69761674Y-92529500D01*
X70192249Y-92817201D01*
X70670678Y-93015373D01*
X71178576Y-93116400D01*
X71696424Y-93116400D01*
X72204322Y-93015373D01*
X72682751Y-92817201D01*
X73113326Y-92529500D01*
X73197501Y-92445325D01*
X73197501Y-93832668D01*
X73193824Y-93870000D01*
X73208498Y-94018985D01*
X73251954Y-94162246D01*
X73322526Y-94294276D01*
X73393701Y-94381002D01*
X73417500Y-94410001D01*
X73446498Y-94433799D01*
X73938812Y-94926114D01*
X73902500Y-95108665D01*
X73902500Y-95391335D01*
X73957647Y-95668574D01*
X74065820Y-95929727D01*
X74222863Y-96164759D01*
X74422741Y-96364637D01*
X74657773Y-96521680D01*
X74918926Y-96629853D01*
X75196165Y-96685000D01*
X75478835Y-96685000D01*
X75756074Y-96629853D01*
X76017227Y-96521680D01*
X76252259Y-96364637D01*
X76452137Y-96164759D01*
X76609180Y-95929727D01*
X76717353Y-95668574D01*
X76772500Y-95391335D01*
X76772500Y-95108665D01*
X76717353Y-94831426D01*
X76694342Y-94775872D01*
X89205000Y-94775872D01*
X89205000Y-95216128D01*
X89290890Y-95647925D01*
X89459369Y-96054669D01*
X89703962Y-96420729D01*
X90015271Y-96732038D01*
X90381331Y-96976631D01*
X90788075Y-97145110D01*
X91219872Y-97231000D01*
X91660128Y-97231000D01*
X92091925Y-97145110D01*
X92498669Y-96976631D01*
X92864729Y-96732038D01*
X93176038Y-96420729D01*
X93420631Y-96054669D01*
X93589110Y-95647925D01*
X93675000Y-95216128D01*
X93675000Y-94775872D01*
X93589110Y-94344075D01*
X93420631Y-93937331D01*
X93176038Y-93571271D01*
X92864729Y-93259962D01*
X92498669Y-93015369D01*
X92091925Y-92846890D01*
X91660128Y-92761000D01*
X91219872Y-92761000D01*
X90788075Y-92846890D01*
X90381331Y-93015369D01*
X90015271Y-93259962D01*
X89703962Y-93571271D01*
X89459369Y-93937331D01*
X89290890Y-94344075D01*
X89205000Y-94775872D01*
X76694342Y-94775872D01*
X76609180Y-94570273D01*
X76452137Y-94335241D01*
X76252259Y-94135363D01*
X76017227Y-93978320D01*
X75756074Y-93870147D01*
X75478835Y-93815000D01*
X75196165Y-93815000D01*
X75013614Y-93851312D01*
X74717500Y-93555199D01*
X74717500Y-90341152D01*
X75031600Y-90341152D01*
X75031600Y-90633848D01*
X75088702Y-90920921D01*
X75200712Y-91191338D01*
X75363326Y-91434706D01*
X75570294Y-91641674D01*
X75813662Y-91804288D01*
X76084079Y-91916298D01*
X76371152Y-91973400D01*
X76663848Y-91973400D01*
X76950921Y-91916298D01*
X77221338Y-91804288D01*
X77464706Y-91641674D01*
X77671674Y-91434706D01*
X77834288Y-91191338D01*
X77946298Y-90920921D01*
X78003400Y-90633848D01*
X78003400Y-90341152D01*
X77946298Y-90054079D01*
X77834288Y-89783662D01*
X77671674Y-89540294D01*
X77464706Y-89333326D01*
X77221338Y-89170712D01*
X76950921Y-89058702D01*
X76663848Y-89001600D01*
X76371152Y-89001600D01*
X76084079Y-89058702D01*
X75813662Y-89170712D01*
X75570294Y-89333326D01*
X75363326Y-89540294D01*
X75200712Y-89783662D01*
X75088702Y-90054079D01*
X75031600Y-90341152D01*
X74717500Y-90341152D01*
X74717500Y-87703015D01*
X74880540Y-87629656D01*
X75182925Y-87414165D01*
X75437459Y-87143823D01*
X75634363Y-86829017D01*
X75766066Y-86481847D01*
X75812113Y-86207416D01*
X75864156Y-85443996D01*
X75855779Y-85165855D01*
X75772410Y-84804023D01*
X75620052Y-84465408D01*
X75404561Y-84163023D01*
X75134219Y-83908489D01*
X74819413Y-83711586D01*
X74472243Y-83579882D01*
X74106050Y-83518439D01*
X73734907Y-83529617D01*
X73373075Y-83612986D01*
X73034460Y-83765344D01*
X72732075Y-83980835D01*
X72477541Y-84251177D01*
X72280637Y-84565983D01*
X72148934Y-84913153D01*
X72102887Y-85187584D01*
X72050844Y-85951005D01*
X72059221Y-86229145D01*
X72142590Y-86590977D01*
X72294948Y-86929592D01*
X72510439Y-87231977D01*
X72780781Y-87486511D01*
X73095587Y-87683415D01*
X73197500Y-87722077D01*
X73197500Y-88529674D01*
X73113326Y-88445500D01*
X72682751Y-88157799D01*
X72204322Y-87959627D01*
X71696424Y-87858600D01*
X71178576Y-87858600D01*
X70670678Y-87959627D01*
X70192249Y-88157799D01*
X69761674Y-88445500D01*
X69395500Y-88811674D01*
X69107799Y-89242249D01*
X68909627Y-89720678D01*
X68808600Y-90228576D01*
X67821008Y-90228576D01*
X67786298Y-90054079D01*
X67682059Y-89802424D01*
X67988000Y-89765536D01*
X68340887Y-89650025D01*
X68664460Y-89467887D01*
X68946282Y-89226123D01*
X69118078Y-89007220D01*
X70426506Y-86953400D01*
X70552296Y-86705188D01*
X70652305Y-86347597D01*
X70680631Y-85977366D01*
X70636183Y-85608723D01*
X70631225Y-85593577D01*
X71123003Y-85101799D01*
X71152001Y-85078001D01*
X71246974Y-84962276D01*
X71317546Y-84830247D01*
X71361003Y-84686986D01*
X71372000Y-84575333D01*
X71372000Y-84575323D01*
X71375676Y-84538000D01*
X71372000Y-84500677D01*
X71372000Y-83289857D01*
X81216500Y-83289857D01*
X81216500Y-83715143D01*
X81299470Y-84132257D01*
X81462219Y-84525170D01*
X81698496Y-84878782D01*
X81999218Y-85179504D01*
X82352830Y-85415781D01*
X82745743Y-85578530D01*
X83162857Y-85661500D01*
X83588143Y-85661500D01*
X84005257Y-85578530D01*
X84398170Y-85415781D01*
X84751782Y-85179504D01*
X85052504Y-84878782D01*
X85288781Y-84525170D01*
X85451530Y-84132257D01*
X85534500Y-83715143D01*
X85534500Y-83289857D01*
X85451530Y-82872743D01*
X85288781Y-82479830D01*
X85052504Y-82126218D01*
X84751782Y-81825496D01*
X84398170Y-81589219D01*
X84005257Y-81426470D01*
X83588143Y-81343500D01*
X83162857Y-81343500D01*
X82745743Y-81426470D01*
X82352830Y-81589219D01*
X81999218Y-81825496D01*
X81698496Y-82126218D01*
X81462219Y-82479830D01*
X81299470Y-82872743D01*
X81216500Y-83289857D01*
X71372000Y-83289857D01*
X71372000Y-75400000D01*
X75624428Y-75400000D01*
X75624428Y-77000000D01*
X75636688Y-77124482D01*
X75672998Y-77244180D01*
X75731963Y-77354494D01*
X75811315Y-77451185D01*
X75908006Y-77530537D01*
X76018320Y-77589502D01*
X76138018Y-77625812D01*
X76262500Y-77638072D01*
X77862500Y-77638072D01*
X77986982Y-77625812D01*
X78106680Y-77589502D01*
X78216994Y-77530537D01*
X78313685Y-77451185D01*
X78393037Y-77354494D01*
X78452002Y-77244180D01*
X78488312Y-77124482D01*
X78500572Y-77000000D01*
X78500572Y-75400000D01*
X78488312Y-75275518D01*
X78452002Y-75155820D01*
X78393037Y-75045506D01*
X78313685Y-74948815D01*
X78216994Y-74869463D01*
X78106680Y-74810498D01*
X77986982Y-74774188D01*
X77862500Y-74761928D01*
X76262500Y-74761928D01*
X76138018Y-74774188D01*
X76018320Y-74810498D01*
X75908006Y-74869463D01*
X75811315Y-74948815D01*
X75731963Y-75045506D01*
X75672998Y-75155820D01*
X75636688Y-75275518D01*
X75624428Y-75400000D01*
X71372000Y-75400000D01*
X71372000Y-72704801D01*
X75212700Y-68864102D01*
X75209369Y-68907635D01*
X75253817Y-69276277D01*
X75369328Y-69629164D01*
X75551466Y-69952737D01*
X75577554Y-69983147D01*
X75449079Y-70008702D01*
X75178662Y-70120712D01*
X74935294Y-70283326D01*
X74728326Y-70490294D01*
X74565712Y-70733662D01*
X74453702Y-71004079D01*
X74396600Y-71291152D01*
X74396600Y-71583848D01*
X74453702Y-71870921D01*
X74565712Y-72141338D01*
X74728326Y-72384706D01*
X74935294Y-72591674D01*
X75178662Y-72754288D01*
X75449079Y-72866298D01*
X75736152Y-72923400D01*
X76028848Y-72923400D01*
X76315921Y-72866298D01*
X76586338Y-72754288D01*
X76829706Y-72591674D01*
X77036674Y-72384706D01*
X77199288Y-72141338D01*
X77311298Y-71870921D01*
X77345001Y-71701485D01*
X77345000Y-72829289D01*
X77301063Y-72873226D01*
X77187795Y-73042744D01*
X77109774Y-73231102D01*
X77070000Y-73431061D01*
X77070000Y-73634939D01*
X77109774Y-73834898D01*
X77187795Y-74023256D01*
X77301063Y-74192774D01*
X77445226Y-74336937D01*
X77614744Y-74450205D01*
X77803102Y-74528226D01*
X78003061Y-74568000D01*
X78206939Y-74568000D01*
X78406898Y-74528226D01*
X78595256Y-74450205D01*
X78764774Y-74336937D01*
X78908937Y-74192774D01*
X79022205Y-74023256D01*
X79100226Y-73834898D01*
X79140000Y-73634939D01*
X79140000Y-73431061D01*
X79115608Y-73308434D01*
X79286674Y-73479500D01*
X79717249Y-73767201D01*
X80195678Y-73965373D01*
X80703576Y-74066400D01*
X81221424Y-74066400D01*
X81729322Y-73965373D01*
X82207751Y-73767201D01*
X82638326Y-73479500D01*
X82722501Y-73395325D01*
X82722501Y-74782668D01*
X82718824Y-74820000D01*
X82733498Y-74968985D01*
X82776954Y-75112246D01*
X82847526Y-75244276D01*
X82918701Y-75331002D01*
X82942500Y-75360001D01*
X82971498Y-75383799D01*
X83463812Y-75876114D01*
X83427500Y-76058665D01*
X83427500Y-76341335D01*
X83482647Y-76618574D01*
X83590820Y-76879727D01*
X83747863Y-77114759D01*
X83947741Y-77314637D01*
X84182773Y-77471680D01*
X84443926Y-77579853D01*
X84721165Y-77635000D01*
X85003835Y-77635000D01*
X85281074Y-77579853D01*
X85542227Y-77471680D01*
X85777259Y-77314637D01*
X85977137Y-77114759D01*
X86134180Y-76879727D01*
X86242353Y-76618574D01*
X86297500Y-76341335D01*
X86297500Y-76058665D01*
X86242353Y-75781426D01*
X86134180Y-75520273D01*
X85977137Y-75285241D01*
X85777259Y-75085363D01*
X85542227Y-74928320D01*
X85281074Y-74820147D01*
X85003835Y-74765000D01*
X84721165Y-74765000D01*
X84538614Y-74801312D01*
X84242500Y-74505199D01*
X84242500Y-71291152D01*
X84556600Y-71291152D01*
X84556600Y-71583848D01*
X84613702Y-71870921D01*
X84725712Y-72141338D01*
X84888326Y-72384706D01*
X85095294Y-72591674D01*
X85338662Y-72754288D01*
X85609079Y-72866298D01*
X85896152Y-72923400D01*
X86188848Y-72923400D01*
X86475921Y-72866298D01*
X86746338Y-72754288D01*
X86989706Y-72591674D01*
X87196674Y-72384706D01*
X87359288Y-72141338D01*
X87471298Y-71870921D01*
X87528400Y-71583848D01*
X87528400Y-71291152D01*
X87471298Y-71004079D01*
X87359288Y-70733662D01*
X87196674Y-70490294D01*
X86989706Y-70283326D01*
X86746338Y-70120712D01*
X86475921Y-70008702D01*
X86188848Y-69951600D01*
X85896152Y-69951600D01*
X85609079Y-70008702D01*
X85338662Y-70120712D01*
X85095294Y-70283326D01*
X84888326Y-70490294D01*
X84725712Y-70733662D01*
X84613702Y-71004079D01*
X84556600Y-71291152D01*
X84242500Y-71291152D01*
X84242500Y-68653015D01*
X84405540Y-68579656D01*
X84707925Y-68364165D01*
X84962459Y-68093823D01*
X85159363Y-67779017D01*
X85291066Y-67431847D01*
X85337113Y-67157416D01*
X85389156Y-66393996D01*
X85380779Y-66115855D01*
X85297410Y-65754023D01*
X85145052Y-65415408D01*
X84929561Y-65113023D01*
X84659219Y-64858489D01*
X84344413Y-64661586D01*
X83997243Y-64529882D01*
X83631050Y-64468439D01*
X83259907Y-64479617D01*
X82898075Y-64562986D01*
X82559460Y-64715344D01*
X82257075Y-64930835D01*
X82002541Y-65201177D01*
X81805637Y-65515983D01*
X81673934Y-65863153D01*
X81627887Y-66137584D01*
X81575844Y-66901005D01*
X81584221Y-67179145D01*
X81667590Y-67540977D01*
X81819948Y-67879592D01*
X82035439Y-68181977D01*
X82305781Y-68436511D01*
X82620587Y-68633415D01*
X82722500Y-68672077D01*
X82722500Y-69479674D01*
X82638326Y-69395500D01*
X82207751Y-69107799D01*
X81729322Y-68909627D01*
X81221424Y-68808600D01*
X80983202Y-68808600D01*
X81283004Y-68508798D01*
X81312001Y-68485001D01*
X81406974Y-68369276D01*
X81477546Y-68237247D01*
X81521003Y-68093986D01*
X81532000Y-67982333D01*
X81532000Y-67982332D01*
X81535677Y-67945000D01*
X81532000Y-67907667D01*
X81532000Y-56552322D01*
X81535676Y-56514999D01*
X81532000Y-56477676D01*
X81532000Y-56477667D01*
X81521003Y-56366014D01*
X81477546Y-56222753D01*
X81406974Y-56090724D01*
X81312001Y-55974999D01*
X81283003Y-55951201D01*
X80339229Y-55007427D01*
X80703576Y-55079900D01*
X81221424Y-55079900D01*
X81729322Y-54978873D01*
X82207751Y-54780701D01*
X82638326Y-54493000D01*
X82722501Y-54408825D01*
X82722501Y-55732668D01*
X82718824Y-55770000D01*
X82733498Y-55918985D01*
X82776954Y-56062246D01*
X82847526Y-56194276D01*
X82918701Y-56281002D01*
X82942500Y-56310001D01*
X82971498Y-56333799D01*
X83463812Y-56826114D01*
X83427500Y-57008665D01*
X83427500Y-57291335D01*
X83482647Y-57568574D01*
X83590820Y-57829727D01*
X83747863Y-58064759D01*
X83947741Y-58264637D01*
X84182773Y-58421680D01*
X84443926Y-58529853D01*
X84721165Y-58585000D01*
X85003835Y-58585000D01*
X85281074Y-58529853D01*
X85542227Y-58421680D01*
X85777259Y-58264637D01*
X85977137Y-58064759D01*
X86134180Y-57829727D01*
X86242353Y-57568574D01*
X86297500Y-57291335D01*
X86297500Y-57008665D01*
X86242353Y-56731426D01*
X86134180Y-56470273D01*
X85977137Y-56235241D01*
X85777259Y-56035363D01*
X85542227Y-55878320D01*
X85281074Y-55770147D01*
X85003835Y-55715000D01*
X84721165Y-55715000D01*
X84538614Y-55751312D01*
X84242500Y-55455199D01*
X84242500Y-52304652D01*
X84556600Y-52304652D01*
X84556600Y-52597348D01*
X84613702Y-52884421D01*
X84725712Y-53154838D01*
X84888326Y-53398206D01*
X85095294Y-53605174D01*
X85338662Y-53767788D01*
X85609079Y-53879798D01*
X85896152Y-53936900D01*
X86188848Y-53936900D01*
X86475921Y-53879798D01*
X86746338Y-53767788D01*
X86989706Y-53605174D01*
X87196674Y-53398206D01*
X87359288Y-53154838D01*
X87471298Y-52884421D01*
X87528400Y-52597348D01*
X87528400Y-52304652D01*
X87471298Y-52017579D01*
X87359288Y-51747162D01*
X87196674Y-51503794D01*
X86989706Y-51296826D01*
X86746338Y-51134212D01*
X86475921Y-51022202D01*
X86188848Y-50965100D01*
X85896152Y-50965100D01*
X85609079Y-51022202D01*
X85338662Y-51134212D01*
X85095294Y-51296826D01*
X84888326Y-51503794D01*
X84725712Y-51747162D01*
X84613702Y-52017579D01*
X84556600Y-52304652D01*
X84242500Y-52304652D01*
X84242500Y-49666515D01*
X84405540Y-49593156D01*
X84707925Y-49377665D01*
X84962459Y-49107323D01*
X85159363Y-48792517D01*
X85291066Y-48445347D01*
X85337113Y-48170916D01*
X85389156Y-47407496D01*
X85380779Y-47129355D01*
X85297410Y-46767523D01*
X85145052Y-46428908D01*
X84929561Y-46126523D01*
X84659219Y-45871989D01*
X84344413Y-45675086D01*
X83997243Y-45543382D01*
X83631050Y-45481939D01*
X83259907Y-45493117D01*
X82898075Y-45576486D01*
X82559460Y-45728844D01*
X82257075Y-45944335D01*
X82002541Y-46214677D01*
X81805637Y-46529483D01*
X81673934Y-46876653D01*
X81627887Y-47151084D01*
X81575844Y-47914505D01*
X81584221Y-48192645D01*
X81667590Y-48554477D01*
X81819948Y-48893092D01*
X82035439Y-49195477D01*
X82305781Y-49450011D01*
X82620587Y-49646915D01*
X82722500Y-49685577D01*
X82722500Y-50493174D01*
X82638326Y-50409000D01*
X82207751Y-50121299D01*
X81729322Y-49923127D01*
X81221424Y-49822100D01*
X80703576Y-49822100D01*
X80639616Y-49834822D01*
X80649627Y-49822624D01*
X80720199Y-49690594D01*
X80723412Y-49680003D01*
X80763656Y-49547333D01*
X80774653Y-49435680D01*
X80774653Y-49435670D01*
X80778329Y-49398347D01*
X80774653Y-49361024D01*
X80774653Y-43752058D01*
X80818590Y-43708121D01*
X80931858Y-43538603D01*
X81009879Y-43350245D01*
X81049653Y-43150286D01*
X81049653Y-42946408D01*
X81009879Y-42746449D01*
X80931858Y-42558091D01*
X80818590Y-42388573D01*
X80674427Y-42244410D01*
X80504909Y-42131142D01*
X80316551Y-42053121D01*
X80116592Y-42013347D01*
X79912714Y-42013347D01*
X79712755Y-42053121D01*
X79524397Y-42131142D01*
X79354879Y-42244410D01*
X79210716Y-42388573D01*
X79097448Y-42558091D01*
X79058863Y-42651243D01*
X79022205Y-42562744D01*
X78908937Y-42393226D01*
X78764774Y-42249063D01*
X78595256Y-42135795D01*
X78406898Y-42057774D01*
X78206939Y-42018000D01*
X78003061Y-42018000D01*
X77803102Y-42057774D01*
X77614744Y-42135795D01*
X77533500Y-42190080D01*
X77452256Y-42135795D01*
X77263898Y-42057774D01*
X77063939Y-42018000D01*
X76860061Y-42018000D01*
X76660102Y-42057774D01*
X76471744Y-42135795D01*
X76390500Y-42190080D01*
X76309256Y-42135795D01*
X76120898Y-42057774D01*
X75920939Y-42018000D01*
X75717061Y-42018000D01*
X75517102Y-42057774D01*
X75328744Y-42135795D01*
X75159226Y-42249063D01*
X75115289Y-42293000D01*
X60489322Y-42293000D01*
X60451999Y-42289324D01*
X60414676Y-42293000D01*
X60414667Y-42293000D01*
X60303014Y-42303997D01*
X60159753Y-42347454D01*
X60027724Y-42418026D01*
X59911999Y-42512999D01*
X59888201Y-42541997D01*
X58146498Y-44283701D01*
X58117500Y-44307499D01*
X58093702Y-44336497D01*
X58093701Y-44336498D01*
X58022526Y-44423224D01*
X57951954Y-44555254D01*
X57923959Y-44647546D01*
X57910777Y-44691003D01*
X57908498Y-44698515D01*
X57893824Y-44847500D01*
X57897501Y-44884832D01*
X57897501Y-46669132D01*
X57893718Y-46672377D01*
X57721922Y-46891280D01*
X56413493Y-48945101D01*
X56287704Y-49193314D01*
X56187694Y-49550904D01*
X56159369Y-49921135D01*
X56203817Y-50289777D01*
X56319328Y-50642664D01*
X56501466Y-50966237D01*
X56527554Y-50996647D01*
X56399079Y-51022202D01*
X56128662Y-51134212D01*
X55885294Y-51296826D01*
X55678326Y-51503794D01*
X55515712Y-51747162D01*
X55403702Y-52017579D01*
X55346600Y-52304652D01*
X47149721Y-52304652D01*
X47152834Y-33053872D01*
X48565000Y-33053872D01*
X48565000Y-33494128D01*
X48650890Y-33925925D01*
X48819369Y-34332669D01*
X49063962Y-34698729D01*
X49375271Y-35010038D01*
X49741331Y-35254631D01*
X50148075Y-35423110D01*
X50579872Y-35509000D01*
X51020128Y-35509000D01*
X51451925Y-35423110D01*
X51858669Y-35254631D01*
X52224729Y-35010038D01*
X52536038Y-34698729D01*
X52780631Y-34332669D01*
X52949110Y-33925925D01*
X53035000Y-33494128D01*
X53035000Y-33053872D01*
X52949110Y-32622075D01*
X52861291Y-32410061D01*
X56496000Y-32410061D01*
X56496000Y-32613939D01*
X56535774Y-32813898D01*
X56613795Y-33002256D01*
X56727063Y-33171774D01*
X56771001Y-33215712D01*
X56771001Y-33617668D01*
X56767324Y-33655000D01*
X56771001Y-33692333D01*
X56776066Y-33743753D01*
X56781998Y-33803985D01*
X56825454Y-33947246D01*
X56896026Y-34079276D01*
X56964759Y-34163026D01*
X56991000Y-34195001D01*
X57019998Y-34218799D01*
X58110200Y-35309002D01*
X58133999Y-35338001D01*
X58162997Y-35361799D01*
X58249723Y-35432974D01*
X58381753Y-35503546D01*
X58525014Y-35547003D01*
X58636667Y-35558000D01*
X58636676Y-35558000D01*
X58673999Y-35561676D01*
X58711322Y-35558000D01*
X66487199Y-35558000D01*
X69269486Y-38340288D01*
X69313795Y-38447259D01*
X69427063Y-38616777D01*
X69571226Y-38760940D01*
X69740744Y-38874208D01*
X69929102Y-38952229D01*
X70129061Y-38992003D01*
X70332939Y-38992003D01*
X70532898Y-38952229D01*
X70721256Y-38874208D01*
X70890774Y-38760940D01*
X71034937Y-38616777D01*
X71148205Y-38447259D01*
X71226226Y-38258901D01*
X71266000Y-38058942D01*
X71266000Y-37855064D01*
X71226226Y-37655105D01*
X71148205Y-37466747D01*
X71141693Y-37457001D01*
X71148205Y-37447256D01*
X71226226Y-37258898D01*
X71266000Y-37058939D01*
X71266000Y-36855061D01*
X71226226Y-36655102D01*
X71148205Y-36466744D01*
X71034937Y-36297226D01*
X70890774Y-36153063D01*
X70721256Y-36039795D01*
X70532898Y-35961774D01*
X70332939Y-35922000D01*
X70270802Y-35922000D01*
X67873804Y-33525003D01*
X67850001Y-33495999D01*
X67734276Y-33401026D01*
X67602247Y-33330454D01*
X67458986Y-33286997D01*
X67347333Y-33276000D01*
X67347322Y-33276000D01*
X67310000Y-33272324D01*
X67272678Y-33276000D01*
X59369802Y-33276000D01*
X59300258Y-33206456D01*
X59334940Y-33171774D01*
X59448208Y-33002256D01*
X59526229Y-32813898D01*
X59566003Y-32613939D01*
X59566003Y-32410061D01*
X59526229Y-32210102D01*
X59448208Y-32021744D01*
X59334940Y-31852226D01*
X59190777Y-31708063D01*
X59021259Y-31594795D01*
X58832901Y-31516774D01*
X58632942Y-31477000D01*
X58429064Y-31477000D01*
X58229105Y-31516774D01*
X58040747Y-31594795D01*
X58031002Y-31601307D01*
X58021256Y-31594795D01*
X57832898Y-31516774D01*
X57632939Y-31477000D01*
X57429061Y-31477000D01*
X57229102Y-31516774D01*
X57040744Y-31594795D01*
X56871226Y-31708063D01*
X56727063Y-31852226D01*
X56613795Y-32021744D01*
X56535774Y-32210102D01*
X56496000Y-32410061D01*
X52861291Y-32410061D01*
X52780631Y-32215331D01*
X52536038Y-31849271D01*
X52224729Y-31537962D01*
X51858669Y-31293369D01*
X51451925Y-31124890D01*
X51020128Y-31039000D01*
X50579872Y-31039000D01*
X50148075Y-31124890D01*
X49741331Y-31293369D01*
X49375271Y-31537962D01*
X49063962Y-31849271D01*
X48819369Y-32215331D01*
X48650890Y-32622075D01*
X48565000Y-33053872D01*
X47152834Y-33053872D01*
X47153800Y-27076061D01*
X53321000Y-27076061D01*
X53321000Y-27279939D01*
X53360774Y-27479898D01*
X53438795Y-27668256D01*
X53552063Y-27837774D01*
X53696226Y-27981937D01*
X53865744Y-28095205D01*
X54054102Y-28173226D01*
X54254061Y-28213000D01*
X54457939Y-28213000D01*
X54657898Y-28173226D01*
X54846256Y-28095205D01*
X55015774Y-27981937D01*
X55059711Y-27938000D01*
X65090199Y-27938000D01*
X65854385Y-28702187D01*
X65757795Y-28846744D01*
X65679774Y-29035102D01*
X65640000Y-29235061D01*
X65640000Y-29438939D01*
X65679774Y-29638898D01*
X65757795Y-29827256D01*
X65871063Y-29996774D01*
X66015226Y-30140937D01*
X66184744Y-30254205D01*
X66373102Y-30332226D01*
X66573061Y-30372000D01*
X66776939Y-30372000D01*
X66976898Y-30332226D01*
X67165256Y-30254205D01*
X67334774Y-30140937D01*
X67478937Y-29996774D01*
X67592205Y-29827256D01*
X67670226Y-29638898D01*
X67710000Y-29438939D01*
X67710000Y-29235061D01*
X67670226Y-29035102D01*
X67592205Y-28846744D01*
X67478937Y-28677226D01*
X67435000Y-28633289D01*
X67435000Y-28485322D01*
X67438676Y-28447999D01*
X67435000Y-28410676D01*
X67435000Y-28410667D01*
X67424003Y-28299014D01*
X67380546Y-28155753D01*
X67309974Y-28023724D01*
X67215001Y-27907999D01*
X67186003Y-27884201D01*
X65968804Y-26667003D01*
X65945001Y-26637999D01*
X65829276Y-26543026D01*
X65697247Y-26472454D01*
X65553986Y-26428997D01*
X65442333Y-26418000D01*
X65442322Y-26418000D01*
X65405000Y-26414324D01*
X65367678Y-26418000D01*
X55059711Y-26418000D01*
X55015774Y-26374063D01*
X54846256Y-26260795D01*
X54657898Y-26182774D01*
X54457939Y-26143000D01*
X54254061Y-26143000D01*
X54054102Y-26182774D01*
X53865744Y-26260795D01*
X53696226Y-26374063D01*
X53552063Y-26518226D01*
X53438795Y-26687744D01*
X53360774Y-26876102D01*
X53321000Y-27076061D01*
X47153800Y-27076061D01*
X47154377Y-23508000D01*
X53474000Y-23508000D01*
X53474000Y-24758000D01*
X53525389Y-25025760D01*
X53628028Y-25278349D01*
X53777972Y-25506061D01*
X53969460Y-25700145D01*
X54195132Y-25853142D01*
X54446316Y-25959173D01*
X54517815Y-25973318D01*
X54732000Y-25850656D01*
X54732000Y-23508000D01*
X54986000Y-23508000D01*
X54986000Y-25850656D01*
X55200185Y-25973318D01*
X55271684Y-25959173D01*
X55522868Y-25853142D01*
X55748540Y-25700145D01*
X55940028Y-25506061D01*
X56089972Y-25278349D01*
X56192611Y-25025760D01*
X56244000Y-24758000D01*
X56244000Y-23508000D01*
X60774000Y-23508000D01*
X60774000Y-24758000D01*
X60825389Y-25025760D01*
X60928028Y-25278349D01*
X61077972Y-25506061D01*
X61269460Y-25700145D01*
X61495132Y-25853142D01*
X61746316Y-25959173D01*
X61817815Y-25973318D01*
X62032000Y-25850656D01*
X62032000Y-23508000D01*
X62286000Y-23508000D01*
X62286000Y-25850656D01*
X62500185Y-25973318D01*
X62571684Y-25959173D01*
X62612669Y-25941872D01*
X89713000Y-25941872D01*
X89713000Y-26382128D01*
X89798890Y-26813925D01*
X89967369Y-27220669D01*
X90211962Y-27586729D01*
X90523271Y-27898038D01*
X90889331Y-28142631D01*
X91296075Y-28311110D01*
X91727872Y-28397000D01*
X92168128Y-28397000D01*
X92599925Y-28311110D01*
X93006669Y-28142631D01*
X93372729Y-27898038D01*
X93684038Y-27586729D01*
X93928631Y-27220669D01*
X94097110Y-26813925D01*
X94183000Y-26382128D01*
X94183000Y-25941872D01*
X94097110Y-25510075D01*
X93928631Y-25103331D01*
X93684038Y-24737271D01*
X93372729Y-24425962D01*
X93006669Y-24181369D01*
X92599925Y-24012890D01*
X92168128Y-23927000D01*
X91727872Y-23927000D01*
X91296075Y-24012890D01*
X90889331Y-24181369D01*
X90523271Y-24425962D01*
X90211962Y-24737271D01*
X89967369Y-25103331D01*
X89798890Y-25510075D01*
X89713000Y-25941872D01*
X62612669Y-25941872D01*
X62822868Y-25853142D01*
X63048540Y-25700145D01*
X63240028Y-25506061D01*
X63389972Y-25278349D01*
X63492611Y-25025760D01*
X63544000Y-24758000D01*
X63544000Y-23508000D01*
X62286000Y-23508000D01*
X62032000Y-23508000D01*
X60774000Y-23508000D01*
X56244000Y-23508000D01*
X54986000Y-23508000D01*
X54732000Y-23508000D01*
X53474000Y-23508000D01*
X47154377Y-23508000D01*
X47154595Y-22164672D01*
X47186731Y-22004000D01*
X53474000Y-22004000D01*
X53474000Y-23254000D01*
X54732000Y-23254000D01*
X54732000Y-20911344D01*
X54986000Y-20911344D01*
X54986000Y-23254000D01*
X56244000Y-23254000D01*
X56244000Y-22004000D01*
X60774000Y-22004000D01*
X60774000Y-23254000D01*
X62032000Y-23254000D01*
X62032000Y-20911344D01*
X62286000Y-20911344D01*
X62286000Y-23254000D01*
X63544000Y-23254000D01*
X63544000Y-22004000D01*
X63492611Y-21736240D01*
X63389972Y-21483651D01*
X63240028Y-21255939D01*
X63048540Y-21061855D01*
X62822868Y-20908858D01*
X62571684Y-20802827D01*
X62500185Y-20788682D01*
X62286000Y-20911344D01*
X62032000Y-20911344D01*
X61817815Y-20788682D01*
X61746316Y-20802827D01*
X61495132Y-20908858D01*
X61269460Y-21061855D01*
X61077972Y-21255939D01*
X60928028Y-21483651D01*
X60825389Y-21736240D01*
X60774000Y-22004000D01*
X56244000Y-22004000D01*
X56192611Y-21736240D01*
X56089972Y-21483651D01*
X55940028Y-21255939D01*
X55748540Y-21061855D01*
X55522868Y-20908858D01*
X55271684Y-20802827D01*
X55200185Y-20788682D01*
X54986000Y-20911344D01*
X54732000Y-20911344D01*
X54517815Y-20788682D01*
X54446316Y-20802827D01*
X54195132Y-20908858D01*
X53969460Y-21061855D01*
X53777972Y-21255939D01*
X53628028Y-21483651D01*
X53525389Y-21736240D01*
X53474000Y-22004000D01*
X47186731Y-22004000D01*
X47226320Y-21806069D01*
X47366557Y-21467683D01*
X47569847Y-21162983D01*
X47828454Y-20903569D01*
X48132521Y-20699325D01*
X48470465Y-20558033D01*
X48844525Y-20482002D01*
X49039891Y-20471952D01*
X94202644Y-20345090D01*
X94475204Y-20371815D01*
G37*
X94475204Y-20371815D02*
X94707226Y-20441867D01*
X94921222Y-20555650D01*
X95109041Y-20708832D01*
X95263530Y-20895577D01*
X95378801Y-21108769D01*
X95450472Y-21340300D01*
X95478965Y-21611395D01*
X95352053Y-100170185D01*
X95325185Y-100444205D01*
X95255133Y-100676226D01*
X95141350Y-100890222D01*
X94988169Y-101078039D01*
X94801424Y-101232529D01*
X94588231Y-101347802D01*
X94356701Y-101419472D01*
X94085855Y-101447939D01*
X59851710Y-101352844D01*
X60266322Y-101270373D01*
X60744751Y-101072201D01*
X61175326Y-100784500D01*
X61541500Y-100418326D01*
X61829201Y-99987751D01*
X62027373Y-99509322D01*
X62128400Y-99001424D01*
X62128400Y-98483576D01*
X80746600Y-98483576D01*
X80746600Y-99001424D01*
X80847627Y-99509322D01*
X81045799Y-99987751D01*
X81333500Y-100418326D01*
X81699674Y-100784500D01*
X82130249Y-101072201D01*
X82608678Y-101270373D01*
X83116576Y-101371400D01*
X83634424Y-101371400D01*
X84142322Y-101270373D01*
X84620751Y-101072201D01*
X85051326Y-100784500D01*
X85417500Y-100418326D01*
X85705201Y-99987751D01*
X85903373Y-99509322D01*
X86004400Y-99001424D01*
X86004400Y-98483576D01*
X85903373Y-97975678D01*
X85705201Y-97497249D01*
X85417500Y-97066674D01*
X85051326Y-96700500D01*
X84620751Y-96412799D01*
X84142322Y-96214627D01*
X83634424Y-96113600D01*
X83116576Y-96113600D01*
X82608678Y-96214627D01*
X82130249Y-96412799D01*
X81699674Y-96700500D01*
X81333500Y-97066674D01*
X81045799Y-97497249D01*
X80847627Y-97975678D01*
X80746600Y-98483576D01*
X62128400Y-98483576D01*
X62027373Y-97975678D01*
X61829201Y-97497249D01*
X61541500Y-97066674D01*
X61175326Y-96700500D01*
X60744751Y-96412799D01*
X60266322Y-96214627D01*
X59758424Y-96113600D01*
X59240576Y-96113600D01*
X58732678Y-96214627D01*
X58254249Y-96412799D01*
X57823674Y-96700500D01*
X57457500Y-97066674D01*
X57169799Y-97497249D01*
X56971627Y-97975678D01*
X56870600Y-98483576D01*
X56870600Y-99001424D01*
X56971627Y-99509322D01*
X57169799Y-99987751D01*
X57457500Y-100418326D01*
X57823674Y-100784500D01*
X58254249Y-101072201D01*
X58732678Y-101270373D01*
X59137314Y-101350860D01*
X48420197Y-101321090D01*
X48145795Y-101294185D01*
X47913774Y-101224133D01*
X47699778Y-101110350D01*
X47511961Y-100957169D01*
X47357471Y-100770424D01*
X47242198Y-100557231D01*
X47170528Y-100325701D01*
X47142003Y-100054302D01*
X47142938Y-94267872D01*
X49073000Y-94267872D01*
X49073000Y-94708128D01*
X49158890Y-95139925D01*
X49327369Y-95546669D01*
X49571962Y-95912729D01*
X49883271Y-96224038D01*
X50249331Y-96468631D01*
X50656075Y-96637110D01*
X51087872Y-96723000D01*
X51528128Y-96723000D01*
X51959925Y-96637110D01*
X52366669Y-96468631D01*
X52732729Y-96224038D01*
X53044038Y-95912729D01*
X53288631Y-95546669D01*
X53457110Y-95139925D01*
X53543000Y-94708128D01*
X53543000Y-94267872D01*
X53457110Y-93836075D01*
X53288631Y-93429331D01*
X53044038Y-93063271D01*
X52732729Y-92751962D01*
X52366669Y-92507369D01*
X51959925Y-92338890D01*
X51528128Y-92253000D01*
X51087872Y-92253000D01*
X50656075Y-92338890D01*
X50249331Y-92507369D01*
X49883271Y-92751962D01*
X49571962Y-93063271D01*
X49327369Y-93429331D01*
X49158890Y-93836075D01*
X49073000Y-94267872D01*
X47142938Y-94267872D01*
X47144712Y-83289857D01*
X57340500Y-83289857D01*
X57340500Y-83715143D01*
X57423470Y-84132257D01*
X57586219Y-84525170D01*
X57822496Y-84878782D01*
X58123218Y-85179504D01*
X58476830Y-85415781D01*
X58869743Y-85578530D01*
X59286857Y-85661500D01*
X59712143Y-85661500D01*
X60129257Y-85578530D01*
X60522170Y-85415781D01*
X60875782Y-85179504D01*
X61176504Y-84878782D01*
X61412781Y-84525170D01*
X61575530Y-84132257D01*
X61658500Y-83715143D01*
X61658500Y-83289857D01*
X61575530Y-82872743D01*
X61412781Y-82479830D01*
X61176504Y-82126218D01*
X60875782Y-81825496D01*
X60522170Y-81589219D01*
X60129257Y-81426470D01*
X59712143Y-81343500D01*
X59286857Y-81343500D01*
X58869743Y-81426470D01*
X58476830Y-81589219D01*
X58123218Y-81825496D01*
X57822496Y-82126218D01*
X57586219Y-82479830D01*
X57423470Y-82872743D01*
X57340500Y-83289857D01*
X47144712Y-83289857D01*
X47145987Y-75400000D01*
X56574428Y-75400000D01*
X56574428Y-77000000D01*
X56586688Y-77124482D01*
X56622998Y-77244180D01*
X56681963Y-77354494D01*
X56761315Y-77451185D01*
X56858006Y-77530537D01*
X56968320Y-77589502D01*
X57088018Y-77625812D01*
X57212500Y-77638072D01*
X58812500Y-77638072D01*
X58936982Y-77625812D01*
X59056680Y-77589502D01*
X59166994Y-77530537D01*
X59263685Y-77451185D01*
X59343037Y-77354494D01*
X59402002Y-77244180D01*
X59438312Y-77124482D01*
X59450572Y-77000000D01*
X59450572Y-75400000D01*
X59438312Y-75275518D01*
X59402002Y-75155820D01*
X59343037Y-75045506D01*
X59263685Y-74948815D01*
X59166994Y-74869463D01*
X59056680Y-74810498D01*
X58936982Y-74774188D01*
X58812500Y-74761928D01*
X57212500Y-74761928D01*
X57088018Y-74774188D01*
X56968320Y-74810498D01*
X56858006Y-74869463D01*
X56761315Y-74948815D01*
X56681963Y-75045506D01*
X56622998Y-75155820D01*
X56586688Y-75275518D01*
X56574428Y-75400000D01*
X47145987Y-75400000D01*
X47149721Y-52304652D01*
X55346600Y-52304652D01*
X55346600Y-52597348D01*
X55403702Y-52884421D01*
X55515712Y-53154838D01*
X55678326Y-53398206D01*
X55885294Y-53605174D01*
X56128662Y-53767788D01*
X56399079Y-53879798D01*
X56686152Y-53936900D01*
X56748299Y-53936900D01*
X55877003Y-54808196D01*
X55847999Y-54831999D01*
X55792871Y-54899174D01*
X55753026Y-54947724D01*
X55713860Y-55020998D01*
X55682454Y-55079754D01*
X55638997Y-55223015D01*
X55628000Y-55334668D01*
X55628000Y-55334678D01*
X55624324Y-55372000D01*
X55628000Y-55409322D01*
X55628001Y-65610668D01*
X55624324Y-65648000D01*
X55628001Y-65685333D01*
X55634767Y-65754023D01*
X55638998Y-65796985D01*
X55682454Y-65940246D01*
X55753026Y-66072276D01*
X55788791Y-66115855D01*
X55848000Y-66188001D01*
X55876998Y-66211799D01*
X56873980Y-67208782D01*
X56413493Y-67931601D01*
X56287704Y-68179814D01*
X56187694Y-68537404D01*
X56159369Y-68907635D01*
X56203817Y-69276277D01*
X56319328Y-69629164D01*
X56501466Y-69952737D01*
X56527554Y-69983147D01*
X56399079Y-70008702D01*
X56128662Y-70120712D01*
X55885294Y-70283326D01*
X55678326Y-70490294D01*
X55515712Y-70733662D01*
X55403702Y-71004079D01*
X55346600Y-71291152D01*
X55346600Y-71583848D01*
X55403702Y-71870921D01*
X55515712Y-72141338D01*
X55678326Y-72384706D01*
X55885294Y-72591674D01*
X56128662Y-72754288D01*
X56399079Y-72866298D01*
X56686152Y-72923400D01*
X56978848Y-72923400D01*
X57265921Y-72866298D01*
X57536338Y-72754288D01*
X57779706Y-72591674D01*
X57986674Y-72384706D01*
X58149288Y-72141338D01*
X58261298Y-71870921D01*
X58318400Y-71583848D01*
X58318400Y-71291152D01*
X58296008Y-71178576D01*
X59283600Y-71178576D01*
X59283600Y-71696424D01*
X59384627Y-72204322D01*
X59582799Y-72682751D01*
X59870500Y-73113326D01*
X60236674Y-73479500D01*
X60667249Y-73767201D01*
X61145678Y-73965373D01*
X61653576Y-74066400D01*
X62171424Y-74066400D01*
X62679322Y-73965373D01*
X63157751Y-73767201D01*
X63588326Y-73479500D01*
X63672501Y-73395325D01*
X63672501Y-74782668D01*
X63668824Y-74820000D01*
X63683498Y-74968985D01*
X63726954Y-75112246D01*
X63797526Y-75244276D01*
X63868701Y-75331002D01*
X63892500Y-75360001D01*
X63921498Y-75383799D01*
X64413812Y-75876114D01*
X64377500Y-76058665D01*
X64377500Y-76341335D01*
X64432647Y-76618574D01*
X64540820Y-76879727D01*
X64697863Y-77114759D01*
X64897741Y-77314637D01*
X65132773Y-77471680D01*
X65393926Y-77579853D01*
X65671165Y-77635000D01*
X65953835Y-77635000D01*
X66231074Y-77579853D01*
X66492227Y-77471680D01*
X66727259Y-77314637D01*
X66927137Y-77114759D01*
X67084180Y-76879727D01*
X67192353Y-76618574D01*
X67247500Y-76341335D01*
X67247500Y-76058665D01*
X67192353Y-75781426D01*
X67084180Y-75520273D01*
X66927137Y-75285241D01*
X66727259Y-75085363D01*
X66492227Y-74928320D01*
X66231074Y-74820147D01*
X65953835Y-74765000D01*
X65671165Y-74765000D01*
X65488614Y-74801312D01*
X65192500Y-74505199D01*
X65192500Y-71291152D01*
X65506600Y-71291152D01*
X65506600Y-71583848D01*
X65563702Y-71870921D01*
X65675712Y-72141338D01*
X65838326Y-72384706D01*
X66045294Y-72591674D01*
X66288662Y-72754288D01*
X66559079Y-72866298D01*
X66846152Y-72923400D01*
X67138848Y-72923400D01*
X67425921Y-72866298D01*
X67696338Y-72754288D01*
X67939706Y-72591674D01*
X68146674Y-72384706D01*
X68309288Y-72141338D01*
X68421298Y-71870921D01*
X68478400Y-71583848D01*
X68478400Y-71291152D01*
X68421298Y-71004079D01*
X68309288Y-70733662D01*
X68146674Y-70490294D01*
X67939706Y-70283326D01*
X67696338Y-70120712D01*
X67425921Y-70008702D01*
X67138848Y-69951600D01*
X66846152Y-69951600D01*
X66559079Y-70008702D01*
X66288662Y-70120712D01*
X66045294Y-70283326D01*
X65838326Y-70490294D01*
X65675712Y-70733662D01*
X65563702Y-71004079D01*
X65506600Y-71291152D01*
X65192500Y-71291152D01*
X65192500Y-68653015D01*
X65355540Y-68579656D01*
X65657925Y-68364165D01*
X65912459Y-68093823D01*
X66109363Y-67779017D01*
X66241066Y-67431847D01*
X66287113Y-67157416D01*
X66339156Y-66393996D01*
X66330779Y-66115855D01*
X66247410Y-65754023D01*
X66095052Y-65415408D01*
X65879561Y-65113023D01*
X65609219Y-64858489D01*
X65294413Y-64661586D01*
X64947243Y-64529882D01*
X64581050Y-64468439D01*
X64209907Y-64479617D01*
X63848075Y-64562986D01*
X63509460Y-64715344D01*
X63207075Y-64930835D01*
X62952541Y-65201177D01*
X62755637Y-65515983D01*
X62623934Y-65863153D01*
X62577887Y-66137584D01*
X62525844Y-66901005D01*
X62534221Y-67179145D01*
X62617590Y-67540977D01*
X62769948Y-67879592D01*
X62985439Y-68181977D01*
X63255781Y-68436511D01*
X63570587Y-68633415D01*
X63672500Y-68672077D01*
X63672500Y-69479674D01*
X63588326Y-69395500D01*
X63157751Y-69107799D01*
X62679322Y-68909627D01*
X62171424Y-68808600D01*
X61653576Y-68808600D01*
X61145678Y-68909627D01*
X60667249Y-69107799D01*
X60236674Y-69395500D01*
X59870500Y-69761674D01*
X59582799Y-70192249D01*
X59384627Y-70670678D01*
X59283600Y-71178576D01*
X58296008Y-71178576D01*
X58261298Y-71004079D01*
X58157059Y-70752424D01*
X58463000Y-70715536D01*
X58815887Y-70600025D01*
X59139460Y-70417887D01*
X59421282Y-70176123D01*
X59593078Y-69957220D01*
X60901506Y-67903400D01*
X61027296Y-67655188D01*
X61127305Y-67297597D01*
X61155631Y-66927366D01*
X61111183Y-66558723D01*
X60995671Y-66205836D01*
X60813534Y-65882263D01*
X60571770Y-65600442D01*
X60279671Y-65371201D01*
X59948463Y-65203351D01*
X59590873Y-65103342D01*
X59220641Y-65075017D01*
X58851999Y-65119464D01*
X58499111Y-65234976D01*
X58175539Y-65417113D01*
X57893718Y-65658877D01*
X57721922Y-65877780D01*
X57710504Y-65895703D01*
X57148000Y-65333199D01*
X57148000Y-58581720D01*
X57212500Y-58588072D01*
X58812500Y-58588072D01*
X58936982Y-58575812D01*
X59056680Y-58539502D01*
X59166994Y-58480537D01*
X59263685Y-58401185D01*
X59343037Y-58304494D01*
X59402002Y-58194180D01*
X59438312Y-58074482D01*
X59450572Y-57950000D01*
X59450572Y-56350000D01*
X59438312Y-56225518D01*
X59402002Y-56105820D01*
X59343037Y-55995506D01*
X59263685Y-55898815D01*
X59166994Y-55819463D01*
X59056680Y-55760498D01*
X58936982Y-55724188D01*
X58812500Y-55711928D01*
X57212500Y-55711928D01*
X57148000Y-55718280D01*
X57148000Y-55686801D01*
X59168503Y-53666299D01*
X59197501Y-53642501D01*
X59292474Y-53526776D01*
X59363046Y-53394747D01*
X59403150Y-53262540D01*
X59582799Y-53696251D01*
X59870500Y-54126826D01*
X60236674Y-54493000D01*
X60667249Y-54780701D01*
X61145678Y-54978873D01*
X61653576Y-55079900D01*
X62171424Y-55079900D01*
X62679322Y-54978873D01*
X63157751Y-54780701D01*
X63588326Y-54493000D01*
X63672501Y-54408825D01*
X63672501Y-55732668D01*
X63668824Y-55770000D01*
X63683498Y-55918985D01*
X63726954Y-56062246D01*
X63797526Y-56194276D01*
X63868701Y-56281002D01*
X63892500Y-56310001D01*
X63921498Y-56333799D01*
X64413812Y-56826114D01*
X64377500Y-57008665D01*
X64377500Y-57291335D01*
X64432647Y-57568574D01*
X64540820Y-57829727D01*
X64697863Y-58064759D01*
X64897741Y-58264637D01*
X65132773Y-58421680D01*
X65393926Y-58529853D01*
X65671165Y-58585000D01*
X65953835Y-58585000D01*
X66231074Y-58529853D01*
X66492227Y-58421680D01*
X66727259Y-58264637D01*
X66927137Y-58064759D01*
X67084180Y-57829727D01*
X67192353Y-57568574D01*
X67247500Y-57291335D01*
X67247500Y-57008665D01*
X67192353Y-56731426D01*
X67084180Y-56470273D01*
X66927137Y-56235241D01*
X66727259Y-56035363D01*
X66492227Y-55878320D01*
X66231074Y-55770147D01*
X65953835Y-55715000D01*
X65671165Y-55715000D01*
X65488614Y-55751312D01*
X65192500Y-55455199D01*
X65192500Y-52304652D01*
X65506600Y-52304652D01*
X65506600Y-52597348D01*
X65563702Y-52884421D01*
X65675712Y-53154838D01*
X65838326Y-53398206D01*
X66045294Y-53605174D01*
X66288662Y-53767788D01*
X66559079Y-53879798D01*
X66846152Y-53936900D01*
X67138848Y-53936900D01*
X67425921Y-53879798D01*
X67696338Y-53767788D01*
X67939706Y-53605174D01*
X68146674Y-53398206D01*
X68309288Y-53154838D01*
X68421298Y-52884421D01*
X68478400Y-52597348D01*
X68478400Y-52304652D01*
X68421298Y-52017579D01*
X68309288Y-51747162D01*
X68146674Y-51503794D01*
X67939706Y-51296826D01*
X67696338Y-51134212D01*
X67425921Y-51022202D01*
X67138848Y-50965100D01*
X66846152Y-50965100D01*
X66559079Y-51022202D01*
X66288662Y-51134212D01*
X66045294Y-51296826D01*
X65838326Y-51503794D01*
X65675712Y-51747162D01*
X65563702Y-52017579D01*
X65506600Y-52304652D01*
X65192500Y-52304652D01*
X65192500Y-49666515D01*
X65355540Y-49593156D01*
X65657925Y-49377665D01*
X65912459Y-49107323D01*
X66109363Y-48792517D01*
X66241066Y-48445347D01*
X66287113Y-48170916D01*
X66339156Y-47407496D01*
X66330779Y-47129355D01*
X66247410Y-46767523D01*
X66095052Y-46428908D01*
X65879561Y-46126523D01*
X65609219Y-45871989D01*
X65294413Y-45675086D01*
X64947243Y-45543382D01*
X64581050Y-45481939D01*
X64209907Y-45493117D01*
X63848075Y-45576486D01*
X63509460Y-45728844D01*
X63207075Y-45944335D01*
X62952541Y-46214677D01*
X62755637Y-46529483D01*
X62623934Y-46876653D01*
X62577887Y-47151084D01*
X62525844Y-47914505D01*
X62534221Y-48192645D01*
X62617590Y-48554477D01*
X62769948Y-48893092D01*
X62985439Y-49195477D01*
X63255781Y-49450011D01*
X63570587Y-49646915D01*
X63672500Y-49685577D01*
X63672500Y-50493174D01*
X63588326Y-50409000D01*
X63157751Y-50121299D01*
X62679322Y-49923127D01*
X62171424Y-49822100D01*
X61653576Y-49822100D01*
X61145678Y-49923127D01*
X60667249Y-50121299D01*
X60236674Y-50409000D01*
X59870500Y-50775174D01*
X59582799Y-51205749D01*
X59417500Y-51604816D01*
X59417500Y-51192867D01*
X59421282Y-51189623D01*
X59593078Y-50970720D01*
X60901506Y-48916900D01*
X61027296Y-48668688D01*
X61127305Y-48311097D01*
X61155631Y-47940866D01*
X61111183Y-47572223D01*
X60995671Y-47219336D01*
X60813534Y-46895763D01*
X60571770Y-46613942D01*
X60279671Y-46384701D01*
X59948463Y-46216851D01*
X59590873Y-46116842D01*
X59417500Y-46103578D01*
X59417500Y-45162301D01*
X60766802Y-43813000D01*
X71698198Y-43813000D01*
X69650988Y-45860211D01*
X69621990Y-45884009D01*
X69598192Y-45913007D01*
X69598191Y-45913008D01*
X69527016Y-45999734D01*
X69456444Y-46131764D01*
X69412988Y-46275025D01*
X69398314Y-46424010D01*
X69401991Y-46461343D01*
X69401990Y-78494208D01*
X64131998Y-83764201D01*
X64103000Y-83787999D01*
X64079202Y-83816997D01*
X64079201Y-83816998D01*
X64008026Y-83903724D01*
X63937454Y-84035754D01*
X63908181Y-84132257D01*
X63893998Y-84179014D01*
X63886676Y-84253351D01*
X63879324Y-84328000D01*
X63883001Y-84365332D01*
X63883000Y-92037678D01*
X63879324Y-92075000D01*
X63883000Y-92112322D01*
X63883000Y-92112332D01*
X63893997Y-92223985D01*
X63937454Y-92367246D01*
X64008026Y-92499276D01*
X64047871Y-92547826D01*
X64102999Y-92615001D01*
X64132002Y-92638804D01*
X65222201Y-93729003D01*
X65245999Y-93758001D01*
X65274997Y-93781799D01*
X65361723Y-93852974D01*
X65463421Y-93907333D01*
X65493753Y-93923546D01*
X65637014Y-93967003D01*
X65748667Y-93978000D01*
X65748676Y-93978000D01*
X65785999Y-93981676D01*
X65823322Y-93978000D01*
X66311678Y-93978000D01*
X66286315Y-93998815D01*
X66206963Y-94095506D01*
X66147998Y-94205820D01*
X66111688Y-94325518D01*
X66099428Y-94450000D01*
X66099428Y-96050000D01*
X66111688Y-96174482D01*
X66147998Y-96294180D01*
X66206963Y-96404494D01*
X66286315Y-96501185D01*
X66383006Y-96580537D01*
X66493320Y-96639502D01*
X66613018Y-96675812D01*
X66737500Y-96688072D01*
X68337500Y-96688072D01*
X68461982Y-96675812D01*
X68581680Y-96639502D01*
X68691994Y-96580537D01*
X68788685Y-96501185D01*
X68868037Y-96404494D01*
X68927002Y-96294180D01*
X68963312Y-96174482D01*
X68975572Y-96050000D01*
X68975572Y-94450000D01*
X68963312Y-94325518D01*
X68933781Y-94228168D01*
X69008898Y-94213226D01*
X69197256Y-94135205D01*
X69366774Y-94021937D01*
X69510937Y-93877774D01*
X69624205Y-93708256D01*
X69702226Y-93519898D01*
X69742000Y-93319939D01*
X69742000Y-93116061D01*
X69702226Y-92916102D01*
X69624205Y-92727744D01*
X69510937Y-92558226D01*
X69366774Y-92414063D01*
X69197256Y-92300795D01*
X69008898Y-92222774D01*
X68808939Y-92183000D01*
X68605061Y-92183000D01*
X68405102Y-92222774D01*
X68216744Y-92300795D01*
X68047226Y-92414063D01*
X68003289Y-92458000D01*
X66100802Y-92458000D01*
X65403000Y-91760199D01*
X65403000Y-91634380D01*
X65410294Y-91641674D01*
X65653662Y-91804288D01*
X65924079Y-91916298D01*
X66211152Y-91973400D01*
X66503848Y-91973400D01*
X66790921Y-91916298D01*
X67061338Y-91804288D01*
X67304706Y-91641674D01*
X67511674Y-91434706D01*
X67674288Y-91191338D01*
X67786298Y-90920921D01*
X67843400Y-90633848D01*
X67843400Y-90341152D01*
X67821008Y-90228576D01*
X68808600Y-90228576D01*
X68808600Y-90746424D01*
X68909627Y-91254322D01*
X69107799Y-91732751D01*
X69395500Y-92163326D01*
X69761674Y-92529500D01*
X70192249Y-92817201D01*
X70670678Y-93015373D01*
X71178576Y-93116400D01*
X71696424Y-93116400D01*
X72204322Y-93015373D01*
X72682751Y-92817201D01*
X73113326Y-92529500D01*
X73197501Y-92445325D01*
X73197501Y-93832668D01*
X73193824Y-93870000D01*
X73208498Y-94018985D01*
X73251954Y-94162246D01*
X73322526Y-94294276D01*
X73393701Y-94381002D01*
X73417500Y-94410001D01*
X73446498Y-94433799D01*
X73938812Y-94926114D01*
X73902500Y-95108665D01*
X73902500Y-95391335D01*
X73957647Y-95668574D01*
X74065820Y-95929727D01*
X74222863Y-96164759D01*
X74422741Y-96364637D01*
X74657773Y-96521680D01*
X74918926Y-96629853D01*
X75196165Y-96685000D01*
X75478835Y-96685000D01*
X75756074Y-96629853D01*
X76017227Y-96521680D01*
X76252259Y-96364637D01*
X76452137Y-96164759D01*
X76609180Y-95929727D01*
X76717353Y-95668574D01*
X76772500Y-95391335D01*
X76772500Y-95108665D01*
X76717353Y-94831426D01*
X76694342Y-94775872D01*
X89205000Y-94775872D01*
X89205000Y-95216128D01*
X89290890Y-95647925D01*
X89459369Y-96054669D01*
X89703962Y-96420729D01*
X90015271Y-96732038D01*
X90381331Y-96976631D01*
X90788075Y-97145110D01*
X91219872Y-97231000D01*
X91660128Y-97231000D01*
X92091925Y-97145110D01*
X92498669Y-96976631D01*
X92864729Y-96732038D01*
X93176038Y-96420729D01*
X93420631Y-96054669D01*
X93589110Y-95647925D01*
X93675000Y-95216128D01*
X93675000Y-94775872D01*
X93589110Y-94344075D01*
X93420631Y-93937331D01*
X93176038Y-93571271D01*
X92864729Y-93259962D01*
X92498669Y-93015369D01*
X92091925Y-92846890D01*
X91660128Y-92761000D01*
X91219872Y-92761000D01*
X90788075Y-92846890D01*
X90381331Y-93015369D01*
X90015271Y-93259962D01*
X89703962Y-93571271D01*
X89459369Y-93937331D01*
X89290890Y-94344075D01*
X89205000Y-94775872D01*
X76694342Y-94775872D01*
X76609180Y-94570273D01*
X76452137Y-94335241D01*
X76252259Y-94135363D01*
X76017227Y-93978320D01*
X75756074Y-93870147D01*
X75478835Y-93815000D01*
X75196165Y-93815000D01*
X75013614Y-93851312D01*
X74717500Y-93555199D01*
X74717500Y-90341152D01*
X75031600Y-90341152D01*
X75031600Y-90633848D01*
X75088702Y-90920921D01*
X75200712Y-91191338D01*
X75363326Y-91434706D01*
X75570294Y-91641674D01*
X75813662Y-91804288D01*
X76084079Y-91916298D01*
X76371152Y-91973400D01*
X76663848Y-91973400D01*
X76950921Y-91916298D01*
X77221338Y-91804288D01*
X77464706Y-91641674D01*
X77671674Y-91434706D01*
X77834288Y-91191338D01*
X77946298Y-90920921D01*
X78003400Y-90633848D01*
X78003400Y-90341152D01*
X77946298Y-90054079D01*
X77834288Y-89783662D01*
X77671674Y-89540294D01*
X77464706Y-89333326D01*
X77221338Y-89170712D01*
X76950921Y-89058702D01*
X76663848Y-89001600D01*
X76371152Y-89001600D01*
X76084079Y-89058702D01*
X75813662Y-89170712D01*
X75570294Y-89333326D01*
X75363326Y-89540294D01*
X75200712Y-89783662D01*
X75088702Y-90054079D01*
X75031600Y-90341152D01*
X74717500Y-90341152D01*
X74717500Y-87703015D01*
X74880540Y-87629656D01*
X75182925Y-87414165D01*
X75437459Y-87143823D01*
X75634363Y-86829017D01*
X75766066Y-86481847D01*
X75812113Y-86207416D01*
X75864156Y-85443996D01*
X75855779Y-85165855D01*
X75772410Y-84804023D01*
X75620052Y-84465408D01*
X75404561Y-84163023D01*
X75134219Y-83908489D01*
X74819413Y-83711586D01*
X74472243Y-83579882D01*
X74106050Y-83518439D01*
X73734907Y-83529617D01*
X73373075Y-83612986D01*
X73034460Y-83765344D01*
X72732075Y-83980835D01*
X72477541Y-84251177D01*
X72280637Y-84565983D01*
X72148934Y-84913153D01*
X72102887Y-85187584D01*
X72050844Y-85951005D01*
X72059221Y-86229145D01*
X72142590Y-86590977D01*
X72294948Y-86929592D01*
X72510439Y-87231977D01*
X72780781Y-87486511D01*
X73095587Y-87683415D01*
X73197500Y-87722077D01*
X73197500Y-88529674D01*
X73113326Y-88445500D01*
X72682751Y-88157799D01*
X72204322Y-87959627D01*
X71696424Y-87858600D01*
X71178576Y-87858600D01*
X70670678Y-87959627D01*
X70192249Y-88157799D01*
X69761674Y-88445500D01*
X69395500Y-88811674D01*
X69107799Y-89242249D01*
X68909627Y-89720678D01*
X68808600Y-90228576D01*
X67821008Y-90228576D01*
X67786298Y-90054079D01*
X67682059Y-89802424D01*
X67988000Y-89765536D01*
X68340887Y-89650025D01*
X68664460Y-89467887D01*
X68946282Y-89226123D01*
X69118078Y-89007220D01*
X70426506Y-86953400D01*
X70552296Y-86705188D01*
X70652305Y-86347597D01*
X70680631Y-85977366D01*
X70636183Y-85608723D01*
X70631225Y-85593577D01*
X71123003Y-85101799D01*
X71152001Y-85078001D01*
X71246974Y-84962276D01*
X71317546Y-84830247D01*
X71361003Y-84686986D01*
X71372000Y-84575333D01*
X71372000Y-84575323D01*
X71375676Y-84538000D01*
X71372000Y-84500677D01*
X71372000Y-83289857D01*
X81216500Y-83289857D01*
X81216500Y-83715143D01*
X81299470Y-84132257D01*
X81462219Y-84525170D01*
X81698496Y-84878782D01*
X81999218Y-85179504D01*
X82352830Y-85415781D01*
X82745743Y-85578530D01*
X83162857Y-85661500D01*
X83588143Y-85661500D01*
X84005257Y-85578530D01*
X84398170Y-85415781D01*
X84751782Y-85179504D01*
X85052504Y-84878782D01*
X85288781Y-84525170D01*
X85451530Y-84132257D01*
X85534500Y-83715143D01*
X85534500Y-83289857D01*
X85451530Y-82872743D01*
X85288781Y-82479830D01*
X85052504Y-82126218D01*
X84751782Y-81825496D01*
X84398170Y-81589219D01*
X84005257Y-81426470D01*
X83588143Y-81343500D01*
X83162857Y-81343500D01*
X82745743Y-81426470D01*
X82352830Y-81589219D01*
X81999218Y-81825496D01*
X81698496Y-82126218D01*
X81462219Y-82479830D01*
X81299470Y-82872743D01*
X81216500Y-83289857D01*
X71372000Y-83289857D01*
X71372000Y-75400000D01*
X75624428Y-75400000D01*
X75624428Y-77000000D01*
X75636688Y-77124482D01*
X75672998Y-77244180D01*
X75731963Y-77354494D01*
X75811315Y-77451185D01*
X75908006Y-77530537D01*
X76018320Y-77589502D01*
X76138018Y-77625812D01*
X76262500Y-77638072D01*
X77862500Y-77638072D01*
X77986982Y-77625812D01*
X78106680Y-77589502D01*
X78216994Y-77530537D01*
X78313685Y-77451185D01*
X78393037Y-77354494D01*
X78452002Y-77244180D01*
X78488312Y-77124482D01*
X78500572Y-77000000D01*
X78500572Y-75400000D01*
X78488312Y-75275518D01*
X78452002Y-75155820D01*
X78393037Y-75045506D01*
X78313685Y-74948815D01*
X78216994Y-74869463D01*
X78106680Y-74810498D01*
X77986982Y-74774188D01*
X77862500Y-74761928D01*
X76262500Y-74761928D01*
X76138018Y-74774188D01*
X76018320Y-74810498D01*
X75908006Y-74869463D01*
X75811315Y-74948815D01*
X75731963Y-75045506D01*
X75672998Y-75155820D01*
X75636688Y-75275518D01*
X75624428Y-75400000D01*
X71372000Y-75400000D01*
X71372000Y-72704801D01*
X75212700Y-68864102D01*
X75209369Y-68907635D01*
X75253817Y-69276277D01*
X75369328Y-69629164D01*
X75551466Y-69952737D01*
X75577554Y-69983147D01*
X75449079Y-70008702D01*
X75178662Y-70120712D01*
X74935294Y-70283326D01*
X74728326Y-70490294D01*
X74565712Y-70733662D01*
X74453702Y-71004079D01*
X74396600Y-71291152D01*
X74396600Y-71583848D01*
X74453702Y-71870921D01*
X74565712Y-72141338D01*
X74728326Y-72384706D01*
X74935294Y-72591674D01*
X75178662Y-72754288D01*
X75449079Y-72866298D01*
X75736152Y-72923400D01*
X76028848Y-72923400D01*
X76315921Y-72866298D01*
X76586338Y-72754288D01*
X76829706Y-72591674D01*
X77036674Y-72384706D01*
X77199288Y-72141338D01*
X77311298Y-71870921D01*
X77345001Y-71701485D01*
X77345000Y-72829289D01*
X77301063Y-72873226D01*
X77187795Y-73042744D01*
X77109774Y-73231102D01*
X77070000Y-73431061D01*
X77070000Y-73634939D01*
X77109774Y-73834898D01*
X77187795Y-74023256D01*
X77301063Y-74192774D01*
X77445226Y-74336937D01*
X77614744Y-74450205D01*
X77803102Y-74528226D01*
X78003061Y-74568000D01*
X78206939Y-74568000D01*
X78406898Y-74528226D01*
X78595256Y-74450205D01*
X78764774Y-74336937D01*
X78908937Y-74192774D01*
X79022205Y-74023256D01*
X79100226Y-73834898D01*
X79140000Y-73634939D01*
X79140000Y-73431061D01*
X79115608Y-73308434D01*
X79286674Y-73479500D01*
X79717249Y-73767201D01*
X80195678Y-73965373D01*
X80703576Y-74066400D01*
X81221424Y-74066400D01*
X81729322Y-73965373D01*
X82207751Y-73767201D01*
X82638326Y-73479500D01*
X82722501Y-73395325D01*
X82722501Y-74782668D01*
X82718824Y-74820000D01*
X82733498Y-74968985D01*
X82776954Y-75112246D01*
X82847526Y-75244276D01*
X82918701Y-75331002D01*
X82942500Y-75360001D01*
X82971498Y-75383799D01*
X83463812Y-75876114D01*
X83427500Y-76058665D01*
X83427500Y-76341335D01*
X83482647Y-76618574D01*
X83590820Y-76879727D01*
X83747863Y-77114759D01*
X83947741Y-77314637D01*
X84182773Y-77471680D01*
X84443926Y-77579853D01*
X84721165Y-77635000D01*
X85003835Y-77635000D01*
X85281074Y-77579853D01*
X85542227Y-77471680D01*
X85777259Y-77314637D01*
X85977137Y-77114759D01*
X86134180Y-76879727D01*
X86242353Y-76618574D01*
X86297500Y-76341335D01*
X86297500Y-76058665D01*
X86242353Y-75781426D01*
X86134180Y-75520273D01*
X85977137Y-75285241D01*
X85777259Y-75085363D01*
X85542227Y-74928320D01*
X85281074Y-74820147D01*
X85003835Y-74765000D01*
X84721165Y-74765000D01*
X84538614Y-74801312D01*
X84242500Y-74505199D01*
X84242500Y-71291152D01*
X84556600Y-71291152D01*
X84556600Y-71583848D01*
X84613702Y-71870921D01*
X84725712Y-72141338D01*
X84888326Y-72384706D01*
X85095294Y-72591674D01*
X85338662Y-72754288D01*
X85609079Y-72866298D01*
X85896152Y-72923400D01*
X86188848Y-72923400D01*
X86475921Y-72866298D01*
X86746338Y-72754288D01*
X86989706Y-72591674D01*
X87196674Y-72384706D01*
X87359288Y-72141338D01*
X87471298Y-71870921D01*
X87528400Y-71583848D01*
X87528400Y-71291152D01*
X87471298Y-71004079D01*
X87359288Y-70733662D01*
X87196674Y-70490294D01*
X86989706Y-70283326D01*
X86746338Y-70120712D01*
X86475921Y-70008702D01*
X86188848Y-69951600D01*
X85896152Y-69951600D01*
X85609079Y-70008702D01*
X85338662Y-70120712D01*
X85095294Y-70283326D01*
X84888326Y-70490294D01*
X84725712Y-70733662D01*
X84613702Y-71004079D01*
X84556600Y-71291152D01*
X84242500Y-71291152D01*
X84242500Y-68653015D01*
X84405540Y-68579656D01*
X84707925Y-68364165D01*
X84962459Y-68093823D01*
X85159363Y-67779017D01*
X85291066Y-67431847D01*
X85337113Y-67157416D01*
X85389156Y-66393996D01*
X85380779Y-66115855D01*
X85297410Y-65754023D01*
X85145052Y-65415408D01*
X84929561Y-65113023D01*
X84659219Y-64858489D01*
X84344413Y-64661586D01*
X83997243Y-64529882D01*
X83631050Y-64468439D01*
X83259907Y-64479617D01*
X82898075Y-64562986D01*
X82559460Y-64715344D01*
X82257075Y-64930835D01*
X82002541Y-65201177D01*
X81805637Y-65515983D01*
X81673934Y-65863153D01*
X81627887Y-66137584D01*
X81575844Y-66901005D01*
X81584221Y-67179145D01*
X81667590Y-67540977D01*
X81819948Y-67879592D01*
X82035439Y-68181977D01*
X82305781Y-68436511D01*
X82620587Y-68633415D01*
X82722500Y-68672077D01*
X82722500Y-69479674D01*
X82638326Y-69395500D01*
X82207751Y-69107799D01*
X81729322Y-68909627D01*
X81221424Y-68808600D01*
X80983202Y-68808600D01*
X81283004Y-68508798D01*
X81312001Y-68485001D01*
X81406974Y-68369276D01*
X81477546Y-68237247D01*
X81521003Y-68093986D01*
X81532000Y-67982333D01*
X81532000Y-67982332D01*
X81535677Y-67945000D01*
X81532000Y-67907667D01*
X81532000Y-56552322D01*
X81535676Y-56514999D01*
X81532000Y-56477676D01*
X81532000Y-56477667D01*
X81521003Y-56366014D01*
X81477546Y-56222753D01*
X81406974Y-56090724D01*
X81312001Y-55974999D01*
X81283003Y-55951201D01*
X80339229Y-55007427D01*
X80703576Y-55079900D01*
X81221424Y-55079900D01*
X81729322Y-54978873D01*
X82207751Y-54780701D01*
X82638326Y-54493000D01*
X82722501Y-54408825D01*
X82722501Y-55732668D01*
X82718824Y-55770000D01*
X82733498Y-55918985D01*
X82776954Y-56062246D01*
X82847526Y-56194276D01*
X82918701Y-56281002D01*
X82942500Y-56310001D01*
X82971498Y-56333799D01*
X83463812Y-56826114D01*
X83427500Y-57008665D01*
X83427500Y-57291335D01*
X83482647Y-57568574D01*
X83590820Y-57829727D01*
X83747863Y-58064759D01*
X83947741Y-58264637D01*
X84182773Y-58421680D01*
X84443926Y-58529853D01*
X84721165Y-58585000D01*
X85003835Y-58585000D01*
X85281074Y-58529853D01*
X85542227Y-58421680D01*
X85777259Y-58264637D01*
X85977137Y-58064759D01*
X86134180Y-57829727D01*
X86242353Y-57568574D01*
X86297500Y-57291335D01*
X86297500Y-57008665D01*
X86242353Y-56731426D01*
X86134180Y-56470273D01*
X85977137Y-56235241D01*
X85777259Y-56035363D01*
X85542227Y-55878320D01*
X85281074Y-55770147D01*
X85003835Y-55715000D01*
X84721165Y-55715000D01*
X84538614Y-55751312D01*
X84242500Y-55455199D01*
X84242500Y-52304652D01*
X84556600Y-52304652D01*
X84556600Y-52597348D01*
X84613702Y-52884421D01*
X84725712Y-53154838D01*
X84888326Y-53398206D01*
X85095294Y-53605174D01*
X85338662Y-53767788D01*
X85609079Y-53879798D01*
X85896152Y-53936900D01*
X86188848Y-53936900D01*
X86475921Y-53879798D01*
X86746338Y-53767788D01*
X86989706Y-53605174D01*
X87196674Y-53398206D01*
X87359288Y-53154838D01*
X87471298Y-52884421D01*
X87528400Y-52597348D01*
X87528400Y-52304652D01*
X87471298Y-52017579D01*
X87359288Y-51747162D01*
X87196674Y-51503794D01*
X86989706Y-51296826D01*
X86746338Y-51134212D01*
X86475921Y-51022202D01*
X86188848Y-50965100D01*
X85896152Y-50965100D01*
X85609079Y-51022202D01*
X85338662Y-51134212D01*
X85095294Y-51296826D01*
X84888326Y-51503794D01*
X84725712Y-51747162D01*
X84613702Y-52017579D01*
X84556600Y-52304652D01*
X84242500Y-52304652D01*
X84242500Y-49666515D01*
X84405540Y-49593156D01*
X84707925Y-49377665D01*
X84962459Y-49107323D01*
X85159363Y-48792517D01*
X85291066Y-48445347D01*
X85337113Y-48170916D01*
X85389156Y-47407496D01*
X85380779Y-47129355D01*
X85297410Y-46767523D01*
X85145052Y-46428908D01*
X84929561Y-46126523D01*
X84659219Y-45871989D01*
X84344413Y-45675086D01*
X83997243Y-45543382D01*
X83631050Y-45481939D01*
X83259907Y-45493117D01*
X82898075Y-45576486D01*
X82559460Y-45728844D01*
X82257075Y-45944335D01*
X82002541Y-46214677D01*
X81805637Y-46529483D01*
X81673934Y-46876653D01*
X81627887Y-47151084D01*
X81575844Y-47914505D01*
X81584221Y-48192645D01*
X81667590Y-48554477D01*
X81819948Y-48893092D01*
X82035439Y-49195477D01*
X82305781Y-49450011D01*
X82620587Y-49646915D01*
X82722500Y-49685577D01*
X82722500Y-50493174D01*
X82638326Y-50409000D01*
X82207751Y-50121299D01*
X81729322Y-49923127D01*
X81221424Y-49822100D01*
X80703576Y-49822100D01*
X80639616Y-49834822D01*
X80649627Y-49822624D01*
X80720199Y-49690594D01*
X80723412Y-49680003D01*
X80763656Y-49547333D01*
X80774653Y-49435680D01*
X80774653Y-49435670D01*
X80778329Y-49398347D01*
X80774653Y-49361024D01*
X80774653Y-43752058D01*
X80818590Y-43708121D01*
X80931858Y-43538603D01*
X81009879Y-43350245D01*
X81049653Y-43150286D01*
X81049653Y-42946408D01*
X81009879Y-42746449D01*
X80931858Y-42558091D01*
X80818590Y-42388573D01*
X80674427Y-42244410D01*
X80504909Y-42131142D01*
X80316551Y-42053121D01*
X80116592Y-42013347D01*
X79912714Y-42013347D01*
X79712755Y-42053121D01*
X79524397Y-42131142D01*
X79354879Y-42244410D01*
X79210716Y-42388573D01*
X79097448Y-42558091D01*
X79058863Y-42651243D01*
X79022205Y-42562744D01*
X78908937Y-42393226D01*
X78764774Y-42249063D01*
X78595256Y-42135795D01*
X78406898Y-42057774D01*
X78206939Y-42018000D01*
X78003061Y-42018000D01*
X77803102Y-42057774D01*
X77614744Y-42135795D01*
X77533500Y-42190080D01*
X77452256Y-42135795D01*
X77263898Y-42057774D01*
X77063939Y-42018000D01*
X76860061Y-42018000D01*
X76660102Y-42057774D01*
X76471744Y-42135795D01*
X76390500Y-42190080D01*
X76309256Y-42135795D01*
X76120898Y-42057774D01*
X75920939Y-42018000D01*
X75717061Y-42018000D01*
X75517102Y-42057774D01*
X75328744Y-42135795D01*
X75159226Y-42249063D01*
X75115289Y-42293000D01*
X60489322Y-42293000D01*
X60451999Y-42289324D01*
X60414676Y-42293000D01*
X60414667Y-42293000D01*
X60303014Y-42303997D01*
X60159753Y-42347454D01*
X60027724Y-42418026D01*
X59911999Y-42512999D01*
X59888201Y-42541997D01*
X58146498Y-44283701D01*
X58117500Y-44307499D01*
X58093702Y-44336497D01*
X58093701Y-44336498D01*
X58022526Y-44423224D01*
X57951954Y-44555254D01*
X57923959Y-44647546D01*
X57910777Y-44691003D01*
X57908498Y-44698515D01*
X57893824Y-44847500D01*
X57897501Y-44884832D01*
X57897501Y-46669132D01*
X57893718Y-46672377D01*
X57721922Y-46891280D01*
X56413493Y-48945101D01*
X56287704Y-49193314D01*
X56187694Y-49550904D01*
X56159369Y-49921135D01*
X56203817Y-50289777D01*
X56319328Y-50642664D01*
X56501466Y-50966237D01*
X56527554Y-50996647D01*
X56399079Y-51022202D01*
X56128662Y-51134212D01*
X55885294Y-51296826D01*
X55678326Y-51503794D01*
X55515712Y-51747162D01*
X55403702Y-52017579D01*
X55346600Y-52304652D01*
X47149721Y-52304652D01*
X47152834Y-33053872D01*
X48565000Y-33053872D01*
X48565000Y-33494128D01*
X48650890Y-33925925D01*
X48819369Y-34332669D01*
X49063962Y-34698729D01*
X49375271Y-35010038D01*
X49741331Y-35254631D01*
X50148075Y-35423110D01*
X50579872Y-35509000D01*
X51020128Y-35509000D01*
X51451925Y-35423110D01*
X51858669Y-35254631D01*
X52224729Y-35010038D01*
X52536038Y-34698729D01*
X52780631Y-34332669D01*
X52949110Y-33925925D01*
X53035000Y-33494128D01*
X53035000Y-33053872D01*
X52949110Y-32622075D01*
X52861291Y-32410061D01*
X56496000Y-32410061D01*
X56496000Y-32613939D01*
X56535774Y-32813898D01*
X56613795Y-33002256D01*
X56727063Y-33171774D01*
X56771001Y-33215712D01*
X56771001Y-33617668D01*
X56767324Y-33655000D01*
X56771001Y-33692333D01*
X56776066Y-33743753D01*
X56781998Y-33803985D01*
X56825454Y-33947246D01*
X56896026Y-34079276D01*
X56964759Y-34163026D01*
X56991000Y-34195001D01*
X57019998Y-34218799D01*
X58110200Y-35309002D01*
X58133999Y-35338001D01*
X58162997Y-35361799D01*
X58249723Y-35432974D01*
X58381753Y-35503546D01*
X58525014Y-35547003D01*
X58636667Y-35558000D01*
X58636676Y-35558000D01*
X58673999Y-35561676D01*
X58711322Y-35558000D01*
X66487199Y-35558000D01*
X69269486Y-38340288D01*
X69313795Y-38447259D01*
X69427063Y-38616777D01*
X69571226Y-38760940D01*
X69740744Y-38874208D01*
X69929102Y-38952229D01*
X70129061Y-38992003D01*
X70332939Y-38992003D01*
X70532898Y-38952229D01*
X70721256Y-38874208D01*
X70890774Y-38760940D01*
X71034937Y-38616777D01*
X71148205Y-38447259D01*
X71226226Y-38258901D01*
X71266000Y-38058942D01*
X71266000Y-37855064D01*
X71226226Y-37655105D01*
X71148205Y-37466747D01*
X71141693Y-37457001D01*
X71148205Y-37447256D01*
X71226226Y-37258898D01*
X71266000Y-37058939D01*
X71266000Y-36855061D01*
X71226226Y-36655102D01*
X71148205Y-36466744D01*
X71034937Y-36297226D01*
X70890774Y-36153063D01*
X70721256Y-36039795D01*
X70532898Y-35961774D01*
X70332939Y-35922000D01*
X70270802Y-35922000D01*
X67873804Y-33525003D01*
X67850001Y-33495999D01*
X67734276Y-33401026D01*
X67602247Y-33330454D01*
X67458986Y-33286997D01*
X67347333Y-33276000D01*
X67347322Y-33276000D01*
X67310000Y-33272324D01*
X67272678Y-33276000D01*
X59369802Y-33276000D01*
X59300258Y-33206456D01*
X59334940Y-33171774D01*
X59448208Y-33002256D01*
X59526229Y-32813898D01*
X59566003Y-32613939D01*
X59566003Y-32410061D01*
X59526229Y-32210102D01*
X59448208Y-32021744D01*
X59334940Y-31852226D01*
X59190777Y-31708063D01*
X59021259Y-31594795D01*
X58832901Y-31516774D01*
X58632942Y-31477000D01*
X58429064Y-31477000D01*
X58229105Y-31516774D01*
X58040747Y-31594795D01*
X58031002Y-31601307D01*
X58021256Y-31594795D01*
X57832898Y-31516774D01*
X57632939Y-31477000D01*
X57429061Y-31477000D01*
X57229102Y-31516774D01*
X57040744Y-31594795D01*
X56871226Y-31708063D01*
X56727063Y-31852226D01*
X56613795Y-32021744D01*
X56535774Y-32210102D01*
X56496000Y-32410061D01*
X52861291Y-32410061D01*
X52780631Y-32215331D01*
X52536038Y-31849271D01*
X52224729Y-31537962D01*
X51858669Y-31293369D01*
X51451925Y-31124890D01*
X51020128Y-31039000D01*
X50579872Y-31039000D01*
X50148075Y-31124890D01*
X49741331Y-31293369D01*
X49375271Y-31537962D01*
X49063962Y-31849271D01*
X48819369Y-32215331D01*
X48650890Y-32622075D01*
X48565000Y-33053872D01*
X47152834Y-33053872D01*
X47153800Y-27076061D01*
X53321000Y-27076061D01*
X53321000Y-27279939D01*
X53360774Y-27479898D01*
X53438795Y-27668256D01*
X53552063Y-27837774D01*
X53696226Y-27981937D01*
X53865744Y-28095205D01*
X54054102Y-28173226D01*
X54254061Y-28213000D01*
X54457939Y-28213000D01*
X54657898Y-28173226D01*
X54846256Y-28095205D01*
X55015774Y-27981937D01*
X55059711Y-27938000D01*
X65090199Y-27938000D01*
X65854385Y-28702187D01*
X65757795Y-28846744D01*
X65679774Y-29035102D01*
X65640000Y-29235061D01*
X65640000Y-29438939D01*
X65679774Y-29638898D01*
X65757795Y-29827256D01*
X65871063Y-29996774D01*
X66015226Y-30140937D01*
X66184744Y-30254205D01*
X66373102Y-30332226D01*
X66573061Y-30372000D01*
X66776939Y-30372000D01*
X66976898Y-30332226D01*
X67165256Y-30254205D01*
X67334774Y-30140937D01*
X67478937Y-29996774D01*
X67592205Y-29827256D01*
X67670226Y-29638898D01*
X67710000Y-29438939D01*
X67710000Y-29235061D01*
X67670226Y-29035102D01*
X67592205Y-28846744D01*
X67478937Y-28677226D01*
X67435000Y-28633289D01*
X67435000Y-28485322D01*
X67438676Y-28447999D01*
X67435000Y-28410676D01*
X67435000Y-28410667D01*
X67424003Y-28299014D01*
X67380546Y-28155753D01*
X67309974Y-28023724D01*
X67215001Y-27907999D01*
X67186003Y-27884201D01*
X65968804Y-26667003D01*
X65945001Y-26637999D01*
X65829276Y-26543026D01*
X65697247Y-26472454D01*
X65553986Y-26428997D01*
X65442333Y-26418000D01*
X65442322Y-26418000D01*
X65405000Y-26414324D01*
X65367678Y-26418000D01*
X55059711Y-26418000D01*
X55015774Y-26374063D01*
X54846256Y-26260795D01*
X54657898Y-26182774D01*
X54457939Y-26143000D01*
X54254061Y-26143000D01*
X54054102Y-26182774D01*
X53865744Y-26260795D01*
X53696226Y-26374063D01*
X53552063Y-26518226D01*
X53438795Y-26687744D01*
X53360774Y-26876102D01*
X53321000Y-27076061D01*
X47153800Y-27076061D01*
X47154377Y-23508000D01*
X53474000Y-23508000D01*
X53474000Y-24758000D01*
X53525389Y-25025760D01*
X53628028Y-25278349D01*
X53777972Y-25506061D01*
X53969460Y-25700145D01*
X54195132Y-25853142D01*
X54446316Y-25959173D01*
X54517815Y-25973318D01*
X54732000Y-25850656D01*
X54732000Y-23508000D01*
X54986000Y-23508000D01*
X54986000Y-25850656D01*
X55200185Y-25973318D01*
X55271684Y-25959173D01*
X55522868Y-25853142D01*
X55748540Y-25700145D01*
X55940028Y-25506061D01*
X56089972Y-25278349D01*
X56192611Y-25025760D01*
X56244000Y-24758000D01*
X56244000Y-23508000D01*
X60774000Y-23508000D01*
X60774000Y-24758000D01*
X60825389Y-25025760D01*
X60928028Y-25278349D01*
X61077972Y-25506061D01*
X61269460Y-25700145D01*
X61495132Y-25853142D01*
X61746316Y-25959173D01*
X61817815Y-25973318D01*
X62032000Y-25850656D01*
X62032000Y-23508000D01*
X62286000Y-23508000D01*
X62286000Y-25850656D01*
X62500185Y-25973318D01*
X62571684Y-25959173D01*
X62612669Y-25941872D01*
X89713000Y-25941872D01*
X89713000Y-26382128D01*
X89798890Y-26813925D01*
X89967369Y-27220669D01*
X90211962Y-27586729D01*
X90523271Y-27898038D01*
X90889331Y-28142631D01*
X91296075Y-28311110D01*
X91727872Y-28397000D01*
X92168128Y-28397000D01*
X92599925Y-28311110D01*
X93006669Y-28142631D01*
X93372729Y-27898038D01*
X93684038Y-27586729D01*
X93928631Y-27220669D01*
X94097110Y-26813925D01*
X94183000Y-26382128D01*
X94183000Y-25941872D01*
X94097110Y-25510075D01*
X93928631Y-25103331D01*
X93684038Y-24737271D01*
X93372729Y-24425962D01*
X93006669Y-24181369D01*
X92599925Y-24012890D01*
X92168128Y-23927000D01*
X91727872Y-23927000D01*
X91296075Y-24012890D01*
X90889331Y-24181369D01*
X90523271Y-24425962D01*
X90211962Y-24737271D01*
X89967369Y-25103331D01*
X89798890Y-25510075D01*
X89713000Y-25941872D01*
X62612669Y-25941872D01*
X62822868Y-25853142D01*
X63048540Y-25700145D01*
X63240028Y-25506061D01*
X63389972Y-25278349D01*
X63492611Y-25025760D01*
X63544000Y-24758000D01*
X63544000Y-23508000D01*
X62286000Y-23508000D01*
X62032000Y-23508000D01*
X60774000Y-23508000D01*
X56244000Y-23508000D01*
X54986000Y-23508000D01*
X54732000Y-23508000D01*
X53474000Y-23508000D01*
X47154377Y-23508000D01*
X47154595Y-22164672D01*
X47186731Y-22004000D01*
X53474000Y-22004000D01*
X53474000Y-23254000D01*
X54732000Y-23254000D01*
X54732000Y-20911344D01*
X54986000Y-20911344D01*
X54986000Y-23254000D01*
X56244000Y-23254000D01*
X56244000Y-22004000D01*
X60774000Y-22004000D01*
X60774000Y-23254000D01*
X62032000Y-23254000D01*
X62032000Y-20911344D01*
X62286000Y-20911344D01*
X62286000Y-23254000D01*
X63544000Y-23254000D01*
X63544000Y-22004000D01*
X63492611Y-21736240D01*
X63389972Y-21483651D01*
X63240028Y-21255939D01*
X63048540Y-21061855D01*
X62822868Y-20908858D01*
X62571684Y-20802827D01*
X62500185Y-20788682D01*
X62286000Y-20911344D01*
X62032000Y-20911344D01*
X61817815Y-20788682D01*
X61746316Y-20802827D01*
X61495132Y-20908858D01*
X61269460Y-21061855D01*
X61077972Y-21255939D01*
X60928028Y-21483651D01*
X60825389Y-21736240D01*
X60774000Y-22004000D01*
X56244000Y-22004000D01*
X56192611Y-21736240D01*
X56089972Y-21483651D01*
X55940028Y-21255939D01*
X55748540Y-21061855D01*
X55522868Y-20908858D01*
X55271684Y-20802827D01*
X55200185Y-20788682D01*
X54986000Y-20911344D01*
X54732000Y-20911344D01*
X54517815Y-20788682D01*
X54446316Y-20802827D01*
X54195132Y-20908858D01*
X53969460Y-21061855D01*
X53777972Y-21255939D01*
X53628028Y-21483651D01*
X53525389Y-21736240D01*
X53474000Y-22004000D01*
X47186731Y-22004000D01*
X47226320Y-21806069D01*
X47366557Y-21467683D01*
X47569847Y-21162983D01*
X47828454Y-20903569D01*
X48132521Y-20699325D01*
X48470465Y-20558033D01*
X48844525Y-20482002D01*
X49039891Y-20471952D01*
X94202644Y-20345090D01*
X94475204Y-20371815D01*
G04 #@! TD*
M02*
