G04 #@! TF.GenerationSoftware,KiCad,Pcbnew,(5.1.6)-1*
G04 #@! TF.CreationDate,2020-06-16T18:15:49+02:00*
G04 #@! TF.ProjectId,Tutorial,5475746f-7269-4616-9c2e-6b696361645f,rev?*
G04 #@! TF.SameCoordinates,Original*
G04 #@! TF.FileFunction,Soldermask,Bot*
G04 #@! TF.FilePolarity,Negative*
%FSLAX46Y46*%
G04 Gerber Fmt 4.6, Leading zero omitted, Abs format (unit mm)*
G04 Created by KiCad (PCBNEW (5.1.6)-1) date 2020-06-16 18:15:49*
%MOMM*%
%LPD*%
G01*
G04 APERTURE LIST*
%ADD10C,3.300000*%
%ADD11R,1.500000X1.300000*%
%ADD12R,1.600000X0.650000*%
%ADD13R,0.650000X1.600000*%
%ADD14R,1.900000X1.200000*%
%ADD15O,1.600000X4.100000*%
%ADD16R,0.600000X1.500000*%
%ADD17R,2.450000X0.900000*%
%ADD18C,1.700000*%
%ADD19R,1.700000X1.700000*%
%ADD20R,1.300000X1.300000*%
G04 APERTURE END LIST*
D10*
G04 #@! TO.C,REF\u002A\u002A*
X50800000Y-33274000D03*
G04 #@! TD*
G04 #@! TO.C,REF\u002A\u002A*
X91948000Y-26162000D03*
G04 #@! TD*
G04 #@! TO.C,REF\u002A\u002A*
X91440000Y-94996000D03*
G04 #@! TD*
G04 #@! TO.C,REF\u002A\u002A*
X51308000Y-94488000D03*
G04 #@! TD*
D11*
G04 #@! TO.C,Y2*
X77175000Y-24306000D03*
X79375000Y-24306000D03*
X79375000Y-22606000D03*
X77175000Y-22606000D03*
G04 #@! TD*
D12*
G04 #@! TO.C,U1*
X72532000Y-39369500D03*
X72532000Y-38569500D03*
X72532000Y-37769500D03*
X72532000Y-36969500D03*
X72532000Y-36169500D03*
X72532000Y-35369500D03*
X72532000Y-34569500D03*
X72532000Y-33769500D03*
X72532000Y-32969500D03*
X72532000Y-32169500D03*
X72532000Y-31369500D03*
D13*
X74232000Y-29669500D03*
X75032000Y-29669500D03*
X75832000Y-29669500D03*
X76632000Y-29669500D03*
X77432000Y-29669500D03*
X78232000Y-29669500D03*
X79032000Y-29669500D03*
X79832000Y-29669500D03*
X80632000Y-29669500D03*
X81432000Y-29669500D03*
X82232000Y-29669500D03*
D12*
X83932000Y-31369500D03*
X83932000Y-32169500D03*
X83932000Y-32969500D03*
X83932000Y-33769500D03*
X83932000Y-34569500D03*
X83932000Y-35369500D03*
X83932000Y-36169500D03*
X83932000Y-36969500D03*
X83932000Y-37769500D03*
X83932000Y-38569500D03*
X83932000Y-39369500D03*
D13*
X82232000Y-41069500D03*
X81432000Y-41069500D03*
X80632000Y-41069500D03*
X79832000Y-41069500D03*
X79032000Y-41069500D03*
X78232000Y-41069500D03*
X77432000Y-41069500D03*
X76632000Y-41069500D03*
X75832000Y-41069500D03*
X75032000Y-41069500D03*
X74232000Y-41069500D03*
G04 #@! TD*
D14*
G04 #@! TO.C,SW1*
X55447000Y-36504000D03*
X61647000Y-40204000D03*
X55447000Y-40204000D03*
X61647000Y-36504000D03*
G04 #@! TD*
G04 #@! TO.C,R4*
G36*
G01*
X60933250Y-29271250D02*
X59970750Y-29271250D01*
G75*
G02*
X59702000Y-29002500I0J268750D01*
G01*
X59702000Y-28465000D01*
G75*
G02*
X59970750Y-28196250I268750J0D01*
G01*
X60933250Y-28196250D01*
G75*
G02*
X61202000Y-28465000I0J-268750D01*
G01*
X61202000Y-29002500D01*
G75*
G02*
X60933250Y-29271250I-268750J0D01*
G01*
G37*
G36*
G01*
X60933250Y-31146250D02*
X59970750Y-31146250D01*
G75*
G02*
X59702000Y-30877500I0J268750D01*
G01*
X59702000Y-30340000D01*
G75*
G02*
X59970750Y-30071250I268750J0D01*
G01*
X60933250Y-30071250D01*
G75*
G02*
X61202000Y-30340000I0J-268750D01*
G01*
X61202000Y-30877500D01*
G75*
G02*
X60933250Y-31146250I-268750J0D01*
G01*
G37*
G04 #@! TD*
G04 #@! TO.C,R3*
G36*
G01*
X56107250Y-29303000D02*
X55144750Y-29303000D01*
G75*
G02*
X54876000Y-29034250I0J268750D01*
G01*
X54876000Y-28496750D01*
G75*
G02*
X55144750Y-28228000I268750J0D01*
G01*
X56107250Y-28228000D01*
G75*
G02*
X56376000Y-28496750I0J-268750D01*
G01*
X56376000Y-29034250D01*
G75*
G02*
X56107250Y-29303000I-268750J0D01*
G01*
G37*
G36*
G01*
X56107250Y-31178000D02*
X55144750Y-31178000D01*
G75*
G02*
X54876000Y-30909250I0J268750D01*
G01*
X54876000Y-30371750D01*
G75*
G02*
X55144750Y-30103000I268750J0D01*
G01*
X56107250Y-30103000D01*
G75*
G02*
X56376000Y-30371750I0J-268750D01*
G01*
X56376000Y-30909250D01*
G75*
G02*
X56107250Y-31178000I-268750J0D01*
G01*
G37*
G04 #@! TD*
G04 #@! TO.C,R2*
G36*
G01*
X87275750Y-35784500D02*
X88238250Y-35784500D01*
G75*
G02*
X88507000Y-36053250I0J-268750D01*
G01*
X88507000Y-36590750D01*
G75*
G02*
X88238250Y-36859500I-268750J0D01*
G01*
X87275750Y-36859500D01*
G75*
G02*
X87007000Y-36590750I0J268750D01*
G01*
X87007000Y-36053250D01*
G75*
G02*
X87275750Y-35784500I268750J0D01*
G01*
G37*
G36*
G01*
X87275750Y-33909500D02*
X88238250Y-33909500D01*
G75*
G02*
X88507000Y-34178250I0J-268750D01*
G01*
X88507000Y-34715750D01*
G75*
G02*
X88238250Y-34984500I-268750J0D01*
G01*
X87275750Y-34984500D01*
G75*
G02*
X87007000Y-34715750I0J268750D01*
G01*
X87007000Y-34178250D01*
G75*
G02*
X87275750Y-33909500I268750J0D01*
G01*
G37*
G04 #@! TD*
G04 #@! TO.C,R1*
G36*
G01*
X68225750Y-28799500D02*
X69188250Y-28799500D01*
G75*
G02*
X69457000Y-29068250I0J-268750D01*
G01*
X69457000Y-29605750D01*
G75*
G02*
X69188250Y-29874500I-268750J0D01*
G01*
X68225750Y-29874500D01*
G75*
G02*
X67957000Y-29605750I0J268750D01*
G01*
X67957000Y-29068250D01*
G75*
G02*
X68225750Y-28799500I268750J0D01*
G01*
G37*
G36*
G01*
X68225750Y-26924500D02*
X69188250Y-26924500D01*
G75*
G02*
X69457000Y-27193250I0J-268750D01*
G01*
X69457000Y-27730750D01*
G75*
G02*
X69188250Y-27999500I-268750J0D01*
G01*
X68225750Y-27999500D01*
G75*
G02*
X67957000Y-27730750I0J268750D01*
G01*
X67957000Y-27193250D01*
G75*
G02*
X68225750Y-26924500I268750J0D01*
G01*
G37*
G04 #@! TD*
G04 #@! TO.C,K5*
G36*
G01*
X72640786Y-85898409D02*
X72680234Y-85319752D01*
G75*
G02*
X74065644Y-84111182I1296990J-88420D01*
G01*
X74065644Y-84111182D01*
G75*
G02*
X75274214Y-85496592I-88420J-1296990D01*
G01*
X75234766Y-86075248D01*
G75*
G02*
X73849356Y-87283818I-1296990J88420D01*
G01*
X73849356Y-87283818D01*
G75*
G02*
X72640786Y-85898408I88420J1296990D01*
G01*
G37*
G36*
G01*
X66481629Y-87217826D02*
X67690553Y-85320196D01*
G75*
G02*
X69485451Y-84922276I1096409J-698489D01*
G01*
X69485451Y-84922276D01*
G75*
G02*
X69883371Y-86717174I-698489J-1096409D01*
G01*
X68674447Y-88614804D01*
G75*
G02*
X66879549Y-89012724I-1096409J698489D01*
G01*
X66879549Y-89012724D01*
G75*
G02*
X66481629Y-87217826I698489J1096409D01*
G01*
G37*
G04 #@! TD*
G04 #@! TO.C,K4*
G36*
G01*
X82165786Y-66848409D02*
X82205234Y-66269752D01*
G75*
G02*
X83590644Y-65061182I1296990J-88420D01*
G01*
X83590644Y-65061182D01*
G75*
G02*
X84799214Y-66446592I-88420J-1296990D01*
G01*
X84759766Y-67025248D01*
G75*
G02*
X83374356Y-68233818I-1296990J88420D01*
G01*
X83374356Y-68233818D01*
G75*
G02*
X82165786Y-66848408I88420J1296990D01*
G01*
G37*
G36*
G01*
X76006629Y-68167826D02*
X77215553Y-66270196D01*
G75*
G02*
X79010451Y-65872276I1096409J-698489D01*
G01*
X79010451Y-65872276D01*
G75*
G02*
X79408371Y-67667174I-698489J-1096409D01*
G01*
X78199447Y-69564804D01*
G75*
G02*
X76404549Y-69962724I-1096409J698489D01*
G01*
X76404549Y-69962724D01*
G75*
G02*
X76006629Y-68167826I698489J1096409D01*
G01*
G37*
G04 #@! TD*
G04 #@! TO.C,K3*
G36*
G01*
X63115786Y-66848409D02*
X63155234Y-66269752D01*
G75*
G02*
X64540644Y-65061182I1296990J-88420D01*
G01*
X64540644Y-65061182D01*
G75*
G02*
X65749214Y-66446592I-88420J-1296990D01*
G01*
X65709766Y-67025248D01*
G75*
G02*
X64324356Y-68233818I-1296990J88420D01*
G01*
X64324356Y-68233818D01*
G75*
G02*
X63115786Y-66848408I88420J1296990D01*
G01*
G37*
G36*
G01*
X56956629Y-68167826D02*
X58165553Y-66270196D01*
G75*
G02*
X59960451Y-65872276I1096409J-698489D01*
G01*
X59960451Y-65872276D01*
G75*
G02*
X60358371Y-67667174I-698489J-1096409D01*
G01*
X59149447Y-69564804D01*
G75*
G02*
X57354549Y-69962724I-1096409J698489D01*
G01*
X57354549Y-69962724D01*
G75*
G02*
X56956629Y-68167826I698489J1096409D01*
G01*
G37*
G04 #@! TD*
G04 #@! TO.C,K2*
G36*
G01*
X82165786Y-47861909D02*
X82205234Y-47283252D01*
G75*
G02*
X83590644Y-46074682I1296990J-88420D01*
G01*
X83590644Y-46074682D01*
G75*
G02*
X84799214Y-47460092I-88420J-1296990D01*
G01*
X84759766Y-48038748D01*
G75*
G02*
X83374356Y-49247318I-1296990J88420D01*
G01*
X83374356Y-49247318D01*
G75*
G02*
X82165786Y-47861908I88420J1296990D01*
G01*
G37*
G36*
G01*
X76006629Y-49181326D02*
X77215553Y-47283696D01*
G75*
G02*
X79010451Y-46885776I1096409J-698489D01*
G01*
X79010451Y-46885776D01*
G75*
G02*
X79408371Y-48680674I-698489J-1096409D01*
G01*
X78199447Y-50578304D01*
G75*
G02*
X76404549Y-50976224I-1096409J698489D01*
G01*
X76404549Y-50976224D01*
G75*
G02*
X76006629Y-49181326I698489J1096409D01*
G01*
G37*
G04 #@! TD*
G04 #@! TO.C,K1*
G36*
G01*
X63115786Y-47861909D02*
X63155234Y-47283252D01*
G75*
G02*
X64540644Y-46074682I1296990J-88420D01*
G01*
X64540644Y-46074682D01*
G75*
G02*
X65749214Y-47460092I-88420J-1296990D01*
G01*
X65709766Y-48038748D01*
G75*
G02*
X64324356Y-49247318I-1296990J88420D01*
G01*
X64324356Y-49247318D01*
G75*
G02*
X63115786Y-47861908I88420J1296990D01*
G01*
G37*
G36*
G01*
X56956629Y-49181326D02*
X58165553Y-47283696D01*
G75*
G02*
X59960451Y-46885776I1096409J-698489D01*
G01*
X59960451Y-46885776D01*
G75*
G02*
X60358371Y-48680674I-698489J-1096409D01*
G01*
X59149447Y-50578304D01*
G75*
G02*
X57354549Y-50976224I-1096409J698489D01*
G01*
X57354549Y-50976224D01*
G75*
G02*
X56956629Y-49181326I698489J1096409D01*
G01*
G37*
G04 #@! TD*
D15*
G04 #@! TO.C,J1*
X62159000Y-23381000D03*
X54859000Y-23381000D03*
D16*
X60109000Y-25781000D03*
X59309000Y-25781000D03*
X58509000Y-25781000D03*
X57709000Y-25781000D03*
X56909000Y-25781000D03*
D17*
X55834000Y-20581000D03*
X61184000Y-20581000D03*
G04 #@! TD*
D18*
G04 #@! TO.C,D5*
X75337500Y-95250000D03*
D19*
X67537500Y-95250000D03*
D20*
X69862500Y-95250000D03*
X73012500Y-95250000D03*
G04 #@! TD*
D18*
G04 #@! TO.C,D4*
X84862500Y-76200000D03*
D19*
X77062500Y-76200000D03*
D20*
X79387500Y-76200000D03*
X82537500Y-76200000D03*
G04 #@! TD*
D18*
G04 #@! TO.C,D3*
X65812500Y-76200000D03*
D19*
X58012500Y-76200000D03*
D20*
X60337500Y-76200000D03*
X63487500Y-76200000D03*
G04 #@! TD*
D18*
G04 #@! TO.C,D2*
X84862500Y-57150000D03*
D19*
X77062500Y-57150000D03*
D20*
X79387500Y-57150000D03*
X82537500Y-57150000D03*
G04 #@! TD*
D18*
G04 #@! TO.C,D1*
X65812500Y-57150000D03*
D19*
X58012500Y-57150000D03*
D20*
X60337500Y-57150000D03*
X63487500Y-57150000D03*
G04 #@! TD*
G04 #@! TO.C,C8*
G36*
G01*
X69188250Y-35589500D02*
X68225750Y-35589500D01*
G75*
G02*
X67957000Y-35320750I0J268750D01*
G01*
X67957000Y-34783250D01*
G75*
G02*
X68225750Y-34514500I268750J0D01*
G01*
X69188250Y-34514500D01*
G75*
G02*
X69457000Y-34783250I0J-268750D01*
G01*
X69457000Y-35320750D01*
G75*
G02*
X69188250Y-35589500I-268750J0D01*
G01*
G37*
G36*
G01*
X69188250Y-37464500D02*
X68225750Y-37464500D01*
G75*
G02*
X67957000Y-37195750I0J268750D01*
G01*
X67957000Y-36658250D01*
G75*
G02*
X68225750Y-36389500I268750J0D01*
G01*
X69188250Y-36389500D01*
G75*
G02*
X69457000Y-36658250I0J-268750D01*
G01*
X69457000Y-37195750D01*
G75*
G02*
X69188250Y-37464500I-268750J0D01*
G01*
G37*
G04 #@! TD*
G04 #@! TO.C,C7*
G36*
G01*
X69188250Y-39399500D02*
X68225750Y-39399500D01*
G75*
G02*
X67957000Y-39130750I0J268750D01*
G01*
X67957000Y-38593250D01*
G75*
G02*
X68225750Y-38324500I268750J0D01*
G01*
X69188250Y-38324500D01*
G75*
G02*
X69457000Y-38593250I0J-268750D01*
G01*
X69457000Y-39130750D01*
G75*
G02*
X69188250Y-39399500I-268750J0D01*
G01*
G37*
G36*
G01*
X69188250Y-41274500D02*
X68225750Y-41274500D01*
G75*
G02*
X67957000Y-41005750I0J268750D01*
G01*
X67957000Y-40468250D01*
G75*
G02*
X68225750Y-40199500I268750J0D01*
G01*
X69188250Y-40199500D01*
G75*
G02*
X69457000Y-40468250I0J-268750D01*
G01*
X69457000Y-41005750D01*
G75*
G02*
X69188250Y-41274500I-268750J0D01*
G01*
G37*
G04 #@! TD*
G04 #@! TO.C,C6*
G36*
G01*
X87275750Y-31007000D02*
X88238250Y-31007000D01*
G75*
G02*
X88507000Y-31275750I0J-268750D01*
G01*
X88507000Y-31813250D01*
G75*
G02*
X88238250Y-32082000I-268750J0D01*
G01*
X87275750Y-32082000D01*
G75*
G02*
X87007000Y-31813250I0J268750D01*
G01*
X87007000Y-31275750D01*
G75*
G02*
X87275750Y-31007000I268750J0D01*
G01*
G37*
G36*
G01*
X87275750Y-29132000D02*
X88238250Y-29132000D01*
G75*
G02*
X88507000Y-29400750I0J-268750D01*
G01*
X88507000Y-29938250D01*
G75*
G02*
X88238250Y-30207000I-268750J0D01*
G01*
X87275750Y-30207000D01*
G75*
G02*
X87007000Y-29938250I0J268750D01*
G01*
X87007000Y-29400750D01*
G75*
G02*
X87275750Y-29132000I268750J0D01*
G01*
G37*
G04 #@! TD*
G04 #@! TO.C,C5*
G36*
G01*
X69188250Y-31809500D02*
X68225750Y-31809500D01*
G75*
G02*
X67957000Y-31540750I0J268750D01*
G01*
X67957000Y-31003250D01*
G75*
G02*
X68225750Y-30734500I268750J0D01*
G01*
X69188250Y-30734500D01*
G75*
G02*
X69457000Y-31003250I0J-268750D01*
G01*
X69457000Y-31540750D01*
G75*
G02*
X69188250Y-31809500I-268750J0D01*
G01*
G37*
G36*
G01*
X69188250Y-33684500D02*
X68225750Y-33684500D01*
G75*
G02*
X67957000Y-33415750I0J268750D01*
G01*
X67957000Y-32878250D01*
G75*
G02*
X68225750Y-32609500I268750J0D01*
G01*
X69188250Y-32609500D01*
G75*
G02*
X69457000Y-32878250I0J-268750D01*
G01*
X69457000Y-33415750D01*
G75*
G02*
X69188250Y-33684500I-268750J0D01*
G01*
G37*
G04 #@! TD*
G04 #@! TO.C,C4*
G36*
G01*
X87275750Y-40834500D02*
X88238250Y-40834500D01*
G75*
G02*
X88507000Y-41103250I0J-268750D01*
G01*
X88507000Y-41640750D01*
G75*
G02*
X88238250Y-41909500I-268750J0D01*
G01*
X87275750Y-41909500D01*
G75*
G02*
X87007000Y-41640750I0J268750D01*
G01*
X87007000Y-41103250D01*
G75*
G02*
X87275750Y-40834500I268750J0D01*
G01*
G37*
G36*
G01*
X87275750Y-38959500D02*
X88238250Y-38959500D01*
G75*
G02*
X88507000Y-39228250I0J-268750D01*
G01*
X88507000Y-39765750D01*
G75*
G02*
X88238250Y-40034500I-268750J0D01*
G01*
X87275750Y-40034500D01*
G75*
G02*
X87007000Y-39765750I0J268750D01*
G01*
X87007000Y-39228250D01*
G75*
G02*
X87275750Y-38959500I268750J0D01*
G01*
G37*
G04 #@! TD*
G04 #@! TO.C,C3*
G36*
G01*
X69188250Y-24000750D02*
X68225750Y-24000750D01*
G75*
G02*
X67957000Y-23732000I0J268750D01*
G01*
X67957000Y-23194500D01*
G75*
G02*
X68225750Y-22925750I268750J0D01*
G01*
X69188250Y-22925750D01*
G75*
G02*
X69457000Y-23194500I0J-268750D01*
G01*
X69457000Y-23732000D01*
G75*
G02*
X69188250Y-24000750I-268750J0D01*
G01*
G37*
G36*
G01*
X69188250Y-25875750D02*
X68225750Y-25875750D01*
G75*
G02*
X67957000Y-25607000I0J268750D01*
G01*
X67957000Y-25069500D01*
G75*
G02*
X68225750Y-24800750I268750J0D01*
G01*
X69188250Y-24800750D01*
G75*
G02*
X69457000Y-25069500I0J-268750D01*
G01*
X69457000Y-25607000D01*
G75*
G02*
X69188250Y-25875750I-268750J0D01*
G01*
G37*
G04 #@! TD*
G04 #@! TO.C,C2*
G36*
G01*
X73813750Y-23846500D02*
X74776250Y-23846500D01*
G75*
G02*
X75045000Y-24115250I0J-268750D01*
G01*
X75045000Y-24652750D01*
G75*
G02*
X74776250Y-24921500I-268750J0D01*
G01*
X73813750Y-24921500D01*
G75*
G02*
X73545000Y-24652750I0J268750D01*
G01*
X73545000Y-24115250D01*
G75*
G02*
X73813750Y-23846500I268750J0D01*
G01*
G37*
G36*
G01*
X73813750Y-21971500D02*
X74776250Y-21971500D01*
G75*
G02*
X75045000Y-22240250I0J-268750D01*
G01*
X75045000Y-22777750D01*
G75*
G02*
X74776250Y-23046500I-268750J0D01*
G01*
X73813750Y-23046500D01*
G75*
G02*
X73545000Y-22777750I0J268750D01*
G01*
X73545000Y-22240250D01*
G75*
G02*
X73813750Y-21971500I268750J0D01*
G01*
G37*
G04 #@! TD*
G04 #@! TO.C,C1*
G36*
G01*
X82904250Y-23016500D02*
X81941750Y-23016500D01*
G75*
G02*
X81673000Y-22747750I0J268750D01*
G01*
X81673000Y-22210250D01*
G75*
G02*
X81941750Y-21941500I268750J0D01*
G01*
X82904250Y-21941500D01*
G75*
G02*
X83173000Y-22210250I0J-268750D01*
G01*
X83173000Y-22747750D01*
G75*
G02*
X82904250Y-23016500I-268750J0D01*
G01*
G37*
G36*
G01*
X82904250Y-24891500D02*
X81941750Y-24891500D01*
G75*
G02*
X81673000Y-24622750I0J268750D01*
G01*
X81673000Y-24085250D01*
G75*
G02*
X81941750Y-23816500I268750J0D01*
G01*
X82904250Y-23816500D01*
G75*
G02*
X83173000Y-24085250I0J-268750D01*
G01*
X83173000Y-24622750D01*
G75*
G02*
X82904250Y-24891500I-268750J0D01*
G01*
G37*
G04 #@! TD*
M02*
