M48
; DRILL file {KiCad (5.1.6)-1} date 06/16/20 18:16:45
; FORMAT={-:-/ absolute / inch / decimal}
; #@! TF.CreationDate,2020-06-16T18:16:45+02:00
; #@! TF.GenerationSoftware,Kicad,Pcbnew,(5.1.6)-1
; #@! TF.FileFunction,Plated,1,2,PTH
FMAT,2
INCH
T1C0.0157
T2C0.0276
T3C0.0591
%
G90
G05
T1
X2.14Y-1.07
X2.265Y-1.28
X2.3044Y-1.28
X2.505Y-1.435
X2.625Y-1.155
X2.705Y-3.67
X2.765Y-1.455
X2.765Y-1.4944
X2.795Y-1.421
X2.985Y-1.695
X3.03Y-1.695
X3.075Y-1.695
X3.075Y-2.895
X3.1502Y-1.6948
T2
X3.034Y-3.0
X3.341Y-3.0
X2.659Y-3.75
X2.966Y-3.75
X2.284Y-3.0
X2.591Y-3.0
X2.284Y-2.25
X2.591Y-2.25
X3.034Y-2.25
X3.341Y-2.25
T2
G00X2.1598Y-0.8713
M15
G01X2.1598Y-0.9697
M16
G05
G00X2.4472Y-0.8713
M15
G01X2.4472Y-0.9697
M16
G05
T3
G00X3.0831Y-2.6366
M15
G01X3.0356Y-2.7113
M16
G05
G00X3.2875Y-2.6125
M15
G01X3.2859Y-2.6353
M16
G05
G00X3.0831Y-1.8891
M15
G01X3.0356Y-1.9638
M16
G05
G00X3.2875Y-1.865
M15
G01X3.2859Y-1.8878
M16
G05
G00X2.3331Y-1.8891
M15
G01X2.2856Y-1.9638
M16
G05
G00X2.5375Y-1.865
M15
G01X2.5359Y-1.8878
M16
G05
G00X2.3331Y-2.6366
M15
G01X2.2856Y-2.7113
M16
G05
G00X2.5375Y-2.6125
M15
G01X2.5359Y-2.6353
M16
G05
G00X2.7081Y-3.3866
M15
G01X2.6606Y-3.4613
M16
G05
G00X2.9125Y-3.3625
M15
G01X2.9109Y-3.3853
M16
G05
T0
M30
