G04 #@! TF.GenerationSoftware,KiCad,Pcbnew,(5.1.6)-1*
G04 #@! TF.CreationDate,2020-06-17T17:46:59+02:00*
G04 #@! TF.ProjectId,Tutorial,5475746f-7269-4616-9c2e-6b696361645f,rev?*
G04 #@! TF.SameCoordinates,Original*
G04 #@! TF.FileFunction,Legend,Bot*
G04 #@! TF.FilePolarity,Positive*
%FSLAX46Y46*%
G04 Gerber Fmt 4.6, Leading zero omitted, Abs format (unit mm)*
G04 Created by KiCad (PCBNEW (5.1.6)-1) date 2020-06-17 17:46:59*
%MOMM*%
%LPD*%
G01*
G04 APERTURE LIST*
%ADD10C,0.120000*%
%ADD11C,0.150000*%
%ADD12C,0.200000*%
%ADD13C,3.300000*%
%ADD14R,1.500000X1.300000*%
%ADD15R,1.600000X0.650000*%
%ADD16R,0.650000X1.600000*%
%ADD17R,1.900000X1.200000*%
%ADD18O,1.600000X4.100000*%
%ADD19R,0.600000X1.500000*%
%ADD20R,2.450000X0.900000*%
%ADD21C,1.700000*%
%ADD22R,1.700000X1.700000*%
%ADD23R,1.300000X1.300000*%
G04 APERTURE END LIST*
D10*
G04 #@! TO.C,F1*
X69306064Y-42016000D02*
X68101936Y-42016000D01*
X69306064Y-43836000D02*
X68101936Y-43836000D01*
G04 #@! TO.C,Y2*
X76275000Y-25106000D02*
X76275000Y-21806000D01*
X76275000Y-21806000D02*
X80275000Y-21806000D01*
D11*
G04 #@! TO.C,U1*
X73057000Y-39969500D02*
X71782000Y-39969500D01*
X83407000Y-40544500D02*
X82732000Y-40544500D01*
X83407000Y-30194500D02*
X82732000Y-30194500D01*
X73057000Y-30194500D02*
X73732000Y-30194500D01*
X73057000Y-40544500D02*
X73732000Y-40544500D01*
X73057000Y-30194500D02*
X73057000Y-30869500D01*
X83407000Y-30194500D02*
X83407000Y-30869500D01*
X83407000Y-40544500D02*
X83407000Y-39869500D01*
X73057000Y-40544500D02*
X73057000Y-39969500D01*
G04 #@! TO.C,SW1*
X59547000Y-38354000D02*
G75*
G03*
X59547000Y-38354000I-1000000J0D01*
G01*
X55947000Y-35754000D02*
X55947000Y-40954000D01*
X61147000Y-35754000D02*
X55947000Y-35754000D01*
X61147000Y-40954000D02*
X61147000Y-35754000D01*
X55947000Y-40954000D02*
X61147000Y-40954000D01*
D10*
G04 #@! TO.C,R4*
X61162000Y-29929828D02*
X61162000Y-29412672D01*
X59742000Y-29929828D02*
X59742000Y-29412672D01*
G04 #@! TO.C,R3*
X56336000Y-29961578D02*
X56336000Y-29444422D01*
X54916000Y-29961578D02*
X54916000Y-29444422D01*
G04 #@! TO.C,R2*
X87047000Y-35125922D02*
X87047000Y-35643078D01*
X88467000Y-35125922D02*
X88467000Y-35643078D01*
G04 #@! TO.C,R1*
X67997000Y-28140922D02*
X67997000Y-28658078D01*
X69417000Y-28140922D02*
X69417000Y-28658078D01*
D12*
G04 #@! TO.C,J1*
X62359000Y-26181000D02*
X62359000Y-19681000D01*
X54659000Y-26181000D02*
X54659000Y-19681000D01*
X54659000Y-26181000D02*
X62359000Y-26181000D01*
G04 #@! TO.C,D5*
X69162500Y-96450000D02*
X69162500Y-94050000D01*
X68987500Y-96450000D02*
X68987500Y-94050000D01*
X68812500Y-96450000D02*
X68812500Y-94050000D01*
X68412500Y-94050000D02*
X68412500Y-96450000D01*
X68637500Y-96450000D02*
X68637500Y-94050000D01*
X68512500Y-96450000D02*
X68512500Y-94050000D01*
X68437500Y-96450000D02*
X74237500Y-96450000D01*
X74237500Y-96450000D02*
X74237500Y-94050000D01*
X74237500Y-94050000D02*
X68437500Y-94050000D01*
G04 #@! TO.C,D4*
X78687500Y-77400000D02*
X78687500Y-75000000D01*
X78512500Y-77400000D02*
X78512500Y-75000000D01*
X78337500Y-77400000D02*
X78337500Y-75000000D01*
X77937500Y-75000000D02*
X77937500Y-77400000D01*
X78162500Y-77400000D02*
X78162500Y-75000000D01*
X78037500Y-77400000D02*
X78037500Y-75000000D01*
X77962500Y-77400000D02*
X83762500Y-77400000D01*
X83762500Y-77400000D02*
X83762500Y-75000000D01*
X83762500Y-75000000D02*
X77962500Y-75000000D01*
G04 #@! TO.C,D3*
X59637500Y-77400000D02*
X59637500Y-75000000D01*
X59462500Y-77400000D02*
X59462500Y-75000000D01*
X59287500Y-77400000D02*
X59287500Y-75000000D01*
X58887500Y-75000000D02*
X58887500Y-77400000D01*
X59112500Y-77400000D02*
X59112500Y-75000000D01*
X58987500Y-77400000D02*
X58987500Y-75000000D01*
X58912500Y-77400000D02*
X64712500Y-77400000D01*
X64712500Y-77400000D02*
X64712500Y-75000000D01*
X64712500Y-75000000D02*
X58912500Y-75000000D01*
G04 #@! TO.C,D2*
X78687500Y-58350000D02*
X78687500Y-55950000D01*
X78512500Y-58350000D02*
X78512500Y-55950000D01*
X78337500Y-58350000D02*
X78337500Y-55950000D01*
X77937500Y-55950000D02*
X77937500Y-58350000D01*
X78162500Y-58350000D02*
X78162500Y-55950000D01*
X78037500Y-58350000D02*
X78037500Y-55950000D01*
X77962500Y-58350000D02*
X83762500Y-58350000D01*
X83762500Y-58350000D02*
X83762500Y-55950000D01*
X83762500Y-55950000D02*
X77962500Y-55950000D01*
G04 #@! TO.C,D1*
X59637500Y-58350000D02*
X59637500Y-55950000D01*
X59462500Y-58350000D02*
X59462500Y-55950000D01*
X59287500Y-58350000D02*
X59287500Y-55950000D01*
X58887500Y-55950000D02*
X58887500Y-58350000D01*
X59112500Y-58350000D02*
X59112500Y-55950000D01*
X58987500Y-58350000D02*
X58987500Y-55950000D01*
X58912500Y-58350000D02*
X64712500Y-58350000D01*
X64712500Y-58350000D02*
X64712500Y-55950000D01*
X64712500Y-55950000D02*
X58912500Y-55950000D01*
D10*
G04 #@! TO.C,C8*
X69417000Y-36248078D02*
X69417000Y-35730922D01*
X67997000Y-36248078D02*
X67997000Y-35730922D01*
G04 #@! TO.C,C7*
X69417000Y-40058078D02*
X69417000Y-39540922D01*
X67997000Y-40058078D02*
X67997000Y-39540922D01*
G04 #@! TO.C,C6*
X87047000Y-30348422D02*
X87047000Y-30865578D01*
X88467000Y-30348422D02*
X88467000Y-30865578D01*
G04 #@! TO.C,C5*
X69417000Y-32468078D02*
X69417000Y-31950922D01*
X67997000Y-32468078D02*
X67997000Y-31950922D01*
G04 #@! TO.C,C4*
X87047000Y-40175922D02*
X87047000Y-40693078D01*
X88467000Y-40175922D02*
X88467000Y-40693078D01*
G04 #@! TO.C,C3*
X69417000Y-24659328D02*
X69417000Y-24142172D01*
X67997000Y-24659328D02*
X67997000Y-24142172D01*
G04 #@! TO.C,C2*
X73585000Y-23187922D02*
X73585000Y-23705078D01*
X75005000Y-23187922D02*
X75005000Y-23705078D01*
G04 #@! TO.C,C1*
X83133000Y-23675078D02*
X83133000Y-23157922D01*
X81713000Y-23675078D02*
X81713000Y-23157922D01*
G04 #@! TO.C,F1*
D11*
X69037333Y-41034571D02*
X69370666Y-41034571D01*
X69370666Y-41558380D02*
X69370666Y-40558380D01*
X68894476Y-40558380D01*
X67989714Y-41558380D02*
X68561142Y-41558380D01*
X68275428Y-41558380D02*
X68275428Y-40558380D01*
X68370666Y-40701238D01*
X68465904Y-40796476D01*
X68561142Y-40844095D01*
G04 #@! TO.C,Y2*
X78751190Y-25882190D02*
X78751190Y-26358380D01*
X79084523Y-25358380D02*
X78751190Y-25882190D01*
X78417857Y-25358380D01*
X78132142Y-25453619D02*
X78084523Y-25406000D01*
X77989285Y-25358380D01*
X77751190Y-25358380D01*
X77655952Y-25406000D01*
X77608333Y-25453619D01*
X77560714Y-25548857D01*
X77560714Y-25644095D01*
X77608333Y-25786952D01*
X78179761Y-26358380D01*
X77560714Y-26358380D01*
G04 #@! TO.C,U1*
X78993904Y-42271880D02*
X78993904Y-43081404D01*
X78946285Y-43176642D01*
X78898666Y-43224261D01*
X78803428Y-43271880D01*
X78612952Y-43271880D01*
X78517714Y-43224261D01*
X78470095Y-43176642D01*
X78422476Y-43081404D01*
X78422476Y-42271880D01*
X77422476Y-43271880D02*
X77993904Y-43271880D01*
X77708190Y-43271880D02*
X77708190Y-42271880D01*
X77803428Y-42414738D01*
X77898666Y-42509976D01*
X77993904Y-42557595D01*
G04 #@! TO.C,SW1*
X59880333Y-34694761D02*
X59737476Y-34742380D01*
X59499380Y-34742380D01*
X59404142Y-34694761D01*
X59356523Y-34647142D01*
X59308904Y-34551904D01*
X59308904Y-34456666D01*
X59356523Y-34361428D01*
X59404142Y-34313809D01*
X59499380Y-34266190D01*
X59689857Y-34218571D01*
X59785095Y-34170952D01*
X59832714Y-34123333D01*
X59880333Y-34028095D01*
X59880333Y-33932857D01*
X59832714Y-33837619D01*
X59785095Y-33790000D01*
X59689857Y-33742380D01*
X59451761Y-33742380D01*
X59308904Y-33790000D01*
X58975571Y-33742380D02*
X58737476Y-34742380D01*
X58547000Y-34028095D01*
X58356523Y-34742380D01*
X58118428Y-33742380D01*
X57213666Y-34742380D02*
X57785095Y-34742380D01*
X57499380Y-34742380D02*
X57499380Y-33742380D01*
X57594619Y-33885238D01*
X57689857Y-33980476D01*
X57785095Y-34028095D01*
G04 #@! TO.C,R4*
X62554380Y-29504583D02*
X62078190Y-29171250D01*
X62554380Y-28933154D02*
X61554380Y-28933154D01*
X61554380Y-29314107D01*
X61602000Y-29409345D01*
X61649619Y-29456964D01*
X61744857Y-29504583D01*
X61887714Y-29504583D01*
X61982952Y-29456964D01*
X62030571Y-29409345D01*
X62078190Y-29314107D01*
X62078190Y-28933154D01*
X61887714Y-30361726D02*
X62554380Y-30361726D01*
X61506761Y-30123630D02*
X62221047Y-29885535D01*
X62221047Y-30504583D01*
G04 #@! TO.C,R3*
X57728380Y-29536333D02*
X57252190Y-29203000D01*
X57728380Y-28964904D02*
X56728380Y-28964904D01*
X56728380Y-29345857D01*
X56776000Y-29441095D01*
X56823619Y-29488714D01*
X56918857Y-29536333D01*
X57061714Y-29536333D01*
X57156952Y-29488714D01*
X57204571Y-29441095D01*
X57252190Y-29345857D01*
X57252190Y-28964904D01*
X56728380Y-29869666D02*
X56728380Y-30488714D01*
X57109333Y-30155380D01*
X57109333Y-30298238D01*
X57156952Y-30393476D01*
X57204571Y-30441095D01*
X57299809Y-30488714D01*
X57537904Y-30488714D01*
X57633142Y-30441095D01*
X57680761Y-30393476D01*
X57728380Y-30298238D01*
X57728380Y-30012523D01*
X57680761Y-29917285D01*
X57633142Y-29869666D01*
G04 #@! TO.C,R2*
X86559380Y-35217833D02*
X86083190Y-34884500D01*
X86559380Y-34646404D02*
X85559380Y-34646404D01*
X85559380Y-35027357D01*
X85607000Y-35122595D01*
X85654619Y-35170214D01*
X85749857Y-35217833D01*
X85892714Y-35217833D01*
X85987952Y-35170214D01*
X86035571Y-35122595D01*
X86083190Y-35027357D01*
X86083190Y-34646404D01*
X85654619Y-35598785D02*
X85607000Y-35646404D01*
X85559380Y-35741642D01*
X85559380Y-35979738D01*
X85607000Y-36074976D01*
X85654619Y-36122595D01*
X85749857Y-36170214D01*
X85845095Y-36170214D01*
X85987952Y-36122595D01*
X86559380Y-35551166D01*
X86559380Y-36170214D01*
G04 #@! TO.C,R1*
X67509380Y-28232833D02*
X67033190Y-27899500D01*
X67509380Y-27661404D02*
X66509380Y-27661404D01*
X66509380Y-28042357D01*
X66557000Y-28137595D01*
X66604619Y-28185214D01*
X66699857Y-28232833D01*
X66842714Y-28232833D01*
X66937952Y-28185214D01*
X66985571Y-28137595D01*
X67033190Y-28042357D01*
X67033190Y-27661404D01*
X67509380Y-29185214D02*
X67509380Y-28613785D01*
X67509380Y-28899500D02*
X66509380Y-28899500D01*
X66652238Y-28804261D01*
X66747476Y-28709023D01*
X66795095Y-28613785D01*
G04 #@! TO.C,K5*
D12*
X72175595Y-95257880D02*
X72175595Y-94257880D01*
X71604166Y-95257880D02*
X72032738Y-94686452D01*
X71604166Y-94257880D02*
X72175595Y-94829309D01*
X70699404Y-94257880D02*
X71175595Y-94257880D01*
X71223214Y-94734071D01*
X71175595Y-94686452D01*
X71080357Y-94638833D01*
X70842261Y-94638833D01*
X70747023Y-94686452D01*
X70699404Y-94734071D01*
X70651785Y-94829309D01*
X70651785Y-95067404D01*
X70699404Y-95162642D01*
X70747023Y-95210261D01*
X70842261Y-95257880D01*
X71080357Y-95257880D01*
X71175595Y-95210261D01*
X71223214Y-95162642D01*
G04 #@! TO.C,K4*
X81700595Y-76207880D02*
X81700595Y-75207880D01*
X81129166Y-76207880D02*
X81557738Y-75636452D01*
X81129166Y-75207880D02*
X81700595Y-75779309D01*
X80272023Y-75541214D02*
X80272023Y-76207880D01*
X80510119Y-75160261D02*
X80748214Y-75874547D01*
X80129166Y-75874547D01*
G04 #@! TO.C,K3*
X62650595Y-76207880D02*
X62650595Y-75207880D01*
X62079166Y-76207880D02*
X62507738Y-75636452D01*
X62079166Y-75207880D02*
X62650595Y-75779309D01*
X61745833Y-75207880D02*
X61126785Y-75207880D01*
X61460119Y-75588833D01*
X61317261Y-75588833D01*
X61222023Y-75636452D01*
X61174404Y-75684071D01*
X61126785Y-75779309D01*
X61126785Y-76017404D01*
X61174404Y-76112642D01*
X61222023Y-76160261D01*
X61317261Y-76207880D01*
X61602976Y-76207880D01*
X61698214Y-76160261D01*
X61745833Y-76112642D01*
G04 #@! TO.C,K2*
X81700595Y-57221380D02*
X81700595Y-56221380D01*
X81129166Y-57221380D02*
X81557738Y-56649952D01*
X81129166Y-56221380D02*
X81700595Y-56792809D01*
X80748214Y-56316619D02*
X80700595Y-56269000D01*
X80605357Y-56221380D01*
X80367261Y-56221380D01*
X80272023Y-56269000D01*
X80224404Y-56316619D01*
X80176785Y-56411857D01*
X80176785Y-56507095D01*
X80224404Y-56649952D01*
X80795833Y-57221380D01*
X80176785Y-57221380D01*
G04 #@! TO.C,K1*
X62650595Y-57221380D02*
X62650595Y-56221380D01*
X62079166Y-57221380D02*
X62507738Y-56649952D01*
X62079166Y-56221380D02*
X62650595Y-56792809D01*
X61126785Y-57221380D02*
X61698214Y-57221380D01*
X61412500Y-57221380D02*
X61412500Y-56221380D01*
X61507738Y-56364238D01*
X61602976Y-56459476D01*
X61698214Y-56507095D01*
G04 #@! TO.C,D5*
D11*
X72027976Y-93686904D02*
X72027976Y-92886904D01*
X71837500Y-92886904D01*
X71723214Y-92925000D01*
X71647023Y-93001190D01*
X71608928Y-93077380D01*
X71570833Y-93229761D01*
X71570833Y-93344047D01*
X71608928Y-93496428D01*
X71647023Y-93572619D01*
X71723214Y-93648809D01*
X71837500Y-93686904D01*
X72027976Y-93686904D01*
X70847023Y-92886904D02*
X71227976Y-92886904D01*
X71266071Y-93267857D01*
X71227976Y-93229761D01*
X71151785Y-93191666D01*
X70961309Y-93191666D01*
X70885119Y-93229761D01*
X70847023Y-93267857D01*
X70808928Y-93344047D01*
X70808928Y-93534523D01*
X70847023Y-93610714D01*
X70885119Y-93648809D01*
X70961309Y-93686904D01*
X71151785Y-93686904D01*
X71227976Y-93648809D01*
X71266071Y-93610714D01*
G04 #@! TO.C,D4*
X81552976Y-74636904D02*
X81552976Y-73836904D01*
X81362500Y-73836904D01*
X81248214Y-73875000D01*
X81172023Y-73951190D01*
X81133928Y-74027380D01*
X81095833Y-74179761D01*
X81095833Y-74294047D01*
X81133928Y-74446428D01*
X81172023Y-74522619D01*
X81248214Y-74598809D01*
X81362500Y-74636904D01*
X81552976Y-74636904D01*
X80410119Y-74103571D02*
X80410119Y-74636904D01*
X80600595Y-73798809D02*
X80791071Y-74370238D01*
X80295833Y-74370238D01*
G04 #@! TO.C,D3*
X62502976Y-74636904D02*
X62502976Y-73836904D01*
X62312500Y-73836904D01*
X62198214Y-73875000D01*
X62122023Y-73951190D01*
X62083928Y-74027380D01*
X62045833Y-74179761D01*
X62045833Y-74294047D01*
X62083928Y-74446428D01*
X62122023Y-74522619D01*
X62198214Y-74598809D01*
X62312500Y-74636904D01*
X62502976Y-74636904D01*
X61779166Y-73836904D02*
X61283928Y-73836904D01*
X61550595Y-74141666D01*
X61436309Y-74141666D01*
X61360119Y-74179761D01*
X61322023Y-74217857D01*
X61283928Y-74294047D01*
X61283928Y-74484523D01*
X61322023Y-74560714D01*
X61360119Y-74598809D01*
X61436309Y-74636904D01*
X61664880Y-74636904D01*
X61741071Y-74598809D01*
X61779166Y-74560714D01*
G04 #@! TO.C,D2*
X81552976Y-55586904D02*
X81552976Y-54786904D01*
X81362500Y-54786904D01*
X81248214Y-54825000D01*
X81172023Y-54901190D01*
X81133928Y-54977380D01*
X81095833Y-55129761D01*
X81095833Y-55244047D01*
X81133928Y-55396428D01*
X81172023Y-55472619D01*
X81248214Y-55548809D01*
X81362500Y-55586904D01*
X81552976Y-55586904D01*
X80791071Y-54863095D02*
X80752976Y-54825000D01*
X80676785Y-54786904D01*
X80486309Y-54786904D01*
X80410119Y-54825000D01*
X80372023Y-54863095D01*
X80333928Y-54939285D01*
X80333928Y-55015476D01*
X80372023Y-55129761D01*
X80829166Y-55586904D01*
X80333928Y-55586904D01*
G04 #@! TO.C,D1*
X62502976Y-55586904D02*
X62502976Y-54786904D01*
X62312500Y-54786904D01*
X62198214Y-54825000D01*
X62122023Y-54901190D01*
X62083928Y-54977380D01*
X62045833Y-55129761D01*
X62045833Y-55244047D01*
X62083928Y-55396428D01*
X62122023Y-55472619D01*
X62198214Y-55548809D01*
X62312500Y-55586904D01*
X62502976Y-55586904D01*
X61283928Y-55586904D02*
X61741071Y-55586904D01*
X61512500Y-55586904D02*
X61512500Y-54786904D01*
X61588690Y-54901190D01*
X61664880Y-54977380D01*
X61741071Y-55015476D01*
G04 #@! TO.C,C8*
X70714142Y-35822833D02*
X70761761Y-35775214D01*
X70809380Y-35632357D01*
X70809380Y-35537119D01*
X70761761Y-35394261D01*
X70666523Y-35299023D01*
X70571285Y-35251404D01*
X70380809Y-35203785D01*
X70237952Y-35203785D01*
X70047476Y-35251404D01*
X69952238Y-35299023D01*
X69857000Y-35394261D01*
X69809380Y-35537119D01*
X69809380Y-35632357D01*
X69857000Y-35775214D01*
X69904619Y-35822833D01*
X70237952Y-36394261D02*
X70190333Y-36299023D01*
X70142714Y-36251404D01*
X70047476Y-36203785D01*
X69999857Y-36203785D01*
X69904619Y-36251404D01*
X69857000Y-36299023D01*
X69809380Y-36394261D01*
X69809380Y-36584738D01*
X69857000Y-36679976D01*
X69904619Y-36727595D01*
X69999857Y-36775214D01*
X70047476Y-36775214D01*
X70142714Y-36727595D01*
X70190333Y-36679976D01*
X70237952Y-36584738D01*
X70237952Y-36394261D01*
X70285571Y-36299023D01*
X70333190Y-36251404D01*
X70428428Y-36203785D01*
X70618904Y-36203785D01*
X70714142Y-36251404D01*
X70761761Y-36299023D01*
X70809380Y-36394261D01*
X70809380Y-36584738D01*
X70761761Y-36679976D01*
X70714142Y-36727595D01*
X70618904Y-36775214D01*
X70428428Y-36775214D01*
X70333190Y-36727595D01*
X70285571Y-36679976D01*
X70237952Y-36584738D01*
G04 #@! TO.C,C7*
X70714142Y-39632833D02*
X70761761Y-39585214D01*
X70809380Y-39442357D01*
X70809380Y-39347119D01*
X70761761Y-39204261D01*
X70666523Y-39109023D01*
X70571285Y-39061404D01*
X70380809Y-39013785D01*
X70237952Y-39013785D01*
X70047476Y-39061404D01*
X69952238Y-39109023D01*
X69857000Y-39204261D01*
X69809380Y-39347119D01*
X69809380Y-39442357D01*
X69857000Y-39585214D01*
X69904619Y-39632833D01*
X69809380Y-39966166D02*
X69809380Y-40632833D01*
X70809380Y-40204261D01*
G04 #@! TO.C,C6*
X86464142Y-30440333D02*
X86511761Y-30392714D01*
X86559380Y-30249857D01*
X86559380Y-30154619D01*
X86511761Y-30011761D01*
X86416523Y-29916523D01*
X86321285Y-29868904D01*
X86130809Y-29821285D01*
X85987952Y-29821285D01*
X85797476Y-29868904D01*
X85702238Y-29916523D01*
X85607000Y-30011761D01*
X85559380Y-30154619D01*
X85559380Y-30249857D01*
X85607000Y-30392714D01*
X85654619Y-30440333D01*
X85559380Y-31297476D02*
X85559380Y-31107000D01*
X85607000Y-31011761D01*
X85654619Y-30964142D01*
X85797476Y-30868904D01*
X85987952Y-30821285D01*
X86368904Y-30821285D01*
X86464142Y-30868904D01*
X86511761Y-30916523D01*
X86559380Y-31011761D01*
X86559380Y-31202238D01*
X86511761Y-31297476D01*
X86464142Y-31345095D01*
X86368904Y-31392714D01*
X86130809Y-31392714D01*
X86035571Y-31345095D01*
X85987952Y-31297476D01*
X85940333Y-31202238D01*
X85940333Y-31011761D01*
X85987952Y-30916523D01*
X86035571Y-30868904D01*
X86130809Y-30821285D01*
G04 #@! TO.C,C5*
X70714142Y-32042833D02*
X70761761Y-31995214D01*
X70809380Y-31852357D01*
X70809380Y-31757119D01*
X70761761Y-31614261D01*
X70666523Y-31519023D01*
X70571285Y-31471404D01*
X70380809Y-31423785D01*
X70237952Y-31423785D01*
X70047476Y-31471404D01*
X69952238Y-31519023D01*
X69857000Y-31614261D01*
X69809380Y-31757119D01*
X69809380Y-31852357D01*
X69857000Y-31995214D01*
X69904619Y-32042833D01*
X69809380Y-32947595D02*
X69809380Y-32471404D01*
X70285571Y-32423785D01*
X70237952Y-32471404D01*
X70190333Y-32566642D01*
X70190333Y-32804738D01*
X70237952Y-32899976D01*
X70285571Y-32947595D01*
X70380809Y-32995214D01*
X70618904Y-32995214D01*
X70714142Y-32947595D01*
X70761761Y-32899976D01*
X70809380Y-32804738D01*
X70809380Y-32566642D01*
X70761761Y-32471404D01*
X70714142Y-32423785D01*
G04 #@! TO.C,C4*
X86464142Y-40267833D02*
X86511761Y-40220214D01*
X86559380Y-40077357D01*
X86559380Y-39982119D01*
X86511761Y-39839261D01*
X86416523Y-39744023D01*
X86321285Y-39696404D01*
X86130809Y-39648785D01*
X85987952Y-39648785D01*
X85797476Y-39696404D01*
X85702238Y-39744023D01*
X85607000Y-39839261D01*
X85559380Y-39982119D01*
X85559380Y-40077357D01*
X85607000Y-40220214D01*
X85654619Y-40267833D01*
X85892714Y-41124976D02*
X86559380Y-41124976D01*
X85511761Y-40886880D02*
X86226047Y-40648785D01*
X86226047Y-41267833D01*
G04 #@! TO.C,C3*
X70714142Y-24234083D02*
X70761761Y-24186464D01*
X70809380Y-24043607D01*
X70809380Y-23948369D01*
X70761761Y-23805511D01*
X70666523Y-23710273D01*
X70571285Y-23662654D01*
X70380809Y-23615035D01*
X70237952Y-23615035D01*
X70047476Y-23662654D01*
X69952238Y-23710273D01*
X69857000Y-23805511D01*
X69809380Y-23948369D01*
X69809380Y-24043607D01*
X69857000Y-24186464D01*
X69904619Y-24234083D01*
X69809380Y-24567416D02*
X69809380Y-25186464D01*
X70190333Y-24853130D01*
X70190333Y-24995988D01*
X70237952Y-25091226D01*
X70285571Y-25138845D01*
X70380809Y-25186464D01*
X70618904Y-25186464D01*
X70714142Y-25138845D01*
X70761761Y-25091226D01*
X70809380Y-24995988D01*
X70809380Y-24710273D01*
X70761761Y-24615035D01*
X70714142Y-24567416D01*
G04 #@! TO.C,C2*
X73002142Y-23279833D02*
X73049761Y-23232214D01*
X73097380Y-23089357D01*
X73097380Y-22994119D01*
X73049761Y-22851261D01*
X72954523Y-22756023D01*
X72859285Y-22708404D01*
X72668809Y-22660785D01*
X72525952Y-22660785D01*
X72335476Y-22708404D01*
X72240238Y-22756023D01*
X72145000Y-22851261D01*
X72097380Y-22994119D01*
X72097380Y-23089357D01*
X72145000Y-23232214D01*
X72192619Y-23279833D01*
X72192619Y-23660785D02*
X72145000Y-23708404D01*
X72097380Y-23803642D01*
X72097380Y-24041738D01*
X72145000Y-24136976D01*
X72192619Y-24184595D01*
X72287857Y-24232214D01*
X72383095Y-24232214D01*
X72525952Y-24184595D01*
X73097380Y-23613166D01*
X73097380Y-24232214D01*
G04 #@! TO.C,C1*
X84430142Y-23249833D02*
X84477761Y-23202214D01*
X84525380Y-23059357D01*
X84525380Y-22964119D01*
X84477761Y-22821261D01*
X84382523Y-22726023D01*
X84287285Y-22678404D01*
X84096809Y-22630785D01*
X83953952Y-22630785D01*
X83763476Y-22678404D01*
X83668238Y-22726023D01*
X83573000Y-22821261D01*
X83525380Y-22964119D01*
X83525380Y-23059357D01*
X83573000Y-23202214D01*
X83620619Y-23249833D01*
X84525380Y-24202214D02*
X84525380Y-23630785D01*
X84525380Y-23916500D02*
X83525380Y-23916500D01*
X83668238Y-23821261D01*
X83763476Y-23726023D01*
X83811095Y-23630785D01*
G04 #@! TD*
%LPC*%
G04 #@! TO.C,F1*
G36*
G01*
X67979000Y-42271000D02*
X67979000Y-43581000D01*
G75*
G02*
X67709000Y-43851000I-270000J0D01*
G01*
X66899000Y-43851000D01*
G75*
G02*
X66629000Y-43581000I0J270000D01*
G01*
X66629000Y-42271000D01*
G75*
G02*
X66899000Y-42001000I270000J0D01*
G01*
X67709000Y-42001000D01*
G75*
G02*
X67979000Y-42271000I0J-270000D01*
G01*
G37*
G36*
G01*
X70779000Y-42271000D02*
X70779000Y-43581000D01*
G75*
G02*
X70509000Y-43851000I-270000J0D01*
G01*
X69699000Y-43851000D01*
G75*
G02*
X69429000Y-43581000I0J270000D01*
G01*
X69429000Y-42271000D01*
G75*
G02*
X69699000Y-42001000I270000J0D01*
G01*
X70509000Y-42001000D01*
G75*
G02*
X70779000Y-42271000I0J-270000D01*
G01*
G37*
G04 #@! TD*
D13*
G04 #@! TO.C,REF\u002A\u002A*
X50800000Y-33274000D03*
G04 #@! TD*
G04 #@! TO.C,REF\u002A\u002A*
X91948000Y-26162000D03*
G04 #@! TD*
G04 #@! TO.C,REF\u002A\u002A*
X91440000Y-94996000D03*
G04 #@! TD*
G04 #@! TO.C,REF\u002A\u002A*
X51308000Y-94488000D03*
G04 #@! TD*
D14*
G04 #@! TO.C,Y2*
X77175000Y-24306000D03*
X79375000Y-24306000D03*
X79375000Y-22606000D03*
X77175000Y-22606000D03*
G04 #@! TD*
D15*
G04 #@! TO.C,U1*
X72532000Y-39369500D03*
X72532000Y-38569500D03*
X72532000Y-37769500D03*
X72532000Y-36969500D03*
X72532000Y-36169500D03*
X72532000Y-35369500D03*
X72532000Y-34569500D03*
X72532000Y-33769500D03*
X72532000Y-32969500D03*
X72532000Y-32169500D03*
X72532000Y-31369500D03*
D16*
X74232000Y-29669500D03*
X75032000Y-29669500D03*
X75832000Y-29669500D03*
X76632000Y-29669500D03*
X77432000Y-29669500D03*
X78232000Y-29669500D03*
X79032000Y-29669500D03*
X79832000Y-29669500D03*
X80632000Y-29669500D03*
X81432000Y-29669500D03*
X82232000Y-29669500D03*
D15*
X83932000Y-31369500D03*
X83932000Y-32169500D03*
X83932000Y-32969500D03*
X83932000Y-33769500D03*
X83932000Y-34569500D03*
X83932000Y-35369500D03*
X83932000Y-36169500D03*
X83932000Y-36969500D03*
X83932000Y-37769500D03*
X83932000Y-38569500D03*
X83932000Y-39369500D03*
D16*
X82232000Y-41069500D03*
X81432000Y-41069500D03*
X80632000Y-41069500D03*
X79832000Y-41069500D03*
X79032000Y-41069500D03*
X78232000Y-41069500D03*
X77432000Y-41069500D03*
X76632000Y-41069500D03*
X75832000Y-41069500D03*
X75032000Y-41069500D03*
X74232000Y-41069500D03*
G04 #@! TD*
D17*
G04 #@! TO.C,SW1*
X55447000Y-36504000D03*
X61647000Y-40204000D03*
X55447000Y-40204000D03*
X61647000Y-36504000D03*
G04 #@! TD*
G04 #@! TO.C,R4*
G36*
G01*
X60933250Y-29271250D02*
X59970750Y-29271250D01*
G75*
G02*
X59702000Y-29002500I0J268750D01*
G01*
X59702000Y-28465000D01*
G75*
G02*
X59970750Y-28196250I268750J0D01*
G01*
X60933250Y-28196250D01*
G75*
G02*
X61202000Y-28465000I0J-268750D01*
G01*
X61202000Y-29002500D01*
G75*
G02*
X60933250Y-29271250I-268750J0D01*
G01*
G37*
G36*
G01*
X60933250Y-31146250D02*
X59970750Y-31146250D01*
G75*
G02*
X59702000Y-30877500I0J268750D01*
G01*
X59702000Y-30340000D01*
G75*
G02*
X59970750Y-30071250I268750J0D01*
G01*
X60933250Y-30071250D01*
G75*
G02*
X61202000Y-30340000I0J-268750D01*
G01*
X61202000Y-30877500D01*
G75*
G02*
X60933250Y-31146250I-268750J0D01*
G01*
G37*
G04 #@! TD*
G04 #@! TO.C,R3*
G36*
G01*
X56107250Y-29303000D02*
X55144750Y-29303000D01*
G75*
G02*
X54876000Y-29034250I0J268750D01*
G01*
X54876000Y-28496750D01*
G75*
G02*
X55144750Y-28228000I268750J0D01*
G01*
X56107250Y-28228000D01*
G75*
G02*
X56376000Y-28496750I0J-268750D01*
G01*
X56376000Y-29034250D01*
G75*
G02*
X56107250Y-29303000I-268750J0D01*
G01*
G37*
G36*
G01*
X56107250Y-31178000D02*
X55144750Y-31178000D01*
G75*
G02*
X54876000Y-30909250I0J268750D01*
G01*
X54876000Y-30371750D01*
G75*
G02*
X55144750Y-30103000I268750J0D01*
G01*
X56107250Y-30103000D01*
G75*
G02*
X56376000Y-30371750I0J-268750D01*
G01*
X56376000Y-30909250D01*
G75*
G02*
X56107250Y-31178000I-268750J0D01*
G01*
G37*
G04 #@! TD*
G04 #@! TO.C,R2*
G36*
G01*
X87275750Y-35784500D02*
X88238250Y-35784500D01*
G75*
G02*
X88507000Y-36053250I0J-268750D01*
G01*
X88507000Y-36590750D01*
G75*
G02*
X88238250Y-36859500I-268750J0D01*
G01*
X87275750Y-36859500D01*
G75*
G02*
X87007000Y-36590750I0J268750D01*
G01*
X87007000Y-36053250D01*
G75*
G02*
X87275750Y-35784500I268750J0D01*
G01*
G37*
G36*
G01*
X87275750Y-33909500D02*
X88238250Y-33909500D01*
G75*
G02*
X88507000Y-34178250I0J-268750D01*
G01*
X88507000Y-34715750D01*
G75*
G02*
X88238250Y-34984500I-268750J0D01*
G01*
X87275750Y-34984500D01*
G75*
G02*
X87007000Y-34715750I0J268750D01*
G01*
X87007000Y-34178250D01*
G75*
G02*
X87275750Y-33909500I268750J0D01*
G01*
G37*
G04 #@! TD*
G04 #@! TO.C,R1*
G36*
G01*
X68225750Y-28799500D02*
X69188250Y-28799500D01*
G75*
G02*
X69457000Y-29068250I0J-268750D01*
G01*
X69457000Y-29605750D01*
G75*
G02*
X69188250Y-29874500I-268750J0D01*
G01*
X68225750Y-29874500D01*
G75*
G02*
X67957000Y-29605750I0J268750D01*
G01*
X67957000Y-29068250D01*
G75*
G02*
X68225750Y-28799500I268750J0D01*
G01*
G37*
G36*
G01*
X68225750Y-26924500D02*
X69188250Y-26924500D01*
G75*
G02*
X69457000Y-27193250I0J-268750D01*
G01*
X69457000Y-27730750D01*
G75*
G02*
X69188250Y-27999500I-268750J0D01*
G01*
X68225750Y-27999500D01*
G75*
G02*
X67957000Y-27730750I0J268750D01*
G01*
X67957000Y-27193250D01*
G75*
G02*
X68225750Y-26924500I268750J0D01*
G01*
G37*
G04 #@! TD*
G04 #@! TO.C,K5*
G36*
G01*
X72640786Y-85898409D02*
X72680234Y-85319752D01*
G75*
G02*
X74065644Y-84111182I1296990J-88420D01*
G01*
X74065644Y-84111182D01*
G75*
G02*
X75274214Y-85496592I-88420J-1296990D01*
G01*
X75234766Y-86075248D01*
G75*
G02*
X73849356Y-87283818I-1296990J88420D01*
G01*
X73849356Y-87283818D01*
G75*
G02*
X72640786Y-85898408I88420J1296990D01*
G01*
G37*
G36*
G01*
X66481629Y-87217826D02*
X67690553Y-85320196D01*
G75*
G02*
X69485451Y-84922276I1096409J-698489D01*
G01*
X69485451Y-84922276D01*
G75*
G02*
X69883371Y-86717174I-698489J-1096409D01*
G01*
X68674447Y-88614804D01*
G75*
G02*
X66879549Y-89012724I-1096409J698489D01*
G01*
X66879549Y-89012724D01*
G75*
G02*
X66481629Y-87217826I698489J1096409D01*
G01*
G37*
G04 #@! TD*
G04 #@! TO.C,K4*
G36*
G01*
X82165786Y-66848409D02*
X82205234Y-66269752D01*
G75*
G02*
X83590644Y-65061182I1296990J-88420D01*
G01*
X83590644Y-65061182D01*
G75*
G02*
X84799214Y-66446592I-88420J-1296990D01*
G01*
X84759766Y-67025248D01*
G75*
G02*
X83374356Y-68233818I-1296990J88420D01*
G01*
X83374356Y-68233818D01*
G75*
G02*
X82165786Y-66848408I88420J1296990D01*
G01*
G37*
G36*
G01*
X76006629Y-68167826D02*
X77215553Y-66270196D01*
G75*
G02*
X79010451Y-65872276I1096409J-698489D01*
G01*
X79010451Y-65872276D01*
G75*
G02*
X79408371Y-67667174I-698489J-1096409D01*
G01*
X78199447Y-69564804D01*
G75*
G02*
X76404549Y-69962724I-1096409J698489D01*
G01*
X76404549Y-69962724D01*
G75*
G02*
X76006629Y-68167826I698489J1096409D01*
G01*
G37*
G04 #@! TD*
G04 #@! TO.C,K3*
G36*
G01*
X63115786Y-66848409D02*
X63155234Y-66269752D01*
G75*
G02*
X64540644Y-65061182I1296990J-88420D01*
G01*
X64540644Y-65061182D01*
G75*
G02*
X65749214Y-66446592I-88420J-1296990D01*
G01*
X65709766Y-67025248D01*
G75*
G02*
X64324356Y-68233818I-1296990J88420D01*
G01*
X64324356Y-68233818D01*
G75*
G02*
X63115786Y-66848408I88420J1296990D01*
G01*
G37*
G36*
G01*
X56956629Y-68167826D02*
X58165553Y-66270196D01*
G75*
G02*
X59960451Y-65872276I1096409J-698489D01*
G01*
X59960451Y-65872276D01*
G75*
G02*
X60358371Y-67667174I-698489J-1096409D01*
G01*
X59149447Y-69564804D01*
G75*
G02*
X57354549Y-69962724I-1096409J698489D01*
G01*
X57354549Y-69962724D01*
G75*
G02*
X56956629Y-68167826I698489J1096409D01*
G01*
G37*
G04 #@! TD*
G04 #@! TO.C,K2*
G36*
G01*
X82165786Y-47861909D02*
X82205234Y-47283252D01*
G75*
G02*
X83590644Y-46074682I1296990J-88420D01*
G01*
X83590644Y-46074682D01*
G75*
G02*
X84799214Y-47460092I-88420J-1296990D01*
G01*
X84759766Y-48038748D01*
G75*
G02*
X83374356Y-49247318I-1296990J88420D01*
G01*
X83374356Y-49247318D01*
G75*
G02*
X82165786Y-47861908I88420J1296990D01*
G01*
G37*
G36*
G01*
X76006629Y-49181326D02*
X77215553Y-47283696D01*
G75*
G02*
X79010451Y-46885776I1096409J-698489D01*
G01*
X79010451Y-46885776D01*
G75*
G02*
X79408371Y-48680674I-698489J-1096409D01*
G01*
X78199447Y-50578304D01*
G75*
G02*
X76404549Y-50976224I-1096409J698489D01*
G01*
X76404549Y-50976224D01*
G75*
G02*
X76006629Y-49181326I698489J1096409D01*
G01*
G37*
G04 #@! TD*
G04 #@! TO.C,K1*
G36*
G01*
X63115786Y-47861909D02*
X63155234Y-47283252D01*
G75*
G02*
X64540644Y-46074682I1296990J-88420D01*
G01*
X64540644Y-46074682D01*
G75*
G02*
X65749214Y-47460092I-88420J-1296990D01*
G01*
X65709766Y-48038748D01*
G75*
G02*
X64324356Y-49247318I-1296990J88420D01*
G01*
X64324356Y-49247318D01*
G75*
G02*
X63115786Y-47861908I88420J1296990D01*
G01*
G37*
G36*
G01*
X56956629Y-49181326D02*
X58165553Y-47283696D01*
G75*
G02*
X59960451Y-46885776I1096409J-698489D01*
G01*
X59960451Y-46885776D01*
G75*
G02*
X60358371Y-48680674I-698489J-1096409D01*
G01*
X59149447Y-50578304D01*
G75*
G02*
X57354549Y-50976224I-1096409J698489D01*
G01*
X57354549Y-50976224D01*
G75*
G02*
X56956629Y-49181326I698489J1096409D01*
G01*
G37*
G04 #@! TD*
D18*
G04 #@! TO.C,J1*
X62159000Y-23381000D03*
X54859000Y-23381000D03*
D19*
X60109000Y-25781000D03*
X59309000Y-25781000D03*
X58509000Y-25781000D03*
X57709000Y-25781000D03*
X56909000Y-25781000D03*
D20*
X55834000Y-20581000D03*
X61184000Y-20581000D03*
G04 #@! TD*
D21*
G04 #@! TO.C,D5*
X75337500Y-95250000D03*
D22*
X67537500Y-95250000D03*
D23*
X69862500Y-95250000D03*
X73012500Y-95250000D03*
G04 #@! TD*
D21*
G04 #@! TO.C,D4*
X84862500Y-76200000D03*
D22*
X77062500Y-76200000D03*
D23*
X79387500Y-76200000D03*
X82537500Y-76200000D03*
G04 #@! TD*
D21*
G04 #@! TO.C,D3*
X65812500Y-76200000D03*
D22*
X58012500Y-76200000D03*
D23*
X60337500Y-76200000D03*
X63487500Y-76200000D03*
G04 #@! TD*
D21*
G04 #@! TO.C,D2*
X84862500Y-57150000D03*
D22*
X77062500Y-57150000D03*
D23*
X79387500Y-57150000D03*
X82537500Y-57150000D03*
G04 #@! TD*
D21*
G04 #@! TO.C,D1*
X65812500Y-57150000D03*
D22*
X58012500Y-57150000D03*
D23*
X60337500Y-57150000D03*
X63487500Y-57150000D03*
G04 #@! TD*
G04 #@! TO.C,C8*
G36*
G01*
X69188250Y-35589500D02*
X68225750Y-35589500D01*
G75*
G02*
X67957000Y-35320750I0J268750D01*
G01*
X67957000Y-34783250D01*
G75*
G02*
X68225750Y-34514500I268750J0D01*
G01*
X69188250Y-34514500D01*
G75*
G02*
X69457000Y-34783250I0J-268750D01*
G01*
X69457000Y-35320750D01*
G75*
G02*
X69188250Y-35589500I-268750J0D01*
G01*
G37*
G36*
G01*
X69188250Y-37464500D02*
X68225750Y-37464500D01*
G75*
G02*
X67957000Y-37195750I0J268750D01*
G01*
X67957000Y-36658250D01*
G75*
G02*
X68225750Y-36389500I268750J0D01*
G01*
X69188250Y-36389500D01*
G75*
G02*
X69457000Y-36658250I0J-268750D01*
G01*
X69457000Y-37195750D01*
G75*
G02*
X69188250Y-37464500I-268750J0D01*
G01*
G37*
G04 #@! TD*
G04 #@! TO.C,C7*
G36*
G01*
X69188250Y-39399500D02*
X68225750Y-39399500D01*
G75*
G02*
X67957000Y-39130750I0J268750D01*
G01*
X67957000Y-38593250D01*
G75*
G02*
X68225750Y-38324500I268750J0D01*
G01*
X69188250Y-38324500D01*
G75*
G02*
X69457000Y-38593250I0J-268750D01*
G01*
X69457000Y-39130750D01*
G75*
G02*
X69188250Y-39399500I-268750J0D01*
G01*
G37*
G36*
G01*
X69188250Y-41274500D02*
X68225750Y-41274500D01*
G75*
G02*
X67957000Y-41005750I0J268750D01*
G01*
X67957000Y-40468250D01*
G75*
G02*
X68225750Y-40199500I268750J0D01*
G01*
X69188250Y-40199500D01*
G75*
G02*
X69457000Y-40468250I0J-268750D01*
G01*
X69457000Y-41005750D01*
G75*
G02*
X69188250Y-41274500I-268750J0D01*
G01*
G37*
G04 #@! TD*
G04 #@! TO.C,C6*
G36*
G01*
X87275750Y-31007000D02*
X88238250Y-31007000D01*
G75*
G02*
X88507000Y-31275750I0J-268750D01*
G01*
X88507000Y-31813250D01*
G75*
G02*
X88238250Y-32082000I-268750J0D01*
G01*
X87275750Y-32082000D01*
G75*
G02*
X87007000Y-31813250I0J268750D01*
G01*
X87007000Y-31275750D01*
G75*
G02*
X87275750Y-31007000I268750J0D01*
G01*
G37*
G36*
G01*
X87275750Y-29132000D02*
X88238250Y-29132000D01*
G75*
G02*
X88507000Y-29400750I0J-268750D01*
G01*
X88507000Y-29938250D01*
G75*
G02*
X88238250Y-30207000I-268750J0D01*
G01*
X87275750Y-30207000D01*
G75*
G02*
X87007000Y-29938250I0J268750D01*
G01*
X87007000Y-29400750D01*
G75*
G02*
X87275750Y-29132000I268750J0D01*
G01*
G37*
G04 #@! TD*
G04 #@! TO.C,C5*
G36*
G01*
X69188250Y-31809500D02*
X68225750Y-31809500D01*
G75*
G02*
X67957000Y-31540750I0J268750D01*
G01*
X67957000Y-31003250D01*
G75*
G02*
X68225750Y-30734500I268750J0D01*
G01*
X69188250Y-30734500D01*
G75*
G02*
X69457000Y-31003250I0J-268750D01*
G01*
X69457000Y-31540750D01*
G75*
G02*
X69188250Y-31809500I-268750J0D01*
G01*
G37*
G36*
G01*
X69188250Y-33684500D02*
X68225750Y-33684500D01*
G75*
G02*
X67957000Y-33415750I0J268750D01*
G01*
X67957000Y-32878250D01*
G75*
G02*
X68225750Y-32609500I268750J0D01*
G01*
X69188250Y-32609500D01*
G75*
G02*
X69457000Y-32878250I0J-268750D01*
G01*
X69457000Y-33415750D01*
G75*
G02*
X69188250Y-33684500I-268750J0D01*
G01*
G37*
G04 #@! TD*
G04 #@! TO.C,C4*
G36*
G01*
X87275750Y-40834500D02*
X88238250Y-40834500D01*
G75*
G02*
X88507000Y-41103250I0J-268750D01*
G01*
X88507000Y-41640750D01*
G75*
G02*
X88238250Y-41909500I-268750J0D01*
G01*
X87275750Y-41909500D01*
G75*
G02*
X87007000Y-41640750I0J268750D01*
G01*
X87007000Y-41103250D01*
G75*
G02*
X87275750Y-40834500I268750J0D01*
G01*
G37*
G36*
G01*
X87275750Y-38959500D02*
X88238250Y-38959500D01*
G75*
G02*
X88507000Y-39228250I0J-268750D01*
G01*
X88507000Y-39765750D01*
G75*
G02*
X88238250Y-40034500I-268750J0D01*
G01*
X87275750Y-40034500D01*
G75*
G02*
X87007000Y-39765750I0J268750D01*
G01*
X87007000Y-39228250D01*
G75*
G02*
X87275750Y-38959500I268750J0D01*
G01*
G37*
G04 #@! TD*
G04 #@! TO.C,C3*
G36*
G01*
X69188250Y-24000750D02*
X68225750Y-24000750D01*
G75*
G02*
X67957000Y-23732000I0J268750D01*
G01*
X67957000Y-23194500D01*
G75*
G02*
X68225750Y-22925750I268750J0D01*
G01*
X69188250Y-22925750D01*
G75*
G02*
X69457000Y-23194500I0J-268750D01*
G01*
X69457000Y-23732000D01*
G75*
G02*
X69188250Y-24000750I-268750J0D01*
G01*
G37*
G36*
G01*
X69188250Y-25875750D02*
X68225750Y-25875750D01*
G75*
G02*
X67957000Y-25607000I0J268750D01*
G01*
X67957000Y-25069500D01*
G75*
G02*
X68225750Y-24800750I268750J0D01*
G01*
X69188250Y-24800750D01*
G75*
G02*
X69457000Y-25069500I0J-268750D01*
G01*
X69457000Y-25607000D01*
G75*
G02*
X69188250Y-25875750I-268750J0D01*
G01*
G37*
G04 #@! TD*
G04 #@! TO.C,C2*
G36*
G01*
X73813750Y-23846500D02*
X74776250Y-23846500D01*
G75*
G02*
X75045000Y-24115250I0J-268750D01*
G01*
X75045000Y-24652750D01*
G75*
G02*
X74776250Y-24921500I-268750J0D01*
G01*
X73813750Y-24921500D01*
G75*
G02*
X73545000Y-24652750I0J268750D01*
G01*
X73545000Y-24115250D01*
G75*
G02*
X73813750Y-23846500I268750J0D01*
G01*
G37*
G36*
G01*
X73813750Y-21971500D02*
X74776250Y-21971500D01*
G75*
G02*
X75045000Y-22240250I0J-268750D01*
G01*
X75045000Y-22777750D01*
G75*
G02*
X74776250Y-23046500I-268750J0D01*
G01*
X73813750Y-23046500D01*
G75*
G02*
X73545000Y-22777750I0J268750D01*
G01*
X73545000Y-22240250D01*
G75*
G02*
X73813750Y-21971500I268750J0D01*
G01*
G37*
G04 #@! TD*
G04 #@! TO.C,C1*
G36*
G01*
X82904250Y-23016500D02*
X81941750Y-23016500D01*
G75*
G02*
X81673000Y-22747750I0J268750D01*
G01*
X81673000Y-22210250D01*
G75*
G02*
X81941750Y-21941500I268750J0D01*
G01*
X82904250Y-21941500D01*
G75*
G02*
X83173000Y-22210250I0J-268750D01*
G01*
X83173000Y-22747750D01*
G75*
G02*
X82904250Y-23016500I-268750J0D01*
G01*
G37*
G36*
G01*
X82904250Y-24891500D02*
X81941750Y-24891500D01*
G75*
G02*
X81673000Y-24622750I0J268750D01*
G01*
X81673000Y-24085250D01*
G75*
G02*
X81941750Y-23816500I268750J0D01*
G01*
X82904250Y-23816500D01*
G75*
G02*
X83173000Y-24085250I0J-268750D01*
G01*
X83173000Y-24622750D01*
G75*
G02*
X82904250Y-24891500I-268750J0D01*
G01*
G37*
G04 #@! TD*
M02*
