G04 #@! TF.GenerationSoftware,KiCad,Pcbnew,(5.1.6)-1*
G04 #@! TF.CreationDate,2020-06-17T17:46:59+02:00*
G04 #@! TF.ProjectId,Tutorial,5475746f-7269-4616-9c2e-6b696361645f,rev?*
G04 #@! TF.SameCoordinates,Original*
G04 #@! TF.FileFunction,Soldermask,Top*
G04 #@! TF.FilePolarity,Negative*
%FSLAX46Y46*%
G04 Gerber Fmt 4.6, Leading zero omitted, Abs format (unit mm)*
G04 Created by KiCad (PCBNEW (5.1.6)-1) date 2020-06-17 17:46:59*
%MOMM*%
%LPD*%
G01*
G04 APERTURE LIST*
%ADD10C,3.300000*%
%ADD11O,1.600000X4.100000*%
%ADD12C,1.700000*%
%ADD13R,1.700000X1.700000*%
G04 APERTURE END LIST*
D10*
G04 #@! TO.C,REF\u002A\u002A*
X50800000Y-33274000D03*
G04 #@! TD*
G04 #@! TO.C,REF\u002A\u002A*
X91948000Y-26162000D03*
G04 #@! TD*
G04 #@! TO.C,REF\u002A\u002A*
X91440000Y-94996000D03*
G04 #@! TD*
G04 #@! TO.C,REF\u002A\u002A*
X51308000Y-94488000D03*
G04 #@! TD*
G04 #@! TO.C,K5*
G36*
G01*
X72640786Y-85898409D02*
X72680234Y-85319752D01*
G75*
G02*
X74065644Y-84111182I1296990J-88420D01*
G01*
X74065644Y-84111182D01*
G75*
G02*
X75274214Y-85496592I-88420J-1296990D01*
G01*
X75234766Y-86075248D01*
G75*
G02*
X73849356Y-87283818I-1296990J88420D01*
G01*
X73849356Y-87283818D01*
G75*
G02*
X72640786Y-85898408I88420J1296990D01*
G01*
G37*
G36*
G01*
X66481629Y-87217826D02*
X67690553Y-85320196D01*
G75*
G02*
X69485451Y-84922276I1096409J-698489D01*
G01*
X69485451Y-84922276D01*
G75*
G02*
X69883371Y-86717174I-698489J-1096409D01*
G01*
X68674447Y-88614804D01*
G75*
G02*
X66879549Y-89012724I-1096409J698489D01*
G01*
X66879549Y-89012724D01*
G75*
G02*
X66481629Y-87217826I698489J1096409D01*
G01*
G37*
G04 #@! TD*
G04 #@! TO.C,K4*
G36*
G01*
X82165786Y-66848409D02*
X82205234Y-66269752D01*
G75*
G02*
X83590644Y-65061182I1296990J-88420D01*
G01*
X83590644Y-65061182D01*
G75*
G02*
X84799214Y-66446592I-88420J-1296990D01*
G01*
X84759766Y-67025248D01*
G75*
G02*
X83374356Y-68233818I-1296990J88420D01*
G01*
X83374356Y-68233818D01*
G75*
G02*
X82165786Y-66848408I88420J1296990D01*
G01*
G37*
G36*
G01*
X76006629Y-68167826D02*
X77215553Y-66270196D01*
G75*
G02*
X79010451Y-65872276I1096409J-698489D01*
G01*
X79010451Y-65872276D01*
G75*
G02*
X79408371Y-67667174I-698489J-1096409D01*
G01*
X78199447Y-69564804D01*
G75*
G02*
X76404549Y-69962724I-1096409J698489D01*
G01*
X76404549Y-69962724D01*
G75*
G02*
X76006629Y-68167826I698489J1096409D01*
G01*
G37*
G04 #@! TD*
G04 #@! TO.C,K3*
G36*
G01*
X63115786Y-66848409D02*
X63155234Y-66269752D01*
G75*
G02*
X64540644Y-65061182I1296990J-88420D01*
G01*
X64540644Y-65061182D01*
G75*
G02*
X65749214Y-66446592I-88420J-1296990D01*
G01*
X65709766Y-67025248D01*
G75*
G02*
X64324356Y-68233818I-1296990J88420D01*
G01*
X64324356Y-68233818D01*
G75*
G02*
X63115786Y-66848408I88420J1296990D01*
G01*
G37*
G36*
G01*
X56956629Y-68167826D02*
X58165553Y-66270196D01*
G75*
G02*
X59960451Y-65872276I1096409J-698489D01*
G01*
X59960451Y-65872276D01*
G75*
G02*
X60358371Y-67667174I-698489J-1096409D01*
G01*
X59149447Y-69564804D01*
G75*
G02*
X57354549Y-69962724I-1096409J698489D01*
G01*
X57354549Y-69962724D01*
G75*
G02*
X56956629Y-68167826I698489J1096409D01*
G01*
G37*
G04 #@! TD*
G04 #@! TO.C,K2*
G36*
G01*
X82165786Y-47861909D02*
X82205234Y-47283252D01*
G75*
G02*
X83590644Y-46074682I1296990J-88420D01*
G01*
X83590644Y-46074682D01*
G75*
G02*
X84799214Y-47460092I-88420J-1296990D01*
G01*
X84759766Y-48038748D01*
G75*
G02*
X83374356Y-49247318I-1296990J88420D01*
G01*
X83374356Y-49247318D01*
G75*
G02*
X82165786Y-47861908I88420J1296990D01*
G01*
G37*
G36*
G01*
X76006629Y-49181326D02*
X77215553Y-47283696D01*
G75*
G02*
X79010451Y-46885776I1096409J-698489D01*
G01*
X79010451Y-46885776D01*
G75*
G02*
X79408371Y-48680674I-698489J-1096409D01*
G01*
X78199447Y-50578304D01*
G75*
G02*
X76404549Y-50976224I-1096409J698489D01*
G01*
X76404549Y-50976224D01*
G75*
G02*
X76006629Y-49181326I698489J1096409D01*
G01*
G37*
G04 #@! TD*
G04 #@! TO.C,K1*
G36*
G01*
X63115786Y-47861909D02*
X63155234Y-47283252D01*
G75*
G02*
X64540644Y-46074682I1296990J-88420D01*
G01*
X64540644Y-46074682D01*
G75*
G02*
X65749214Y-47460092I-88420J-1296990D01*
G01*
X65709766Y-48038748D01*
G75*
G02*
X64324356Y-49247318I-1296990J88420D01*
G01*
X64324356Y-49247318D01*
G75*
G02*
X63115786Y-47861908I88420J1296990D01*
G01*
G37*
G36*
G01*
X56956629Y-49181326D02*
X58165553Y-47283696D01*
G75*
G02*
X59960451Y-46885776I1096409J-698489D01*
G01*
X59960451Y-46885776D01*
G75*
G02*
X60358371Y-48680674I-698489J-1096409D01*
G01*
X59149447Y-50578304D01*
G75*
G02*
X57354549Y-50976224I-1096409J698489D01*
G01*
X57354549Y-50976224D01*
G75*
G02*
X56956629Y-49181326I698489J1096409D01*
G01*
G37*
G04 #@! TD*
D11*
G04 #@! TO.C,J1*
X62159000Y-23381000D03*
X54859000Y-23381000D03*
G04 #@! TD*
D12*
G04 #@! TO.C,D5*
X75337500Y-95250000D03*
D13*
X67537500Y-95250000D03*
G04 #@! TD*
D12*
G04 #@! TO.C,D4*
X84862500Y-76200000D03*
D13*
X77062500Y-76200000D03*
G04 #@! TD*
D12*
G04 #@! TO.C,D3*
X65812500Y-76200000D03*
D13*
X58012500Y-76200000D03*
G04 #@! TD*
D12*
G04 #@! TO.C,D2*
X84862500Y-57150000D03*
D13*
X77062500Y-57150000D03*
G04 #@! TD*
D12*
G04 #@! TO.C,D1*
X65812500Y-57150000D03*
D13*
X58012500Y-57150000D03*
G04 #@! TD*
M02*
